<?xml version="1.0" encoding="UTF-8"?>
<svg id="Layer_2" data-name="Layer 2" xmlns="http://www.w3.org/2000/svg" viewBox="0 0 1086.02 881.99">
  <defs>
    <style>
      .cls-1 {
        fill: #1b1c21;
      }
    </style>
  </defs>
  <g id="Joe">
    <path id="Action" class="cls-1" d="M1084.87,622.31c-1.97-3.95-25.7-.99-56.36,0-21.75-3.95-61.3,0-84.04-47.45-22.74-47.46-52.41-200.71-105.8-233.35,.98-1.97-90.97-26.69-162.16,12.86-3.95,0-22.74-13.84-22.74-30.66s37.57-82.07,41.53-92.94c3.96-10.87,11.86-58.34,10.87-71.19,.98-6.92,55.38,21.75,59.33,21.75s22.74-2.96,37.57-4.95c14.82-1.97,56.35-39.56,69.21-45.48,12.86-5.94,21.76-.99,33.62-17.8,6.92-7.91,13.84-9.9,19.77-8.9,5.93,.99,5.93-13.84,4.94-16.81-1-2.96-4.95-5.92-12.85-8.89-7.91-2.97-15.82-9.89-15.82-9.89,0,0-20.76-6.92-35.6,25.7-2.96,5.94-36.57,13.84-41.53,13.84s-35.59-3.95-42.51,2.97c.98-4.94-1-24.72,3.95-29.66,2.96-3.95,29.88-59.23-53.4-80.08-15.82-3.96-59.32-3.96-67.24,65.26-5.93,1.97-77.11,17.8-116.67,104.81-13.84,22.74-28.67,50.43-32.62,76.13-7.92,22.74-24.72,43.5-22.74,63.28-5.52,3.46-32.73,5.98-51.68,35.78l-.53-.69c-.43,1.04-.76,1.88-1,2.37-2.13,4.47-23.75,31.4-30.38,31.52-35.84-.67-38.54,21.04-38.54,21.04,0,0,2.83,10.11,2.1,18.53-.72,8.42,.24,13.27,2.48,15.43,2.25,2.17,15.65,8.56,17.3,2.79,1.67-5.79,6.44-11.17,16.56-14.01,8.42-1.44,13.22-4.04,16.74-7.23,.29,4.02-.56,7.38-4.24,12.13-6.93,8.9-53.4,43.51-103.82,145.34-13.84,2.97-23.73,27.69-49.44,34.61-25.71,6.92-100.85,59.34-102.82,63.29-1.98,3.95-35.6,31.65-63.29,43.51-27.68,11.86-32.63,13.83-36.58,11.86-3.95-1.98-18.79-25.71-41.53,11.86-11.86,14.84-13.84,51.42-21.75,63.29-7.92,11.86,0,61.29,11.86,73.17,2.97,4.94,22.74,19.78,28.67-22.75,5.93-5.92,22.74-20.76,25.71-34.6,4.94-7.91,23.73-34.61,48.45-49.43,15.81-11.86,41.52-30.66,60.3-37.57,18.79-6.92,79.1-28.67,112.73-51.42,16.8-3.95,44.48-.99,72.17-34.61,27.69-32.63,123.59-79.1,161.17-169.08,15.82,2.97,121.61,54.38,253.11-46.46,6.93,1.97,22.75-6.94,28.68-1,5.94,5.94-13.84,59.32,47.46,88.01,7.92,3.95,34.6,72.18,38.56,84.04,3.96,11.87,11.88,44.5,11.88,55.37s-4.94,44.5,31.64,35.59c32.63-4.94,57.35-14.83,78.11-13.84,24.72,1,81.07-25.7,71.18-55.37Z"/>
  </g>
</svg>