<?xml version="1.0" encoding="UTF-8"?>
<svg id="Layer_2" data-name="Layer 2" xmlns="http://www.w3.org/2000/svg" viewBox="0 0 889.87 1089.99">
  <defs>
    <style>
      .cls-1 {
        fill: #2b2b2b;
      }
    </style>
  </defs>
  <g id="Layer_8" data-name="Layer 8">
    <path class="cls-1" d="M878.46,625.09c2.44-7.58,5.67-15.07,7.76-22.65,5.96-21.61,5.4-44.4-7.63-63.51-5.45-8-13.78-16.19-14.58-26.21-.86-10.68,2.92-22.31,4.65-32.76,1.09-6.61,2.12-13.34,2.85-20.11,.39-3.69,.7-7.39,.87-11.09,.6-12.93-.38-25.85-4.63-38.2-7.72-22.48-26.38-36.48-38.14-56.41,.66-.82,1.14-1.88,1.31-3.18,3.15-23.63,9.3-49.44-.92-72.31-3.18-7.09-7.77-12.19-13.4-16.25,.68-5.73-2.72-12.58-4.07-17.68-1.15-4.34-2.29-8.67-3.41-13.02-.39-1.53-.78-3.06-1.16-4.6-.84-3.36-1.67-6.72-2.46-10.1-1.05-4.49-2.06-8.98-3.1-13.47-2.03-8.78-4.15-17.57-6.8-26.19-.51-1.65-1.03-3.3-1.58-4.94-.64-1.9-1.32-3.79-2.02-5.67-.52-1.4-1.05-2.79-1.62-4.17-5.61-13.79-16.25-23.59-29.23-30.49-1.39-.74-2.8-1.45-4.24-2.12-.46-.22-.92-.42-1.38-.62-2.02-.88-4.01-1.62-6.02-2.25-.85-6.51-1.3-12.66-3.7-19.03-2.49-6.61-5.23-13.21-8.39-19.54-.2-.4-.39-.82-.59-1.22-.9-1.75-1.84-3.49-2.82-5.21-6.46-11.35-14.69-21.94-24.33-30.8-7.33-6.72-15.67-11.92-24.6-15.65-4.07-1.7-8.26-3.1-12.54-4.19-15.36-3.91-31.83-3.92-47.62-.22-3.47,.81-8.53,3.23-12.05,1.97-2.17-.77-3.94-3.49-5.36-5.09-2.86-3.24-5.65-6.19-9.07-8.89-11.5-9.07-24.54-14.19-39.22-9.7-5.48,1.68-10.91,4.89-16.72,3.14-7.07-2.13-13.5-6.61-20.39-9.29-13.04-5.05-28.16-4.42-40.75,1.6-12.05,5.77-21.24,16.33-26.93,28.05-1.46,3.02-2.92,6.26-4.21,9.61-2.93-9.95-7.17-19.64-14.44-26.93-11.73-11.71-28.08-15.83-44.41-14.3-12.96,1.2-27.55,3.91-37.45,12.88-2.81,2.55-5.03,5.58-7.11,8.71-8.62,2.91-19.79,1.23-28.74,2.52-11.92,1.71-23.88,3.1-35.8,4.85-19.51,2.87-40.18,7.71-58.2,17.18-16.47,8.67-29.93,21.53-43.84,33.74-2.01,1.76-4.03,3.51-6.06,5.22-1.63,1.38-3.27,2.74-4.93,4.07-10.57,8.48-21.53,16.3-30.37,26.62-8.77,10.26-14.05,22.67-18.16,35.33-1.91,5.88-4.25,11.64-6.14,17.49-.82,2.52-1.41,5-1.15,7.64,.12,1.26,.49,2.41,.85,3.56-1.35,5.19-3.19,10.11-6.24,14.65-3.37,5.02-7.89,9.17-11.21,14.22-6.41,9.74-3.34,18.57-1.24,29.13,1.79,9.02-.46,16.74-8.13,22.29-4.22,3.07-8.29,6.03-11.59,10.13-7.59,9.42-6.25,20.7-5.2,31.91,.31,3.27,.73,6.64,.86,9.99-2.64,4.8-3.58,9.7-3.1,14.57-2.03,3.49-4.82,6.57-7.62,9.58-8.71,9.42-15.32,18.95-20.43,30.75-5.08,11.74-9.12,24.67-9.01,37.56,.06,6.12,1.27,11.5,3.73,17.08,.38,.86,.69,1.68,.96,2.47,.35,4.6,.21,9.08,.64,13.53-.09,.04-.17,.09-.25,.13-2.46,1.19-4.77,2.64-6.94,4.28-7.73,5.85-13.66,14.21-18.06,22.59-6.85,13.11-12.33,28.43-11.34,43.36,.48,7.1,2.92,13.51,6.44,19.59,.47,.82,.97,1.63,1.48,2.44,1.12,1.78,2.46,3.62,3.8,5.51,1.54,2.17,3.09,4.41,4.37,6.72,.02,.18,.02,.36,.07,.54,.87,2.91,1.85,5.89,2.91,8.9,.03,1.11-.07,2.23-.33,3.37-1.72,7.59-7.3,14.06-10.06,21.31-3.19,8.37-3.39,17.83-2.18,26.59,1.03,7.39,3.31,14.81,7.87,20.87,4.62,6.15,12.64,10.34,16.48,16.95,4.33,7.46-2.39,18.46-5.4,25.47-.13,.31-.27,.62-.4,.93-3.08,7.13-6.33,14.22-8.81,21.56-1.08,3.2-2.01,6.45-2.71,9.77-3.68,17.44-1.12,37.79,6.66,53.97,3.97,8.29,11.48,13.61,17.55,20.3,7.03,7.76,13.23,16.6,17.84,25.95,8.53,17.3,3.83,38.38,6.27,56.99,2.17,16.59,6.92,32.58,20.06,43.59,1,1.75,2.74,3.1,4.69,3.49,6.75,4.49,14.35,7.72,21.86,10.75,2.6,1.05,5.32,2.03,7.98,3.12,3.19,2.75,6.87,4.96,10.59,7.16,.9,.53,1.78,1.06,2.66,1.59,.24,.3,.49,.61,.73,.92,8.91,12.41,5.99,30.38,10.84,44.31,2.12,6.1,5.42,12.15,11.13,15.69,8.28,5.14,19.06,2.34,27.02,7.77,6.21,4.24,10.86,11.07,15.13,17.58,1.4,2.13,2.75,4.22,4.11,6.18,.15,.22,.31,.45,.47,.67,4.87,7.01,9.92,14.05,16.26,19.87,15.18,13.91,36.74,20.6,56.34,26.04,21.56,5.98,43.97,9.62,66.19,12.38,35.8,4.46,81.94-4.6,96.66-41.13,3.39-8.42,6.46-18.11,5.82-27.21-.03-.28-.07-.55-.09-.83,1.1-5.77,1.86-11.62,2.48-17.48,.65-6.3,1.29-12.61,1.73-18.93,.51-7.11-.8-15.9,2.49-22.46,.6-1.18,1.29-2.33,2.02-3.45,1.59,13.85,5.04,27.53,6.68,41.55,1.08,9.37,3.35,18.52,4.71,27.85,1.31,9-.86,18.04,.13,27.12,1.98,18.31,14.12,32.46,33.35,34.57,9.68,1.05,18.88-1.34,28.44-2.19,10-.9,18.7,2.5,27.73,6.26,16.41,6.82,33.95,10.9,51.48,5.5,14.67-4.51,26.93-14.15,37.61-24.68,11.38-11.23,21.34-23.89,33.48-34.39,7.75-6.69,16.57-11.94,25.09-17.61,8.68-5.79,17.01-11.49,26.24-16.45,3.75-2.01,7.23-4.2,10.5-6.54,3.06-2.2,5.93-4.55,8.61-7.06,8.31-7.77,14.87-17.02,20.17-27.99,7.94-16.44,10.34-33.84,16.11-50.91,5.86-17.32,18.74-25.46,32.22-36.15,1.05-.83,2.11-1.68,3.17-2.55,1.96-1.61,3.85-3.28,5.67-5,11.79-11.13,20.46-24.49,23.68-40.67,1.97-9.85,2.22-19.41,.16-29.26-.85-4.09-2.22-8.19-1.42-12.41,.97-5.14,4.57-9.83,7.65-13.94,5.15-6.88,11.32-12.98,16.09-20.14,5.44-8.14,9.99-17.1,13.2-26.31,6.08-17.42,8.79-37.25,2.3-54.83-2.97-8.05-7.48-16.32-6.36-25.04,.06-.45,.12-.89,.21-1.34,.6-3.07,1.46-6.11,2.44-9.15Zm-434.37,180.63c-.43,14.89-1.66,29.78-1.09,44.69,.08,2,.13,4,.17,6,.04,2,.06,4,.07,5.99,.03,5.99-.05,11.97-.11,17.94-.02,1.99-.04,3.99-.05,5.98s-.02,3.99-.02,5.99c0,2,.02,3.99,.04,5.99,.01,.92,.05,1.85,.1,2.78,.05,.85,.11,1.7,.17,2.55,.04,.49,.08,.98,.11,1.48,.07,.88,.14,1.77,.21,2.66,.04,.52,.07,1.04,.1,1.56,.05,.91,.1,1.82,.12,2.73,.02,.91,.02,1.81-.01,2.71-.02,.46-.04,.91-.07,1.36-.06,.91-.16,1.81-.31,2.7-.07,.45-.15,.89-.25,1.33-.17,.78-.38,1.54-.63,2.3-.29,.87-.63,1.72-1,2.57-1.31,3-3.04,5.88-4.54,8.81-.64,1.26-1.25,2.53-1.75,3.82-.43,1.1-.8,2.22-1.13,3.33-2.12,7.02-2.52,14.29-2.52,21.59,0,0,0,.01,0,.02,0,1.67,.02,3.34,.04,5.01,.03,2.56,.07,5.12,.05,7.68,0,.84-.02,1.69-.03,2.53-.91-.58-1.86-1.11-2.82-1.65-.95-.54-1.91-1.08-2.82-1.69-.61-.41-1.19-.84-1.74-1.33-1.4-1.23-2.69-2.59-3.91-4.02-.41-.48-.81-.96-1.2-1.45-.79-.98-1.55-1.97-2.31-2.96-.76-.99-1.51-1.99-2.26-2.96-5.87-7.56-11.77-14.23-21.03-17.76-5.72-2.18-11.62-2.99-17.6-3.34-1.49-.09-2.99-.15-4.49-.19-1.5-.05-3-.08-4.5-.11-.75-.02-1.5-.03-2.25-.05-2.25-.05-4.51-.12-6.75-.26-3.85-.23-7.39-.83-10.69-1.85-3.3-1.02-6.35-2.44-9.2-4.33-1.9-1.26-3.72-2.71-5.46-4.39-.5-.48-.99-.98-1.47-1.49-.49-.52-.96-1.05-1.44-1.6h0s-.05-.04-.07-.06c-.18-.2-.38-.38-.58-.52-1.62-1.15-3.83-.6-5.19,.7-.02,.02-.03,.04-.05,.05-.32,.32-.6,.67-.8,1.06-.21,.41-.34,.84-.37,1.3-.04,.68,.14,1.39,.64,2.08,1.46,2.04,2.97,4.05,4.56,5.96,4.77,5.75,10.3,10.67,17.71,13.25,1.1,.38,2.21,.7,3.33,.99,1.45,.37,2.92,.68,4.39,.93,5.16,.87,10.42,1.08,15.66,1.41,2.99,.19,5.98,.42,8.93,.84,2.21,.32,4.41,.74,6.58,1.33,3.96,1.08,7.17,2.9,9.96,5.18,.93,.76,1.81,1.57,2.65,2.42,4.35,4.37,7.76,9.81,11.86,14.86,.61,.75,1.23,1.48,1.87,2.2,1.9,2.16,3.93,4.17,6.18,5.99,2.09,1.68,4.77,2.27,6.95,3.79,.86,.6,1.62,1.34,2.28,2.15,.25,.31,.49,.63,.71,.96,.22,.33,.43,.66,.62,1.01,.04,.07,.09,.14,.13,.22,0,.01,.01,.02,.02,.04,.29,.56,.55,1.13,.77,1.71,.52,1.38,.85,2.77,1.05,4.18,.06,.47,.11,.94,.14,1.41,.04,.63,.06,1.26,.06,1.89,0,2.52-.35,5.06-.78,7.58-.86,5.1-2,10.17-3.64,15.09-.39,1.18-.82,2.36-1.27,3.53-.68,1.75-1.44,3.47-2.27,5.15-3.05,6.16-7.13,11.77-12.56,16.1-.48,.38-.97,.76-1.46,1.12-.49,.36-1,.71-1.5,1.05-7.36,4.88-15.93,8.1-24.83,10.06-1.11,.25-2.23,.47-3.35,.68-2.24,.41-4.5,.75-6.76,1.02-3.38,.4-6.77,.64-10.11,.75-2.23,.07-4.43,.08-6.61,.03-2.65-.06-5.31-.17-7.97-.33-9.32-.56-18.68-1.72-27.97-3.27-2.65-.44-5.3-.91-7.94-1.41-1.32-.25-2.64-.51-3.95-.77-2.63-.52-5.25-1.07-7.85-1.64-2.6-.57-5.19-1.15-7.77-1.75-1.24-.29-2.5-.58-3.76-.88-3.79-.9-7.64-1.84-11.52-2.87-5.17-1.37-10.38-2.88-15.51-4.59-1.28-.43-2.56-.87-3.83-1.32-8.88-3.18-17.42-7.04-24.96-11.92-4.61-2.98-8.55-6.6-12.12-10.58-.72-.8-1.42-1.6-2.1-2.43-2.75-3.28-5.31-6.76-7.82-10.27-.42-.59-.84-1.19-1.27-1.78-.38-.54-.77-1.08-1.15-1.62-.89-1.26-1.79-2.51-2.68-3.76-.31-.43-.63-.84-.94-1.27-1.77-2.42-3.56-4.81-5.46-7.1-2.06-2.48-4.28-5.01-6.73-7.28-.7-.65-1.42-1.28-2.15-1.89-2.58-2.11-5.4-3.9-8.51-5.09-1.31-.5-2.71-.85-4.15-1.12-.29-.05-.58-.11-.87-.15-1.16-.19-2.35-.35-3.54-.49-4.47-.54-8.99-.95-12.55-3.04-.47-.28-.93-.59-1.37-.93-1.1-.86-2.07-1.92-2.88-3.27-1.72-2.86-2.91-5.94-3.78-9.15-1.95-7.22-2.28-15.11-3.41-22.64-.38-2.51-.84-4.98-1.49-7.37,4.13,.5,7.75,.2,11-.69,.81-.22,1.6-.48,2.37-.77,1.54-.58,3-1.3,4.4-2.13,.49-.29,.97-.6,1.45-.91,.55-.36,1.08-.73,1.61-1.12,1.99-1.47,3.87-3.13,5.73-4.92,.93-.89,1.85-1.81,2.77-2.75,.77-.78,1.54-1.57,2.31-2.37,.78-.81,1.57-1.62,2.37-2.44,.31-.32,.63-.64,.94-.96,1.19-1.2,2.42-2.14,3.68-2.85,5.86-3.32,12.3-1.64,18.66,1.62,.91,.47,1.81,.96,2.71,1.48,1.35,.78,2.69,1.61,4.02,2.46,.88,.56,1.76,1.14,2.63,1.7,.43,.28,.87,.57,1.3,.85,.86,.56,1.71,1.12,2.55,1.66,1.26,.81,2.48,1.57,3.68,2.27,.8,.46,1.58,.89,2.34,1.28,1.41,.72,2.86,1.39,4.34,1.99,.58,.24,1.16,.47,1.75,.68,2.51,.89,5.09,1.51,7.71,1.65,.44,.02,.87,.03,1.31,.03,1.76-.02,3.53-.27,5.3-.82,2.07-.64,4.02-1.72,5.86-3.04,.74-.53,1.45-1.1,2.15-1.7,.53-.45,1.05-.93,1.56-1.41,1.01-.95,1.99-1.93,2.93-2.92,.47-.49,.93-.98,1.38-1.47,.91-.98,1.78-1.94,2.63-2.85,2.15-2.29-.44-6.44-3.47-4.63-.88,.52-1.72,1-2.54,1.43-1.23,.64-2.4,1.18-3.55,1.6-1.15,.42-2.29,.73-3.44,.93-.38,.07-.77,.12-1.16,.16-2.72,.29-5.59-.05-9.07-1.04-6.88-1.97-12.78-5.7-19.03-9.04-5.05-2.7-10.44-5.66-16.03-7.54-3.45-1.16-6.98-1.93-10.55-1.95-1.34,0-2.68,.08-4.03,.3-.77,.12-1.54,.28-2.31,.48s-1.55,.44-2.32,.73c-.7,.26-1.38,.56-2.03,.88-3.9,1.94-6.9,4.93-9.73,8.09-4.24,4.74-8.1,9.87-14.01,12.46-.46,.2-.92,.38-1.37,.52-1.37,.44-2.71,.66-4.04,.7-5.33,.16-10.43-2.49-15.55-4.33-.27-.1-.54-.2-.82-.3-.27-.1-.55-.2-.82-.3-2.85-2.29-6.05-4.23-9.52-5.97-2.49-1.24-5.11-2.39-7.86-3.49-6.96-2.75-13.62-5.57-19.52-9.09,5.11-7.93,7.42-17.43,8.42-26.83,.08-.75,.15-1.51,.22-2.26,.06-.67,.11-1.35,.15-2.02,.26-3.81,.38-7.67,.34-11.53,0-.96-.03-1.93-.06-2.89-.09-2.89-.27-5.78-.56-8.63-.29-2.93-1.1-6.04-1.88-9.21-.13-.53-.26-1.06-.39-1.58-.09-.4-.19-.79-.28-1.19-.18-.79-.35-1.59-.5-2.38s-.28-1.58-.38-2.37c-.1-.79-.18-1.57-.22-2.34-.02-.39-.03-.77-.03-1.16,0-1.54,.16-3.04,.55-4.49,3.32-12.48,20.74-7.74,30.36-11.77,.31-.13,.61-.27,.91-.42,3.46-1.76,6.46-4.16,8.87-6.98,.96-1.13,1.83-2.33,2.6-3.59,1.15-1.88,2.07-3.89,2.72-5.98,.88-2.79,1.29-5.72,1.19-8.7-.05-1.49-.24-2.99-.56-4.49-.32-1.46-1.29-2.26-2.41-2.51-.37-.09-.77-.11-1.16-.08-.22,.02-.45,.05-.67,.11-.44,.11-.86,.28-1.24,.52s-.72,.54-.99,.9c-.4,.54-.65,1.2-.64,1.97,0,.26,.03,.52,.09,.8,.22,1.03,.34,1.99,.37,2.88,.05,1.57-.2,2.94-.68,4.15-.2,.52-.43,1.02-.72,1.48-.15,.24-.31,.47-.47,.7-5.05,6.72-19.09,6.72-26.83,7.64-.26,.03-.51,.06-.75,.09-3.56,.48-6.92,1.44-9.92,2.88-.6,.29-1.18,.6-1.75,.92-1.14,.65-2.21,1.39-3.21,2.2-3.5,2.84-6.1,6.63-7.37,11.41-.18,.68-.33,1.39-.46,2.11-.27,1.57-.42,3.15-.47,4.73,0,.05,0,.09,0,.14-.06,1.99,.04,3.98,.23,5.98,.78,7.99,3.17,16.04,3.94,24.02,.06,.66,.12,1.33,.16,1.99,.05,.82,.08,1.63,.08,2.45,0,.71,0,1.42,0,2.15,0,.73,0,1.46-.02,2.21-.04,2.97-.15,6.07-.42,9.19-.07,.78-.15,1.56-.24,2.34-.27,2.34-.64,4.67-1.15,6.95-.25,1.14-.54,2.27-.87,3.38-.33,1.11-.7,2.2-1.11,3.27-.82,2.14-1.82,4.18-3.03,6.08-1.33-1.32-2.57-2.73-3.72-4.24-.38-.5-.75-1.02-1.11-1.55-.96-1.41-1.85-2.9-2.64-4.48-1.2-2.38-2.2-4.97-2.98-7.81-1.8-6.58-2.65-13.11-3.05-19.64-.07-1.09-.12-2.18-.17-3.27-.42-9.81-.05-19.64-.67-29.66-.42-6.74-1.9-13.02-4.19-18.98-3.81-9.93-9.83-18.95-16.8-27.66-2.6-3.25-5.63-6.15-8.65-9.04-1.5-1.44-3-2.89-4.44-4.38-.06-.06-.12-.13-.17-.19-.96-1.01-1.88-2.05-2.78-3.11-.39-.46-.78-.91-1.15-1.39-.93-1.2-1.76-2.51-2.5-3.88-.25-.46-.48-.92-.71-1.39-.29-.59-.56-1.18-.82-1.79-.34-.8-.66-1.61-.96-2.43-.21-.58-.4-1.16-.59-1.75-.38-1.18-.71-2.37-1.02-3.57-.46-1.8-.85-3.62-1.19-5.41-.46-2.39-.83-4.74-1.16-6.97-.48-3.22-.68-6.36-.65-9.45,.04-4.32,.54-8.52,1.37-12.66,.97-4.88,2.4-9.66,4.06-14.42,.3-.85,.6-1.7,.91-2.54,.77-2.11,1.58-4.21,2.41-6.32,.69-1.75,1.39-3.5,2.09-5.25,.32-.8,.64-1.59,.96-2.39,.51-1.28,1.02-2.56,1.53-3.85,.6-1.54,1.17-3.04,1.7-4.53,.86-2.38,1.62-4.71,2.21-6.98,.5,.96,.99,1.94,1.45,2.95,1.45,3.12,2.73,6.45,3.73,9.74,.2,.65,.39,1.3,.57,1.95,.53,1.94,.97,3.84,1.27,5.66,.08,.5,.17,.99,.25,1.48,.17,.98,.34,1.96,.52,2.92,.54,2.89,1.15,5.69,2.05,8.41,1.05,3.17,2.47,6.22,4.59,9.17,.72,.99,1.48,1.93,2.27,2.82,.79,.89,1.62,1.74,2.49,2.54,.68,1.06,1.37,2.1,2.06,3.13,.52,.77,1.04,1.54,1.56,2.3,1.56,2.28,3.09,4.49,4.45,6.63,2.8,4.39,5.79,8.65,8.61,13.01,1.13,1.74,2.23,3.51,3.28,5.3,.52,.9,1.04,1.8,1.53,2.72,1.17,2.17,2.28,4.34,3.39,6.5,2.21,4.31,4.4,8.55,7.06,12.59,1.33,2.02,2.77,3.99,4.39,5.89,.1,.12,.2,.23,.31,.32,1.17,1.08,2.68,.97,3.83,.22,.42-.27,.79-.62,1.09-1.04,.11-.15,.2-.31,.29-.47,.25-.49,.4-1.04,.39-1.6,0-.19-.02-.38-.06-.57-.63-3.19-1.48-6.41-2.52-9.64-1.04-3.22-2.27-6.44-3.66-9.61-.8-1.81-1.64-3.61-2.54-5.38-.39-.77-.79-1.54-1.2-2.31-2.87-5.35-6.17-10.43-9.74-15h0c1.13,.47,2.24,.95,3.37,1.42,1.12,.47,2.25,.94,3.37,1.42,2.55,1.1,4.84,2.34,6.96,3.71,2.84,1.83,5.39,3.88,7.93,6.16,.63,.57,1.27,1.15,1.9,1.75,.39,.36,.78,.73,1.17,1.1,.57,.54,1.13,1.09,1.71,1.65,.33,.32,.67,.64,1.02,.96,1.38,1.26,2.83,2.46,4.17,3.76,.34,.32,.66,.65,.98,.99,.64,.67,1.24,1.38,1.78,2.14,1.04,1.45,1.81,3.04,2.43,4.7,1.03,2.77,1.62,5.73,2.26,8.56,.23,1.01,.75,1.81,1.44,2.4,.23,.2,.48,.37,.75,.52,.13,.08,.27,.15,.41,.21,.24,.11,.5,.2,.76,.28,.18,.05,.37,.1,.56,.14,.3,.06,.61,.1,.93,.11,.16,0,.31,.01,.47,0,.16,0,.31-.01,.46-.03,.15-.01,.31-.03,.46-.06,2.12-.35,3.96-1.76,3.97-4.15,0-.17,0-.35-.03-.53-.43-4.04-.88-8.11-1.92-11.99-.23-.86-.49-1.72-.79-2.56-.15-.42-.31-.84-.47-1.26-.67-1.66-1.5-3.28-2.53-4.83-2.1-3.15-4.65-6.25-7.39-9.18-2.74-2.93-5.68-5.69-8.57-8.14-2.85-2.42-5.99-4.34-9.27-6.03-1.64-.84-3.32-1.62-5.02-2.37-3.4-1.5-6.86-2.88-10.25-4.38-5.08-2.25-9.99-4.78-14.22-8.42-2.18-1.87-3.73-3.89-4.9-6.03-.7-1.29-1.25-2.62-1.72-4-1.23-3.67-1.8-7.64-2.61-11.83-.45-2.32-1.1-4.61-1.92-6.85-.81-2.24-1.79-4.44-2.87-6.58-1.69-3.33-3.65-6.54-5.72-9.58-.14-.2-.28-.41-.42-.61-1.5-2.2-3.11-4.43-4.81-6.6-.73-.93-1.47-1.85-2.23-2.75-1.09-1.28-2.21-2.53-3.37-3.73-.58-.6-1.17-1.19-1.76-1.76-.33-.58-.7-1.15-1.09-1.73-1.18-1.72-2.62-3.43-4.39-5.12-.87-.84-1.72-1.66-2.55-2.47-5.82-5.66-10.54-10.74-12.38-19.33-.5-2.31-.84-4.66-1-7.02-.12-1.77-.15-3.55-.07-5.33,.08-1.77,.27-3.54,.57-5.29,.3-1.75,.72-3.47,1.26-5.16,.54-1.69,1.2-3.34,1.99-4.94,.79-1.59,1.65-3.15,2.52-4.7,.52-.93,1.05-1.86,1.57-2.78,.32,.67,.64,1.32,.96,1.98,.66,1.37,1.33,2.72,2.02,4.03,.83,1.6,1.76,3.11,2.75,4.56,.37,.55,.76,1.08,1.15,1.61,1.32,1.76,2.76,3.42,4.3,4.96,.46,.46,.93,.91,1.41,1.35,4.93,4.53,10.81,8.06,17.25,10.74,7.44,3.1,15.06,5.67,22.71,8.14,2.79,.9,5.58,1.79,8.37,2.69,3.13,1.01,6.25,2.02,9.37,3.08,1.63,.56,3.46,1.09,5.33,1.68,.37,.12,.75,.24,1.13,.36,.47,.15,.95,.31,1.42,.48,.65,.23,1.3,.46,1.94,.71,.37,.14,.73,.29,1.09,.44,1.43,.61,2.79,1.29,3.98,2.09,.6,.4,1.16,.83,1.66,1.29,1.37,1.24,2.51,2.69,3.51,4.24,.5,.78,.98,1.57,1.41,2.39,.46,.88,.87,1.78,1.26,2.7,.71,1.64,1.33,3.31,1.9,4.95,2.52,7.23,4.25,14.57,6.2,21.97,.1,.39,.22,.77,.34,1.16,.36,1.16,.77,2.31,1.15,3.47,.51,1.54,.98,3.09,1.2,4.67,.01,.1,.02,.19,.03,.29,.48,3.7,.18,7.63,.3,11.35,.11,3.28,.38,6.43,.89,9.45,.17,1.01,.37,2,.6,2.98,.19,.83,.4,1.65,.63,2.45,.31,1.07,.68,2.12,1.09,3.16,.47,1.21,1.01,2.4,1.61,3.57,.47,.91,.97,1.81,1.54,2.7,.76,1.19,1.6,2.36,2.53,3.5,.94,1.14,1.96,2.25,3.09,3.34,2.87,2.76,5.88,5.37,8.95,7.9,1.23,1.01,2.46,2.02,3.7,3.01,1.24,1,2.48,1.99,3.71,2.98,3.09,2.47,6.15,4.94,9.1,7.49,1.18,1.02,2.34,2.05,3.47,3.1,2.27,2.1,4.44,4.27,6.46,6.56,1.33,1.5,2.59,3.05,3.77,4.66,.79,1.08,1.54,2.18,2.26,3.31,1.07,1.7,2.06,3.47,2.95,5.32,.42,.88,.82,1.78,1.2,2.7,.75,1.84,1.4,3.76,1.95,5.77,.27,1.01,.52,2.03,.73,3.08,.55,2.68,1.07,5.44,1.51,8.24,.74,4.67,1.27,9.45,1.36,14.21,.03,1.66,0,3.33-.08,4.98,0,.08-.01,.17-.02,.25-.06,1.03-.14,2.06-.25,3.09-.33,3.07-.9,6.1-1.77,9.03-1.6,5.34-4.59,8.19-8.11,9.16-.54,.15-1.1,.25-1.66,.32-.28,.03-.57,.05-.85,.06-1.68,.06-3.44-.25-5.17-.85-.21-.07-.41-.14-.62-.22-.74-.29-1.47-.63-2.2-1.02-.26-.14-.53-.29-.79-.45-.39-.23-.77-.47-1.15-.73-.18-.12-.35-.24-.52-.37-1.1-.79-2.15-1.69-3.14-2.69-.53-.53-1.03-1.1-1.51-1.68-.57-.69-1.18-1.14-1.81-1.39-.38-.15-.76-.23-1.14-.25-.25-.01-.5,0-.75,.05-.49,.08-.98,.26-1.42,.53-.22,.13-.44,.28-.64,.45-.31,.25-.59,.54-.84,.86-.5,.64-.88,1.4-1.07,2.21-.09,.4-.14,.82-.13,1.24,0,.56,.12,1.12,.34,1.67,.51,1.27,1.12,2.49,1.82,3.65,.7,1.16,1.48,2.26,2.34,3.29,5.16,6.2,13.07,9.94,21.6,9.17,4.14-.37,7.78-1.79,10.9-3.94,1.04-.72,2.02-1.51,2.94-2.37,.85-.8,1.65-1.65,2.39-2.56,4.61,4.87,10.9,8.52,17.46,11.33,5.1,2.18,10.36,3.85,15.11,5.18,2.2,.62,4.44,1.1,6.67,1.61,2.23,.51,4.46,1.05,6.61,1.78,1.07,.36,2.1,.8,3.11,1.27,.78,.37,1.56,.75,2.32,1.16,1.73,.95,3.41,2,5.07,3.07,1.11,.71,2.22,1.43,3.34,2.14,3.02,1.9,6.17,3.79,9.5,5.19,2,.84,4.06,1.51,6.21,1.91,3.25,.6,6.58,.48,9.9,.45,.27,.34,.57,.64,.91,.91h0c-.55,.65-1.11,1.28-1.66,1.92-.63,.73-1.26,1.47-1.83,2.24-.74,.97-1.38,1.98-1.95,3.01-.7,1.28-1.25,2.61-1.69,3.98-.63,1.95-1.03,3.99-1.19,6.13-.18,2.44-.09,4.9,.19,7.38,.11,.99,.25,1.98,.41,2.97,.08,.5,.17,.99,.26,1.49,1.23,6.6,3.37,13.2,4.76,19.52,.46,2.08,.92,4.17,1.35,6.25,.13,.64,.26,1.29,.39,1.93,.16,.77,.32,1.54,.46,2.32,.22,1.17,.43,2.34,.62,3.51,.23,1.39,.43,2.79,.61,4.18,.13,.96,.25,1.92,.35,2.88,.24,2.37,.4,4.74,.44,7.14,.17,10.47-1.31,18.26-9.34,25.38-.91,.81-1.76,1.63-2.53,2.48-1.73,1.92-3.08,3.99-3.96,6.44-.29,.82-.53,1.68-.72,2.59-.07,.33-.12,.66-.17,.99-.1,.66-.16,1.32-.2,1.98-.04,.66-.06,1.31-.07,1.97,0,.33,0,.66-.01,.99,0,.65-.01,1.29-.03,1.94-.04,1.25-.13,2.49-.36,3.72-.02,.11-.04,.21-.07,.32-.16,.77-.39,1.53-.71,2.29-.18,.44-.38,.88-.62,1.32-1.96,3.54-4.94,4.85-8.28,4.87-.3,0-.61,0-.92-.03-.62-.04-1.25-.12-1.88-.23-.95-.17-1.92-.42-2.89-.73-1.61-.51-3.23-1.19-4.79-1.95-.62-.3-1.24-.62-1.84-.94-.3-.16-.6-.32-.89-.49-.7-.39-1.37-.78-2.02-1.17-1.27-.76-2.43-1.51-3.44-2.17-1.93-1.27-3.8-2.62-5.66-3.99-2.15-1.6-4.27-3.23-6.42-4.83-1.17-.87-2.34-1.74-3.53-2.57-.33-.23-.66-.46-1-.69-1.46-1-2.95-1.97-4.48-2.87-.57-.34-1.15-.66-1.73-.98-1.17-.64-2.36-1.23-3.59-1.78-2.34-1.04-5-2.19-7.77-3.03-.92-.28-1.85-.52-2.79-.72-3.74-.78-7.53-.76-10.83,1.03-.21,.11-.4,.23-.58,.36-.73,.5-1.28,1.09-1.66,1.74-.19,.32-.34,.66-.45,1-.17,.52-.25,1.05-.25,1.58,0,.18,0,.36,.02,.54,.06,.71,.26,1.42,.56,2.08,.23,.49,.51,.96,.85,1.39,.23,.28,.48,.55,.75,.79,.81,.72,1.8,1.22,2.9,1.37,1.1,.15,2.31-.05,3.55-.73,.5-.28,1.18-.35,1.98-.29,.26,.02,.54,.06,.83,.11,.57,.1,1.18,.26,1.81,.46,.63,.19,1.28,.43,1.92,.68,.65,.25,1.29,.53,1.91,.81,.93,.42,1.8,.84,2.56,1.22,.75,.38,1.38,.7,1.82,.92,1.12,.56,2.21,1.18,3.27,1.84,2.12,1.32,4.14,2.8,6.14,4.29,1,.75,2,1.51,3.01,2.25,1.12,.84,2.27,1.7,3.43,2.56,6.17,4.6,12.87,9.42,20.09,12.45,2.86,1.2,5.8,2.12,8.81,2.63,2.78,.47,5.52,.44,8.11-.07,.87-.17,1.71-.39,2.54-.66,1.11-.36,2.18-.82,3.21-1.36,0,.03,.02,.07,.03,.09,.8,2.02,1.84,3.93,2.96,5.78,.68,1.11,1.38,2.2,2.09,3.29,.83,1.29,1.65,2.58,2.5,3.85,.85,1.27,1.72,2.52,2.67,3.73,.44,.56,.88,1.11,1.34,1.66,.91,1.09,1.86,2.14,2.85,3.16,.99,1.02,2.01,2,3.08,2.94,1.6,1.41,3.27,2.72,5.03,3.92,2.57,1.76,5.3,3.26,8.14,4.46,.57,.24,1.14,.47,1.72,.69,4.59,1.73,9.44,2.71,14.37,2.86,.65,.02,1.3,.03,1.96,.01,.62-.01,1.25-.03,1.87-.07,.12,0,.24-.02,.36-.03,1.96-.13,3.85-.39,5.69-.75,1.16-.23,2.29-.49,3.41-.79,3.8-1.02,7.4-2.43,10.97-4.01,.41-.18,.82-.36,1.22-.55,1.77-.8,3.54-1.64,5.32-2.48,2-.94,4.02-1.89,6.09-2.81,1.43-.63,2.88-1.18,4.36-1.65,7.4-2.35,15.37-2.7,23.01-1.33,3.06,.55,6.07,1.37,8.97,2.45,1.1,.41,2.08,.46,2.91,.26,.28-.07,.54-.16,.79-.29,.37-.18,.7-.42,.99-.7,.87-.85,1.39-2.09,1.49-3.41,.01-.15,.02-.29,.02-.44,0-.29-.02-.59-.06-.88-.09-.59-.26-1.17-.53-1.71-.13-.27-.29-.53-.47-.78-.27-.37-.6-.72-.98-1.02-.52-.42-1.06-.81-1.6-1.18-7.08-4.84-15.76-6.05-24.32-5.67-1.32,.06-2.63,.15-3.94,.28-1.38,.13-2.72,.33-4.03,.58-3.26,.63-6.31,1.59-9.27,2.74-1.78,.69-3.53,1.44-5.28,2.23-1.17,.53-2.33,1.07-3.51,1.61-2.35,1.09-4.74,2.21-7.22,3.26-11.19,4.74-23.82,3.58-34.55-1.81-3.77-1.89-7.28-4.27-10.47-7.02-.79-.68-1.51-1.33-2.2-1.99-.25-.24-.49-.48-.72-.73-.59-.62-1.15-1.28-1.69-2-.07-.1-.15-.2-.22-.3-.16-.23-.33-.46-.49-.7-.18-.27-.36-.55-.53-.83-.38-.58-.75-1.17-1.11-1.77-1-1.63-1.94-3.3-2.78-5.02-.72-1.46-1.42-3.1-1.33-4.76,.01-.2,.03-.4,.07-.61,.06-.4,.16-.8,.29-1.2,.12-.39,.27-.79,.42-1.17s.32-.77,.47-1.15c.08-.19,.15-.38,.23-.57,.25-.65,.47-1.31,.68-1.97,.61-1.99,1.01-4.06,1.17-6.13,.08-1.02,.08-2,.08-2.95,0-.48,0-.95,0-1.42,0-.47,.03-.93,.06-1.38,.05-.69,.15-1.36,.32-2.03,.16-.63,.38-1.25,.69-1.87,.1-.21,.22-.41,.34-.62,.17-.28,.35-.56,.56-.83,.25-.34,.53-.66,.83-.97,.51-.54,1.06-1.05,1.62-1.55,.56-.5,1.12-.99,1.65-1.5,.32-.3,.63-.61,.92-.93,6.52-7.33,8.54-16.89,8.57-26.79,0-1.24-.02-2.48-.07-3.72s-.13-2.49-.23-3.73c-.47-5.83-1.4-11.62-2.28-16.99-.25-1.5-.49-2.97-.72-4.4-.11-.67-.23-1.36-.35-2.04-.21-1.14-.46-2.31-.71-3.48-.09-.4-.17-.79-.26-1.19-.24-1.1-.5-2.21-.75-3.33-.4-1.76-.81-3.54-1.19-5.33-.75-3.5-1.4-7.02-1.72-10.46-.26-2.87-.28-5.68,.07-8.38,.24-1.88,.86-3.55,1.68-5.1,1.31-2.48,3.17-4.65,4.92-6.86,.44-.55,.87-1.11,1.29-1.67,.21-.28,.41-.56,.61-.85,3.85,.97,7.69,2.13,11.53,3.22,3.34,.94,6.68,1.82,10.04,2.46,2.29,.44,4.57,.82,6.85,1.17,3.26,.5,6.52,.89,9.78,1.14,.41,.03,.82,.08,1.23,.1,2.98,.19,5.96,.25,8.95,.16,.75-.02,1.5-.06,2.25-.1,2.25-.13,4.51-.36,6.78-.69,8.52-1.25,16.64-3.78,24.85-6.07,2.74-.76,5.49-1.5,8.26-2.16,3.33-.79,6.72-1.34,10.14-1.63,2.05-.17,4.11-.26,6.17-.24,1.76,.02,3.44,.17,5.07,.41,1.63,.24,3.21,.56,4.78,.93,3.14,.73,6.25,1.63,9.62,2.32,.38,.08,.75,.12,1.1,.12,.52,0,1.01-.07,1.45-.22,.44-.14,.84-.35,1.19-.61,.19-.14,.36-.29,.51-.46,.21-.22,.38-.48,.54-.74,.19-.32,.34-.66,.43-1.02,.34-1.31,.04-2.82-1.1-4.03-.19-.2-.4-.4-.64-.58-11.6-9.01-28.59-8.83-44.62-6.95-.85,.1-1.7,.21-2.54,.31-6.63,.85-13.02,1.92-18.74,2.67-.74,.1-1.47,.19-2.19,.28-7.01,.84-14.42,1.41-22,1.57-2.52,.06-5.07,.07-7.62,.03-8.17-.12-16.44-.75-24.52-2.03-14.15-2.25-27.75-6.53-39.3-13.68-6.86-4.25-13.13-7.74-20.7-9.94-1.08-.31-2.19-.6-3.33-.86-4.43-1.01-9.09-2.1-13.65-3.52-1.14-.35-2.28-.73-3.4-1.13-1.14-.41-2.27-.83-3.38-1.29-.82-.34-1.63-.7-2.43-1.07-5.58-2.63-10.56-6.13-14.15-11.09h0c.9-3.93,1.3-8,1.33-12.12,.02-2.47-.09-4.96-.29-7.45-.14-1.66-.32-3.31-.53-4.96-.65-4.94-1.61-9.81-2.63-14.45-2.44-11.05-6.29-20.74-12.81-29.57-1.5-2.04-3.15-4.03-4.96-5.98-.61-.66-1.23-1.31-1.86-1.95-1.25-1.28-2.54-2.52-3.84-3.74-3.91-3.63-8.03-6.99-12.19-10.3-3.47-2.76-6.97-5.48-10.42-8.31-1.38-1.13-2.75-2.28-4.1-3.45-1.19-1.03-2.26-2.04-3.22-3.06-1.29-1.37-2.38-2.75-3.28-4.22-.45-.73-.85-1.48-1.21-2.26-.36-.78-.67-1.58-.93-2.42-.13-.42-.25-.85-.36-1.29-.33-1.31-.55-2.71-.68-4.22-.04-.5-.07-1.02-.09-1.54-.15-4.02-.07-8.09,.09-12.15,.08-2.03,.18-4.06,.28-6.08,.1-2.02,.21-4.04,.29-6.04,.08-1.86,.11-3.77,.09-5.69-.18-13.5-3.07-28.26-9.76-39.73-2.69-4.6-6.11-8.5-10.49-11.38-.35-.56-.71-1.12-1.08-1.67-1.91-2.88-3.97-5.57-6.07-7.94-.7-.79-1.41-1.55-2.11-2.27-1.64-1.66-3.57-3.47-5.61-5.4-.83-.79-1.68-1.59-2.53-2.42-.42-.41-.84-.82-1.26-1.24-.65-.64-1.29-1.29-1.92-1.95-5.99-6.22-11.36-13.33-11.32-20.83,.01-2.3,.53-4.65,1.7-7.01,.27-.54,.4-1.07,.44-1.57,.03-.51-.03-.99-.19-1.44-.38-1.13-1.27-2.02-2.33-2.46-.42-.17-.87-.28-1.33-.29-1.14-.03-2.3,.49-3.15,1.8-3.61,5.58-5.18,11.19-5.14,16.71,0,.98,.06,1.95,.17,2.92,.08,.78,.2,1.56,.34,2.33,.29,1.59,.71,3.17,1.24,4.74,.17,.49,.34,.98,.53,1.46,.2,.51,.41,1.03,.63,1.54,.24,.57,.5,1.13,.78,1.69,.54,1.12,1.14,2.23,1.79,3.34,.32,.55,.66,1.1,1.01,1.64,.45,.71,.93,1.42,1.42,2.12,.37,.53,.76,1.06,1.15,1.58,.7,.94,1.44,1.86,2.21,2.78,.02,.02,.03,.04,.05,.06,.59,.7,1.19,1.39,1.79,2.07,.87,.99,1.74,1.96,2.63,2.93-1.37-.27-2.72-.57-4.06-.96-1.09-.32-2.17-.64-3.24-.98-1.1-.35-2.21-.7-3.3-1.06-6.51-2.15-12.94-4.53-19.52-6.49-3.49-1.04-6.94-2.09-10.22-3.47-.47-.2-.93-.4-1.39-.61-1.38-.63-2.72-1.32-4.02-2.11-2.16-1.31-4.19-2.86-6.03-4.76-.38-.4-.75-.81-1.11-1.23-3.82-4.43-6.52-10.16-9.36-15.75-1.42-2.78-2.87-5.54-4.52-8.08-.11-1.26-.31-2.51-.59-3.73-.86-3.72-2.47-7.26-4.41-10.68-.27-.47-.54-.94-.83-1.41-.58-.97-1.18-1.93-1.8-2.88-.8-1.23-1.61-2.45-2.42-3.67-3.42-5.15-6.69-10.26-7.95-16.19-.24-1.13-.4-2.29-.48-3.48-.04-.6-.06-1.2-.05-1.82,.05-5.63,1.19-11.24,2.83-16.67,.55-1.81,1.14-3.6,1.78-5.35,.26-.73,.53-1.46,.81-2.2,1.41-3.7,3.1-7.57,5.08-11.38,2.38-4.57,5.19-9.04,8.45-13,1.09-1.32,2.23-2.59,3.42-3.78,.6-.6,1.21-1.18,1.84-1.75,.62-.56,1.25-1.09,1.89-1.61,1.85,3.39,4.19,6.5,6.8,9.42,1.56,1.75,3.23,3.43,4.94,5.05,2.74,2.6,5.61,5.05,8.42,7.42,6.54,5.52,14.14,9.72,21.15,14.61,1.41,.98,2.8,1.99,4.14,3.04,1.15,.9,2.27,1.84,3.36,2.82,1.34,1.21,2.61,2.5,3.82,3.83s2.38,2.7,3.52,4.09c.57,.69,1.14,1.39,1.71,2.09,1.71,2.09,3.41,4.19,5.22,6.19h0c-.26,.21-.52,.42-.78,.63-2.07,1.68-4.01,3.51-5.89,5.42-1.68,1.71-3.31,3.48-4.95,5.25-.7,.76-1.4,1.52-2.11,2.27-1.46,1.56-2.94,3.1-4.48,4.58-3.24,3.11-6.73,5.94-10.83,8.09-1.41,.74-2.9,1.41-4.47,1.97-.43,.16-.83,.34-1.19,.56-1.26,.76-2.07,1.86-2.49,3.08-.12,.35-.21,.7-.27,1.06-.03,.18-.05,.36-.07,.54-.01,.18-.02,.36-.02,.54,0,.18,0,.36,.02,.54,.27,3.23,2.85,6.11,6.83,4.71,1.71-.6,3.35-1.28,4.94-2.02,.79-.37,1.57-.75,2.33-1.16,5.25-2.75,9.86-6.22,14.3-10,3.02-2.58,5.97-5.3,8.95-8.07,.29-.27,.58-.54,.87-.81,.53-.49,1.06-.98,1.59-1.47,.12-.11,.23-.21,.34-.32,.35-.32,.7-.63,1.04-.94,1.04-.93,2.07-1.8,3.1-2.61,.56-.43,1.12-.83,1.69-1.22,.14-.09,.27-.2,.41-.3,.71-.47,1.43-.91,2.17-1.31,2.96-1.6,6.22-2.56,10.19-2.6,1.51-.02,3.02,.08,4.51,.27,.5,.06,.99,.13,1.49,.22,.99,.16,1.97,.36,2.95,.59,.49,.12,.98,.24,1.46,.37,.97,.26,1.94,.55,2.9,.86,.96,.31,1.91,.64,2.86,.99,.47,.17,.94,.35,1.41,.53,1.88,.72,3.73,1.5,5.55,2.28,2.35,1,4.7,2.12,7.03,3.32,5.35,2.77,10.62,6.03,15.65,9.6,1.16,.82,2.31,1.66,3.44,2.51,2.04,1.54,4.03,3.13,5.96,4.75,.64,.54,1.28,1.08,1.91,1.63,1.89,1.65,3.72,3.32,5.46,5.01,2.78,2.7,5.34,5.55,7.73,8.51,1.79,2.22,3.48,4.51,5.11,6.85,.95,1.36,1.87,2.75,2.77,4.14,2.7,4.19,5.22,8.5,7.68,12.87,.94,1.66,1.86,3.33,2.79,5,8.21,14.86,16.95,29.35,27.33,42.89,2.21,2.88,4.44,5.69,6.77,8.36,1.16,1.33,2.35,2.63,3.57,3.89,1.22,1.26,2.48,2.47,3.77,3.63,1.3,1.16,2.64,2.27,4.03,3.31,1.04,.78,2.12,1.53,3.22,2.24,3.32,2.13,6.93,3.92,10.95,5.27,9.17,3.08,18.82,4.31,28.26,6.33,1.72,.37,3.43,.76,5.12,1.2,2.55,.65,5.07,1.4,7.56,2.3,2.61,.94,5.07,2.14,7.43,3.5,1.57,.9,3.11,1.88,4.61,2.89,3.77,2.53,7.39,5.29,11.13,7.82,4.49,3.03,9.17,5.72,14.52,7.23,2.5,.7,5.04,1.12,7.63,1.34,1.72,.15,3.46,.21,5.2,.21,9.6,0,19.51-1.78,28.97-.77,.8,.09,1.62,.18,2.45,.29,5.81,.76,12.33,2.07,18.45,4.22,1.75,.61,3.47,1.29,5.13,2.04,4.98,2.26,9.44,5.18,12.7,8.92,2.46,2.84,6.5,.2,6.28-2.89-.02-.22-.05-.44-.11-.67-.06-.22-.15-.45-.26-.67-11.39-22.8-40.85-27.76-64.5-26.4-6.79,.38-13.81,1.35-20.44-.68-.98-.3-1.94-.66-2.88-1.06-.94-.4-1.85-.85-2.74-1.33-.9-.48-1.77-1-2.64-1.54-2.17-1.35-4.26-2.84-6.36-4.31-2.1-1.47-4.2-2.92-6.39-4.18-13.35-7.72-27.95-9.72-42.9-12.61-16.71-3.22-26.92-11.53-37.26-24.47-7.11-8.9-13.25-18.37-19.09-28.03-.58-.97-1.17-1.93-1.75-2.9-2.9-4.85-5.74-9.74-8.62-14.62-1.23-2.08-2.48-4.16-3.77-6.23-1.29-2.07-2.6-4.13-3.95-6.18-2.7-4.09-5.52-8.13-8.49-12.07-2.97-3.94-6.07-7.78-9.33-11.49-.65-.74-1.31-1.48-1.97-2.21-1.23-1.35-2.49-2.69-3.76-4-2.67-2.75-5.44-5.4-8.3-7.93-7.57-6.69-15.84-12.59-24.93-17.32-11.73-6.12-27.45-10.21-40.91-6.83-2.14-2.41-4.24-4.89-6.37-7.36-.71-.82-1.42-1.64-2.13-2.46-1.43-1.63-2.88-3.23-4.37-4.79-.75-.78-1.5-1.54-2.27-2.29-.77-.75-1.55-1.48-2.34-2.2-8.32-7.48-18.64-12.24-27.39-19.13-.75-.59-1.51-1.17-2.28-1.74-1.54-1.15-3.1-2.28-4.65-3.42-1.55-1.15-3.09-2.31-4.57-3.52-2.23-1.83-4.34-3.78-6.21-5.98-1.39-1.64-2.47-3.46-3.32-5.39-.34-.77-.65-1.56-.92-2.36-.41-1.2-.76-2.43-1.06-3.68-.2-.83-.38-1.66-.55-2.5-.33-1.67-.6-3.35-.86-5-.13-.84-.28-1.67-.44-2.51-1.09-5.86-2.65-11.77-3.16-17.65-.14-1.62-.18-3.26-.11-4.92,.37-9.92,4.14-20.29,8.11-29.48,.66-1.53,1.33-3.03,1.99-4.49,3.15-6.96,7.44-12.87,11.92-18.67,.45-.58,.9-1.16,1.35-1.74,1.35-1.73,2.72-3.47,4.06-5.23,.9-1.17,1.79-2.35,2.66-3.55,.32,.48,.62,.94,.95,1.41,1,1.4,2.01,2.76,3.02,4.09,1.01,1.33,2.03,2.62,3.03,3.91,1.37,1.76,2.72,3.49,4.01,5.23,.53,.71,1.04,1.43,1.55,2.15,1.01,1.44,1.96,2.9,2.84,4.39,.88,1.5,1.69,3.04,2.4,4.63,1.78,4,2.97,8.38,3.23,13.5,.06,1.1,.09,2.21,.1,3.32,.05,6.66-.68,13.47-1.19,20.27-.17,2.27-.31,4.53-.39,6.79-.04,1.13-.06,2.26-.07,3.38,0,1.12,.01,2.25,.05,3.37,.21,5.59,1.05,11.11,3.11,16.44,2.38,6.13,6.84,10.99,11.17,15.91,2.42,2.75,4.45,5.5,6.15,8.44,.42,.73,.82,1.48,1.2,2.24,.76,1.52,1.44,3.1,2.04,4.77,.3,.83,.58,1.69,.84,2.57,.17,.57,.41,1.06,.71,1.48,.3,.42,.65,.77,1.03,1.05,.39,.28,.81,.49,1.26,.62,.45,.14,.91,.21,1.38,.21,.23,0,.47-.02,.7-.05,1.63-.23,3.19-1.28,3.93-3.08,1.02-2.49,1.43-4.85,1.39-7.12-.1-5.28-2.71-10.02-6.01-14.5-.94-1.28-1.94-2.54-2.95-3.79-.51-.62-1.02-1.24-1.52-1.86-1.52-1.85-3.03-3.68-4.38-5.52-2.1-2.85-3.57-5.86-4.56-8.96-1.33-4.14-1.82-8.47-1.86-12.89-.09-9.39,1.87-19.16,2.17-28.36,.02-.54,.03-1.08,.04-1.62,.03-2.72-.11-5.34-.42-7.87,2.3,1.74,4.63,3.42,7.02,4.99,3.99,2.62,8.14,4.95,12.59,6.85,2.6,1.11,5.27,2.08,7.95,3.04,1.61,.58,3.22,1.16,4.81,1.76,1.06,.4,2.12,.81,3.17,1.25,1.05,.43,2.09,.88,3.12,1.36,2.05,.96,4.05,2.02,5.95,3.27,7.82,5.1,12.23,12.99,15.95,21.43,.93,2.11,1.82,4.25,2.7,6.4,.44,1.07,.89,2.14,1.33,3.21,.56,1.33,1.13,2.66,1.71,3.97,.59,1.31,1.19,2.61,1.82,3.88,1.26,2.54,2.64,4.99,4.22,7.27,2.59,3.75,5.48,7.07,8.65,9.95,1.9,1.73,3.91,3.3,6.01,4.7,1.6,1.07,3.26,2.05,4.98,2.93,6.01,3.08,12.73,4.98,20.09,5.62,9.5,.82,18.96-.18,28.27-.14,.58,0,1.16,0,1.74,.02,.58,.01,1.16,.03,1.74,.05,1.16,.04,2.31,.11,3.47,.2,1.73,.14,3.45,.34,5.17,.62,.57,.09,1.14,.2,1.71,.31,2.28,.45,4.55,1.05,6.8,1.85,.56,.2,1.12,.41,1.69,.64,1.68,.68,3.36,1.47,5.02,2.4,1.94,1.09,3.89,2.27,5.83,3.53,1.94,1.26,3.87,2.6,5.75,3.99,1.88,1.4,3.72,2.85,5.48,4.34,1.76,1.49,3.44,3.02,5.01,4.57,.37,.37,.73,.74,1.07,1.12,1.03,1.14,1.92,2.34,2.7,3.57,1.04,1.65,1.89,3.37,2.62,5.15,.45,1.46,.85,2.93,1.13,4.4,.53,2.89,.99,5.74,1.46,8.57,.78,4.71,1.61,9.37,2.92,14.11,1.72,6.27,3.94,12.31,8.51,17.2,2.55,2.75,5.84,5.06,9,7.46,3.17,2.4,6.22,4.88,8.32,7.95,1.12,1.65,1.92,3.41,2.47,5.23,.83,2.74,1.12,5.62,1.15,8.53,.02,1.45-.03,2.91-.09,4.36-.07,1.45-.16,2.89-.25,4.3-.14,2.39-.31,4.78-.49,7.17-.18,2.39-.38,4.77-.57,7.16-.24,2.86-.48,5.73-.72,8.59-.23,2.86-.36,5.64-.34,8.35,.02,1.81,.1,3.59,.26,5.33,.24,2.62,.66,5.17,1.31,7.65,1.71,6.61,5.01,12.72,10.7,18.36,.21,.21,.43,.38,.65,.53,1.66,1.1,3.55,.56,4.66-.68,.37-.41,.66-.9,.82-1.43,.13-.42,.18-.88,.14-1.33-.05-.46-.19-.93-.45-1.38-.13-.23-.29-.45-.48-.68-.39-.45-.76-.91-1.12-1.37-.71-.92-1.35-1.84-1.92-2.76-.29-.46-.56-.93-.81-1.39-.51-.93-.96-1.87-1.35-2.81-1.18-2.82-1.85-5.69-2.16-8.6-.16-1.45-.22-2.92-.22-4.39,0-2.95,.3-5.94,.72-8.97,.19-1.39,.41-2.78,.65-4.19,.7-4.21,1.53-8.49,2.09-12.83,.2-1.53,.4-3.09,.58-4.66,.74-6.29,1.29-12.82,.73-19.16-.14-1.59-.35-3.16-.64-4.72-.36-1.92-.86-3.81-1.5-5.65-.33-.95-.69-1.89-1.11-2.82-.08-.19-.16-.39-.24-.58,1.65-.2,3.28-.55,4.9-1.04,2.69-.81,5.34-2.01,7.9-3.54,1.83-1.09,3.58-2.29,5.26-3.56,1.13-.85,2.23-1.72,3.31-2.63,1.08-.9,2.14-1.83,3.2-2.77,3.68-3.29,7.22-6.75,10.91-10.01,1.06-.93,2.12-1.85,3.21-2.74,1.26-1.03,2.49-1.96,3.7-2.78,.91-.62,1.8-1.17,2.7-1.67s1.78-.93,2.66-1.31c4.86-2.07,9.7-2.31,15.27-.64,.51,.15,1.02,.32,1.54,.5,1.39,.49,2.82,1.1,4.31,1.81,.47,.23,.94,.36,1.39,.41,1.13,.14,2.17-.22,2.93-.87,.61-.52,1.04-1.22,1.19-2,.04-.2,.06-.4,.06-.6,.01-.82-.28-1.69-.96-2.51-13.66-16.5-31.42-7.65-44.85,3.29-1.92,1.56-3.75,3.17-5.47,4.75-.39,.36-.79,.73-1.19,1.11-6,5.71-12.92,13.34-21.25,14.96-5.27,1.02-9.64-.64-13.22-3.67-.3-.25-.59-.51-.88-.78-.86-.81-1.68-1.7-2.44-2.65-3.58-4.42-6.14-10.11-7.87-14.96-.25-.69-.48-1.37-.69-2.02-.1-.31-.19-.62-.29-.94-.45-1.44-.87-2.88-1.27-4.34-.15-.55-.3-1.11-.45-1.66-.67-2.56-1.31-5.12-1.99-7.67-.9-3.36-1.88-6.7-3.16-9.92-.32-.8-.68-1.58-1.05-2.33-.38-.75-.78-1.48-1.2-2.19,0,0,0-.02,0-.03-2.46-6.14-5.88-11.3-10.98-15.63-2.15-1.82-4.47-3.62-6.72-5.51-.38-.31-.75-.63-1.12-.95-1.86-1.6-3.64-3.28-5.22-5.09-.32-.36-.62-.73-.92-1.1-.9-1.12-1.71-2.3-2.4-3.54-3.08-5.48-4.16-12.01-4.17-18.74,0,0,0,0,0-.01,0-.94,.02-1.89,.05-2.84,.08-2.05,.24-4.1,.47-6.14,.09-.8,.18-1.61,.29-2.41,.02-.13,.03-.25,.05-.38,.63-4.7,1.51-9.26,2.3-13.38,1.16-6.01,2.92-14.06,3.61-22.16,.06-.74,.12-1.47,.16-2.21,.09-1.47,.14-2.94,.14-4.39,0-13.06-4.03-24.79-19.3-26.47-.36-.04-.7-.02-1.01,.06-1.38,.34-2.18,1.73-2.17,3.11,0,.77,.25,1.54,.79,2.13,2.13,2.34,4.63,4.63,6.71,7.16,.93,1.12,1.77,2.29,2.46,3.53,.52,.93,.96,1.9,1.28,2.93,.64,2.04,.89,4.08,.85,6.12-.03,1.97-.33,3.94-.78,5.9-.03,.14-.07,.29-.1,.43-.12,.5-.25,.99-.39,1.49-.21,.76-.43,1.51-.67,2.27-2.15,6.77-4.64,13.47-6.63,20.3-1.44,4.93-2.62,9.92-3.23,15.05-.46,3.86-.54,7.75-.23,11.58,0,.11,.02,.22,.03,.32,.11,1.23,.25,2.45,.44,3.66,.1,.64,.21,1.28,.33,1.91,.86,4.44,2.29,8.76,4.34,12.84h0c-1.57-.55-3.16-1.06-4.78-1.51s-3.27-.86-4.95-1.21c-3.36-.7-6.86-1.19-10.53-1.44-2.7-.18-5.39-.25-8.07-.28-1.07-.01-2.14-.02-3.21-.02-1.6,0-3.19,0-4.78-.01-9.52-.06-18.77-.5-27.45-4.67-.96-.46-1.92-.97-2.87-1.53-.95-.56-1.89-1.17-2.83-1.84-7.17-5.1-11.6-11.44-15.11-18.28-1.66-3.23-3.12-6.57-4.56-9.96-.38-.89-.76-1.79-1.15-2.69-1.38-3.23-2.8-6.47-4.42-9.67-1.05-2.08-2.19-4.14-3.47-6.16-1.47-2.34-3.08-4.46-4.81-6.4-1.72-1.94-3.56-3.7-5.5-5.32-1.29-1.08-2.62-2.09-3.99-3.05-1.37-.96-2.78-1.86-4.22-2.72-.48-.29-.96-.57-1.45-.85-7.78-4.45-16.4-7.77-25-11.6-9.3-4.14-19.17-9.24-26.58-16.34-2.02-1.94-3.81-4.07-5.51-6.28-1.7-2.21-3.31-4.49-4.97-6.72-.19-.25-.38-.5-.59-.75-3.06-3.75-7.94-7.44-9.69-11.69-.35-.86-.49-1.78-.5-2.71-.02-2.8,1.17-5.82,1.36-8.43,.08-1.12,.14-2.24,.16-3.36,.04-1.68-.01-3.36-.09-5.03-.08-1.68-.2-3.35-.37-5.03-.08-.78-.17-1.57-.25-2.36-.3-2.78-.6-5.59-.62-8.4,0-.79,.02-1.57,.06-2.36,.06-1.13,.2-2.26,.4-3.39,.04-.23,.07-.47,.11-.7,.35-1.7,.9-3.17,1.61-4.5,.88-1.66,2-3.08,3.27-4.42,.76-.8,1.58-1.57,2.44-2.34,.29-.26,.57-.51,.87-.77,.88-.77,1.79-1.56,2.71-2.38,6.32-5.65,10.78-12.14,12.91-19.54,.39-1.35,.7-2.72,.93-4.13,.23-1.41,.38-2.85,.45-4.32,.03-.74,.05-1.48,.04-2.23,0-.8-.04-1.61-.1-2.43-.16-2.23-.65-4.52-1.16-6.83-.25-1.15-.51-2.31-.74-3.46-.15-.77-.29-1.54-.4-2.3-.11-.77-.19-1.53-.24-2.29-.02-.38-.04-.76-.04-1.13s0-.75,.03-1.13c.02-.37,.06-.75,.1-1.12,.12-.95,.36-1.86,.68-2.75,1.03-2.85,2.96-5.4,4.9-7.81,.28-.34,.55-.69,.83-1.02,.4-.49,.8-.98,1.18-1.46,3.22-4.04,5.6-7.98,7.19-12.08,.32-.82,.6-1.65,.86-2.48,.51-1.67,.89-3.37,1.15-5.12,4.4,.22,8.81-.35,13.18-1.15,1.94-.35,3.88-.75,5.81-1.14,.48-.1,.96-.2,1.44-.29,.96-.19,1.92-.38,2.87-.56,.77-.15,1.53-.31,2.28-.48,1.49-.34,2.95-.73,4.42-1.15,.74-.21,1.47-.43,2.23-.66,1.3-.39,2.21-.53,2.85-.45,.32,.04,.57,.13,.76,.28s.33,.34,.43,.59c.09,.24,.15,.53,.17,.87,.01,.17,.01,.34,.01,.53,0,.19-.01,.39-.02,.59-.03,.41-.07,.87-.11,1.36-.05,.49-.09,1.01-.13,1.56-.23,3.17-.33,6.27-.3,9.34,0,1.02,.03,2.05,.06,3.07,.1,3.07,.31,6.14,.61,9.26,.1,1.04,.21,2.09,.33,3.15,.09,.76,.16,1.5,.22,2.25,.13,1.48,.21,2.94,.25,4.38,.06,2.13,.03,4.21-.08,6.27-.08,1.5-.2,3-.37,4.49-.2,1.88-.47,3.75-.79,5.64-.61,3.58-1.41,7.2-2.35,10.99-.14,.54-.25,1.08-.38,1.62-.34,1.45-.66,2.89-.95,4.33-.09,.47-.19,.94-.28,1.41-.39,2.1-.74,4.19-1.01,6.28-.29,2.27-.52,4.55-.66,6.85-.15,2.3-.22,4.63-.21,7,.03,8.38-.34,16.94-2.47,25.08-.18,.68-.37,1.35-.57,2.03-.4,1.34-.86,2.68-1.38,3.99-.26,.66-.53,1.31-.82,1.96-1.16,2.61-2.62,5.07-4.34,7.34-1.29,1.7-2.72,3.3-4.27,4.77-.52,.49-1.05,.97-1.59,1.43-1.07,.91-2.18,1.77-3.34,2.57-7.81,5.41-17.48,8.17-26.96,6.99-2.3-.29-6.5-2.62-8.75-1.78-.1,.04-.19,.08-.28,.13-.27,.15-.51,.35-.7,.62-.06,.09-.12,.19-.18,.3-.21,.43-.34,.99-.37,1.7-.01,.32-.01,.64,0,.95,.04,1.63,.35,3.12,.87,4.46,2.26,5.81,8.57,8.85,15.22,9,.58,.01,1.17,0,1.76-.03,.29-.02,.59-.04,.88-.06,.73-.07,1.45-.16,2.17-.27,9.37-1.41,18.02-6.08,25.93-11.16,1.22-.78,2.41-1.57,3.6-2.36,2.04-1.37,4.07-2.83,6.08-4.32,3.01-2.24,6-4.54,8.97-6.72s5.95-4.24,8.95-5.97c2.01-1.17,4.11-2.24,6.27-3.17,1.08-.46,2.18-.89,3.29-1.28,1.11-.39,2.24-.73,3.37-1.03,1.14-.3,2.28-.55,3.44-.76,1.73-.3,3.49-.49,5.25-.54,1.76-.05,3.54,.04,5.31,.27,2.49,.34,4.88,1,7.22,1.85,1.17,.43,2.33,.9,3.47,1.41,2.29,1.01,4.55,2.16,6.8,3.3,.84,.43,1.69,.86,2.53,1.28,2.53,1.26,5.07,2.46,7.68,3.4,.23,.08,.44,.13,.66,.17,1.59,.25,2.86-.76,3.4-2.1,.12-.31,.21-.63,.25-.96,.02-.16,.03-.33,.03-.5,0-.5-.1-1-.32-1.46-3.54-7.52-10.02-13.34-17.68-17.02-2.87-1.38-5.91-2.45-9.03-3.2-3.63-.87-7.37-1.3-11.06-1.24-1.58,.02-3.16,.14-4.71,.34-1.31,.17-2.6,.4-3.87,.68-1.27,.28-2.51,.61-3.74,.98-5.52,1.68-10.65,4.28-15.52,7.33-1.63,1.02-3.22,2.08-4.8,3.18,.65-2.19,1.19-4.41,1.63-6.66,.19-.93,.35-1.87,.51-2.81,.47-2.81,.82-5.62,1.1-8.37,.02-.24,.04-.47,.07-.71,.22-2.22,.39-4.41,.53-6.59,0-.12,.02-.24,.02-.35,.7-10.67,.92-21,3.79-31.71,2.55-9.48,4.24-18.3,4.18-27.62,0-.78-.02-1.56-.05-2.34-.09-2.35-.29-4.74-.62-7.19-.34-2.48-.71-4.94-1.01-7.39-.1-.82-.2-1.64-.28-2.45-.25-2.45-.42-4.91-.4-7.4,0-.83,.03-1.66,.08-2.5,.12-1.97,.3-3.99,.32-6.01,.01-1.01-.02-2.01-.11-3.01-.09-1-.25-1.99-.5-2.96-.04-.15-.08-.28-.12-.42-.12-.42-.26-.83-.4-1.23,.65-1.72,1.77-3.15,3.21-4.36,.48-.4,1-.78,1.54-1.14,.55-.36,1.13-.69,1.73-1,.69-.36,1.42-.68,2.16-.99,1.11-.46,2.28-.86,3.48-1.23,.88-.27,1.78-.51,2.69-.74,4.98-1.25,10.13-1.97,13.69-2.89,2.76-.71,5.63-1.37,8.48-2.16,1.42-.4,2.84-.82,4.24-1.3,3.25-1.11,6.38-2.5,9.14-4.41,4.72-3.27,8.47-8.13,12.09-12.81,.57-.74,1.14-1.47,1.7-2.2,.2-.25,.39-.5,.59-.75,.51-.64,1.02-1.27,1.53-1.89,.44-.54,.73-1.18,.9-1.85,.12-.48,.19-.97,.17-1.46-.03-.95-.29-1.89-.77-2.64-.23-.35-.5-.67-.82-.92-.32-.26-.69-.45-1.09-.58-.27-.08-.56-.13-.87-.15-.5-.02-1.04,.06-1.63,.25-.02,0-.03,.01-.05,.02-1.11,.37-2.13,.83-3.09,1.36-.97,.53-1.88,1.14-2.73,1.79-.42,.32-.82,.67-1.22,1.02-.82,.7-1.61,1.43-2.37,2.2-1.13,1.14-2.23,2.33-3.35,3.5-.56,.58-1.13,1.16-1.71,1.73-.58,.57-1.18,1.12-1.8,1.66-1.24,1.07-2.57,2.05-4.06,2.89-.05,.03-.1,.05-.15,.08-6.09,3.37-13.46,4.94-20.46,6.54-1.63,.37-3.24,.75-4.81,1.14-1.09,.28-2.23,.58-3.4,.93-7.02,2.07-14.93,5.45-18.39,11.22-.56,.94-1.01,1.94-1.31,3.01h0c-2.34-.46-5.05-.17-7.93,.6-.41,.11-.83,.23-1.24,.36-1.05,.32-2.12,.64-3.21,.96-7.61,2.24-16.07,4.28-24.03,4.27,.03-2.07,.07-4.09,.62-6.23,.18-.71,.43-1.44,.74-2.18,1.75-4.1,3.4-8.12,5-12.22,.53-1.37,1.06-2.75,1.59-4.14,.29-.77,.58-1.53,.88-2.3,3.41-8.69,7.55-17.1,13.19-24.53,1.3-1.71,2.68-3.38,4.16-4.98,.56-.61,1.13-1.21,1.72-1.8,1.08-1.09,2.18-2.15,3.3-3.2,1.64-1.54,3.32-3.03,5.01-4.5,1.78-1.55,3.57-3.07,5.39-4.58,1.18-.98,2.37-1.96,3.56-2.93,3.57-2.92,7.15-5.83,10.64-8.82,.77-.67,1.54-1.35,2.3-2.02,1.76-1.56,3.52-3.13,5.24-4.72,.23-.21,.46-.43,.69-.65,2.24-2.08,4.46-4.17,6.67-6.28-.31,1.64-.52,3.26-.66,4.87-.13,1.61-.19,3.2-.19,4.8,0,.98,.02,1.96,.04,2.94,.06,2.22,.19,4.44,.3,6.72,.06,1.09,.11,2.2,.15,3.31,.03,.76,.05,1.54,.06,2.31,0,.36,.02,.71,.03,1.08,.01,.85,0,1.68-.04,2.5-.03,.77-.08,1.54-.15,2.29-1.03,11.35-5.9,20.97-8.57,32.09-.08,.35-.13,.68-.16,1-.16,2.26,1.1,3.9,2.82,4.61,.49,.2,1.02,.33,1.56,.38,.27,.02,.55,.02,.82,0,1.38-.1,2.78-.75,3.84-2.07,5.3-6.53,7.96-13.92,9.41-21.68,.12-.65,.23-1.29,.34-1.95,.35-2.21,.62-4.44,.83-6.68,.16-1.73,.3-3.47,.42-5.21,.04-.67,.08-1.33,.12-2,.07-1.25,.14-2.51,.21-3.76,.36-6.75,.7-13.47,1.88-19.84,.93-5.02,2.69-9.63,5.12-13.8,.18-.3,.36-.6,.54-.9,2.45-3.99,5.52-7.55,9.06-10.66,.12-.11,.25-.21,.37-.32,.65-.56,1.32-1.11,2-1.64,.23-.18,.46-.36,.7-.53,.64-.48,1.29-.95,1.95-1.4,.78-.54,1.58-1.06,2.4-1.55,1.11-.68,2.24-1.32,3.39-1.93,.41-.21,.82-.42,1.23-.63,2.8-1.39,5.73-2.57,8.75-3.54,1.34-.43,2.69-.82,4.05-1.19,10.08-2.77,20.7-4.09,31.27-4.82,1.51-.1,3.02-.2,4.53-.28,1.12-.06,2.24-.12,3.36-.17,2.24-.11,4.47-.19,6.68-.27,1.11-.04,2.21-.08,3.31-.12,11.33-.38,21.48-2.98,32.28-6,.13-.04,.26-.08,.39-.12-1.45,2.03-2.97,4.01-4.63,5.85-.67,.65-1.34,1.31-1.98,2.02-.18,.17-.33,.35-.46,.53-.83,.78-1.67,1.55-2.51,2.32-5.87,5.38-11.76,10.63-15.9,17.52-.72,1.2-1.56,2.61-2.37,4.15-.81,1.54-1.59,3.2-2.2,4.9-4.37-1.31-8.69-.44-13,1.04-.36,.12-.72,.25-1.08,.38-1.08,.39-2.15,.81-3.22,1.24-2.07,.83-4.21,1.65-6.38,2.37-2.47,.82-4.98,1.52-7.5,1.94-5.26,.89-10.93,.34-16.3,.89-1.45,.15-2.5,1.46-2.6,2.7-.01,.14,0,.28,0,.41,.04,.4,.2,.78,.49,1.09,.29,.31,.72,.55,1.3,.68,1.25,.27,2.43,.68,3.59,1.14,1.15,.46,2.28,.99,3.41,1.51,2.27,1.03,4.56,2.03,7.17,2.43,1.62,.25,3.22,.36,4.81,.32,0,0,0,0,.01,0,1.59-.03,3.17-.2,4.74-.51,1.05-.2,2.09-.47,3.14-.78,.74-.23,1.49-.48,2.23-.74,3.15-1.1,6.3-2.48,9.39-3.99,2.14-1.05,4.25-2.15,6.31-3.27,.82-.45,1.64-.9,2.44-1.35,.13,.8,.36,1.57,.73,2.3,.19,.39,.39,.72,.6,1.02,1.32,1.83,3.05,2.03,5.12,2.81,.26,.1,.52,.2,.79,.32,3.19,1.43,4.29,3.6,5.01,6.07-.32,.42-.6,.89-.82,1.44-2.23,5.7-4.22,10.98-6.88,15.9-.29,.53-.59,1.06-.9,1.59-1.07,1.82-2.25,3.6-3.6,5.32-.61,.78-1.23,1.55-1.91,2.3-.94,1.05-1.96,2.09-3.06,3.1-2.01,1.85-4.05,3.69-6.11,5.51-6.17,5.46-12.52,10.79-18.85,16.04-4.91,4.07-9.83,8.33-14.46,12.86-.97,.95-1.95,1.9-2.9,2.88-.45,.47-.9,.94-1.34,1.42-.45,.48-.87,.98-1.31,1.47-.63,.7-1.27,1.39-1.87,2.1-.46,.54-.91,1.08-1.36,1.62-6.32,7.74-11.33,16.36-13.75,26.3-.39,1.59-.75,3.19-1.07,4.79-.33,1.6-.62,3.2-.88,4.8-.48-.51-.97-1-1.49-1.47-1.04-.93-2.17-1.77-3.39-2.48-.61-.36-1.24-.68-1.89-.98-4.77-2.14-9.72-1.45-14.64-1.74-.33-.02-.66-.04-.98-.07-1.25-.11-2.49-.3-3.72-.63-2.08-.56-3.77-1.54-5.19-2.77-.35-.3-.68-.62-1-.95-.42-.44-.81-.91-1.19-1.4-.28-.35-.54-.72-.8-1.09-.15-.22-.3-.44-.44-.66-1.43-2.23-2.59-4.7-3.82-7.06-.45-.86-1.22-1.42-2.09-1.68-.69-.21-1.45-.23-2.16-.07-.46,.11-.91,.29-1.3,.55-.65,.43-1.16,1.07-1.37,1.91-.16,.61-.28,1.22-.36,1.84-.08,.61-.13,1.23-.14,1.84-.04,1.84,.23,3.67,.75,5.44,.52,1.77,1.3,3.49,2.28,5.1,.65,1.08,1.4,2.11,2.22,3.08,.82,.97,1.72,1.88,2.67,2.72,.48,.42,.97,.82,1.48,1.2,1.52,1.14,3.15,2.11,4.86,2.85,1.16,.5,2.32,.83,3.48,1.05,1.03,.2,2.07,.3,3.11,.36,4.49,.23,9.01-.52,13.49,.76,3.24,.92,5.07,2.59,6.22,4.71,.09,.18,.18,.36,.27,.54,.26,.56,.49,1.14,.68,1.75,.23,.74,.43,1.51,.6,2.3,.08,.35,.15,.71,.22,1.07,.21,1.09,.4,2.21,.61,3.35,1.78,9.35,5.83,18.21,11.42,25.91,1.29,1.78,2.66,3.49,4.11,5.14,1.23,1.4,2.54,2.79,3.58,4.32,.21,.31,.4,.62,.59,.94,.37,.64,.68,1.31,.91,2.01,1.46,4.39-.37,9.09-1.57,13.56-.1,.39-.2,.78-.3,1.17-.29,1.18-.56,2.38-.84,3.58-.19,.8-.38,1.6-.59,2.39-.13,.49-.26,.99-.41,1.47-.43,1.46-.93,2.88-1.57,4.2-.34,.71-.72,1.39-1.15,2.04-.64,.98-1.39,1.88-2.29,2.69-1.38,1.26-3.01,2.2-4.44,3.39-.23,.19-.46,.36-.67,.56-.65,.62-1.22,1.36-1.63,2.17-.07,.14-.14,.29-.2,.43-.43,1.02-.6,2.11-.28,3.16,.15,.5,.4,.94,.71,1.32,.1,.13,.21,.25,.33,.36,.34,.33,.72,.6,1.16,.82,.17,.09,.35,.17,.54,.24,.55,.21,1.15,.35,1.77,.42,1.23,.13,2.53-.02,3.66-.42,3.63-1.29,6.23-4.08,8.22-7.43,.28-.48,.56-.97,.82-1.47,.21-.4,.41-.8,.6-1.21,.97-2.04,1.78-4.19,2.49-6.27,.97-2.82,1.91-5.67,2.69-8.56,.3-1.1,.57-2.2,.82-3.31,.73-3.32,1.19-6.69,1.17-10.09-.05-6.42-2.31-10.88-5.2-15.16-.32-.48-.65-.95-.98-1.42-.5-.71-1.01-1.42-1.53-2.14-1.55-2.16-3.15-4.41-4.6-6.96-.31-.55-.61-1.11-.9-1.68-.28-.56-.55-1.13-.81-1.71-.51-1.15-.96-2.31-1.36-3.48-.84-2.48-1.44-5.02-1.79-7.59-.08-.58-.15-1.15-.2-1.73-.11-1.16-.18-2.32-.2-3.49,0-.58,0-1.17,0-1.75,.11-4.44,.87-8.9,2.23-13.25,3.4-10.87,8.89-21.98,16.54-30.59,.3-.34,.62-.66,.93-1,1.8-1.97,3.67-3.87,5.61-5.72,6.03-5.75,12.56-11.02,18.76-16.58,6.59-5.91,13.7-11.74,20.07-18.07,2.12-2.11,4.16-4.28,6.07-6.52,1.06-1.24,2-2.52,2.84-3.83,3.64-5.69,5.46-12.02,7.21-18.5,.28,0,.57-.01,.86-.05,.88-.1,1.8-.37,2.78-.83,1.03-.48,2.01-1,2.97-1.55,3.35-1.93,6.37-4.23,9.58-6.27,1.37-.88,2.78-1.7,4.26-2.44,1.98-.98,4.09-1.79,6.43-2.32,.63-.14,1.27-.25,1.89-.33,.63-.08,1.25-.13,1.88-.15,1.63-.06,3.24,.05,4.84,.26,1.6,.21,3.19,.53,4.78,.88,1.58,.35,3.16,.72,4.74,1.06,.21,.05,.42,.09,.63,.13,2.95,.61,5.92,1.06,8.97,.9,.63-.03,1.26-.1,1.9-.19,3.13-.45,5.83-1.65,8.19-3.33,1.18-.84,2.28-1.8,3.31-2.84,.69-.7,1.34-1.43,1.97-2.19,1.57-1.91,2.96-3.99,4.24-6.09,.49-.8,.72-1.57,.75-2.29,.14-3.15-3.61-5.24-6.65-3.9-.55,.24-1.08,.6-1.56,1.08-.12,.12-.24,.25-.35,.39-.17,.21-.35,.42-.53,.63-.5,.6-1.02,1.2-1.56,1.78-.36,.39-.73,.77-1.11,1.15-1.91,1.86-4.1,3.42-6.68,3.97-.26,.06-.52,.1-.79,.13-.56,.07-1.13,.1-1.69,.09-.85-.02-1.69-.13-2.54-.29-.85-.17-1.69-.39-2.53-.64-1.12-.33-2.24-.72-3.34-1.08-1.11-.36-2.2-.71-3.28-.96-.82-.19-1.63-.36-2.45-.5-1.64-.28-3.29-.47-4.93-.55-4.12-.21-8.24,.23-12.28,1.4-6.57,1.92-12.23,5.42-17.37,9.82-1.17,1.02-2.41,2.05-3.46,3.2-.09,.09-.18,.18-.27,.27-.13,.13-.27,.26-.4,.4h0c-.18-.56-.37-1.11-.57-1.67-.2-.55-.41-1.1-.63-1.63-.45-1.08-.97-2.13-1.59-3.15-.86-1.41-1.87-2.75-3.06-3.9-.4-.38-.82-.75-1.26-1.09-.34-.26-.77-.51-1.25-.75-.12-.06-.24-.12-.36-.18-1.1-.55-2.3-1.08-2.87-1.7-.13-.14-.22-.28-.27-.42-.04-.11-.06-.24-.06-.38,0-.43,.2-1,.52-1.66,.11-.22,.22-.45,.35-.68,.26-.47,.56-.97,.88-1.48,1.46-2.29,3.4-4.77,4.02-5.75,1.9-3.02,3.64-6.07,5.91-8.83,.32-.39,.66-.78,1.01-1.16,2.62-2.84,5.56-5.68,8.5-8.6,.98-.98,1.96-1.96,2.93-2.96,8.87-4.41,19.17-2.83,29.31-3.71,7.17-.62,12.31-3.29,16.31-7.62,2.4-2.6,4.4-5.79,6.19-9.49,.39-.81,.54-1.62,.5-2.37-.03-.5-.14-.98-.32-1.42-.09-.22-.2-.43-.32-.63-1.12-1.79-3.51-2.68-5.79-1.4-.25,.14-.51,.31-.76,.51-2.29,1.8-4.47,3.89-6.8,5.75-1.16,.93-2.37,1.79-3.64,2.53-.32,.19-.64,.36-.97,.53-.98,.51-2.01,.93-3.1,1.25-1.91,.56-3.95,.83-6.04,.97-2.09,.14-4.23,.15-6.33,.19-1.41,.03-2.8,.07-4.15,.16,2.05-2.18,4.07-4.43,6.08-6.77,2.6-3.02,5.44-5.42,8.5-7.33,1.22-.76,2.48-1.45,3.77-2.07,.64-.31,1.3-.6,1.96-.87,1.32-.55,2.68-1.03,4.07-1.46,1.04-.32,2.1-.61,3.17-.87,3.23-.78,6.61-1.31,10.13-1.68,2.68-.28,5.35-.46,7.98-.49,.88,0,1.75,0,2.61,.02s1.72,.07,2.58,.13c.8,.06,1.6,.14,2.39,.24,8.03,.99,15.37,3.98,21.19,10.51,.3,.34,.61,.69,.9,1.05,3.11,3.79,5.59,7.88,7.56,12.18,.49,1.08,.96,2.16,1.39,3.26,.33,.82,.63,1.66,.93,2.49,.59,1.67,1.11,3.37,1.58,5.09,.24,.86,.46,1.72,.67,2.59,1.96,8.09,2.81,16.51,3.32,24.78,.07,1.18,.14,2.36,.2,3.53,.38,7.46,.58,14.92,.66,22.38,.02,2.49,.04,4.97,.03,7.46,0,7.46-.11,14.92-.27,22.38-.05,2.49-.11,4.97-.18,7.46-1.07-2.11-2.22-4.17-3.46-6.19-1.25-2.02-2.6-3.99-4.06-5.91-2.45-3.2-4.86-5.49-7.48-7.36-.75-.53-1.52-1.03-2.3-1.51-.79-.48-1.6-.93-2.44-1.38-2.1-1.11-4.38-2.16-6.93-3.32-.46-.21-.91-.26-1.32-.19-.83,.12-1.52,.7-1.82,1.4-.1,.23-.16,.48-.17,.72-.02,.61,.29,1.23,1.06,1.65,3.27,1.8,6.24,5.57,8.79,9.51,.28,.44,.56,.88,.84,1.32,1.64,2.63,3.09,5.25,4.31,7.31,4.03,6.82,7.62,13.95,10.14,21.43,.7,2.06,1.3,4.13,1.83,6.22,.18,.7,.34,1.39,.51,2.09,.16,.7,.31,1.4,.46,2.1,.44,2.11,.82,4.23,1.15,6.35-.07,3.17-.13,6.35-.18,9.53s-.08,6.35-.1,9.53c-.04,7.93,.09,15.85,.27,23.78,.12,5.35,.27,10.69,.41,16.04,.14,5.22,.26,10.44,.35,15.66,.04,2.64,.08,5.29,.1,7.93,.03,5.05-.21,10.17-.55,15.32-3.1,.7-6.26,1.42-9.45,2.12-4.78,1.06-9.63,2.07-14.48,2.92-1.21,.21-2.42,.41-3.63,.6-3.63,.57-7.23,1.02-10.8,1.3-1.63,.13-3.29,.23-4.94,.29-.83,.03-1.66,.04-2.49,.05-1.66,0-3.33-.03-4.99-.14-.83-.05-1.66-.12-2.48-.21-1.65-.17-3.28-.42-4.89-.74-1.36-.28-2.67-.66-3.96-1.09-2.55-.85-4.99-1.92-7.42-3.02-.73-.33-1.47-.67-2.2-1-1.47-.66-2.96-1.3-4.48-1.88-2.06-.78-4.29-1.35-6.64-1.71-1.17-.18-2.38-.31-3.6-.39-1.8-.12-3.65-.12-5.51-.02-.62,.03-1.25,.08-1.87,.14-.68,.06-1.36,.14-2.05,.23-3.83,.5-7.66,1.44-11.29,2.78-1.21,.45-2.4,.94-3.56,1.48-1.16,.54-2.29,1.12-3.38,1.74-2.72,1.56-5.21,3.39-7.33,5.47-1.27,1.25-2.42,2.59-3.41,4.02-.66,.95-1.25,1.95-1.76,2.98-.26,.52-.49,1.04-.71,1.57-.22,.55-.31,1.08-.29,1.57,.03,.73,.31,1.39,.75,1.93,1.61,1.98,5.39,2.45,7.1-.15,.62-.94,1.38-1.83,2.24-2.65,4.97-4.72,13.51-7.45,20.61-8.63,1.54-.26,3.03-.45,4.38-.56,2.2-.19,4.29,0,6.31,.42,.67,.14,1.34,.31,1.99,.51,.33,.1,.66,.2,.98,.31,.98,.32,1.94,.7,2.89,1.1,.64,.27,1.27,.56,1.9,.85,5.66,2.66,11.11,6.17,17.35,7.42,.71,.14,1.43,.27,2.14,.39,1.5,.25,3,.46,4.51,.62,6.4,.69,12.87,.59,19.29-.02,2.88-.27,5.76-.65,8.61-1.11,2.34-.37,4.57-.82,6.72-1.34,3.54-.86,6.87-1.93,10.06-3.27,2.06-.86,4.06-1.84,6.05-2.94,.99-.55,1.98-1.13,2.97-1.75-.12,1.51-.23,3.03-.35,4.54-.22,3.03-.43,6.05-.57,9.07-.15,3.02-.24,6.03-.24,9.02,0,4.49,.19,8.95,.71,13.36,.1,.86,.21,1.71,.33,2.57,.12,.86,.25,1.71,.38,2.57,.41,2.68,.87,5.35,1.24,8.03,.34,2.46,.61,4.93,.71,7.41,.1,2.72,.04,5.44-.12,8.16,0,.1-.01,.2-.02,.3-.11,1.78-.25,3.56-.41,5.34-.17,1.84-.36,3.68-.55,5.51-.09,.92-.19,1.83-.28,2.74-1.25,12.72-1.92,25.39-2.2,38.14-.04,1.82-.07,3.64-.1,5.47-.21,14.63-1.75,29.17-1.25,43.82,.1,3,.24,6,.41,9.01,.08,1.5,.17,3,.27,4.5,.09,1.5,.19,3,.29,4.5h0c-.92-2.68-1.79-5.36-2.72-8.01-1.56-4.42-3.31-8.75-5.85-12.91-1.63-2.66-3.4-5.2-5.27-7.65-2.22-2.89-4.59-5.67-7.1-8.33-1.54-1.64-3.14-3.25-4.78-4.83-.9-.87-1.93-1.2-2.91-1.15-.86,.04-1.67,.38-2.34,.9-.33,.26-.63,.57-.87,.91-.24,.34-.43,.71-.55,1.11-.07,.22-.12,.46-.14,.69-.04,.47,0,.96,.18,1.44,.17,.48,.47,.96,.91,1.41,1.16,1.2,2.3,2.41,3.42,3.64,4.86,5.32,9.28,11.01,12.07,17.69,.63,1.51,1.17,3.04,1.63,4.58,2.01,6.67,2.71,13.6,4.54,20.37,.78,2.89,1.75,5.72,2.85,8.52,.36,.93,.74,1.86,1.13,2.79,.78,1.85,1.6,3.69,2.44,5.52,1.96,4.28,4.04,8.52,5.95,12.81,.38,5.18,.8,10.36,1.24,15.54,.44,5.18,.89,10.36,1.34,15.55,.64,7.48,.76,14.97,.68,22.46-2.6,9.11-7.5,17.63-14.95,23.72-1.11,.9-2.23,1.72-3.37,2.45s-2.29,1.39-3.45,1.98c-1.16,.59-2.34,1.11-3.54,1.58-5.98,2.33-12.35,3.3-19.22,4.42-1.62,.26-3.26,.58-4.89,.94-1.63,.37-3.25,.79-4.85,1.27-3.73,1.12-7.33,2.55-10.59,4.37-8.84,4.94-15.12,12.68-14.47,24.49,.07,1.3,.64,2.3,1.45,2.97,.41,.34,.87,.6,1.37,.78,.25,.09,.5,.16,.76,.21,.26,.05,.52,.08,.78,.09,2.08,.07,4.1-1.18,4.01-3.83h0c-.02-.55-.02-1.08,0-1.6,.23-9.35,5.39-13.9,12.51-16.35,3.17-1.09,6.72-1.76,10.4-2.25,.92-.12,1.85-.24,2.78-.34,.93-.1,1.87-.2,2.8-.3,.47-.05,.93-.09,1.4-.14,1.36-.13,2.71-.26,4.04-.4,2.67-.27,5.27-.57,7.69-.99,2.43-.42,4.68-.96,6.66-1.72,9.17-3.5,16.57-9.7,22.24-17.29-.12,8.29-.27,16.61-.39,24.94-.2,13.88-.33,27.8-.11,41.67-.15,.37-.25,.74-.32,1.11-.06,.36-.09,.72-.07,1.08,0,.21,.03,.42,.07,.62,.08,.48,.22,.95,.42,1.39,.12,5.44,.27,10.9,.52,16.33,.25,5.39,.61,10.77,.96,16.15,.48,7.18,.96,14.35,1.21,21.54,.06,1.8,.11,3.59,.14,5.39,.17,9.41,.12,18.81,.14,28.22-.63,.45-1.23,.93-1.83,1.43-1.78,1.49-3.44,3.14-5.13,4.76-.56,.54-1.13,1.08-1.7,1.61-1.72,1.59-3.53,3.09-5.56,4.32-2.88,1.74-5.86,2.99-8.93,3.83-1.02,.28-2.06,.52-3.1,.71-.52,.1-1.04,.18-1.57,.26-3.16,.46-6.39,.56-9.69,.41-.55-.03-1.1-.06-1.66-.1-.74-.05-1.4,.04-1.96,.24-.28,.1-.54,.23-.77,.38-.47,.3-.84,.69-1.13,1.15-.28,.45-.48,.96-.58,1.5-.1,.54-.11,1.1-.03,1.65,.03,.18,.08,.35,.12,.52,.1,.37,.22,.74,.4,1.08,.36,.68,.9,1.27,1.59,1.71,.09,.06,.19,.1,.28,.15,.14,.08,.28,.16,.44,.23,.21,.09,.42,.16,.65,.22,.24,.06,.48,.13,.74,.16,7.12,.83,15.25,.5,22.85-1.41,3.61-.91,7.11-2.16,10.32-3.83,2.3-1.19,4.45-2.59,6.39-4.22,.02,.63,.02,1.27,.03,1.89,.05,1.83,.09,3.65,.14,5.48,.23,9.13,.43,18.27,.39,27.4-.01,3.65-.07,7.31-.17,10.96Zm424.83-243.65c.72-.98,1.37-1.99,1.87-3.01,0,0,0,0,0,0,.94,2.18,1.71,4.45,2.28,6.86,.26,1.1,.49,2.21,.65,3.37,.89,6.34,.58,12.59-.45,18.76-.41,2.43-.93,4.85-1.53,7.26-.11,.44-.22,.89-.34,1.33-1.31,5-2.94,9.95-4.65,14.86h0c-1.58-2.97-3.4-5.83-5.32-8.63-.6-.87-1.21-1.74-1.82-2.61-1.23-1.73-2.48-3.45-3.73-5.17-.62-.86-1.24-1.72-1.86-2.59-.43-.61-.86-1.21-1.28-1.82-1.27-1.83-2.51-3.67-3.67-5.55-1.55-2.51-2.96-5.09-4.16-7.77h0c2.02-.12,3.93-.5,5.74-1.1,.73-.24,1.44-.51,2.13-.82,1.39-.61,2.73-1.35,4.03-2.18,1.62-1.05,3.19-2.25,4.71-3.56,1.76-1.52,4.13-3.66,6.17-6.08,.43-.51,.84-1.03,1.23-1.57Zm-9.48,83.23c-.59,1.63-1.22,3.25-1.92,4.86-.69,1.61-1.45,3.2-2.31,4.77-.66,1.22-1.36,2.42-2.08,3.61-1.15,1.89-2.38,3.73-3.66,5.54-1.13,1.61-2.3,3.21-3.51,4.76-.86,1.1-1.74,2.2-2.63,3.27-2.68,3.24-5.49,6.37-8.34,9.41-9.2,9.81-19.16,19.12-28.3,29.09-1.31,1.42-2.59,2.86-3.86,4.31-3.38,3.88-6.6,7.87-9.58,12.05-4.67,6.54-7.9,13.71-10.88,20.98-2.13,5.19-4.14,10.44-6.47,15.56-1.86,4.1-3.93,8.11-6.42,11.94-2.36,3.63-5.03,6.96-7.96,10-1.08,1.12-2.2,2.19-3.35,3.23-1.97,1.8-4.03,3.5-6.18,5.08-.45,.33-.91,.64-1.36,.96-6.47,4.55-13.64,8.2-21.23,11.06-1.63,.61-2.33,2.04-2.25,3.38,.01,.19,.04,.38,.08,.56,.13,.55,.39,1.06,.78,1.46,.08,.08,.17,.16,.26,.23,.64,.5,1.55,.73,2.68,.46,4.25-1.03,8.42-2.25,12.45-3.72,2.02-.73,4-1.53,5.95-2.39,1.95-.86,3.86-1.78,5.73-2.78,.17-.09,.33-.19,.5-.28,1.69-.92,3.35-1.89,4.97-2.93,1.14-.73,2.25-1.5,3.35-2.3,4.05-2.93,7.81-6.31,11.22-10.2,.41-.47,.82-.95,1.21-1.43,.78-.96,1.53-1.94,2.24-2.93,2.84-3.97,5.12-8.18,7.14-12.51,1.11-2.38,2.14-4.8,3.14-7.24,1.88-4.57,3.66-9.19,5.66-13.72,.15-.34,.3-.67,.45-1.01,.41-.92,.84-1.84,1.27-2.75,.52-1.08,1.06-2.16,1.62-3.22,.84-1.6,1.73-3.17,2.69-4.73,.32-.52,.65-1.03,.98-1.54,2.24-3.42,4.69-6.72,7.28-9.93,9.07-11.24,19.9-21.38,30.03-31.84,.72-.75,1.44-1.5,2.16-2.25,1.43-1.5,2.84-3.01,4.23-4.53,7.63-8.37,14.5-17.11,19.4-26.91,.58,1.24,1.16,2.48,1.73,3.73,.28,.62,.56,1.25,.84,1.87,1.37,3.13,2.57,6.33,3.26,9.7,.23,1.14,.42,2.29,.57,3.44,.29,2.31,.42,4.63,.39,6.97-.01,1.17-.06,2.34-.15,3.51-.09,1.17-.21,2.34-.36,3.51-1.38,10.53-5.41,20.97-10.38,30.23-.55,1.03-1.12,2.04-1.69,3.04-.57,1-1.16,1.98-1.75,2.95-1.43,2.34-3.07,4.6-4.82,6.81-.34,.43-.69,.86-1.04,1.29-.61,.75-1.23,1.49-1.86,2.23-.76,.9-1.54,1.79-2.32,2.67-.69,.78-1.38,1.57-2.08,2.35-.62,.7-1.24,1.39-1.86,2.09-1.26,1.42-2.51,2.85-3.73,4.3-.41,.48-.81,.97-1.21,1.45-.62,.05-1.28,.21-1.96,.55-2.55,1.24-4.83,2.83-6.89,4.68-7.22,6.47-11.84,16.08-16.48,24.66-.44,.82-.89,1.62-1.33,2.42-.45,.79-.89,1.57-1.35,2.34-.23,.38-.45,.76-.68,1.13-7.73,12.59-16.97,23.86-28.36,33.13-2.62,2.13-5.35,4.16-8.21,6.07-.08,.06-.16,.11-.25,.17-.16,.1-.31,.21-.45,.33-.28,.23-.52,.47-.73,.73-.11,.13-.2,.26-.29,.39-.27,.4-.46,.83-.59,1.26-.13,.44-.19,.88-.19,1.33-.02,3.27,3.16,6.41,6.91,4.24,.54-.31,1.06-.63,1.6-.95,3.03-1.8,5.95-3.7,8.76-5.71,.21-.15,.43-.3,.64-.45,1.75-1.26,3.46-2.57,5.13-3.91,3.34-2.69,6.52-5.55,9.54-8.57,1.51-1.51,2.98-3.07,4.42-4.67,2.87-3.2,5.58-6.58,8.15-10.13,1.08-1.49,2.11-3.01,3.1-4.56,1-1.55,1.96-3.12,2.9-4.71,.47-.79,.93-1.59,1.39-2.39,1.38-2.4,2.73-4.82,4.09-7.24h0c.24,1.76,.56,3.51,.9,5.27,.22,1.17,.45,2.35,.67,3.53,.32,1.77,.59,3.56,.74,5.37,.1,1.19,.15,2.4,.16,3.61,0,1.22-.03,2.44-.11,3.67-.24,3.69-.85,7.42-1.76,11.05-.6,2.42-1.33,4.79-2.16,7.08-.42,1.14-.86,2.26-1.32,3.36-.91,2.14-1.96,4.18-3.14,6.13-3.72,6.16-8.69,11.42-14.18,16.2-2.78,2.42-5.69,4.72-8.64,6.95-4.14,3.13-8.37,6.13-12.43,9.15-1.59,1.18-3.09,2.42-4.49,3.69-1.41,1.28-2.73,2.6-3.97,3.95-1.99,.32-3.94,.74-5.88,1.2-.97,.23-1.94,.47-2.91,.7-1.45,.36-2.91,.71-4.37,1.04-.98,.22-1.96,.42-2.95,.61-.49,.09-.99,.18-1.49,.26-2,.32-4.03,.54-6.13,.58-1.1,.02-2.2,.04-3.31,.04-.55,0-1.1,0-1.65-.01-.96-.02-1.93-.05-2.89-.09-2.88-.15-5.74-.45-8.53-1.03-1.06-.22-2.12-.48-3.16-.79-2.09-.61-4.13-1.41-6.11-2.44-7.17-3.73-13.46-8.6-20.88-11.33-1.24-.45-2.5-.85-3.81-1.17-1.31-.32-2.66-.56-4.05-.72-1.76-.19-3.51-.26-5.25-.21-.58,.01-1.16,.04-1.74,.08-2.32,.15-4.62,.48-6.91,.93-1.53,.3-3.05,.66-4.56,1.05-6.06,1.57-12.01,3.75-17.85,5.5-1.89,.56-2.66,2.1-2.55,3.57,.11,1.42,1.03,2.77,2.55,3.14,.51,.12,1.08,.13,1.71,0,.96-.2,1.92-.41,2.87-.63,6.65-1.48,12.95-3.05,19.13-3.36,.88-.05,1.76-.07,2.64-.06,2.64,.03,5.25,.32,7.87,.98,.44,.11,.87,.23,1.31,.36,2.18,.66,4.37,1.58,6.56,2.83,.88,.5,1.76,1.06,2.64,1.67,3.16,2.19,6.11,4.51,9.11,6.68,3.5,2.53,7.08,4.85,11.14,6.46,.44,.17,.88,.34,1.32,.49,1.34,.47,2.74,.86,4.2,1.16,3.48,.71,6.99,1.13,10.51,1.31s7.04,.13,10.57-.11c2.35-.16,4.7-.41,7.04-.73,1.32-.18,2.8-.4,4.34-.67-1.36,2.82-2.58,5.7-3.7,8.65-1.13,2.94-2.16,5.93-3.14,8.96-1.48,4.54-2.84,9.14-4.25,13.74-.47,1.53-.95,3.07-1.43,4.6-1.42,.35-2.82,.77-4.21,1.24-4.17,1.4-8.26,3.16-12.5,4.25-5.01,1.3-9.43,1.43-13.95,.88-.9-.11-1.81-.25-2.73-.41-1.84-.32-3.71-.74-5.67-1.22-3.69-.91-7.25-1.45-10.87-1.55-.04,0-.07,0-.11,0-2.2-.05-4.41,.06-6.69,.35-4.85,.64-10.11,1.74-15.15,1.45-.84-.05-1.67-.14-2.5-.27-.82-.14-1.64-.32-2.45-.56-1.27-.38-2.46-.9-3.57-1.53-4.45-2.51-7.78-6.74-11.21-10.85-.43-.51-.86-1.02-1.29-1.53-.87-1.01-1.75-2-2.67-2.94-1.38-1.41-2.83-2.7-4.43-3.77-.52-.35-1.05-.67-1.58-.97-1.06-.6-2.15-1.1-3.25-1.5-1.1-.41-2.22-.73-3.36-.98-1.14-.25-2.28-.41-3.44-.52-.59-.05-1.18-.09-1.77-.11-2.91-.11-5.88,.15-8.83,.58-.59,.09-1.18,.18-1.78,.28-1.18,.2-2.36,.42-3.53,.66-.4,.08-.77,.19-1.1,.32-1.46,.59-2.26,1.67-2.52,2.89-.04,.17-.06,.35-.08,.53-.25,2.86,2.25,6.18,6.12,5.74,.64-.07,1.29-.15,1.96-.22,1-.11,2.02-.21,3.06-.27,.69-.04,1.38-.07,2.08-.08,3.12-.03,6.21,.38,8.82,1.9,.94,.55,1.81,1.22,2.61,1.97,.6,.56,1.17,1.17,1.71,1.8,.54,.63,1.06,1.29,1.56,1.96,1,1.34,1.94,2.71,2.89,3.97,.7,.92,1.41,1.81,2.14,2.68,.77,.92,1.55,1.81,2.35,2.66,.79,.84,1.6,1.63,2.43,2.39,6.24,5.79,13.6,9.53,23.06,10.4,6.41,.58,12.13-1.25,18.4-1.93,1.72-.19,3.42-.15,5.11,.03,.42,.04,.84,.1,1.26,.15,4.63,.65,9.18,2.14,13.85,2.5,2.93,.23,6.25-.07,9.72-.78,1.74-.35,3.51-.81,5.29-1.35,1.78-.54,3.56-1.17,5.32-1.86,1.17-.46,2.33-.96,3.47-1.48,1.14-.52,2.26-1.07,3.34-1.64-1.43,3.57-3.02,7.07-4.84,10.47-.48,.89-.96,1.78-1.47,2.66-1.04,1.78-2.13,3.55-3.27,5.28-1.15,1.73-2.35,3.42-3.64,5.06-2.22,2.82-4.68,5.43-7.44,7.75-.44,.37-.86,.74-1.31,1.09-1.85,1.43-3.79,2.73-5.79,3.93-.32,.19-.64,.37-.96,.56-2.71,1.59-5.5,3.05-8.29,4.52-3.12,1.64-6.23,3.3-9.18,5.18h0c.29-.65,.57-1.3,.84-1.96,1-2.39,1.91-4.83,2.66-7.32,.48-1.58,.9-3.18,1.24-4.79,.23-1.07,.41-2.15,.56-3.23,.11-.79,.21-1.58,.28-2.37,.16-1.88,.2-3.76,.08-5.65,0-.02,0-.04,0-.06,0-.02,0-.05,0-.07-.2-3.11-3.86-4.06-5.7-2.55-.62,.51-1.03,1.3-1.03,2.39,0,1.57-.14,3.08-.39,4.56-.62,3.62-1.94,7-3.72,10.2-.5,.9-1.04,1.79-1.6,2.67-.28,.44-.57,.88-.87,1.31-.95,1.4-1.97,2.78-3.03,4.14-.59,.76-1.19,1.51-1.79,2.26-.62,.77-1.26,1.53-1.89,2.3-.76,.91-1.51,1.82-2.27,2.73-1.05,1.26-2.09,2.52-3.11,3.79-2.37,2.96-4.6,5.99-6.43,9.17-5.43,3.9-10.71,7.97-15.63,12.3-1.64,1.44-3.24,2.91-4.8,4.42-.51,.49-1.02,1-1.53,1.51,0,0,0,0,0,0-1.49,1.49-2.97,3.04-4.45,4.62-.07,.08-.14,.15-.21,.23-.7,.76-1.4,1.52-2.1,2.3-1.53,1.69-3.06,3.42-4.6,5.16-.47,.53-.94,1.07-1.41,1.61-11.34,12.92-23.07,26.47-38.14,33.72h0c.2-.92,.39-1.84,.57-2.73,.49-2.34,.96-4.55,1.5-6.43,.45-1.56,.85-3.1,1.19-4.63,.36-1.62,.65-3.22,.86-4.81,.29-2.15,.45-4.26,.42-6.36,0-.01,0-.02,0-.04-.06-5.12-1.14-10.09-3.66-14.98-.72-1.4-1.56-2.78-2.52-4.17-1.17-1.67-3.77-1.62-4.92-.37-.31,.34-.52,.77-.56,1.28-.03,.34,.02,.72,.17,1.12,.27,.8,.51,1.58,.71,2.34,.2,.77,.36,1.52,.48,2.25,.13,.74,.22,1.46,.28,2.17,.06,.71,.09,1.41,.09,2.1-.02,8.29-4.2,15.17-7.78,23.77-.64,1.55-1.25,3.25-1.81,5.03-.74,2.38-1.4,4.93-1.93,7.49-.13,.64-.26,1.28-.38,1.92-12.3,1.08-22.95-3.74-33.97-7.95-.39-.15-.77-.29-1.16-.44-.65-.24-1.29-.48-1.94-.72-.37-.13-.74-.26-1.11-.4-.68-.24-1.36-.47-2.04-.7-.3-.1-.6-.2-.9-.3-.92-.3-1.84-.58-2.77-.85-.53-.15-1.06-.3-1.59-.44-1.07-.28-2.14-.53-3.23-.76-.54-.11-1.09-.22-1.64-.31,.51-1.05,.92-2.18,1.26-3.38,.2-.72,.38-1.45,.53-2.23,.4-2.08,.82-4.2,1.19-6.34,.24-1.43,.46-2.86,.63-4.29,.25-2.15,.39-4.3,.33-6.42-.02-.82-.26-1.58-.66-2.24-.39-.66-.94-1.21-1.58-1.61-.54-.35-1.15-.59-1.78-.69-1.26-.21-2.62,.11-3.73,1.17-2.51,2.39-3.74,5.28-4.37,8.4-.13,.64-.24,1.28-.32,1.93-.28,2.19-.34,4.47-.38,6.76,0,.03,0,.05,0,.08-.03,1.72-.06,3.44-.18,5.13-.08,1.14-.19,2.26-.37,3.36-4.55,.28-9.45,1.02-14.38,1.67-.62,.08-1.23,.16-1.85,.24-1.23,.16-2.46,.3-3.69,.43-.61,.06-1.22,.12-1.83,.18-1.83,.16-3.63,.27-5.41,.29-3.54,.05-6.94-.21-10.06-1.04-2.08-.55-4.03-1.35-5.82-2.46-.89-.56-1.75-1.19-2.55-1.92-.4-.36-.79-.75-1.17-1.15-.76-.81-1.47-1.72-2.12-2.73s-1.26-2.12-1.8-3.33c-1.1-2.46-1.76-5.06-2.15-7.73-.53-3.72-.51-7.56-.31-11.33,.03-.57,.06-1.13,.1-1.69,.07-1.04,.14-2.07,.22-3.09,.04-.56,.09-1.12,.13-1.68,.17-2.27,.25-4.52,.25-6.75,0-3.72-.21-7.4-.49-11.07,3.71-.91,7.33-2.37,11.14-3.05,.54-.1,1.09-.18,1.65-.24,2.52-.28,4.9-.26,7.19,.08,.95,.14,1.89,.34,2.81,.59,2.76,.75,5.4,2.01,7.98,3.78,3.42,2.35,6.72,4.93,10.14,7.21,2.05,1.37,4.15,2.63,6.35,3.68,1.17,.56,2.38,1.05,3.62,1.47,2.48,.83,5.11,1.34,7.96,1.4,1.84,.04,3.58-.12,5.24-.45,.55-.11,1.1-.23,1.63-.37,1.61-.43,3.13-1,4.6-1.69,1.47-.69,2.88-1.5,4.25-2.39,.91-.59,1.81-1.22,2.69-1.88,.88-.66,1.75-1.34,2.62-2.04,1.3-1.05,2.57-2.13,3.85-3.21,1.05-.89,2.09-1.77,3.15-2.64,1.22-1,2.45-1.98,3.7-2.91,.63-.46,1.26-.91,1.91-1.35,.8-.54,1.61-1.05,2.44-1.53,.52-.3,1.04-.59,1.57-.86,.84-.43,1.69-.83,2.57-1.18,.72-.29,1.45-.55,2.2-.78,1.07-.33,2.18-.6,3.33-.79,.2-.03,.4-.08,.61-.11,2.81-.4,5.43-.87,7.84-1.56,1.21-.34,2.36-.74,3.46-1.21,1.1-.47,2.16-1.01,3.16-1.64,1.34-.84,2.58-1.84,3.74-3.04,10.43,2.95,21.87,3.52,32.2,6.04,1.61,.39,3.21,.8,4.81,1.21,4.8,1.23,9.59,2.43,14.56,2.97,2.53,.27,4.71,.25,6.72-.04,1.21-.17,2.35-.45,3.46-.81,.56-.18,1.1-.39,1.65-.61,1.64-.68,3.25-1.56,4.94-2.62,.75-.47,1.53-.98,2.33-1.52,.16-.11,.31-.23,.44-.36,.4-.39,.66-.85,.81-1.34,.1-.33,.14-.67,.13-1,0-.17-.02-.33-.05-.49-.06-.32-.17-.64-.32-.92-.15-.28-.35-.54-.59-.75-.24-.21-.53-.37-.85-.48-.49-.16-1.06-.17-1.71,0-.37,.1-.75,.19-1.13,.26-8.71,1.8-18.55-1.38-27.65-4.03-.4-.12-.79-.23-1.18-.34-.79-.23-1.56-.45-2.34-.66-1.93-.53-3.81-.99-5.62-1.35-8.02-1.57-15.88-2.96-23.72-4.63,1.4-2.89,2.81-5.76,4.49-8.56,.7-1.15,1.38-2.31,2.03-3.49,.44-.78,.85-1.58,1.26-2.37,.41-.81,.8-1.62,1.18-2.45,.91-2.02,1.7-4.1,2.27-6.26,.21-.78,.39-1.56,.55-2.34,.47-2.32,.72-4.61,.76-6.84,.2-11.34-4.92-21.53-12.68-29.82-2.04-2.18-4.27-4.23-6.63-6.14-.71-.57-1.43-1.13-2.16-1.68-.73-.55-1.48-1.08-2.23-1.59h0c.98-1.06,1.94-2.15,2.86-3.27,.92-1.12,1.81-2.27,2.68-3.45,2.59-3.52,4.91-7.27,7.01-11.09,2.1-3.83,3.97-7.73,5.65-11.59,.53-1.21,1.05-2.44,1.56-3.69,7.2-17.51,13.5-38.83,29.9-49.79,1.17-.78,2.4-1.51,3.67-2.18,1.47-.77,2.99-1.46,4.53-2.07,2.31-.92,4.69-1.68,7.11-2.35,.96-.27,1.94-.52,2.91-.76,2.92-.73,5.87-1.37,8.81-2.03,.34-.08,.68-.16,1.02-.23,4.77-1.1,9.51-2.3,13.99-4.13,7.01-2.85,13.05-7.2,18.46-12.26,1.2-1.13,2.37-2.29,3.52-3.48s2.26-2.4,3.35-3.64c1.64-1.85,3.22-3.75,4.76-5.66,.57-.71,1.13-1.42,1.68-2.14,4.92-6.48,8.78-13.42,11.51-20.84,.61-1.65,1.16-3.32,1.65-5.02,.25-.85,.48-1.7,.7-2.56,.65-2.58,1.18-5.22,1.57-7.92,.38-2.65,.61-5.33,.67-8.01,.02-.9,.02-1.79,0-2.69-.02-.9-.05-1.79-.1-2.69-.04-.67-.09-1.34-.15-2.01-.18-2.01-.46-4-.84-5.98-.31-1.64-.75-3.2-1.23-4.73-.16-.51-.32-1.01-.49-1.51-1.01-3.05-2.06-5.96-2.43-8.95-.05-.43-.09-.86-.11-1.29-.03-.49-.03-.99-.01-1.49,.08-2,.54-4.07,1.59-6.26,3.1-6.45,11.05-11.39,17.48-16.73,2.14-1.78,4.11-3.6,5.68-5.54,7.93-9.8,16.44-19.51,26.4-27.31,.6-.47,1.21-.93,1.82-1.39,3.68-2.73,7.59-5.22,11.36-7.87,1.88-1.32,3.73-2.68,5.5-4.13,1.18-.97,2.32-1.97,3.42-3.03,.55-.53,1.08-1.07,1.61-1.63,1.57-1.67,3.01-3.47,4.28-5.46,.63-.98,1.2-1.99,1.73-3.02,.85-1.67,1.58-3.41,2.21-5.18,.94-2.66,1.66-5.42,2.25-8.22,.23-1.09,.44-2.19,.64-3.29,.31-1.72,.59-3.44,.86-5.16,.09-.58,.18-1.16,.27-1.73,.03-.19,.05-.39,.07-.59,.02-.29,.03-.57-.02-.84,0-.05-.02-.1-.04-.15-.05-.24-.14-.46-.3-.66-.82-1.05-2.23-.44-3.31,.54-.36,.33-.68,.7-.93,1.06-.7,1-1.39,2.04-2.08,3.1-.11,.16-.21,.34-.32,.5-1.27,1.96-2.53,3.98-3.83,6-.7,1.09-1.42,2.19-2.15,3.27-.73,1.08-1.48,2.14-2.25,3.18-1.16,1.55-2.37,3.05-3.66,4.44-1.29,1.39-2.64,2.69-4.1,3.84-.95,.75-1.93,1.47-2.93,2.17-1,.7-2.02,1.37-3.05,2.02h0c.78-1.25,1.47-2.58,2.03-4.01,.19-.48,.36-.97,.52-1.47,.25-.8,.47-1.64,.64-2.51,.09-.44,.16-.88,.23-1.34,1.09-7.73-1.72-14.77-5.68-21.22-.72-1.17-1.48-2.33-2.26-3.46-.39-.57-.79-1.13-1.19-1.69-.8-1.12-1.61-2.21-2.42-3.29-.22-.29-.46-.6-.69-.9-.49-.63-.99-1.27-1.53-1.94-.4-.5-.8-1-1.21-1.52-1.02-1.29-2.07-2.64-3.04-4.03-.78-1.11-1.52-2.25-2.18-3.4-.65-1.15-1.22-2.32-1.66-3.49-.22-.59-.4-1.17-.55-1.76-.22-.88-.35-1.76-.38-2.64-.02-.73,.04-1.46,.17-2.19,.3-1.58,.99-3.14,2.22-4.65,.86-1.06,1.23-2.18,1.23-3.26,0-.18-.01-.35-.03-.52-.02-.18-.05-.36-.09-.54-.16-.7-.47-1.37-.88-1.98-.21-.31-.45-.6-.71-.88-.13-.14-.27-.27-.41-.4-.28-.26-.59-.5-.91-.71-.74-.5-1.56-.87-2.42-1.09-1.95-.49-4.06-.16-5.73,1.46-.69,.68-1.32,1.36-1.89,2.05-4.15,4.99-5.34,10.28-4.77,15.63,.22,2.03,.69,4.07,1.35,6.1,.33,1.02,.71,2.03,1.12,3.04,2.91,7.08,7.7,14.01,11.57,20.2,2.86,4.58,5.5,8.83,5.58,13.1,0,0,0,0,0,0,.01,.63-.04,1.26-.15,1.89-.39,2.29-1.62,4.6-4.05,6.97-1.51,1.47-3.04,2.88-4.54,4.32-1,.95-1.99,1.92-2.96,2.91-1.44,1.49-2.82,3.05-4.09,4.75-4.2,5.65-6.96,12.11-9.95,18.41-4.55,9.62-10.99,19.05-18.95,26.86-2.65,2.6-5.48,5.03-8.45,7.22-1.19,.88-2.41,1.72-3.65,2.52-1.86,1.2-3.77,2.31-5.74,3.31-1.15,.59-2.31,1.14-3.49,1.65-3.54,1.54-7.24,2.75-11.07,3.57-2.81,.6-5.59,1.08-8.36,1.51s-5.51,.83-8.25,1.26c-2.51,.39-5,.81-7.49,1.32-4.49,.91-8.96,2.1-13.43,3.91-7.37,2.98-14.27,6.81-21.16,10.69-1.03,.58-2.07,1.16-3.1,1.75-3.1,1.74-6.21,3.47-9.37,5.11-.86,.45-1.73,.88-2.6,1.3-.87,.42-1.73,.82-2.6,1.21-1.63,.73-3.28,1.41-4.92,2.04-1.31,.5-2.62,.98-3.93,1.42-2.67,.88-5.36,1.61-8.08,2.2-1.15,.25-2.3,.48-3.46,.68-5.86,1-11.88,1.3-18.12,.85-1.04-.08-2.09-.17-3.14-.29-6.46-.73-12.87-2.08-19.15-3.91-4.19-1.22-8.32-2.66-12.38-4.26-4.06-1.6-8.04-3.38-11.92-5.28-1.94-.95-3.86-1.94-5.75-2.95-3.48-1.86-6.77-.15-8.14,2.47,0,.02-.01,.03-.02,.05-.1,.2-.19,.4-.27,.6-.11,.27-.19,.56-.25,.84-.44,2,.22,4.21,2.57,5.71,3.35,2.13,6.78,4.18,10.27,6.11,1.16,.64,2.34,1.27,3.52,1.89,7.87,4.11,16.05,7.58,24.47,10.08-3.49,1.74-6.82,4.02-10,6.58-7,5.63-13.27,12.57-18.93,17.88-15.88,14.9-31.18,29.06-42.9,47.45-1.17,1.83-.19,3.7,1.37,4.48,.28,.14,.58,.25,.89,.31,.92,.18,1.94-.02,2.8-.77,3.76-3.28,7.52-6.54,11.28-9.82,1.88-1.64,3.75-3.27,5.63-4.91,5.53-4.84,11.02-9.71,16.46-14.66,1.93-1.76,3.85-3.52,5.77-5.3,1.82-1.7,3.64-3.41,5.45-5.13,1.37-1.31,2.73-2.64,4.08-3.97,2.7-2.67,5.37-5.36,8.1-8,1.36-1.32,2.74-2.62,4.15-3.9,2.03-1.84,4.13-3.5,6.27-5.04,.71-.51,1.43-1.02,2.16-1.51,4.07-2.76,8.32-5.2,12.74-7.76,.97-.56,1.63-1.38,2.03-2.29,2.52,.3,5.05,.5,7.6,.59,7.64,.27,15.38-.45,23.17-2.38,7.9-1.95,15.21-5.06,22.31-8.6,1.58-.78,3.14-1.59,4.7-2.41,1.56-.82,3.11-1.65,4.66-2.49,2.32-1.25,4.64-2.52,6.96-3.76,.77-.42,1.55-.83,2.33-1.24,1.75-.92,3.5-1.83,5.26-2.72,5.29-2.65,10.69-5.07,16.34-6.93,.84-.28,1.68-.54,2.53-.79,2.55-.76,5.15-1.39,7.81-1.89,1.78-.33,3.59-.59,5.43-.79,11.35-1.19,21.52-4.05,30.76-8.52,.06,1.24,.21,2.49,.42,3.75,.14,.84,.3,1.68,.48,2.53,.09,.42,.18,.85,.28,1.27,.21,.95,.44,1.9,.66,2.86,.26,1.1,.51,2.2,.74,3.31,.12,.6,.24,1.2,.34,1.8,.13,.74,.24,1.49,.34,2.23,.01,.1,.03,.2,.04,.3,.1,.84,.17,1.69,.2,2.54,.09,2.4,.06,4.83-.09,7.27-.2,3.25-.63,6.53-1.28,9.75-.16,.81-.34,1.61-.53,2.41-.25,1.04-.54,2.07-.84,3.1-.53,1.82-1.15,3.62-1.84,5.38-.25,.63-.51,1.25-.78,1.87-.35,.8-.72,1.6-1.1,2.38-.89,1.82-1.87,3.59-2.96,5.29-2.17,3.39-4.72,6.73-7.55,9.91-2.26,2.54-4.7,4.98-7.28,7.24-4.51,3.96-9.43,7.41-14.52,9.98-.71,.36-1.43,.7-2.16,1.03-1.45,.65-2.93,1.23-4.43,1.77-.75,.27-1.5,.52-2.26,.76-3.79,1.22-7.68,2.17-11.57,3.12-1.56,.38-3.12,.76-4.67,1.15-3.88,.98-7.73,2.06-11.44,3.5-.89,.35-1.75,.73-2.61,1.12-1.94,.88-3.79,1.87-5.56,2.95-1.53,.93-3.02,1.91-4.44,2.97-1.59-1.64-3.58-2.96-5.76-4.06-.36-.18-.73-.36-1.1-.53-.48-.22-.97-.42-1.46-.62-.65-.27-1.32-.52-1.98-.76-.58-.21-1.17-.4-1.76-.59-.67-.21-1.33-.41-2-.6-1.08-.31-2.15-.59-3.18-.85-4.78-1.21-9.41-3.13-13.58-5.72-1.24-.77-2.46-1.58-3.61-2.48-1.67-1.3-3.23-2.72-4.65-4.28-.47-.52-.93-1.05-1.38-1.6-1.33-1.64-2.51-3.41-3.52-5.31-.39-.73-.9-1.27-1.49-1.63-2.36-1.45-5.86-.15-6.75,2.43-.07,.22-.13,.44-.17,.67-.08,.53-.06,1.11,.1,1.71,.35,1.35,.73,2.69,1.16,4,.65,1.97,1.4,3.88,2.26,5.72,.29,.61,.59,1.22,.91,1.81,.63,1.19,1.32,2.35,2.06,3.47,2.98,4.46,6.9,8.27,12.06,11.04,1.83,.98,3.7,1.78,5.6,2.49,3.16,1.17,6.42,2.06,9.71,3.04,1.39,.41,2.68,.93,3.91,1.5,1.23,.57,2.41,1.2,3.57,1.84-.94,1.15-1.84,2.32-2.72,3.53-2.62,3.61-4.98,7.45-7.13,11.41-2.86,5.28-5.35,10.77-7.62,16.22-.26,.63-.53,1.28-.79,1.93-3.66,9.11-7.17,19.74-12.42,28.93-.38,.66-.76,1.31-1.15,1.95-.7,1.13-1.42,2.23-2.18,3.31-.23,.33-.47,.66-.71,.98-4.05,5.45-9.03,9.99-15.48,12.77-5.45,2.35-10.64,2.32-15.76,1.26-3.84-.8-7.63-2.18-11.45-3.59-1.27-.47-2.55-.94-3.83-1.4-.86-.3-1.71-.6-2.57-.88-2.58-.84-5.2-1.56-7.87-1.98-1.94-.31-3.87-.51-5.79-.62-.64-.04-1.28-.06-1.91-.08-11.05-.31-21.79,2.21-32.69,4.53-1.1,.23-1.96,.75-2.59,1.44-.85,.92-1.29,2.14-1.35,3.39-.04,.85,.11,1.71,.41,2.5,.7,1.8,2.29,3.18,4.7,3.09h0c1.96-.08,3.94-.18,5.94-.29,1.99-.11,4-.22,6.01-.31,.8-.04,1.61-.07,2.41-.09,.81-.03,1.63-.05,2.44-.06,2.41-.04,4.81-.03,7.21,.09,2.4,.12,4.78,.35,7.13,.72,1.18,.19,2.35,.41,3.51,.68,1.16,.27,2.31,.58,3.45,.94,5.04,1.59,9.56,3.72,14.03,5.61,2.68,1.13,5.34,2.18,8.08,2.98,2.5,.72,5.07,1.24,7.78,1.41,2.71,.17,5.57,0,8.65-.63,2.98-.62,5.8-1.52,8.47-2.65,1.6-.68,3.14-1.45,4.64-2.29,2.39-1.35,4.64-2.89,6.77-4.6,.82,.76,1.62,1.53,2.41,2.32,.69,.69,1.36,1.4,2.02,2.12,4.59,5.04,8.39,10.75,10.64,17.2,1.08,3.1,1.6,6.1,1.67,9.05,0,0,0,0,0,.01,.03,1.17-.02,2.34-.12,3.49-.05,.58-.12,1.16-.21,1.74-.17,1.16-.4,2.3-.68,3.45s-.61,2.29-.98,3.44c-.37,1.14-.79,2.29-1.24,3.43-.45,1.15-.94,2.3-1.46,3.45-.52,1.16-.94,2.34-1.31,3.53-.38,1.19-.7,2.4-1.02,3.61-.64,2.42-1.25,4.84-2.18,7.2-.58,1.49-1.29,3.04-2.14,4.49-.39,.66-.81,1.31-1.26,1.92-.45,.61-.94,1.18-1.46,1.69-1.65,1.63-3.92,2.22-6.31,2.45-2.38,.23-4.88,.12-6.98,.33-.74,.08-1.47,.17-2.21,.28-1.47,.21-2.94,.49-4.4,.83-2.9,.7-5.73,1.69-8.35,3.1-.65,.35-1.3,.73-1.92,1.14-.77,.5-1.53,1.02-2.27,1.57-2.98,2.18-5.8,4.66-8.74,6.93-2.21,1.7-4.48,3.29-6.95,4.53-8.12,4.09-16.21-.54-22.97-5.22-7.51-5.19-14.53-9.94-24.04-10.41-1.54-.08-3.21-.06-4.95,.05-.11,0-.22,.02-.33,.02-5.27,.36-11.15,1.58-16.1,3.82-.03-.39-.06-.79-.1-1.18-.07-.79-.14-1.58-.19-2.37-.68-9.19-2.25-18.21-4.04-27.18-.26-1.28-.52-2.56-.78-3.84,2.73,1.96,5.53,3.83,8.4,5.58,12.43,7.59,26.12,12.93,40.99,13.33,2.88,.08,5.7-.11,8.47-.51,1.39-.2,2.76-.45,4.12-.75,1.36-.3,2.72-.64,4.06-1.03,3.36-.96,6.66-2.15,9.92-3.47,1.96-.79,3.9-1.63,5.83-2.49,4.48-1.98,8.89-4.21,13.43-6.11,1.51-.63,3.04-1.23,4.58-1.76,2.41-.84,4.97-1.3,7.51-1.79,.73-.14,1.45-.28,2.17-.43,.72-.15,1.44-.32,2.14-.5,.44-.11,.88-.24,1.31-.37,1.3-.4,2.56-.88,3.76-1.52,1.21-.64,2-1.8,2.31-3.07,.34-1.35,.13-2.81-.71-3.92-.35-.47-.81-.87-1.39-1.17-8.69-4.49-20.04,.22-28.38,3.65-.67,.27-1.33,.56-2,.85-.66,.29-1.32,.59-1.98,.9-.66,.31-1.31,.62-1.97,.93-1.75,.84-3.48,1.71-5.22,2.58-.43,.22-.86,.43-1.3,.64-1.09,.54-2.18,1.07-3.28,1.59-1.03,.49-2.06,.95-3.09,1.41-.56,.25-1.13,.49-1.7,.72-.47,.19-.94,.38-1.41,.57-3.3,1.29-6.69,2.32-10.26,2.88-3.76,.59-7.58,.68-11.43,.34-1.92-.17-3.85-.44-5.78-.81-1.29-.25-2.57-.53-3.86-.86-5.78-1.46-11.53-3.69-17.09-6.37-1.24-.6-2.46-1.21-3.68-1.85-.61-.32-1.21-.64-1.82-.97-1.21-.66-2.4-1.33-3.58-2.01-4.14-2.4-8.11-4.97-11.86-7.56-.77-3.79-1.51-7.6-2.16-11.42s-1.22-7.66-1.65-11.52h0c.1-.51,.19-1.01,.27-1.53,.24-1.53,.4-3.09,.44-4.67,.02-.78,0-1.55-.02-2.33-.11-3.1-.56-6.18-1.03-9.26-.12-.77-.24-1.54-.35-2.31-.23-1.54-.45-3.07-.62-4.61-.1-.91-.19-1.82-.27-2.74-.47-5.49-.56-11.05-.54-16.56,0-.92,0-1.84,.01-2.75,.11-14.46-.94-28.88-.45-43.33,.13-3.68,.29-7.35,.46-11.03,.28-5.98,.57-11.95,.8-17.93,.78,0,1.57-.03,2.35-.08,.78-.05,1.57-.11,2.35-.2,.82-.09,1.63-.2,2.44-.33,5.66-.92,11.13-2.89,15.89-6.01,.2-.13,.41-.26,.61-.4,.41-.28,.79-.57,1.18-.86,1.71-1.27,3.29-2.66,4.81-4.11,1.02-.96,2.01-1.95,3.01-2.94,1-.99,1.99-1.98,3.01-2.96,.51-.49,1.02-.97,1.55-1.45,.99-.9,2.01-1.69,3.05-2.39,.7-.47,1.4-.91,2.12-1.32,3.94-2.27,8.12-3.79,12.15-6.31,1.53-.96,2.34-2.72,2.29-4.4,0-.24-.03-.48-.07-.71-.02-.08-.04-.17-.06-.25-.09-.36-.21-.7-.38-1.03-.2-.37-.46-.72-.79-1.01-.49-.45-1.12-.79-1.89-.98-1.16-.28-2.31-.45-3.45-.53-.76-.05-1.52-.05-2.27-.02-.75,.04-1.5,.11-2.24,.23-.37,.06-.74,.12-1.11,.2-.74,.15-1.47,.34-2.19,.56-3.26,.98-6.39,2.62-9.32,4.59-3.58,2.41-6.87,5.32-9.74,8.15-.52,.52-1.03,1.03-1.52,1.54-2.99,3.07-5.94,5.75-9.57,7.66-1.21,.64-2.5,1.19-3.89,1.65-.67,.22-1.34,.43-2.01,.64-.67,.21-1.34,.41-2,.61-1.33,.4-2.65,.81-3.96,1.25,.03-1.6,.05-3.22,.05-4.82,.04-15.01,.22-30.12,.21-45.23,0-3.78-.02-7.55-.05-11.32-.07-7.55-.21-15.09-.46-22.6-.13-3.76-.28-7.51-.48-11.26-.41-8.16-.66-16.3-.8-24.42-.1-6.09-.15-12.18-.15-18.26,0-2.03,0-4.06,0-6.08,1.6-1.36,3.3-2.59,5.04-3.79,5.23-3.6,10.8-6.85,14.89-11.95,4.03-5.02,6.83-10.77,9.62-16.56,1.05-2.17,2.09-4.35,3.2-6.49,1.84-3.58,3.85-7.06,6.33-10.3,6.93-9.05,16.6-16.87,27.47-22.12,1.45-.7,2.92-1.35,4.41-1.96,1.3-.53,2.61-1.01,3.93-1.46,.96-.33,1.92-.64,2.88-.92,1.73-.51,3.47-.95,5.22-1.32,7.01-1.47,14.2-1.79,21.23-.65,.59,.09,1.17,.2,1.75,.31,1.78,.35,3.3-.07,4.44-.9,.16-.12,.32-.25,.46-.38,.23-.22,.45-.45,.64-.7,1.91-2.51,1.57-6.51-2.51-7.83-6.73-2.17-13.66-3.14-20.57-3.05-7.77,.1-15.5,1.54-22.87,4.08-1.4,.48-2.79,1.02-4.17,1.58-.47,.19-.95,.39-1.42,.6-1.88,.81-3.72,1.69-5.53,2.64-3.1,1.62-6.09,3.45-8.96,5.45-3.77,2.64-7.31,5.57-10.55,8.78-.61,.6-1.21,1.22-1.8,1.84-.08,.09-.16,.18-.24,.26-3.28,3.49-6.39,7.23-8.91,11.29-.79,1.28-1.54,2.59-2.2,3.93-.71,1.44-1.34,2.92-1.92,4.41-.46,1.18-.89,2.37-1.31,3.56-.63,1.8-1.24,3.62-1.89,5.42-.97,2.7-2.02,5.37-3.36,7.92-.38,.74-.8,1.44-1.24,2.12-3.08,4.76-7.43,8.23-11.98,11.55,.08-9.11,.2-18.25,.28-27.41,.05-5.56,.17-11.11,.3-16.67,.04-1.85,.08-3.71,.12-5.56,.16-7.41,.29-14.82,.23-22.23-.03-3.75-.18-7.48-.41-11.2-.34-5.57-.86-11.11-1.44-16.66-.58-5.55-1.21-11.1-1.77-16.69-.19-1.87-.37-3.73-.54-5.6s-.34-3.74-.49-5.6c-.64-7.47-1.18-14.96-1.78-22.43-.3-3.74-.61-7.48-.95-11.21-.33-3.57-.67-7.13-.99-10.71-.65-7.14-1.24-14.29-1.5-21.45-.13-3.58-.18-7.16-.12-10.74,.07-3.73,.13-7.46,.2-11.18,.2-11.17,.39-22.33,.43-33.52,.02-5.37,.53-10.71,1.16-16.04,.11-.89,.22-1.78,.33-2.66,.45-3.55,.93-7.1,1.34-10.65,.3-2.59,.57-5.19,.76-7.79,.14-1.85,.23-3.71,.28-5.57,.02-1.06,.03-2.11,0-3.16-.04-2.1-.15-4.2-.32-6.29-.17-2.09-.39-4.17-.64-6.25-.12-1.04-.25-2.08-.39-3.12-.27-2.08-.55-4.16-.81-6.24,.26-2.21,.56-4.42,.87-6.63,.8-5.72,1.76-11.45,2.99-17.21,.2-.95,.4-1.9,.6-2.86,.59-2.86,1.15-5.75,1.76-8.62,.81-3.83,1.7-7.64,2.81-11.37,.87-2.91,1.97-5.72,3.16-8.49,1.98-4.62,4.23-9.12,6.13-13.79,1.34-3.3,2.4-6.64,3.27-10,.12-.46,.23-.91,.35-1.37,.8-3.27,1.44-6.57,1.97-9.89,1.21-7.47,1.93-15.03,3.02-22.6,.98-6.87,2.92-13.39,5.58-19.63,1.59-3.74,3.44-7.38,5.49-10.93,.46-.79,.92-1.57,1.4-2.35,.95-1.56,1.94-3.11,2.96-4.63,.51-.76,1.03-1.53,1.56-2.28,.26-.37,.42-.76,.48-1.14,.07-.38,.05-.76-.04-1.12-.04-.18-.11-.36-.18-.53-.15-.34-.37-.66-.63-.94s-.57-.53-.9-.72c-.58-.34-1.25-.52-1.91-.47-.66,.05-1.32,.33-1.88,.91-2.24,2.33-4.47,4.74-6.63,7.24-.72,.83-1.43,1.68-2.12,2.53-3.91,4.77-7.46,9.86-10.19,15.31-1.56,3.11-2.85,6.34-3.79,9.69-4.58,16.34-3.37,33.42-9,49.63-2.51,7.23-4.85,14.32-6.99,21.46,.04-2.57,.06-5.15,.05-7.72,0-.04,0-.08,0-.11,0-5.11-.08-10.22-.22-15.33-.07-2.57-.16-5.15-.27-7.72-.09-2.17-.17-4.31-.24-6.45-.2-6.12-.32-12.11-.32-18.08,0-.03,0-.07,0-.1h0c.11-.21,.2-.43,.26-.67s.09-.5,.09-.77c-.02-2.29-.11-4.62-.25-6.96,.15-6.4,.47-12.82,1.03-19.38,.19-2.19,.4-4.39,.64-6.61,.6-5.49,1.07-10.98,1.47-16.47,.24-3.24,.45-6.49,.65-9.73,.68-11.29,1.17-22.58,1.89-33.87,.18-2.86,.38-5.72,.6-8.58,.14-1.56,.26-3.12,.35-4.67,.18-2.89,.3-5.79,.34-8.68,.04-2.89,0-5.79-.1-8.67-.16-4.51-.49-9.01-1.01-13.5,.01-.03,.03-.05,.05-.07,0,0,.01-.01,.01-.02,.47-.69,.91-1.39,1.34-2.11,.88-1.47,1.69-2.98,2.44-4.53,1.67-3.45,3.08-7.06,4.56-10.64,.49-1.19,.99-2.38,1.52-3.56,.52-1.18,1.06-2.34,1.63-3.49,.29-.57,.58-1.14,.88-1.71,.3-.56,.62-1.12,.94-1.68,4.75-8.1,10.94-16.43,19.78-20.55,1.27-.59,2.55-1.08,3.82-1.47s2.54-.69,3.81-.89c.67-.11,1.34-.19,2.01-.25,6.92-.61,13.76,1.34,20.37,4.67,6.23,3.14,12.22,5.79,18.34,7.03,1.15,.23,2.3,.42,3.47,.55,1.05,.12,2.1,.19,3.17,.21,.18,1.42,.37,2.86,.61,4.29,.7,4.29,1.74,8.55,3.61,12.38,1.89,3.87,4.33,7.37,7.02,10.71,.54,.67,1.08,1.33,1.64,1.99,1.11,1.31,2.24,2.61,3.39,3.89,2.91,3.27,6.03,6.45,9.13,9.69,4.46,4.66,8.85,9.42,12.44,14.66,.78,1.13,1.52,2.29,2.21,3.47,.72,1.22,1.38,2.47,2,3.74,.25,.51,.5,1.02,.72,1.54,.42,.96,.88,2.05,1.31,3.23,.14,.39,.28,.79,.42,1.2,.41,1.22,.77,2.5,1.01,3.77,.06,.32,.11,.64,.16,.97,.01,.1,.04,.21,.05,.31-.24,.56-.45,1.14-.62,1.72-.23,.79-.4,1.6-.52,2.43-.15,1.01-.23,2.03-.23,3.07-.06,.09-.13,.17-.2,.26-.2,.26-.41,.51-.66,.74-1.53,1.43-3.63,2.33-5.93,2.89-.33,.08-.66,.15-.99,.22-1.53,.3-3.12,.47-4.67,.57-1.94,.11-3.81,.11-5.41,.08-5.45-.08-10.75-.42-15.66-1.87-3.82-1.13-7.39-2.94-10.62-5.85-.65-.59-1.3-1.19-1.94-1.78-2.26-2.07-4.53-4.08-7.07-5.44-.36-.19-.73-.37-1.1-.54-2.25-.99-4.72-1.43-7.58-.95-2.54,.43-3.74,2.2-3.91,4.19-.04,.5-.02,1.01,.07,1.51,.26,1.51,1.06,2.98,2.3,3.93,3.87,2.97,6.84,5.31,10.21,8.91,1.2,1.28,2.38,2.46,3.61,3.52,.41,.35,.83,.69,1.26,1.02,1.71,1.31,3.58,2.42,5.8,3.3,1.6,.64,3.27,1.17,4.97,1.61,1.14,.29,2.29,.54,3.46,.75,1.17,.21,2.35,.39,3.54,.55,1.19,.15,2.39,.27,3.58,.37,1.8,.15,3.6,.25,5.38,.32,1.79,.07,3.56,.11,5.3,.14,.58,.01,1.15,.02,1.73,.03,.83,.01,1.65,0,2.48-.02,3.29-.11,6.54-.55,9.6-1.34,2.29-.6,4.48-1.39,6.49-2.4,1.1,2.05,2.35,3.93,3.66,5.54,.97,1.19,2,2.31,3.08,3.39,1.08,1.08,2.21,2.11,3.37,3.11s2.35,1.98,3.55,2.93c1.81,1.44,3.64,2.84,5.46,4.27,1.21,.95,2.41,1.92,3.58,2.91,2.93,2.47,5.68,5.11,8,8.17,3.12,4.12,5.3,10.12,2.51,14.96-.16,.28-.35,.56-.54,.83-.3,.43-.62,.84-.98,1.24-.56,.63-1.19,1.22-1.86,1.79-.34,.29-.7,.57-1.07,.85-.37,.28-.74,.55-1.13,.81-1.15,.8-2.37,1.56-3.59,2.3-1.43,.87-2.87,1.72-4.21,2.61-1.34,.89-2.59,1.8-3.65,2.79-6.27,5.91-9.78,13.55-12.05,21.66-1.91,6.89-3.67,13.6-5.8,20.32h0c-.35-.5-.7-.98-1.07-1.46-1.11-1.42-2.32-2.75-3.64-3.96-3.92-3.6-8.8-6.18-14.86-7.27-7.91-1.42-15.23,.33-22.73,2.72-1.71,.55-3.48,1.2-5.28,1.81-.36,.12-.72,.24-1.09,.36-.8,.26-1.61,.5-2.42,.72-2.86,.77-5.78,1.22-8.65,.77-.64-.1-1.26-.23-1.85-.39-6.49-1.75-10-6.94-11.64-13.38-.6-2.34-.95-4.85-1.11-7.42-.04-.6-.06-1.21-.08-1.82-.02-.61-.02-1.22-.02-1.83,0-1.22,.05-2.45,.12-3.67,.07-1.22,.18-2.43,.3-3.62,.15-1.34,.32-2.65,.52-3.92,.61-3.82,1.43-7.28,2.26-9.95,.07-.21,.11-.42,.12-.62,.28-3.06-4.43-5.12-6.06-2.01-4,7.63-5.17,16.1-5.34,24.57-.01,.62-.02,1.25-.02,1.87,0,.61,0,1.21,0,1.82,0,.6,.01,1.2,.03,1.81,.02,1.22,.06,2.46,.13,3.71,.15,3.03,.45,6.12,1.02,9.16,.17,.9,.36,1.79,.58,2.68,.57,2.31,1.32,4.55,2.32,6.66,.8,1.69,1.76,3.3,2.9,4.78,4.32,5.6,10.04,8.04,16.22,8.52,4.81,.38,9.89-.43,14.81-1.85,.79-.23,1.6-.49,2.43-.76,1.77-.59,3.61-1.24,5.48-1.88,.75-.25,1.51-.51,2.27-.75-.11,9.83,5.3,20.75,9.61,29.31,.29,.57,.57,1.13,.85,1.68,.29,.59,.58,1.16,.86,1.72,.28,.57,.56,1.14,.84,1.72,.55,1.15,1.09,2.3,1.6,3.45,.26,.58,.51,1.16,.76,1.74,.4,.94,.77,1.88,1.14,2.82,.6,1.57,1.15,3.16,1.64,4.76,.42,1.4,.79,2.81,1.1,4.23,.1,.45,.19,.89,.27,1.34,.13,.71,.25,1.42,.36,2.14,.31,2.15,.47,4.34,.44,6.58-.04,3.19-.38,6.36-.82,9.53-.94,6.72-2.33,13.41-2.22,20.17,.14,8.95,4.03,16.73,8.01,24.44,.79,1.54,1.59,3.08,2.36,4.63,1.54,3.09,2.98,6.21,4.08,9.42,1.23,3.6,2.03,7.32,2.07,11.25,.02,2.09-.06,4.16-.22,6.22-.11,1.37-.25,2.74-.41,4.1s-.36,2.72-.57,4.07c-1.05,6.77-2.57,13.43-3.54,20.1-.1,.67-.19,1.33-.27,2-.43,3.33-.69,6.67-.67,10.02,0,.71,.02,1.42,.05,2.13,.05,1.24,.15,2.47,.29,3.72,.02,.18,.04,.36,.07,.54,.13,.99,.29,1.97,.48,2.97,.57,2.96,1.44,5.95,2.7,8.96,2.66,6.33,6.65,12,11.08,17.34,.98,1.19,1.99,2.36,3.01,3.52,2.55,2.9,5.17,5.71,7.73,8.51,3.65,4.01,7.27,8.03,10.24,12.55,.42,.65,.83,1.3,1.23,1.97,1.14,1.94,1.99,3.94,2.66,5.98,1.12,3.4,1.77,6.91,2.51,10.45h0c-.88,1.25-1.72,2.51-2.45,3.79-.5,.87-.93,1.75-1.33,2.64-2.63,5.85-3.22,12.11-3.36,18.45-.05,2.02-.05,4.04-.06,6.06,0,1.33-.02,2.66-.05,3.99-.04,1.71-.16,3.43-.35,5.14-.91,8.14-3.45,16.17-6.98,23.68-.41,.88-.84,1.75-1.28,2.62-1.32,2.6-2.75,5.12-4.27,7.56-.7,1.12-1.43,2.22-2.19,3.3-5.32,7.53-11.97,14.04-18.72,20.36-2.37,2.22-5.61,5.22-8.53,7.62-.53,.44-1.05,.85-1.55,1.24-.75,.58-1.46,1.11-2.11,1.54-.71,.07-1.39,.28-1.97,.64-.58,.36-1.07,.87-1.39,1.56-.75,1.61-.91,3.1-.63,4.4,.14,.65,.39,1.25,.72,1.79,1.18,1.89,3.47,3.05,6.06,3,.74-.01,1.5-.12,2.27-.35,.38-.11,.77-.25,1.16-.41,2.22-.96,4.35-2.38,6.39-4,.68-.54,1.35-1.11,2.01-1.68,.66-.58,1.31-1.17,1.95-1.77,.64-.6,1.27-1.2,1.89-1.79,.31-.3,.62-.59,.92-.89,.92-.88,1.81-1.74,2.69-2.55,4.4-4.04,8.57-8.28,12.42-12.74,5.77-6.69,10.82-13.86,14.83-21.58,2.67-5.15,4.89-10.55,6.55-16.21,.83-2.83,1.52-5.73,2.07-8.7,.01-.06,.02-.12,.03-.18,.12-.67,.22-1.34,.3-2.03,.09-.75,.16-1.5,.21-2.27,.08-1.15,.13-2.31,.15-3.49,.05-2.35,.01-4.76,0-7.17v-.02c0-.9,0-1.81,0-2.71,0-.9,.02-1.8,.05-2.7,.06-1.79,.17-3.57,.38-5.31,.09-.77,.21-1.54,.35-2.3,.21-1.14,.47-2.25,.8-3.34,.33-1.09,.72-2.16,1.2-3.19,.32-.69,.67-1.36,1.06-2.02,.6-1,1.26-1.97,1.97-2.93,.36-.47,.73-.94,1.11-1.41,1.53-1.85,3.25-3.61,5.09-5.27,.46-.42,.93-.83,1.4-1.23,.94-.81,1.91-1.59,2.89-2.36,.73-.57,1.48-1.13,2.22-1.68,2.24-1.64,4.5-3.17,6.67-4.6,5.07-3.33,10.17-6.13,15.63-7.92,.61-.2,1.22-.39,1.84-.56,1.23-.35,2.49-.64,3.77-.87,.64-.12,1.29-.22,1.94-.31,1.96-.26,3.97-.39,6.06-.36,.94,.01,1.87,.05,2.79,.12,4.6,.34,8.95,1.34,13.19,2.66,4.24,1.33,8.37,2.98,12.53,4.64,1.66,.66,3.33,1.32,5.02,1.96,1.68,.64,3.38,1.26,5.1,1.83,.86,.29,1.72,.56,2.6,.83,.48,.14,.96,.19,1.41,.16,.46-.03,.9-.15,1.31-.32,.62-.27,1.17-.68,1.61-1.18,.74-.83,1.17-1.91,1.11-2.98-.05-.85-.42-1.7-1.2-2.41-2.35-2.13-4.91-4.11-7.63-5.93-2.72-1.82-5.61-3.47-8.62-4.93-4.01-1.95-8.23-3.55-12.56-4.76-1.44-.4-2.9-.76-4.36-1.07-10.97-2.33-22.39-2.04-32.59,1.78-1.35,.51-2.71,1.06-4.09,1.66-.69,.3-1.37,.61-2.06,.93-2.07,.97-4.14,2.03-6.21,3.19-2.75,1.54-5.47,3.24-8.11,5.07-1.98,1.38-3.91,2.83-5.77,4.35-1.24,1.01-2.45,2.06-3.62,3.13-.58,.54-1.16,1.08-1.72,1.63-.02-.7-.05-1.39-.1-2.09-.31-4.85-1.28-9.57-4.08-14.17-.67-1.1-1.37-2.18-2.1-3.24-.64-.93-1.29-1.84-1.96-2.75-4.7-6.32-10.17-12.05-15.34-18.01-2.96-3.42-5.64-6.93-7.82-10.62-3.65-6.15-5.93-12.83-5.93-20.51,0-.7,.02-1.39,.04-2.08,.04-1.24,.12-2.47,.23-3.7,.01-.12,.02-.24,.03-.35,.6-6.51,1.99-12.94,3.17-19.38,.36-1.95,.7-3.91,.99-5.86,.62-4.18,1.02-8.29,.98-12.34-.05-5.22-.82-10.37-2.75-15.53-.38-1.01-.78-2-1.21-2.98-3.02-6.85-7.25-13.1-10.24-19.97-2.1-4.82-2.85-9.78-2.92-14.84,0-.56,0-1.12,0-1.69,.03-2.54,.22-5.09,.47-7.66,.25-2.57,.57-5.14,.86-7.72,.2-1.72,.39-3.44,.54-5.16,.1-1.15,.19-2.29,.26-3.44,.1-1.72,.15-3.43,.13-5.14-.01-.71-.03-1.42-.07-2.13-.12-2.13-.37-4.25-.8-6.36-.66-3.18-1.71-6.35-3-9.52-.21-.53-.43-1.06-.66-1.58-.45-1.06-.93-2.11-1.41-3.17-.98-2.11-2.02-4.22-3.07-6.34-3.41-6.87-6.91-13.77-8.72-20.8-.28-1.08-.52-2.17-.71-3.25-.19-1.09-.34-2.18-.43-3.27-.09-1.09-.13-2.19-.11-3.3,.37,.01,.75,.03,1.12,.06,1.11,.1,2.21,.29,3.28,.61,.43,.13,.85,.27,1.27,.44,1.25,.49,2.47,1.11,3.64,1.83,4.71,2.89,8.89,7.33,13.08,10.47,.76,.57,1.62,.77,2.47,.68,.17-.02,.34-.04,.5-.08,.33-.08,.66-.19,.97-.35,.62-.3,1.19-.75,1.63-1.28,.22-.27,.41-.56,.56-.86,.15-.3,.26-.62,.33-.95,.16-.12,.32-.24,.47-.38,.15-.14,.3-.29,.44-.46,.72-.87,1.38-1.77,1.99-2.71s1.16-1.91,1.66-2.9c.51-1,.97-2.02,1.39-3.06,.21-.52,.42-1.05,.61-1.58,.98-2.66,1.77-5.43,2.5-8.23,1.11-4.2,2.1-8.45,3.46-12.46,.16-.48,.33-.95,.5-1.42,.47-1.28,.99-2.54,1.57-3.75,.04-.07,.07-.15,.1-.22,.42-.86,.87-1.69,1.36-2.5,.22-.36,.45-.72,.68-1.07,.49-.74,1.01-1.45,1.57-2.14,.56-.69,1.16-1.35,1.81-1.99,1.29-1.27,2.77-2.42,4.46-3.44,1.75-1.04,3.55-2.02,5.34-3.01,.37-.2,.74-.41,1.1-.62,.66-.37,1.31-.74,1.95-1.13,1.18-.7,2.34-1.43,3.45-2.22,.37-.26,.74-.53,1.1-.8,1.08-.82,2.11-1.71,3.07-2.69,.64-.65,1.25-1.34,1.82-2.08-.04,.71-.09,1.41-.14,2.11-.25,3.52-.56,7.04-.58,10.57,0,1.41,.03,2.83,.13,4.24,.64,8.69,4.02,15.77,8.73,22.07,1.01,1.35,2.08,2.67,3.2,3.95,5.59,6.44,12.35,12.2,18.55,18.31,.99,.97,1.95,1.98,2.88,3.01,.47,.52,.92,1.04,1.37,1.57,4.02,4.77,7.22,10.11,8.42,16.04,.13,.66,.24,1.32,.33,2,.17,1.35,.23,2.72,.17,4.12-.03,.7-.09,1.41-.17,2.13-.41,3.29-1.4,6.36-2.72,9.32-.31,.7-.64,1.4-.98,2.08-.34,.68-.69,1.36-1.06,2.03-.86,1.58-1.78,3.14-2.73,4.69-1.16,1.89-2.34,3.77-3.49,5.67-.76,1.26-1.5,2.53-2.2,3.82-.7,1.29-1.35,2.59-1.93,3.91-4.32,9.79-5.19,20.32-6.58,30.77-1.35,10.14-7.06,16.74-12.87,24.36-.83,1.09-1.66,2.2-2.48,3.34-2.32,3.23-4.29,6.66-5.92,10.23-.73,1.59-1.38,3.21-1.98,4.86-.82,2.24-1.53,4.52-2.12,6.84-1.11,4.36-1.82,8.82-2.15,13.3-.07,.92-.12,1.84-.18,2.75-.1,1.83-.19,3.64-.29,5.44-.05,.9-.1,1.8-.17,2.7-.13,1.8-.29,3.6-.54,5.4s-.56,3.6-1,5.42c-1.67,6.93-4.52,13.65-4.84,20.81h0c-.1,2.39,1.5,4.34,3.55,5.32,1.76,.84,3.85,.97,5.49,.07,.82-.45,1.53-1.16,2.02-2.17,4.76-9.72,7.9-21.5,9-32.54,.16-1.58,.27-3.14,.35-4.68,.04-.88,.09-1.75,.15-2.61s.12-1.71,.2-2.56c.09-.94,.19-1.87,.3-2.8,.19-1.56,.41-3.1,.68-4.61,.12-.67,.26-1.33,.4-2,.06-.28,.11-.56,.17-.84,.43-1.94,.94-3.84,1.54-5.71,.08-.26,.19-.52,.27-.78,.86-2.54,1.88-5.04,3.13-7.51,1.38-2.72,3.01-5.41,4.95-8.09,.41-.57,.83-1.13,1.24-1.7,.41-.56,.83-1.12,1.24-1.68,5.77-7.79,11.25-15.14,12.9-25.1,.13-.76,.24-1.52,.35-2.28,.22-1.52,.41-3.04,.59-4.56,.61-5.12,1.09-10.23,2.09-15.22,.33-1.66,.73-3.32,1.2-4.96,.84-2.91,1.95-5.78,3.45-8.57,.23-.44,.48-.89,.72-1.32,.26,.57,.52,1.12,.79,1.64,1.55,2.95,3.46,5.4,5.64,7.49,1.31,1.26,2.71,2.39,4.19,3.43,.99,.69,2.01,1.35,3.06,1.97,3.15,1.87,6.57,3.46,10.1,5.05,10.17,4.57,17.23,12.16,22.2,21.13,.11,.2,.22,.39,.33,.59,.47,.87,.92,1.76,1.35,2.65,.28,.59,.56,1.18,.83,1.78,1.42,3.15,2.63,6.42,3.67,9.75,.42,1.34,.81,2.68,1.17,4.04,.44,1.65,.85,3.3,1.22,4.96,.2,.9,.39,1.8,.58,2.7,.55,2.7,1.02,5.4,1.43,8.06,.14,.9,.54,1.6,1.09,2.12,.19,.17,.39,.32,.6,.45,.65,.39,1.42,.59,2.21,.62,.53,.02,1.06-.04,1.58-.17,.26-.07,.51-.15,.75-.25,1.21-.51,2.17-1.47,2.42-2.84,.05-.27,.07-.56,.06-.87-.03-.64-.05-1.29-.09-1.93-.05-1.1-.12-2.2-.2-3.3-.99-14.31-3.96-28.81-11.5-40.97-1.16-1.87-2.43-3.69-3.82-5.44-.52-.66-1.06-1.3-1.61-1.94-.67-.77-1.35-1.53-2.07-2.27-.47-.48-.95-.96-1.44-1.43-1.48-1.42-3.04-2.68-4.66-3.83-6.28-4.48-13.38-7.34-19.79-11.7-.74-.5-1.47-1.02-2.19-1.56-.57-.44-1.11-.9-1.63-1.37-.05-.05-.11-.09-.16-.13-.56-.52-1.09-1.07-1.59-1.64-.66-.76-1.26-1.56-1.79-2.41-.27-.42-.51-.86-.75-1.31-.46-.9-.86-1.84-1.18-2.84-.12-.36-.22-.72-.31-1.08-.18-.72-.31-1.44-.41-2.15-.05-.36-.09-.72-.13-1.08-.07-.72-.12-1.43-.17-2.15-.05-.71-.09-1.43-.14-2.14,.6-1.44,1.15-2.9,1.64-4.4,.81-2.5,1.44-5.08,1.81-7.8,.59-4.35,.39-8.6-.45-12.72-.42-2.06-1-4.08-1.73-6.06-.73-1.98-1.59-3.92-2.59-5.81-.99-1.89-2.11-3.73-3.34-5.52-.41-.6-.83-1.19-1.26-1.77-3.59-4.84-8.06-9.16-12.49-13.46-.89-.86-1.77-1.72-2.64-2.58-.87-.86-1.74-1.73-2.59-2.6-1.27-1.31-2.51-2.64-3.68-4-4.7-5.43-8.39-11.35-9.49-18.63-.27-1.82-.39-3.72-.31-5.73,.14-3.71,.25-8.18-.02-12.8-.06-1.03-.14-2.06-.24-3.09-.1-1.03-.22-2.07-.37-3.09-.84-5.92-2.54-11.61-5.77-15.78-2.09-2.69-4.8-4.76-8.36-5.81-5.32-9.13-14.62-15.46-23.06-21.87-.06-.05-.13-.1-.19-.15-2.05-1.56-4.19-3.13-6.21-4.84-.52-.44-1.03-.89-1.53-1.35-1.5-1.38-2.88-2.85-4.05-4.47-.34-.48-.64-.95-.9-1.42-.26-.47-.47-.94-.66-1.4,.1-.24,.18-.51,.27-.76,.35-.96,.65-1.96,.87-3.02,.92,.1,1.87,.04,2.78-.22,.91-.26,1.79-.73,2.58-1.45,.89-.8,1.79-1.61,2.69-2.43,.6-.55,1.21-1.12,1.82-1.67,2.3-2.11,4.6-4.26,6.86-6.46,.79-.77,1.57-1.55,2.35-2.33,2.91-2.92,5.71-5.9,8.3-8.92,5.17-6.06,9.01-12.73,12.24-19.85,.72-1.58,1.42-3.18,2.08-4.81,.19-.47,.27-.92,.26-1.33-.03-1.04-.65-1.87-1.51-2.38-.35-.21-.73-.36-1.13-.46-1.41-.35-3.05,0-3.99,1.35-.83,1.18-1.7,2.33-2.6,3.45-5.88,7.27-13.23,13.32-20.47,19.5-.56,.47-1.11,.95-1.67,1.43-.81,.69-1.61,1.39-2.41,2.09-3.19,2.81-6.3,5.68-9.17,8.76-1.08-3.88-2.67-7.63-4.62-11.23-1.56-2.89-3.34-5.68-5.26-8.37-2.4-3.36-5.02-6.57-7.69-9.59-1.07-1.21-2.14-2.39-3.21-3.54-1.42-1.52-2.87-3.02-4.33-4.5-2.93-2.97-5.9-5.88-8.8-8.87-1.45-1.5-2.88-3.01-4.27-4.56-1.84-2.05-3.8-4.07-5.72-6.15-1.92-2.08-3.79-4.2-5.47-6.43-1.12-1.49-2.15-3.03-3.04-4.63h0c.56-.11,1.13-.23,1.69-.37,.57-.14,1.14-.29,1.71-.46,1.15-.34,2.31-.74,3.49-1.23,.31-.13,.62-.26,.94-.4,4.36-1.92,8.57-4.52,13.39-4.81,.34-.02,.69-.03,1.04-.02,.47,0,.93,.03,1.39,.06,3.35,.23,6.57,1.11,9.5,2.56,.74,.37,1.46,.77,2.16,1.21,.35,.22,.69,.45,1.03,.68,1.35,.95,2.62,2.03,3.77,3.24,1.34,1.41,2.62,2.83,3.88,4.23,.42,.46,.84,.92,1.26,1.38,.84,.91,1.69,1.79,2.55,2.63,1.29,1.26,2.63,2.43,4.07,3.44,1.91,1.35,3.99,2.42,6.38,3.08,.6,.16,1.21,.3,1.85,.41,1.27,.22,2.62,.33,4.08,.31,3.76-.06,7.5-.92,11.2-1.73,1.23-.27,2.46-.54,3.68-.77,1.7-.32,3.41-.58,5.12-.78,1.71-.2,3.42-.35,5.13-.44,1.71-.09,3.43-.13,5.15-.11,.86,0,1.72,.03,2.59,.07,.86,.04,1.73,.09,2.59,.15,3.4,.24,6.79,.72,10.13,1.42,3.27,.68,6.5,1.6,9.65,2.7,1.68,.59,3.35,1.21,4.99,1.91,1.73,.74,3.43,1.56,5.1,2.42,1.35,.7,2.68,1.44,3.99,2.22,1.46,.87,2.88,1.8,4.27,2.77,3.03,2.11,5.88,4.47,8.58,7,4.93,4.62,9.32,9.86,13.22,15.38,2.52,3.55,4.84,7.22,6.96,10.91,.94,1.63,1.86,3.27,2.76,4.92,.9,1.65,1.79,3.31,2.66,4.97,1.74,3.33,3.41,6.7,5.01,10.1,.24,.5,.49,.97,.74,1.46,.59,1.16,1.21,2.28,1.86,3.37,1.22,2.05,2.52,4,3.89,5.91h0c-2.68-.27-5.67-.49-8.61-.89-1.14-.15-2.28-.33-3.4-.55-2.38-.48-4.64-1.15-6.59-2.14-.31-.16-.62-.28-.94-.38-.32-.1-.65-.17-.98-.22-.33-.05-.66-.07-.99-.06-3.31,.04-6.54,2.49-6.54,5.62,0,.94,.29,1.93,.96,2.94,1.75,2.64,3.84,4.54,6.17,5.94,6.33,3.79,14.42,3.86,22.15,4.92,.41,.06,.81,.11,1.22,.18,1.21,.19,2.42,.4,3.6,.67,.79,.18,1.57,.38,2.33,.61,11.27,3.35,20.48,10.14,26.91,19.11,2.5,3.49,4.58,7.31,6.19,11.39,.27,.69,.54,1.38,.78,2.08,0,.01,0,.02,.01,.03,.41,1.16,.8,2.33,1.19,3.5,.09,.28,.18,.56,.27,.84,.29,.9,.58,1.8,.86,2.7,.11,.36,.22,.72,.33,1.08,.04,.13,.08,.27,.12,.4,.21,.69,.42,1.38,.62,2.07,.11,.39,.23,.78,.34,1.18,.23,.81,.46,1.62,.68,2.43,.04,.16,.09,.32,.14,.48,.03,.11,.06,.23,.09,.34,.63,2.31,1.23,4.63,1.81,6.95,.01,.05,.03,.11,.04,.16,.02,.07,.03,.14,.05,.21,.82,3.3,1.6,6.6,2.36,9.92,.04,.16,.07,.31,.11,.47,.38,1.64,.75,3.29,1.12,4.93,.03,.13,.06,.26,.09,.39,.36,1.61,.73,3.22,1.09,4.84,.05,.2,.09,.41,.14,.61,.32,1.42,.65,2.84,.97,4.26,.09,.4,.18,.79,.28,1.19,.38,1.65,.77,3.3,1.17,4.94,2.09,8.66,4.5,17.02,7.91,25.28,.02,.06,.05,.13,.07,.19-2.57-1.36-5.05-2.86-7.49-4.44-1.83-1.18-3.63-2.41-5.43-3.64-.6-.41-1.2-.82-1.8-1.23-4.55-3.14-8.7-6.76-13.88-7.59-.47-.07-.94-.13-1.43-.16-.42-.02-.84-.03-1.28-.01-.43,.02-.88,.05-1.32,.11-.37,.05-.72,.16-1.06,.33-.33,.17-.65,.39-.93,.66-.3,.28-.57,.61-.8,.96-.07,.1-.13,.21-.19,.32-.34,.63-.56,1.32-.6,1.99-.02,.44,.03,.88,.17,1.28,1.95,5.52,7.04,8.46,11.58,12.01,.3,.24,.6,.48,.9,.72,1.14,.94,2.28,1.88,3.42,2.82,2.28,1.88,4.58,3.75,6.96,5.51,1.19,.88,2.39,1.74,3.63,2.56,1.61,1.08,3.27,2.13,4.92,3.2,1.49,.95,2.97,1.92,4.44,2.91,2.18,1.48,4.31,3.02,6.28,4.7,1.06,.9,2.07,1.85,3.02,2.85,1.43,1.5,2.73,3.11,3.85,4.88,.75,1.18,1.41,2.43,1.98,3.77,1.8,4.21,3.02,8.61,3.83,13.11,.23,1.29,.43,2.58,.6,3.89,.34,2.61,.56,5.25,.71,7.9,.07,1.33,.12,2.66,.16,4,.04,1.33,.06,2.66,.07,3.99,0,.01,0,.02,0,.03,.07,10.05-.5,20.18,.11,29.74-3.62,1.13-6.63,4.29-6.56,8.2,.02,1.3,.38,2.68,1.17,4.1,1.73,3.09,3.67,6.04,5.74,8.9,1.38,1.91,2.82,3.77,4.29,5.62,2.94,3.69,6.02,7.29,9.01,10.95,5.24,6.39,10.24,12.93,13.9,20.35,1.05,2.13,1.97,4.31,2.77,6.51,.8,2.2,1.47,4.43,2.05,6.68-.7-.79-1.42-1.57-2.17-2.33-1.49-1.52-3.05-2.96-4.69-4.33-.82-.68-1.65-1.34-2.5-1.99-2.13-1.6-4.36-3.05-6.66-4.37-1.38-.79-2.78-1.55-4.21-2.23-2.43-1.16-4.96-2.03-7.56-2.72-1.04-.27-2.08-.52-3.14-.73-1.05-.22-2.12-.41-3.18-.58-1.6-.26-3.21-.47-4.81-.66-1.61-.19-3.22-.35-4.82-.51-.53-.05-1.07-.1-1.6-.15-.43-.04-.87-.08-1.3-.12-2.06-.18-4.12-.35-6.12-.64-.81-.12-1.61-.25-2.39-.41-.34-.2-.68-.41-1.02-.63-.34-.22-.67-.44-.99-.68-.65-.47-1.29-.98-1.91-1.54-1.79-1.6-3.28-3.45-4.59-5.46-.26-.4-.52-.81-.76-1.22-.36-.6-.7-1.22-1.04-1.84-.24-.44-.47-.89-.7-1.35-.22-.44-.44-.87-.65-1.31-1.16-2.39-2.2-4.85-3.27-7.21-.2-.43-.39-.86-.59-1.28-.21-.45-.43-.9-.63-1.34-.32-2.21-.76-4.41-1.27-6.57-.37-1.59-.79-3.16-1.24-4.72s-.92-3.08-1.42-4.57c-2.88-8.68-5.77-17.55-9.5-26.01-1.7-3.84-3.57-7.6-5.69-11.22-.97-1.65-1.99-3.28-3.08-4.87-2.66-3.92-5.47-7.63-7.58-11.78-.35-.69-.68-1.4-.99-2.12-.31-.72-.59-1.45-.85-2.21-1.79-5.21-2.31-10.57-2.72-15.97-.13-1.8-.26-3.61-.41-5.41-.17-1.97-.37-3.94-.62-5.9-.12-.98-.25-1.96-.4-2.94-.28-1.96-.6-3.91-.96-5.85-.18-.97-.37-1.94-.56-2.91-.39-1.94-.82-3.87-1.29-5.79-.46-1.92-.96-3.84-1.5-5.74-.53-1.91-1.1-3.8-1.7-5.69-2.69-8.5-6.04-16.81-9.94-24.87-.86-1.79-1.76-3.57-2.67-5.34-2.29-4.41-4.75-8.75-7.34-12.99-1.04-1.7-2.1-3.38-3.18-5.04-1.08-1.67-2.18-3.31-3.31-4.95-2.08-3.02-4.25-6.03-6.48-9.05-3.13-4.24-6.36-8.48-9.57-12.78-11.65-15.57-23.04-31.73-28.18-50.01-.24-.87-.47-1.74-.69-2.62-.74-3.01-1.3-6.08-1.67-9.21-.12-1.04-.22-2.1-.3-3.15-.05-.74-.24-1.39-.51-1.95-.21-.42-.47-.8-.78-1.12-.3-.32-.65-.6-1.02-.82-.74-.44-1.6-.69-2.45-.72-1.7-.06-3.41,.72-4.23,2.39-.28,.56-.46,1.22-.51,1.97-.06,.85-.1,1.7-.14,2.53-.08,1.68-.11,3.33-.11,4.95,0,.81,.01,1.62,.04,2.43,.05,1.61,.13,3.2,.27,4.78,.27,3.16,.71,6.27,1.36,9.38,.97,4.66,2.4,9.31,4.35,14.09,.62,1.51,1.27,3.01,1.95,4.49,2.37,5.16,5.09,10.16,8.02,15.04,2.79,4.64,5.76,9.18,8.78,13.67,.19,.28,.38,.57,.57,.85,10.16,15.02,20.56,29.51,29.21,45.03,1.73,3.1,3.39,6.25,4.97,9.45,1.57,3.2,3.06,6.45,4.45,9.77,1.39,3.32,2.67,6.7,3.84,10.16,1.47,4.36,2.63,8.71,3.58,13.07,.57,2.61,1.08,5.23,1.54,7.86,1.23,7,2.15,14.06,3.29,21.27,.24,1.52,.54,2.99,.9,4.43,1.53,6.16,4.08,11.65,7.15,17.04,.51,.9,1.03,1.8,1.57,2.69,.75,1.25,1.53,2.5,2.32,3.76,.79,1.26,1.61,2.52,2.43,3.79,2.24,3.46,4.18,7.1,5.92,10.86,1.24,2.68,2.37,5.41,3.43,8.17,.56,1.46,1.09,2.94,1.6,4.42,1.96,5.63,3.65,11.35,5.29,16.97,.82,2.83,1.79,6.57,2.44,10.57,1.42,8.81,1.28,18.88-5.47,23.32-.67,.44-1.37,.86-2.07,1.25-2.82,1.57-5.85,2.79-8.82,4.13-1.48,.67-2.95,1.38-4.37,2.17-.71,.4-1.41,.82-2.08,1.27-.24,.16-.46,.34-.69,.49-.98-1.09-2.03-2.15-3.09-3.19-1.06-1.04-2.12-2.06-3.1-3.07-.33-.34-.65-.67-.96-1.01-.31-.34-.61-.67-.89-1.01-.58-.69-1.13-1.38-1.66-2.07-1.57-2.08-2.9-4.2-4.02-6.43-1.49-2.97-2.61-6.12-3.47-9.61-.15-.63-.42-1.17-.78-1.62-.18-.23-.37-.43-.59-.62-2.35-2.03-6.74-1.46-7.88,1.44-.21,.53-.31,1.13-.27,1.81,.06,1,.13,2.01,.23,3.01,.09,1,.21,2,.35,2.99,.28,1.98,.65,3.95,1.13,5.89,.3,1.21,.66,2.4,1.06,3.58,.2,.6,.42,1.19,.65,1.78,.77,1.98,1.69,3.91,2.8,5.77,.21,.35,.44,.72,.67,1.1,1.28,2.05,2.89,4.38,4.75,6.63,.87,1.06,1.8,2.1,2.76,3.08,.48,.49,.97,.96,1.47,1.42h0c-.61,.7-1.22,1.39-1.8,2.12-.68,.86-1.41,1.88-2.18,3.01-.21,.3-.42,.62-.63,.94-.05,.08-.1,.15-.15,.22-.64,.95-1.3,1.96-1.99,3-.92,1.39-1.88,2.82-2.9,4.25-.06,.08-.12,.16-.18,.24-.45,.63-.91,1.26-1.38,1.88-.53,.7-1.07,1.38-1.63,2.05-1.66,2-3.43,3.82-5.3,5.25-.62,.48-1.26,.91-1.91,1.29-2.6,1.52-5.38,2.21-8.36,1.55-4.2-.92-7.44,2.48-7.24,5.84,.05,.76,.27,1.53,.7,2.24,.43,.71,1.07,1.37,1.94,1.92,2.25,1.43,4.44,2.28,6.57,2.66,.3,.05,.61,.1,.91,.13,.6,.07,1.2,.1,1.8,.1,.3,0,.59-.01,.89-.03,.59-.04,1.18-.11,1.76-.22,.87-.16,1.73-.39,2.59-.69,.61-.21,1.21-.46,1.8-.73,.6-.28,1.19-.58,1.77-.92,1.47-.84,2.9-1.85,4.31-2.99,.56-.46,1.12-.94,1.68-1.44,2.78-2.49,5.45-5.46,8.02-8.58,.52-.62,1.03-1.25,1.54-1.88,.7-.88,1.39-1.76,2.08-2.64,.31-.39,.62-.78,.93-1.17,.49-.64,.99-1.27,1.47-1.9,.49-.63,.97-1.25,1.46-1.87,.72-.93,1.44-1.83,2.15-2.72,.01-.02,.03-.04,.04-.05,3.53-4.4,6.9-8.18,10.17-10.26,1.31-.83,2.67-1.56,4.06-2.22,.93-.44,1.87-.86,2.81-1.26,5.19-2.19,10.55-3.91,14.85-7.22,.65-.5,1.27-1.04,1.87-1.62,.35-.33,.69-.68,1.01-1.05,.3-.33,.58-.68,.86-1.04,.59-.76,1.14-1.57,1.64-2.46,.22-.39,.43-.79,.62-1.19,.76,.9,1.58,1.77,2.43,2.61,6.92,10.38,20.77,11.84,33.98,13.3,7.83,.87,14.26,3.8,19.69,8,.91,.7,1.78,1.44,2.63,2.2,1.7,1.54,3.31,3.2,4.82,4.96,1.14,1.32,2.22,2.7,3.27,4.12,1.39,1.89,2.72,3.86,3.98,5.88,.55,.88,1.09,1.77,1.62,2.67,.74,1.25,1.46,2.52,2.16,3.8,.81,1.46,1.6,2.93,2.38,4.4-.14,2.15-.32,4.3-.53,6.44-.16,1.7-.34,3.39-.54,5.08-.15,1.27-.31,2.54-.47,3.8-.16,1.22-.35,2.47-.57,3.73-.36-.13-.75-.25-1.14-.38-.04-.06-.1-.12-.14-.18-.54-.74-1.31-1.37-2.36-1.78-4.44-1.73-9-3.36-13.57-4.47-1.37-.33-2.74-.62-4.11-.84-1.37-.23-2.74-.39-4.1-.49-.45-.03-.91-.06-1.36-.07-.91-.03-1.81-.03-2.71,0s-1.79,.11-2.68,.23c-1.78,.23-3.54,.62-5.28,1.19-3.04,1.01-6,2.59-8.85,4.89-3.77,3.04-6.63,6.92-9.2,11.01-.29,.45-.57,.91-.85,1.37-.56,.92-1.11,1.84-1.65,2.76-.27,.46-.54,.92-.81,1.38-.81,1.38-1.62,2.75-2.45,4.08-2.61,4.2-5.29,8.73-8.26,13.07-.85,1.24-1.72,2.47-2.62,3.67-3.15,4.2-6.64,8.08-10.68,11.13-4.64,3.5-10.15,4.85-15.95,5.29-.89,.07-1.79,.12-2.69,.15-.9,.03-1.81,.04-2.72,.05-.46,0-.91,0-1.37,0-.91,0-1.83-.03-2.74-.05s-1.83-.05-2.74-.08c-1.09-.03-2.17-.07-3.24-.1-2.93-.08-5.79-.08-8.54,.11-.47,.03-.95,.05-1.41,.09-1.81,.18-3.61,.43-5.39,.77-4.69,.89-9.22,2.4-13.29,4.95-.36,.23-.7,.47-1.05,.7-1.15,.79-2.21,1.62-3.18,2.5-.08,.07-.16,.14-.24,.21-1.75,1.62-3.25,3.38-4.6,5.25-.34,.47-.67,.95-.99,1.43-.64,.97-1.26,1.96-1.86,2.97-1.19,2.02-2.31,4.11-3.47,6.24-.58,1.06-1.16,2.14-1.77,3.22-1.4,2.49-2.81,4.97-4.24,7.44-2.85,4.94-5.76,9.83-8.72,14.69-7.41,12.14-15.17,24.04-23.37,35.77-5.05,7.23-9.9,14.86-16.6,20.79-2.49,2.2-5.11,3.72-7.84,4.74-1.55,.58-3.15,.98-4.78,1.27-.16,.03-.32,.06-.49,.08-1.08,.17-2.18,.29-3.3,.36-1.19,.07-2.39,.09-3.62,.07-.61-.01-1.23-.03-1.85-.06-1.86-.09-3.76-.26-5.69-.47-7.27-.79-14.61-2.37-21.84-3.24-4.45-.54-8.87-.81-13.21-.46-1.08,.09-2.16,.21-3.24,.38-.54,.08-1.07,.18-1.61,.29-4.27,.86-8.45,2.47-12.5,5.17-1.94,1.29-3.71,2.66-5.46,3.98-.35,.26-.7,.53-1.05,.79-.7,.52-1.4,1.03-2.11,1.53-.35,.25-.71,.49-1.07,.73-1.44,.95-2.95,1.81-4.58,2.53-.41,.18-.83,.35-1.25,.51-.85,.32-1.74,.6-2.68,.83-2.11,.52-4.23,.95-6.35,1.38-.71,.14-1.41,.29-2.12,.43-.47,.1-.94,.2-1.41,.3-.84,.18-1.68,.38-2.52,.59-.19,.05-.38,.1-.56,.14-.83,.21-1.65,.44-2.46,.69-2.04,.63-4.04,1.42-5.98,2.43-.22,.11-.44,.22-.66,.34-.54,.3-1.07,.62-1.6,.93-.91,.54-1.8,1.1-2.68,1.7-.48,.33-.96,.66-1.44,1-1.79,1.28-3.51,2.66-5.15,4.12-1.38,1.23-2.7,2.51-3.97,3.86-.44,.46-.87,.93-1.29,1.4-8.88,9.94-14.89,22.57-16.68,35.21-.53,3.74-.7,8.21-1.03,12.84-.18,2.57-.41,5.19-.77,7.75-.36,2.57-.85,5.09-1.56,7.46-.28,.95-.6,1.87-.96,2.77-1.97,4.93-5.16,8.95-10.48,11.05-.43,.17-.81,.37-1.15,.59-1.53,1.01-2.2,2.52-2.22,4.12,0,.93,.21,1.88,.61,2.78,.2,.45,.44,.88,.73,1.28,.14,.2,.29,.4,.46,.59,1.46,1.69,3.68,2.75,6.2,2.18,5.47-1.24,9.72-3.99,13.03-7.62,.55-.61,1.08-1.24,1.58-1.89,1.26-1.63,2.36-3.4,3.32-5.26,.39-.74,.75-1.5,1.1-2.28,.17-.39,.34-.77,.5-1.17,.33-.78,.63-1.58,.92-2.38,1.15-3.2,2.02-6.53,2.68-9.8,.2-1,.39-2,.56-2.98,.26-1.48,.5-2.95,.72-4.41,.3-1.94,.57-3.86,.85-5.77,.07-.48,.14-.95,.21-1.42,.14-.95,.28-1.89,.44-2.82,.3-1.87,.63-3.72,1.01-5.56,.29-1.38,.61-2.74,.97-4.1,.24-.9,.51-1.81,.79-2.7,1.43-4.49,3.45-8.88,6.51-13.21,.31-.43,.62-.86,.95-1.3,1.21-1.59,2.51-3.24,3.9-4.86,1.04-1.21,2.13-2.41,3.28-3.56,.43-.43,.86-.85,1.31-1.27,.89-.83,1.8-1.62,2.75-2.36,2.36-1.85,4.91-3.39,7.65-4.38,.82-.29,1.64-.56,2.47-.81,4.99-1.48,10.22-2.26,15.11-4,.82-.29,1.62-.61,2.42-.96,.91-.4,1.8-.85,2.67-1.35,6.04-3.48,9.71-9.24,15.27-13.11,.53-.37,1.08-.7,1.64-1,1.12-.59,2.3-1.03,3.52-1.35,1.22-.32,2.48-.52,3.76-.61,.96-.07,1.94-.09,2.93-.06,1.64,.05,3.31,.22,4.97,.48,.66,.1,1.33,.22,1.99,.34s1.32,.26,1.97,.4c1.31,.28,2.6,.6,3.86,.91,.63,.16,1.25,.32,1.86,.48,.61,.16,1.21,.31,1.81,.46s1.17,.3,1.74,.43c2.37,.57,4.71,1.11,7.03,1.59,2.9,.59,5.77,1.08,8.59,1.42,1.13,.13,2.25,.24,3.37,.32,2.79,.2,5.53,.23,8.23,.02,.54-.04,1.08-.09,1.61-.15,1.07-.12,2.13-.28,3.19-.49,3.69-.71,7.28-1.95,10.76-3.86,2.98-1.64,5.88-3.77,8.69-6.49,8.94-8.66,16.49-19.38,23.44-30.15,1.9-2.94,3.75-5.88,5.57-8.79,1.22-1.94,2.42-3.86,3.62-5.75,3.13-4.96,6.17-9.97,9.14-15.02,2.97-5.05,5.87-10.14,8.74-15.25,3.4-6.06,6.56-13.37,11.74-18.42,1.2-1.17,2.5-2.21,3.94-3.09,.51-.31,1.04-.61,1.59-.88,2.71-1.33,5.62-2.13,8.65-2.58,.43-.06,.87-.12,1.31-.17,.44-.05,.88-.1,1.32-.13,1.32-.12,2.67-.18,4.02-.2,.9-.02,1.81-.01,2.73,0,1.57,.02,3.15,.09,4.73,.16,3.34,.16,6.68,.38,9.95,.45,1.94,.05,3.86,.05,5.73-.06,1.3-.07,2.58-.19,3.83-.37,1.29-.19,2.55-.43,3.78-.73,.58-.14,1.15-.29,1.71-.46,17.49-5.1,28.87-21.41,37.47-36.52,1.22-2.15,2.4-4.61,3.65-7.16,.42-.85,.84-1.7,1.28-2.56,.87-1.71,1.79-3.42,2.79-5.05,1.66-2.72,3.53-5.24,5.77-7.21,.89-.79,1.84-1.49,2.86-2.09,2.01-1.18,4.19-1.79,6.44-2.01,.51-.05,1.02-.08,1.53-.09,1.03-.02,2.07,.02,3.11,.13,.52,.05,1.05,.12,1.57,.2,1.57,.24,3.14,.58,4.69,.98,.52,.13,1.03,.27,1.54,.42,.91,.26,1.81,.53,2.69,.8,.39,.39,.81,.76,1.24,1.12,.52,.42,1.06,.81,1.61,1.19,.84,.58,1.68,1.14,2.45,1.68,.3,.21,.61,.39,.91,.58,.78,.49,1.57,.95,2.36,1.43h0c-1.12,5.64-2.21,11.42-2.73,17.12-.07,.81-.14,1.63-.19,2.44-.1,1.62-.14,3.23-.12,4.83,.02,1.2,.07,2.39,.16,3.56,.29,3.54,.95,6.98,2.15,10.27,.18,.5,.38,.99,.58,1.49,.09,.22,.17,.43,.26,.65,.41,.96,.84,1.9,1.3,2.83,1.9,3.82,4.21,7.35,6.65,10.8,.54,.77,1.09,1.54,1.65,2.3,1,1.39,2.01,2.77,3.01,4.16,1.16,1.62,2.29,3.24,3.37,4.9-.71,.15-1.4,.4-2.08,.74-.68,.33-1.35,.75-2,1.23-.98,.71-1.93,1.56-2.85,2.48-1.03,1.03-2.03,2.13-2.99,3.22-1.59,1.81-3.08,3.55-4.45,4.75-2.37,2.09-5.03,3.93-8.04,4.98-.35,.13-.74,.27-1.14,.44-.4,.17-.81,.36-1.21,.57-.54-1.05-1.1-2.06-1.7-3.02-4.21-6.71-10.19-10.87-20.42-9.68-7.25,.84-13.85,4.15-19.21,8.91-4.53,4.03-8.17,9.09-10.53,14.58-.8,1.86-1.45,3.77-1.95,5.7-.07,.26-.11,.52-.12,.77-.03,.5,.03,.97,.17,1.4,.14,.43,.36,.83,.63,1.18,.27,.35,.6,.65,.97,.89,.74,.49,1.62,.74,2.5,.69,.44-.03,.88-.13,1.3-.31,.63-.28,1.21-.76,1.67-1.46,.61-.92,1.28-1.91,2-2.95,.35-.51,.72-1.03,1.1-1.56,.46-.64,.94-1.29,1.44-1.95,1.49-1.97,3.15-3.98,4.94-5.85,1.49-1.56,3.08-3.03,4.76-4.31,4.69-3.58,10.03-5.64,15.76-4,4.75,1.36,5.4,6.36,6.6,10.43,.16,.54,.32,1.07,.49,1.6,.68,2.11,1.46,4.12,2.39,6.09,.23,.49,.47,.98,.73,1.47,.5,.98,1.05,1.94,1.64,2.91,3.64,5.9,7.84,11.43,11.87,17.08,2.41,3.39,4.76,6.82,6.88,10.4,.3,.51,.59,1.04,.88,1.56,.27,.48,.55,.95,.81,1.44,.81,1.52,1.55,3.07,2.22,4.65,.66,1.58,1.24,3.19,1.72,4.84-.09,.34-.16,.67-.25,1-.06,.24-.1,.47-.16,.71-.62,2.7-.99,5.35-1.05,7.97-.04,1.91,.06,3.81,.33,5.73Z"/>
  </g>
</svg>