<?xml version="1.0" encoding="UTF-8"?>
<svg id="Layer_2" data-name="Layer 2" xmlns="http://www.w3.org/2000/svg" viewBox="0 0 2199.36 713.56">
  <defs>
    <style>
      .cls-1 {
        fill: #07ed2e;
      }
    </style>
  </defs>
  <g id="Joe">
    <path class="cls-1" d="M186.38,272.38c-.14-.22-.37-.11-.55-.15,.09,.32,.36,.15,.55,.15Zm798.08,16.37c-.4,.48-.84,.78-1.37,.78,0,0,.54-.29,1.37-.78Zm-680.43-21.53c.07,.31,.32,.15,.57,.2-.13-.31-.43-.18-.57-.2Zm1893.11,265.02c.67-3.49,1.47-6.99,2.22-10.49v-45.33c-.15-.12-.34-.25-.54-.32-.24-.56-.38-1.35-1.02-1.58-1.35-.04-1.55,1.9-3.11,1.33-1.67,1.31-.88,3.84-1.52,5.64-.85,1.5-2.51,2.69-1.69,4.67,.74,4.51,6.45,6.85,4.86,11.98-.98,3.02-2.08,5.96-3.29,8.88v-8.14c-1.5,2.41-2.96,4.7-4.36,6.97-1.96,2.92-3.8,5.92-5.41,9.15-.05-.01-.07-.06-.15-.11-1.81-.5-3.06-2.25-5.02-2.54-1.57-2.07-4.37-2.74-6.74-2.04,3.74-6.4,2.39-16.51,2.74-23.46,.53-9.14,1.67-17.09,5.95-25.2,2.21-4.04,1.11-8.97,3.83-12.77,1.87-2.61,4.37-4.99,4.62-8.38-3.92,1.15-5.46,5.33-7.91,8.18-.99-4.34,7.29-12.04,4.62-15.4-4.22,1.12-7.11,8.21-7.82,11.99-1.63-2.36,.9-16.87-.65-17.13-3.1-.49-3.36,9.69-3.75,11.27-.14-.69,.65-10.28-1.97-9.72-4.13,.89-1.65,27.52-1.83,30.48-.82,14.55-8.48,27.44-9.98,41.8-.2,2.01-5.03,2.65-10.77,2.78-7.84-7.19-15.5-14.64-24.16-20.77,.06-1.72,.11-3.44-.04-5.07,1.28,1.41,2.67,2.41,4.4,2.33-.21-2.48-3.16-4.18-4.18-6.85,3.41,1.68,6.57,7.73,11.72,8.02-2.19-4.35-5.82-8.05-8.79-12.56-2.87-4.4-5.91-9.1-8.36-14.05,8.88,8.65,18.69,22.14,31.38,24.35-4.92-5.74-11.62-8.51-16.7-14,1.17-.74,3.11,3.27,4.42,2.33-6.92-7.08-14.47-12.97-20.18-22.06,3.73,1.75,8.18,6.29,12.52,8.48,1.68,1.77,4.18,3.21,6.35,4.59,1.9,1.17,4.35,4.01,7.09,1.98-9.59-7.84-20.83-13.03-28.08-24.85,2.89-.13,6.02,3.37,9.56,3.77,6.18,2.98,11.14,8.11,18.99,8.21,.6-1.53-1.74-1.47-2.37-2.49,.35-.69,1.9-.72,2.06-1.54-9.75-3.61-17.83-10.15-27.14-14.43-3.18-2.93-8.62-4.19-9.63-9.28,8.6,.06,15.4,7.05,24.64,7.48,1.56,.46,2.59,1.86,4.36,2.02,1.39-.08,1.04-1.22,1.59-1.8,1.74-.48,3.85,.86,5.33-.68-.65-1.82-2.8-1.17-3.99-2.09,.99-1.18,.46-2.62-1.09-2.84,0-.83,2.15-.38,1.67-1.44-5.47-2.73-12.77-2.47-17.97-5.74,5.69-3.12,15.67,.75,21.42-3.77-.58-1.47-2.46-.71-3.24-1.9,.21-1.47,2.52-1.65,1.85-3.59-16.35,1.38-30.91-.33-41.29-9.04,6.73,.79,12.76,2.84,20.29,2.34,2.68,.73,9.72,1.17,11.22-1.82-6.52-1.76-16.06,1.47-19.83-4.93,2.96-1.11,9.9,.76,12.7-2.9-4.22-1.86-10.09-.95-14.93-1.72-6.7-4.89-12.96-10.55-20.97-13.23,13.3-5.14,20.41-14.02,25.07-24.34,2.91-9.48,6.13-19.26,2.18-31.9-1.18-2.33-1.12-6.2-4.85-5.64,6.87,23.22,2.22,43.02-18.52,51.63,3.6-5.88,10.57-12.04,13.75-19.08,2.69-7.48,4.43-16.09,.57-26-.68-1.31-1.24-2.83-2.06-3.95,1.33-5.22-1.01-12.06-3.75-17.29-1.9,3.04,.42,8.64-.24,12.46,.46,4.49-.25,8.29-.25,12.5-.69,.48-.19,1.69-.75,2.25-1.28-1.85,.7-4.12,.42-6.31-1.04-3.61-1.62-8.09-3.6-10.09-1.83,.01-1.53,1.26-1.05,2.65-3.03-1.97-5.02-8.1-8.56-7.81-1.7,1.33,.6,4.28,1.43,5.54,.53,2.05,1.04,4.05,1.54,6.1,1.26,16.72-5.74,30.2-27.02,33.14-3.08,.45-6.22,.21-8.41-1.99,1.7-.84,7.66-.96,7.66-3.7-3.95-1.85-9.77-.78-13.77-2.64-1.08-.22-1.69-1.15-2.77-1.34-10.97-13.64-20.77-29.19-37.46-33.16-3.54-.17-7.57,.46-11,.03-.29,.85-2.07,.84-2.36,1.66-9.76,1.25-21.08,2.17-25.93,9.05-3.63,5.4-3.81,12.92-4.91,19.85-.98,.89-1.83,1.87-1.89,3.29-1.5,.44-2.18,1.43-4.04,1.7-1.74,.73-2.68-1.63-3.87-.38,1.35,4.13,8.13,2.35,10.95-.03-.62,2.95-2.82,5.04-5.84,6.64-.36,.56,.03,1.52,.23,2.39-1.02,.34-1.53-.24-2.65,.34,.81,2.89,4.16,1.61,6.89,1.32-.64,5.45-4.39,9.11-1.97,16.37,4.92,9.73,10.04,19.12,16.64,26.04,2.45,5.82,4,12.75,1.22,16.92,1.46,1.7-.11,3.22-.16,4.87-.79,1.14-1.38,2.39-1.99,3.66-3.66-5.2-2.57-11.48-7.16-16.76-4.18-4.82-8.94-9.05-12.86-14.15-5.11-6.75-6.94-14.8-10.39-22.4-2.79-6.14-7.72-9.56-9.49-16.27-2.65-10.23,19.42-24.67,27.04-32.54,11.13-11.59,23.34-25.17,37.68-32.83,12.18-6.49,21.49-11.78,32-21.27,6.93-7.65-3.33-5.6-6.18-2.71,3.37-4.75,13.54-5.31,12.49-12.92-2.7-3.02-12.01,5.18-20.06,7.9,2.37-4.41,6.04-7.78,9.51-11.28,3.11-3.06,6.33-5.6,7.92-10.17-6.28-8-19.09,15.92-25.06,15.98,2.25-4.7,6.3-8.04,9.31-12.34,1.55-2.23,2.61-5.03,3.38-7.66-3.38-3.73-7.03,1.82-8.82,3.93-14.93-7.22-34.22,42.13-43.08,50.97-18.37,18.32-42.22,29.72-62.56,45.52-3.93,3.03-6.42,6.55-6.79,10.87-.43-2.04-.88-4.12-1.29-6.21-3.22-4.11-6.88-7.96-11.19-11.03-12.9-9.18-30.73-1.79-38.36,10.81-.88-2.68-1.87-5.32-2.2-8.23,1.23-1.8,2.87-3.61,5.24-5.91,7.97-7.81,11.67-16.07,17.32-25.37,9.15-14.95,24.83-20.93,37.99-31.96,14.22-11.82,26.94-25.21,41.01-37.1,31.73-14.15,54.1-41.35,78.17-65.25,8.2-3,14,1.38,22.54,0,7.91-1.07,15.19-4.64,22.94-6.44,7.41-1.68,10.84,5.87,18.72,1.63,2.71-1.42,4.96-3.59,6.67-6.03,.09-2.43-.95-4.19-2.97-5.31,1.64-1.9,3.35-3.7,5.2-5.35,3.08-3.58,.47-7.89,.52-12.51,.1-6.07-9.94-7.95-14.32-10.74,9.68-5.2,40.59-8.89,42.59-20.54-10.44-3.96-27.01,2.45-37.05,5.54-6.2,1.93-12.52,3.32-18.75,5.21-4.03,1.2-12.29,6.8-16.07,5.27-9.64-4-22.99,5.54-27.71,13.28-6.3,10.24-21.77,15.59-31.62,22.35-23.14,15.94-52.83,23.46-69.21,47.53-7.31,10.72-16.24,17.56-26.77,25.07-6.14,4.24-12.44,8.01-18.71,12-6.99,4.44-17.01,4.47-25.03,7.26,.54-1.04,.81-2.21,.83-3.38-4.37,3.55-10.23-1.49-13.44-4.28,.18-.24,12.32,3.2,14.55,2.74,.72-.21,8.46-6.16,8.24-7.99-2.15-2.66-6.63,0-6.98-4.61,3.04-.44,6.2,2.01,9.2,2.4-5.68-3.91-14.43-9.18-15.9-14.96,5.45-3.8,12.22,5.78,18.18,1.28-2.92-1.19-6.2-1.19-9.17-2.36,.71-.92,1.54-1.45,2.63-1.75-1.67-.71-3.48-1.03-5.32-.97-1.28-1.12,5.9-3.6,2.38-4.24,3.23-1.58,4.65-5.06,6.68-7.78-4.63,.84-9.87-.44-14.12-2.36,4.61,.24,10.25,.65,14.5-1.53,1.99-8.67-3.11-4.13-7.92-4.73,.81-.48,1.64-.64,2.57-.64,.98-.23-6.88-.22-6.94-.23,1.19,.68,2.44,1.01,3.83,.82-2.63,.87-8.04,.21-8.58-3.34,2.48,1.46,5.03,1.56,7.64,.6,5.53-1.85,1.71-3.82,5.35-6.77-6.98,4.37-17.55-2.19-21.47-8,6.07,2.92,13.22,3.57,19.87,3.89-6.16-1.98-12.83-2.97-18.51-6.13-2.84-1.6-5.25-3.91-6.29-7.06-2.04-5.78,2.6-8.31-4.53-9.79-8.39-1.68-17.72-15.26-25.27-20.54-11.16-7.64-15.35-7.64-26.74-.99-4.76-.59-9.21-.59-13.79-.84-3.88,2.55-7.4,5.5-11.68,7.23-8.29,3.32-15.28,8.86-18.59,17.33-3.89,9.83-1.8,21.72-3.41,32.13-2.75,9.62-9.61,16.98-10.54,26.71,4.46-2.04,6.53-6.95,8.52-11.14,.9,9.57-2.48,21.58-14.36,19.96,7.5,5.82,12.69,8.04,18.83-.18-.07,3.09-2.57,5.39-5.24,7.1-.4-.04-.75-.17-1.22-.06-4.68,1.93-7.64,3.82-12.94,4.57-2.85,.42-8,3.05-10.24,4.91-.28,.08-.55,.15-.84,.18-2.99-10.24,2.24-21.97-2.56-31.7l-3.79-.1c-1.28,.71-2.43,2.24-2.63,3.85-.51,9.94-.62,21.17-1.72,31.36-1.26-.09-2.53-.08-3.78-.28-6.37-.96-10.97,2.18-12.09-4.59-3.71-21.85-11.48-42.84-21.53-62.75-9.46-18.81-20.69-36.65-31.02-54.93-11.53-20.47-27.31-37.15-41.45-55.78-7.56,6.03,9.6,25.52,12.86,30.96-4.74,4-9.06-1.56-13.78,4.99-2.26,3.16-11.32,9.23-7.45,12.34,3.78,2.97,12.23,1.86,11.73,7.88-.34,4.52,15.19,7.09,9.15-1.03,7.23-.28,8.6,9.16,11.37,14.49,1.69,3.25,3.62,6.36,6.14,9.02,4.93,.88,5.92,1.08,7.52,5.9,5.75,17.26,9.23,35.12,13.14,52.81,3.61,16.04,7.42,32.21,13.69,47.42,2.6,6.35,5.46,15.66,11.53,19.15,7.86,4.59,16.75,7.37,25.6,9.41,2.18,.47,4.41,.78,6.62,1.15-6.82,12.75-14.8,25.11-25.49,36.13-.18-1.01-.52-1.95-1.18-2.78-3.93-2.29-3.24-6.76-5.87-10.25-2.05-2.28-5.96-1.77-8.42-1.28-2.14-.49-.87-4.16-3.23-5.5-1.91-.8-4.2-.37-5.97,.41-3.83,2.03-4.34-4.04-7.77-4.53-3.64-.87-6.81,2.32-9.19,3.75-.18-.32-.52-.32-.76-.43-1.03-1.1-.75-2.37-.69-3.63-.34-.17-.53,.17-.78,.31-.48-.41-1.09-1.34-1.84-.78,.25,1.73-.19,3.1-1.21,4.25-1.35,1.28-3.15,1.42-4.71,.45-4.04-1.39-8.83-.44-11.97,2.65-.21-.01-.4-.1-.59-.1-6.95-5.38-17.4-6.38-25.17-2.31-3.41-7.39-6.33-14.97-8.9-22.73-2.92-9.42,7.6-13.77,8.94-22.06,1.53-3.66-1.53-5.84-3.07-8.6-1.18-3.29,.28-7.99-2.82-10.38-2.88,1.01-3.23-2.52-5.7-2.44-1.18,.42-1.44,1.86-1.85,2.87-2.29,.86-4.1,3.51-5.95,5.1l.84,1.04c0,3.48-2.46,6.03-1.9,9.81-6.98,9.94,.97,20.83,1.06,31.46,0,5.77,.5,11.31,1.26,16.8-6.28,4.78-13.38,9.56-15.09,17.48-5.55,1.17-8.53,7.49-9.82,12.45,.7,3.63,.65,7.13,.59,10.56-2.75,1.04-5.42,2.23-7.98,3.54,.18-1.03,.23-1.95,.6-3.16,4.69-15.8,7.87-21.07,3.64-28.06,0,0-.13,1.56,.39-5.5,0,0,0-10.59-5.94-10.29-5.42,.36-6.06-6.24-10.39-2.82-.62-.49-1.37-.93-2.2-1.25-1.34-1.85-4.64-4.17-12.65-5.62-4.1-.75-7.53-.89-10.62-.72-6.72-15.62-14.1-30.94-18.77-47.47-1.27-8.95,6.08-15.21,8.35-23.17,2.01-4.02-.89-7.8-1.14-11.8,1.23-8.42-3.72-14.81-3.88-22.92-.54-1.2-.69-3.54-2.45-3.27-7.5,6.45,.29,16.34-4.56,23.82l-6.02-1.6c-3.84-1.42-5.15,2.84-8.33,3.28-2.15,3.15-.65,8.03-.96,11.64-1.49,2.41-2.4,5.07-2.25,8.18,2.64,2.61,.01,7.17,1.58,10.58,5.62,19.18,7.9,38.86,13.04,58.29,.38,1.41,.72,2.84,1.05,4.25-4.73-5.8-11.01-10.2-17.7-11.08-12.7-1.64-26.34,5.74-33.55,16-.84,1.21-1.49,2.42-2.15,3.65-4.98-9.59-10.11-19.25-11.75-20.68-2.98-2.58-.8-21.31-10.83-34.64-10.04-13.31-23.19-37.9-23.19-37.9l-5.75-18.5-3.14-21.49s.04-11.01-3.17-10.43c-3.16,.52-1.9,15.59-1.9,15.59,0,0-.43,6.26-2.81,6.09,0,0-5.85-5.94-9.12-4.63-3.23,1.34-8.99,4.88-5.43,9.85,3.58,4.97,3.11,11.22,8.6,11.64,5.48,.38,2.37,10.39,7.51,15.52,5.13,5.09,8.35,35.98,11.24,40.17,2.83,4.1,19.85,39.99,22.92,52.02,3,11.93,18.67,52.77,19.36,57.16-1.47-.55-3.08-.77-4.68-.55-3.98,1.09-3.34-3.82-6.06-5-2.88-.89-6.61-2.54-9.14,.31-.63-1.28-1.68-1.03-2.77-1.29-1.21-1.8,1.48-.92,1.73-2.02-.88-4.05,2.82-6.84,3.57-10.61,1.05-3.52-3.02-6.81,.65-9.41-.22-2.77-2.44-4.24-2.63-7.02-.14-1.93-.97-4.13,.54-5.68,0-1.17-1.72-.44-1.58-1.84,.81-1.61,.2-3.79-.51-5.46-.47-2.09-3.02-1.26-4.16-2.73,.89-1.72,2.41-3.73,1.55-5.88-2.5-3.47-6.87-3.53-10.74-2.92-.49-3.42-4.81-3.13-7.35-3.76-1.78-1.83-3.97-3.39-6.39-3.68,.14-1.42,1.71-3.75-.78-3.96-.38,.46-.42,1.06-.67,1.52-2.45,3.08-5.84-.14-8.6-1.07-3.43,.88-7.47,1.53-10.36,3.43-4.18,4.26-9.04-1.69-13.13,2.82-1.85,.68-2.59,3.1-2.53,4.84-1.31,1.72-3.68,.88-5.49,1.72-1.14,.56-1.26,1.78-1.14,2.75,3.22,3-2.06,5.02-1.81,8.03,.23,2.86-2.88,4.03-3.69,6.15-5.52,2.61,1.43,8.73-3.72,11.36-1.49,4.57,4.26,1.77,6.16,3.72,.48,.85,.99,2.15,.57,3.13,1.35,1.44-.28,3.29,.33,5.08,.65,1.09,.51,3.06,2.17,3.39v.13c-.22,2.31-1.07,4.75-3.22,6.12-1.75,4.77,4.55,6.91,7.29,9.41,1.05,1.67,.56,3.55-.41,5.09l.18,.12,1.65-2.44c.65-1.31-.41-2.49-.61-3.66,.99,2.51,1.99,5.01,2.75,7.58-1.47,2.42-2.84,4.97-4.23,7.47-1.57,2.99-3.09,5.92-4.88,8.72-.79,1.28-1,2.67-2.66,2.13-1.43-.51-1.74-.51-1.71,1.07,.09,4-1.43,7.55-3.21,11-1.77,3.58-3.39,7.21-2.76,11.26,.09,.73,.32,1.38,.53,2.01-2.38-2.84-5.13-5.18-8.98-5.74-1.38,4.35,2.03,7.81,5.48,11.2-1.35,1.26-2.7,2.54-3.62,4.09-.32,.61-.49,1.3-.76,1.91-5.11-3.59-9.99-8.1-16.18-8.23-1.81,5.73,7.53,9.45,14.3,13.48-.29,1.21-.48,2.5-.68,3.77-4.75-1.45-9.49-2.92-14.4-3.56-.2-.54-.44-1.06-.6-1.6-.88-5.63,.23-12.1-1.87-17.44-1.35-3.45-3.81-5.99-6.85-7.84,13.3-17.94,32.9-42.37,34.19-50.78,2.25-14.49-17.65-42.49-25.59-58.5-13.65-27.77-15.59-27.49-6.26-39.21,2.53-3.2,2.36-8.83,4.38-12.35,1.87-3.21,5.4-5.07,7.32-8.22,3.38-5.56-1.47-3.82-4.77-3.02-7.19,1.72-10.16,11.74-12.03,12.14-5.02,1.13-3.04-14.51-5.22-26.42,6.35-14.19,11.36-30.48,19.59-42.7,12.66-19.14,27.96-41.12,33.25-63.94,3.12-12.41,28.14-31.63,19.9-43.12,11.16-8.37,24.04-13.43,36.15-19.9,5.13-2.79,25.3-22.71,20.22-29.45-3.19-4.42-16.68,11.36-20.06,13.56,.49-3.8,8.41-14.35,7.27-16.61,.07,.13-30.95,21.89-37.63,23.26,6-23.48-30.74,14.15-28.34,14.44-.77-.07-5.8-3.76-6.28-3.22-9.39,10.75-18.97,30.95-25.32,44.89-4.55,9.71-27.61,70.46-42.54,69.98-1.11,.03-34.38,78.69-43.1,71.14-.54-.44-10.49-8.44-10.95-4.88,2.66-21.12-25.05-52.07-41.38-65.68-18.66-15.54-51.55-12.69-65.53,8.47-8.64,13.08-16.67,16.19-19.43-3.81-2.07-12.58-12.26-26.55-18.11-37.52-3.5-6.66-11.53-17.71-10.79-25.2,1.33-13.25-9.31-14.02-9.14-24.81,.28-8.51-5.33-10.43-6.12-13.62-1.44-6.67,10.31-41.09,4.42-45.74-6.59-5.21-12.13,48.72-30.66,5.03-19.33-42.67-9.58,11.9-5.68,11.76-8.18-.13-16.25-30.95-23.67-26.67-8.3,4.46,15.78,27.81,15.22,32.26-.51,4.09-17.15-16.68-17.47-17.13-11.07-15.1,4.6,27.4,10.5,26.65-5.35,3.85-21.45-10.13-24.93-5.27-.82,1.1,34.42,21.76,36.88,27.95,2.56,6.44,.73,11.86,3.39,19.25,1.65,4.68,9.51,9.94,9.6,14.3,.34,11.29,3.99,21.05,8.53,31.2,10.66,23.95,18.95,48.76,32,71.71,20.71,36.7,36.64,76.97,43.13,118.48,1.21,7.63,1.59,15.47,1.66,23.34-.39,.23-.71,.47-1.17,.63-.57,.26-1.24,.31-2.08,.26-1-.32-1.63-1.01-2.14-1.75-.91-1.71-1.38-3.78-1.8-5.92,.13-6.02-2.92-9.45-5.82-12.74-.69-1.56-1.7-2.74-2.3-4.43,1.61,1.11,3.47,2.11,5.55,2.84,.75,.83,1.45,1.68,1.99,2.76,.29,3.32,1.96,5.22,2.04,8.58v1.4c.17,.95,.5,1.92,.74,2.87,.12,.11,.25,.22,.25,.42,.29,.32,.7,.48,.97,.84,.88,.17,1.76,1.17,2.49,.92,.13-.59-.83-.69-1.11-1.07-.2-.42-.53-.63-.75-.94-.7-1.76-1.97-3.22-2.02-5.36-.42-1.99-.73-4.03-1.17-6.15-.67-1.46-1.43-2.88-2.33-4.08-1.94-1.8-4.86-2.64-6.71-4.47-1.92-2.39-3.42-5.13-5.81-6.98-.07-.27,0-.35-.2-.65-1.31-.03-1.51-1.24-2.41-1.7-.08-.01-.18-.01-.26-.04,.02-.68,0-1.5-.09-2.47-.31-3.99-2.32-5.33-3.66-7.32-1.33-1.97-.99-13.29-9.95-22.61,0,0-10.66-13.97-17.64-15.95-7.01-2-15.65-1.33-18.3,3.99,0,0-7.98-3.66-15.64,4.32-6.11,6.37-7.34,11.61-8.94,13.51,1.48-.91,3.86-2.5,5.41-4.18-1.97,3.55-5.12,9.66-5.12,11.95l4.65-6.66s-7.68,10.31-2.31,18.62c5.27,8.33-1.36,14.99-1.36,14.99,0,0,5.32-1.67,5.32-4.35s0,6.34,5.01,9.66c4.99,3.32,4.34,1.33,4.99,3.32,.3,1.05,1.04,4.24,1.85,7.11-.34,.76-.64,1.58-1.04,2.31-.75,.81-1.29,1.86-2.19,2.49-.34,.47-.94,.62-1.24,1.1-.34,.42-1.17,.65-1.1,1.18,2.01,.24,3.34-1.54,4.82-2.45,.02,.79-.43,1.42-.72,1.86-.31,.61-.42,1-.84,1.59-.58,1.01-1.24,1.77-1.88,2.68-1.7,2.39-3.92,4.37-5.22,7.22-1.4,2.97-1.53,6.49-1,9.83-.34,.25-.84,.32-1.17,.58-.26,.2-.48,.48-.68,.73-2.51-3.84-4.83-7.82-7.03-11.98-1.98-21.6-13.4-33.71-21.7-49.08,.27-1.3-.57-1.49-.37-2.84-.51-1.35-2.72-2.57-2.46-3.55,1.35-2.05,2.66-5.66,1.08-8.53-2.39-2.53-6.19-3.57-8.19-6.42-1.59-4.59-3.46-8.89-6.44-12.12-.98-3.76-2.07-7.35-3.55-10.67-.6-3.92-1.16-7.85-4.28-9.23-4.99,4.8,.19,12.78-.32,18.47-1.58-2.84-5.76-.74-6.07,2.17-.85-.91-.82-2-2.97-1.63-.51,.31-2.5,.65-2.54,2.25-1.13-.57-2.47-.03-2.68,1.58-1.56,.02-3.58,.4-3.15,3.13,.79,5.41,4.78,13.53,8.89,15.3,2.74,3.72,4.1,8.91,9.94,9.61-.81,.85-.67,2.65-1.1,3.86,7.52,21.11,12.43,44.75,24.21,61.56,.42,1.71,1,3.25,1.59,4.82-4.44-1.9-9.2-3.2-13.64-4.17l.34-.99c2.04-1.46,5.03-2.78,7.61-1.73,.19-.5-.46-.65-.66-.98-3.69-1.44-6.93,1.14-9.67,3.28l-1-.84c-1.01,1.82-2.5-.29-3.19-.78l-1,2.08c-1.68-.17-2.93-1.56-4.29-2.58-7.39-9.19-21.32-24.64-26.09-32.59-3.65-6.08-10.72-13.87-15.86-20.9,2.46-5.31,4.8-10.63,6.79-16.13,8.06-13.18,10.86-29.13,19.33-42.41,7.06-14.15,13.38-28.75,17.93-43.97,3.43-17.67,12.35-33.02,17.48-49.94,6.03-5.1,6.24-13.93,3.99-20.94-.48-3.58-5.26-1.26-5.63-5.12-3.67-.07-5.02-5.36-9.32-3.71-2.5-1.52-5.71-.19-8.15,.7-1.06-1.29-2.29-2.13-3.88-2.04-2.63,.67-.95,3.95-2.15,5.81-.48,7.48-2.12,15.68,.5,23.32-1.94,9.77-4.26,19.53-8.15,28.64-10.79,18.71-13.89,40.56-26.83,58.43-2.1,9.96-8.03,18.38-13.89,26.87-1.64-3.16-2.27-3.98-1.78-6.49,.64-3.34-3.64-13.97-5.66-15.96-2-2.02-3.98-6.31-5.01-4.35-.98,2.01,.68,5.67,1.34,8,.68,2.32,1,6.31,1,6.31,0,0-4.33,.33-5.97-1.99-1.7-2.34-6.02-4.99-6.99-2.65-1,2.31,0,5.31,1.33,5.64,1.31,.32-3,1.32-3,3.67s6.34,4.31,7.98,7.28c1.66,3,6.65,7.36,5.33,9.67-1.34,2.32-4.65-1-8.67-3.66-1.13-.75-2.18-1.4-3.17-1.91-1.86-3.45-5.72-4.42-9.17-4.7,1.71-5.37,2.89-11.16,.59-14.59-1.35-2.04,1.36-10.18,1.42-12.88,.09-4.93-.27-9.86-.29-14.76-.37,1.71-3.07,1.04-3.85,2.6-.69,1.49-.9,3.21-1.05,4.81-.29,3.32,.32,8.68-2.64,11.07-1.9-4.36-6.81-5.83-10.83-7.42-1.2-.47-2.38-1.03-3.55-1.66-.3,.88-.88,1.13-1.72,.81-1.49-.39-2.73-1.43-4.34-1.54,.15,4.87,2.16,5.91,4.65,7.1-.93,.09-1.84,.23-2.62,.39-2.44-.57-.99-4.73-3.7-6.27-2.15-.9-4.78-.43-6.81,.46-4.35,2.33-4.93-4.57-8.82-5.15-4.17-1.01-7.77,2.63-10.5,4.27-.19-.36-.57-.36-.86-.48-1.17-1.27-.86-2.71-.79-4.15-.39-.2-.61,.2-.88,.36-.58-.51-1.27-1.54-2.1-.91,.3,1.99-.23,3.54-1.39,4.88-1.51,1.47-3.58,1.6-5.34,.51-5.14-1.79-11.46-.4-14.93,4.15-4.11,.62-6.69,4.3-10.52,5.36-4.65,1.37-4.44,6.38-5.62,10.11-.77-.22-1.29-.15-1.63,.1-8.89-14.3-15.29-29.52-20.48-45.37-3.33-10.75,8.67-15.7,10.18-25.14,1.76-4.18-1.74-6.65-3.5-9.81-1.33-3.75,.32-9.12-3.22-11.84-3.28,1.16-3.68-2.89-6.49-2.79-1.36,.49-1.65,2.15-2.12,3.29-2.63,.96-4.67,3.99-6.81,5.83l1,1.18c0,3.96-2.83,6.86-2.16,11.17-7.99,11.34,1.08,23.75,1.16,35.88,0,14.97,2.78,28.83,5.79,42.55-.75,.89-1.11,1.73-.27,2.13,0,0-4.76,.99-3.28,7.52,1.34,5.81,2.19,10.91,8.71,12.79,3.39,8.02,10.96,13.85,15.25,21.46-5.95,8.73-12.35,17.18-19.24,25.22-1.47-1.65-6.23,3.19-9.07,5.88-.33-.12-.64-.29-.98-.43,1.28-2.57,3.68-6.14,3.2-7.05,.02,.02-3.11,2.22-6.91,4.77-.28-.23-.6-.48-.82-.69-2.31-2.08-4.04-2.41-7.6,5.1-.3,.65-.63,1.04-.91,1.45-.74,.42-1.44,.79-2.04,1.1-.68-.12-1.29-.56-1.84-1.27,.05-1.33-.44-1.9-1.24-1.97-.46-.91-.8-1.75-.97-2.18,.16,.49,.32,1.29,.51,2.17-4.28,.65-15,11.86-14,11.98-.44-.03-3.17-2.04-3.43-1.75-5.1,5.84-10.31,16.83-13.77,24.4-.63,1.37-1.95,4.59-3.69,8.6-7.05-3.82-13.5-6.47-13.5-6.47,0,0-5.99-11.2-14.05-18.2,2.99-6.71,4.62-13.91,2.93-22.29-2.2-17.65-16.65-33.36-8.58-52.26,5.41-14.68,16.12-26.88,25.19-39.86,.17-9.45,9.74-15.05,13.14-23.34l11.15-19.27c17.69-12.09,18.24-32.47,24.07-50.28,7.78-25.66,11.88-51.77,20.31-77.12,2.24-4.39-.99-10.6,2.65-14.04,.42-4.1-.73-7.61-2.58-10.98-.23-4.8,1.99-11.21-.66-15.51-4.26-.81-5.75-6.49-10.94-4.78l-8.13,1.79c-6.11-10.25,4.81-23-4.82-31.97-2.35-.46-2.68,2.67-3.45,4.24-.59,10.77-7.59,19.07-6.32,30.4-.59,5.29-4.61,10.15-2.16,15.64,2.63,10.61,12.1,19.35,9.93,31.34-10.51,32.57-29.18,61.23-40.71,93.33-8.65,19.78-25.93,35.46-44.62,48.77-1.5,3.17-4.08,4.76-6.77,6.18v-.29c2.94-9.59,.67-19.59,3.11-30.28-1.47-6.75-5.08-15.3-12.5-17.08-2.19-12.72-14.89-19.85-23.75-27.99-3.42-1.65-7.28-3.78-11.44-2.33-2.61,.83-4.49,4.09-7.29,4.49-10.2-6.24-24.73-5.52-34.44,1.41-8.16-.37-15.2,6.17-18.75,13.09-2.88,4.36-2.07,10.74-3.16,16.18-2.56,2.76-2.46,7.42-6.03,9.2l1.54,1.46c-1.15,3.28,.42,8.41-2.24,10.71-.03,.76,.85,.68,1.29,.99l.29-.22c1.91,5.35,.1,11.98,1.91,17.47,.72,3.68-.49,7.34-2.91,10.02-1.45,1.79-3.21,2.35-4.97,2.89,.47,1.78,1.02,3.49,1.6,5.19-.44-.09-.82-.17-1.22-.17-9.44-11.65-19.89-21.26-31.52-30.74-7.99-11.69-10.84-25.17-21.93-35.64-15.68-17.24-26.54-36.64-35.68-56.42-3.96-12.94-.7-25.35,2.92-37.98-1.3-14.49-.59-31.11-.8-45.62-.17-2.12-1.69-4.23-3.33-5.27h-5.08c-6.88,12.69-.48,28.52-5.03,42.07-6.69-1.11-13.87-9.4-20.01-3.22-1.13,3.41,3.01,7.95-2.52,9.24-1.83,1.93-5.32,1.7-6.05,4.74-.33,6.27-.17,12.65,3.57,16.95l1.6,.14c-4.02,18.02,15.13,29.73,17.06,46.54,14.66,17.42,15.94,39.39,30.15,56.98,10.7,10.66,14.3,25.06,24.18,36.77,11.26,15.3,24.3,25.82,34.07,42.1,19.39,14.54,29.24,33.3,34.06,54,.08,.41,.15,.82,.24,1.21,.38,1.7,.67,3.42,.97,5.11-4-2.65-7.94-16.03-11.58-13.93-2.12,1.15-.33,4.57,2.11,8.1-2.16-1.19-4.42-2.24-6.8-3.09-.99-.82-1.53-2.4-2.4-3.4-2.65-4.47-4.69-9.85-8.05-13.15-3.16-3.48-6.27-7.14-11.34-7.53-.54,.07-1.05,.18-1.49,.07-1.68-3.07-4.58-4.14-8.52-3.6-1.87-.78-3.95-1.18-6.38-.98-2.35,.96-4.66,0-6.46,.62-2.93,1-4.09,4.3-6.42,5.92-.05,.33-.28,.56-.3,.88-2.68,2.22-3.01,6.69-3.83,10.74-1.13,.26-1.78,1.04-2.51,1.8-2.03,.05-2.95-1.69-4.39-2.6-1.74-9.37-4.85-18.46-7.15-27.71-.91-3.64-1.68-7.32-2.18-10.98-.14-1.25,1.14-1.93,1.53-3.22,.38-1.27,.38-2.64,.24-4-.15-1.56-1.32-3.07,.28-3.93,1.42-.72,2.46-1.03,2.89-2.7,.47-1.72,.68-3.52,.65-5.3,0-1.61-.72-3.81-.12-5.32,1.48-3.47,1.61-7.46,2.23-11.16,2.91-.81,4.91-2.79,5.38-5.83-.16-1.46-.52-4.4-2.47-3.71-1.56,.55-3.03,1.41-4.32,2.41-1.28,1.01-2.39,2.15-3.38,3.42-.55,.61-1.01,1.3-1.46,1.99-.75-.14-1.48-.16-2.24,.03-1.02,.23-2.75,1.93-3.42,1.02-.75-1.1-1.26-2.32-1.68-3.53-.96-2.78-1.39-5.71-1.83-8.56-.48-3.12-.93-6.27-2.08-9.22-.47-1.19-1.03-2.34-1.83-3.35-1.02-.7-2.67-.18-3.31-1.4-.42,2.91,.4,5.48,1.33,8.38,.93,2.95,.17,6.46,.47,9.65,.36,3.5,.91,7.05,.5,10.58-.14,1.62-.55,3.21-1.15,4.67,.05,1.76,.17,3.48,.31,5.21,.62,7.23,1.98,14.42,1.89,21.72-.05,6.2-.63,12.39-1.16,18.57-1.38,14.5-3.52,29.56-1.18,44.09,.54,3.33,1.3,6.62,2.54,9.75,1.29,3.41,1.87,6.91,2.39,10.58,.6,4,1.91,8.35,1.66,12.41-.11,2.39-.06,4.83,.11,7.24-.34,.18-.67,.33-1.07,.48-1.32,1.89-3.24,3.21-3.51,6.11,.03,3.84,.21,8.17,.34,12.5,0,.64,.37,.76,.44,1.28-1.94,1.91-3.65-1.24-4.95-2.28-.08,1.39,1.52,2.66,1.93,4.27,.51,.44,.95,.91,1.56,1.18,2.51,.06,2.51-2.2,3.49-3.58,.39,.42,.69,.95,.9,1.63,1.11,.96,2.34,1.66,3.76,2.06,.54,.31,1.01,.76,1.48,1.17,.09,1.06,.12,2.13,.09,3.2-.21,3.95-1.48,8.39-.55,12.26,.46,1.71,1.1,3.35,1.66,5.08,.34,1.06,.83,1.89,1.42,2.62-.28,.74-.57,1.47-.89,2.2-.99-1.93-1.69-3.95-3.29-5.31-4.16-3.41-6.92-8.19-9.84-12.59-2.87-4.39-6.16-8.63-10.69-11.26-.93-1.92-1.91-3.75-2.93-5.59-1.38-5.24-.28-11.2,2-15.53,.33,.42,.1,1.43,1,1.09,2.16-3.15,1.1-8.62,1.91-12.83,5.3-11.19,3.31-25.13,.18-36.73-4.42-7.88-9.46-16.64-17.14-20.24-6.79-4.03-14.36-2.32-21.49-1.54,.38-1.58-1.46-1.67-2.26-1.22-1.66,3.04-3.95-.65-5.64,2.23-.83-6.55-1.8-13.19-2.45-19.83-.44-4.26-.69-8.47-.89-12.71,1-1.02,1.72-2.24,1.99-3.77-.73,.33-1.44,.78-2.17,1.28-.02-.49-.09-.96-.09-1.42,2.4-1.26,2.94-3.58,2.51-6.1,3.53-2.2,6.23-5.48,9.9-7.51,3.04-1.76,5.38,.47,8.46-1.13,.74-6.94-6.49-5.99-11.13-5.77,5.03-7.29,4.68-16.96,8.24-24.88-.45-3.9,1.88-7.42,2.79-11.06,1.24-5.35,.19-3.82-3.07-4.06,.54-1.51,1-3.08,1.41-4.65-5.32-1.03-6.78,4.11-8.65,7.89,.11-2.18,1.44-3.96,1.44-6.13-9.11-.9-9.11,16.94-14.41,21.62-.08-3.79,2.1-8.27,.54-12.01-1.8-4.23-3.77,.29-3.86,2.38-.4,6.99-2.9,13.9-5.11,20.66-.26-.88-.31-1.97-.71-2.72-6.22-12.52-21.51-20.52-29.98-31.66-6.27-8.43-5.25-9.59-4.25-18.57,.61-5.31-.05-12.06-3.94-16.13-11.51-2.99-13.47-1.97-22.42,2.67-1.31-1.37-9.89-14.25-12.14-11.39-3.89,4.89,7.44,14.29,8.28,19.03,1.28,7.55-1.61,13.69,4.23,20.69,2.48,3.04,6.11,1.72,9.05,4.11,3.5,2.9,6.38,8.05,8.74,11.73,5.2,8.12,13.34,17.44,17.46,26.26-6.84-.13-14.09,1.12-21.33,3.61-3.67,1.25-7.67,2.27-11.14,1.64-12.35-8-23.11-19.51-37.64-22.7-4.37,.89-7.85,2.1-10.24,4.75-4.42-.03-9.74,2.13-11.74,5.12-4.98,1.76-8.09,4.72-8.38,9.73-3.47,7.25-9.39,12.91-10.24,21.99-2.38,8.41-.82,18.31-.42,28.4-2.6,7.8-5.82,15.18-7.08,23.92-.7,0-1.47,.03-2.18,.06-7.21,.39-54.8,5.18-55.78-3.56-2.75-26.45-16.84-50.15-18.37-76.95-.32-5.46,4.24-54.43-3.36-56.09-4.84-1.04-3.36,16.65-3.63,17.89-.73-2.91-1.21-21.63-6.93-20.72-2.84,.49,1.82,27.2-1.18,31.54-1.31-6.98-6.61-20.04-14.38-22.08-4.94,6.22,10.35,20.34,8.51,28.33-4.49-5.24-7.33-12.95-14.57-15.07,.45,6.22,5.06,10.63,8.5,15.44,5.07,6.99,2.99,16.07,7.06,23.5,7.89,14.97,10.01,29.56,10.95,46.38,.64,12.8-1.82,31.4,5.1,43.19-4.41-1.26-9.59-.07-12.47,3.74-3.61,.54-5.9,3.77-9.24,4.71-.11,.02-.15,.1-.26,.17-3-5.93-6.38-11.45-9.97-16.8-2.59-4.19-5.29-8.4-7.99-12.86v15c-2.22-5.36-4.27-10.79-6.09-16.35-2.92-9.42,7.58-13.76,8.91-22.04,1.56-3.67-1.51-5.84-3.06-8.6-1.18-3.32,.28-7.98-2.82-10.38-2.88,1.03-3.24-2.54-5.7-2.45-1.19,.42-1.46,1.88-1.87,2.86-.36,.14-.7,.4-1.03,.61v83.45c1.41,6.45,2.89,12.87,4.11,19.32,2.82,7.92,10.64,13.23,14.47,20.67,6.27,12.45,12.67,24.82,21.7,36.07-1.41,1.51-2.82,3.03-4.29,4.43-.58,1.32-1.58,2.33-1.72,3.62,.32,.06,.95-.57,.56,.06,.67,.04,.76-.51,1.39-.5,1.23-2.53,2.79-5,4.68-6.79,.29,.37,.54,.75,.84,1.13,.09,.18,.27,.29,.39,.44-2.29,4.44-3.88,9.92-5.01,15.28-.78,.39-1.48,.8-2.05,1.41-2.38,0-5.26,1.16-6.36,2.79-2.7,.96-4.39,2.57-4.55,5.27-1.87,3.97-5.1,7.04-5.56,11.97-1.28,4.57-.44,9.95-.23,15.41-1.42,4.25-3.16,8.26-3.83,13-.39,0-.81,.02-1.2,.06-3.9,.19-29.78,2.79-30.29-1.98-1.5-14.33-9.16-27.23-10-41.77-.17-2.98,2.31-29.59-1.82-30.5-2.61-.54-1.83,9.05-1.98,9.72-.38-1.57-.63-11.75-3.76-11.26-1.54,.28,.99,14.77-.64,17.15-.72-3.8-3.6-10.9-7.81-12.01-2.7,3.38,5.62,11.05,4.62,15.41-2.43-2.86-3.98-7.02-7.9-8.2,.23,3.39,2.73,5.78,4.6,8.41,2.76,3.79,1.63,8.73,3.84,12.76,4.29,8.12,5.44,16.06,5.95,25.21,.34,6.96-.99,17.05,2.78,23.44-2.39-.66-5.23,0-6.8,2.07-1.96,.29-3.2,2.04-5.02,2.53-.05,.01-.08,.07-.13,.08-1.63-3.21-3.46-6.22-5.43-9.11-1.4-2.29-2.85-4.56-4.32-6.99v8.15c-1.21-2.92-2.33-5.85-3.34-8.88-1.57-5.1,4.13-7.49,4.87-11.98,.84-1.99-.83-3.17-1.67-4.67-.64-1.81,.15-4.32-1.53-5.66-1.57,.56-1.75-1.37-3.1-1.31-.65,.23-.8,1.03-1.01,1.55-.2,.09-.38,.21-.56,.32v45.36c.75,3.52,1.55,7.01,2.23,10.5,1.52,4.32,5.77,7.17,7.88,11.22,3.39,6.76,6.86,13.5,11.77,19.59-.76,.83-1.53,1.66-2.33,2.45-.31,.7-.87,1.21-.94,1.93,.16,.03,.51-.27,.31,.04,.36,.02,.42-.27,.75-.25,.67-1.4,1.53-2.74,2.55-3.72,.15,.21,.28,.44,.45,.61,.04,.11,.14,.17,.2,.26-1.35,2.6-2.29,5.9-2.91,9.05-.54,.81-1.08,1.61-1.62,2.4-.24,.06-.45,.17-.72,.2-.23,.25-.76,.08-1.01,.31-.26-.09-.29,.11-.54,.04-.1,.1-.16,.63-.05,.27,.12-.27,.09,.15,.08,.25,.84,.1,1.17,.08,1.54,.02-3.88,6.39-.72,14.57,.78,21.06,.29,4.11,.09,8.29-.63,12.11-1.17,.57,0,1.66-1.03,2.32-.57,4.03-4.68,6.58-6.77,10.01-.57,.99,.97,1.07,.89,1.97-.26,.99-1.76,1.85-.89,2.95-.5,3.17-3.36,5.38-2.76,9.04-.54,1.14-1.3,2.17-1.44,3.47-2.36,3.84-3.22,8.26-4.01,12.76-.38,10.54-1.58,21.28-1.12,31.65-.32,3.13-.58,6.59-.66,10.04v1.18c-.04,3.29,.11,6.59,.66,9.64,.5,1.47,.91,2.99,1.31,4.51H71.33v.02H1137.42v-3.53h1013.07v-.38h46.91c.36-1.52,.8-3.03,1.3-4.52,.53-3.06,.69-6.33,.65-9.64v-1.17c-.07-3.47-.34-6.89-.65-10.04,.46-10.35-.76-21.11-1.1-31.66-.83-4.48-1.67-8.9-4.02-12.76-.15-1.3-.93-2.32-1.43-3.48,.58-3.66-2.27-5.85-2.76-9.04,.84-1.08-.66-1.96-.91-2.93-.07-.93,1.46-.97,.91-1.98-2.09-3.44-6.22-5.98-6.78-10.01-1.01-.64,.15-1.76-1.01-2.32-.73-3.82-.93-8-.63-12.13,1.48-6.46,4.64-14.66,.75-21.05,.37,.04,.71,.08,1.55-.02-.01-.1-.03-.53,.07-.26,.1,.37,.07-.14-.04-.26-.24,.07-.28-.11-.54-.02-.25-.22-.79-.07-1.03-.33-.26-.02-.47-.13-.69-.19-.56-.81-1.08-1.6-1.64-2.38-.61-3.16-1.55-6.48-2.91-9.09,.04-.06,.17-.16,.21-.23,.16-.21,.29-.42,.47-.62,1.02,.98,1.86,2.31,2.53,3.69,.34,0,.38,.29,.77,.28-.22-.33,.13,0,.31-.03-.08-.71-.63-1.26-.94-1.96-.81-.78-1.57-1.6-2.35-2.41,4.92-6.14,8.38-12.85,11.79-19.62,2.07-4.03,6.35-6.91,7.87-11.22Zm-345.37-355.41c.33,1.02,.78,2.1,1.17,3.1-1.26-.03-2.12-2.72-1.17-3.1Zm12.44,45.36c-5.37,1.61-9.85-1.18-11.41-5.08,3.22,.4,7.82,3.42,11.41,5.08Zm-12.55-49.8c.17,.7,2.7,1.67,1.32,2.1-.14-.7-2.7-1.69-1.32-2.1Zm-535.45,144.26c.5,1.81,.34,3.41-.53,4.86-.47-1.71-.99-3.66,.53-4.86Zm-2.5,11.45c-1.04-1.78,1.85-2.39,2.01-4.17,.28,1.45,.72,3.52,2.23,4.18-1.03,.27-2.87,.43-4.24-.01Zm6.69,23.92c-.71-.96-1.65-2.01-.91-3.25l1.36-1.21c.31,2.18,2.67,3.31,3.89,5.01,.18,.57,.42,1.04,.65,1.6,0,.16,.03,.36,.03,.55-1.76-.43-3.75-1.28-5.03-2.7ZM497.02,204.67l-1.58-.15-.28-2.45c.79-1.33,.11-3.77,2.23-3.81-.57,1.21,.69,4.32-.37,6.41Zm1.32,26.03h-.27l.09-1.88h.26l-.08,1.88Zm-91.48,161.47c-.05-.08-.07-.13-.07-.22,.15,0,.36-.07,.31,.19-.1,0-.16,0-.24,.02Zm.12-.39c.2-.45,.65-1.23,1.04-1.23-.25,.36-.46,1.33-1.04,1.23Zm3.53,2.6c.02,.13,.02,.27,.04,.36-.1,.14-.23,.18-.34,.31,.06-.21,.19-.45,.3-.67Zm-1.17,9.02c.91,1.31,.91,3.32,1.5,5.06-1.33,.5-2.95-3.81-1.5-5.06Zm4.41,6.76c-.76-.96-2.33-2.74-1.9-4.26,.5,.66,1,1.27,1.52,1.87,.16,.82,.29,1.6,.39,2.39h-.02Zm-321.06,37.31c-.25-.5,.38-1.47,.75-1.82,.6,.43-.66,1.21-.75,1.82Zm-73.36,123.45c-.14-.29,.21-.81,.41-.99,.32,.24-.37,.64-.41,.99Zm5.12-.12c-.98,1.54-2.03,3-3.07,4.51,.7-2.22,1.87-3.98,3.13-5.54,.18,.26,.24,.58-.06,1.03Zm37.52-44.27c-.91-1.07-1.99-1.7-3.26-2.08,2.58,.17,5.48,.35,8.13,.85-.91,.44-1.86,.88-2.84,1.31-.64,.12-1.29,.18-1.91,.25-.05-.12-.12-.2-.13-.33Zm4.37,9.48h-.09c-.32-1.77-.82-3.49-1.54-5.03,.61-.32,1.23-.65,1.98-1.19,.03,1.83-.2,4.04-.35,6.22Zm-2.26-6.24c-.4-.69-.83-1.29-1.29-1.88,1.32-.08,2.71-.43,4.2-.97-.66,1.05-1.72,2.14-2.9,2.85Zm38.06-82.48c-1.83,2.79-3.77,5.52-5.66,8.3,1.3-4.1,3.41-7.31,5.77-10.19,.32,.49,.42,1.06-.1,1.89Zm85.56,67.37c.03,.43,.06,.9,.11,1.31-.43,.75-.91,1.41-1.66,1.71,.35-1.21,.91-2.17,1.55-3.02Zm-3.08,3.65c-.24-.25-.33-.6-.4-.93-.02-.17-.02-.33-.05-.49,.03-1.26,.97-2.61,2.06-2.68,0,1.38-1.67,2.05-1.61,4.1Zm.22-24.49c1.31,2,2.45,4.19,2.89,6.67-.14,1.83-.25,3.65-.33,5.49-.21,.81-.31,1.58-.69,2.47-.95,1.41-2.46,2.13-4.04,2.78-.21-.39-.43-.77-.65-1.14,.74-5.6,1.54-11.17,2.82-16.26Zm-11.39-127.7c-.82-.31-1.64-.52-2.44-.48-1.64-1.84-3.58-3.01-5.82-3.68,4.75,.29,10.08,.63,14.97,1.55-1.67,.85-3.46,1.6-5.2,2.42-.52,.09-1,.12-1.51,.18Zm6.14,1.4c-.26,.33-.48,.63-.76,.93-.73-.18-1.44-.44-2.16-.81,1-.25,2.04-.58,3.12-.96-.06,.29-.14,.57-.2,.83Zm10.28,172.3c-.42,.53-.77,1.13-.85,2.01,0,.63,.05,1.38,.06,2.03-.4,1.76-.84,3.51-1.29,5.27-.38-.36-.73-.81-1.04-1.06-.04,.63,.5,1.22,.84,1.88-.38,1.43-.74,2.83-1.1,4.24-1.3-1.77-2.72-3.43-4.61-4.51-.49-1.05-1.04-2.05-1.58-3.06-.76-2.84-.16-6.09,1.09-8.45,.17,.24,.05,.79,.53,.61,1.17-1.71,.6-4.68,1.04-6.97,1.33-2.82,1.76-5.98,1.72-9.18,1.72,2.35,3.66,4.49,5.88,6.39,.35,3.33-.03,7.02-.69,10.8Zm11.16-121.79s0-.04,.02-.05c.02,.05,.02,.1,.04,.16-.02-.05-.02-.1-.05-.11Zm124.46-60.89c.17,.65,.33,1.36,.44,2.06-.15,1.46-.4,2.9-.65,4.36-.17-.46-.29-1-.49-1.44,.26-1.64,.55-3.29,.7-4.98Zm-4.42,19.71c.21,.65,.35,1.26,.53,1.89-.45,1.49-.84,2.97-1.3,4.47-.05,.15-.1,.31-.16,.47-.18-.63-.35-1.18-.54-1.85,.5-1.71,1.04-3.33,1.47-4.97Zm-26.59-98.95c-.14-.19-.32-.32-.47-.5,.25,.03,.47,.07,.72,.1-.08,.14-.16,.28-.26,.4Zm-5.73-5.68c-2.93-2.96-6.02-5.5-8.89-8.43,3.94-1.99,7.47-2.21,11.43-4.15,5.72-1.85,11.43-2.33,16.9-1.85,.61,4.4-1.46,11.38-3.79,18.25-.94-.18-1.82-.49-2.75-.67,.35-1.42,.48-2.85,.05-4.36-2.32,.35-3.64,1.67-4.74,3.21-2.75-.64-5.54-1.14-8.21-2.01Zm9.72,9.59c.75-1.15,1.48-2.29,2.06-3.45,.97,.15,1.98,.28,2.95,.44-.61,1.83-1.25,3.63-1.85,5.37-1.12-.7-2.14-1.51-3.16-2.36Zm11.25,138.88c-.15,5.21,1.15,9.25,4.34,14.75,.51,.9,1.08,1.77,1.61,2.65-3.98,4.06-8.51,7.74-13.25,11.13,2.66-9.46,5.08-19,7.3-28.53Zm21.05,46.09c-.85,5.88-5.93,5.88-9.62,9.91-2.83,3.16-4.5,7.1-5.28,11.22-.8,3.74-2.21,6.28-3.79,8.88-1.46-4.44-2.2-8.97-.09-13.92,2.94-7.99,8.75-14.6,13.7-21.66,.02-1.67,.66-3.07,1.45-4.4,1.09,1.75,2.21,3.47,3.23,5.23,.38,1.46,.62,2.98,.4,4.75Zm96.48-134.16c-.2-1.96-.5-3.86-.89-5.83,.53,.5,1.24,.81,1.57,1.3,.33,.27-.43,.59,0,.98,.44,.35,.76,.75,1.24,.92-.29,1.2-.98,2.01-1.92,2.63Zm2.59-.13c.44-.5,1.69-1.25,2.28-.94-.24,.78-1.49,1.64-2.28,.94Zm12.75,131.45c-2.3,.78-4.63,1.56-6.75,2.16-1.33,.36-2.64,.65-3.96,.95,.03-.85,.22-1.92,.45-2.96,3.74-.56,7.4-1.33,10.52-2.12,.06,.05,.13,.09,.18,.13-.17-.04-.32-.01-.45,.21-.19,.43-.08,1.04,.02,1.63Zm1.67-.53c-.15-.22-.33-.48-.5-.7,.26,.22,.5,.43,.75,.61-.08,.04-.15,.06-.25,.09Zm-3.75-150.75c1.21-1.15,1.82-2.8,4.08-2.9-.99,1.19-2.37,2.67-4.08,2.9Zm13.08-3.17c-1.47,1.24-4.65,.58-6.77,.9,1.83-.98,4.73-1.42,6.77-.9Zm-2.94,242.69c-.33-.3-.69-.63-1.05-.9-.33-1.1-.68-2.17-1.02-3.27-.64-2.18-1.32-4.37-1.89-6.62-.15-.54-.26-1.12-.39-1.68v-.23c.67-.56,1.1-1.82,1.81-2.52,.36,.58,1.04,.79,1.62,.65-.11-.31,.14-.32,.1-.56-.59-2.12-2.59-4.05-1.53-6.34,.67,.32-.26,.87,.42,1.18,1.26-.28,.64-2.07,1.49-2.69l1.64,1.52c-.55,4.07-1.15,8.18-.74,12.25,.3,3.07-.02,6.13-.46,9.18Zm1.3-22.2h0c-.62-.64-1.16-1.35-1.32-2.13,.46,.32,.95,.71,1.45,1.08-.03,.35-.09,.7-.13,1.05Zm.2-1.68c-1.47-1.34-2.57-3.04-2.42-5.06,1.08,.11,2.05-.04,2.92-.35,.09,.38,.19,.74,.06,1.21-.16,1.39-.36,2.79-.56,4.19Zm.1-6.68c.06-.08,.03-.15,.06-.23,.05,.17,.08,.33,.14,.49-.07-.08-.17-.2-.2-.26Zm1.19-3.6c-.19-.07-.4-.1-.56-.19-1.15-.24-1.94-1.45-1.79-2.63,.33-.69,.63-1.4,.9-2.1,.58,1.35,1.19,2.82,1.8,4.25-.08,.19-.23,.43-.34,.67Zm4.73-16.12c-.81-1.02-1.61-2.06-2.33-3.03,.05-.13,.12-.28,.17-.45,.89,0,1.78,.12,2.66,.1-.25,1.07-.34,2.24-.5,3.39Zm1.26-191.58c1.32-.13,2.16,.41,2.84,1.34-1.05-.32-2.39-.06-2.84-1.34Zm30.33,33.31c-.23-1.03-.74-2.78-.2-3.41,.08,0,.15,0,.21-.02,.38,1.65,1.21,4.1,2.28,6.5-.82-.9-1.61-1.89-2.29-3.07Zm2.59-2.83c2.29,1.75,4.33,4.01,6.46,6.01,.39,.73,.68,1.45,1.12,2.08,0,.06,.02,.11,.02,.15-2.02-1.47-6.04-6.29-7.62-8.23h.02Zm4.09,13.23c.19,.15,.36,.23,.52,.26,0,.12,0,.15,.02,.24-.05,.03-.11,.03-.16,.05-.14-.18-.34-.33-.38-.56Zm.79,15.58c-.3-.48-.34-1.13-.34-1.82,.52,.23,.7,.85,.96,1.38-.26,.08-.23,.44-.62,.44Zm1.05-7.9c1.8,1.3,3.37,2.54,4.38,3.54-.45,1.26-1.11,2.26-2.06,3.05-.64-.2-1.24-.6-1.88-.84-1.13-1.92-.81-3.79-.44-5.75Zm2.45,16.39c-.41-.76-.54-1.89-.69-3.1,.08-.33,.46-.34,.5-.72-.23-.3-.51-.55-.56-1.24,.67,.08,1.32,.32,1.77,.74-.18,1.16-1.16,2.48-1.03,4.32Zm3.05-6.18c-.09,.26-.03,.64-.29,.77-.54-.29-1.52-.61-1.7-1.02,.57,.31,1.53-.14,2,.25Zm-1.24,2.51c.72,1.46,1.45,3.99,1.29,5.69-1.58-.39-2.56-4.45-1.29-5.69Zm1.29-6.33c.05-.24,.14-.43,.19-.67,.1,.35,.2,.69,.26,1.03-.16-.11-.3-.25-.45-.36Zm3.6,20.71c-.48-.64-.97-1.29-1.39-1.99,.4,.11,.86,.39,1.39,.68v1.31Zm.91-213.31c.36-1.33,.99-2.88,2.1-3.52l.57,1.42c-.02,1.32-1.08,2.59-2.66,2.1Zm-3.92,.99c-.27-2.43,.84-5.84,2.13-8.47,1.9-2.52,4.78-5.05,8.04-5.42-1.58,6.17-9.4,7.52-10.17,13.89Zm58.41-22.25c2.47-.46,5.86-.2,7.26,1.69l-7.57-1.06c.15-.13,.46-.4,.32-.63Zm8.05,10.44c.45-1.94-1.46-4.04-2.58-5.57l1.57,.05c3.05,.71,5.67,3.32,8.2,4.38-2.18,.82-4.76,1.73-7.2,1.13Zm66.46,246.37c-2.99,3.24-6.35,8.31-7.85,12.52-2.24,6.31-4.39-.28-6.54-2.17,.26,3.45-3.41,2.7-5.25,4.22-.97-4.16-2.34-7.99-3.69-11.78,1.7-8.55,3.84-16.92,5.75-25.39,1.11-2.14,2.35-4.24,3.67-6.34,7.4,6.47,14.06,11.85,14.75,11.95,.71,.08,4.9,4.06,10.01,9.31-3.94,1.99-7.73,4.24-10.85,7.67Zm78.39-11.52c.27,.56,.56,1.21,.84,1.76-.6-.24-1.08-.51-1.62-.76,.24-.37,.53-.65,.78-1Zm-21.82-25.94c1.67,.72,3.1,.2,3.94-2.63,.45-1.5,1.38-2.68,2.47-3.76-2.44,4.91-4.97,9.69-9.36,12.84-.87,.64-1.77,1.08-2.7,1.42,1.48-2.47,3.65-5.16,5.66-7.87Zm-18.57,186.29c-.02-.52-.02-1.03-.06-1.54,.09,.07,.21,.13,.31,.18-.12,.43-.17,.9-.24,1.36Zm16.83-22.54c.14-.65,1.08-2.2,2.71-1.54,.1,1.54-1.93,.93-2.71,1.54Zm-2.35-2.31c.83-2.3,2-4.46,2.73-6.78,.65,.71,1.07,1.71,1.98,2.18,.93,.54,.98-.12,1.12,1.04,.07,.43,.14,.82,.18,1.21-2.46-1.24-4.86,0-6.01,2.35Zm12.85-49.97c-.85,.08-1.74-.13-2.6,.16,1.4-.63,2.96-1.46,4.55-1.49,.47,.25,1.06,.43,1.47,.76-.76,1.12-2.3,.64-3.41,.56Zm2.08-2.15c-1.87,.47-4.08,.82-5.63,1.86-2.28,2.31-4.9-.92-7.13,1.54-1.03,.36-1.41,1.67-1.39,2.63-.7,.92-1.99,.47-2.98,.92-.62,.29-.68,.97-.62,1.5,1.76,1.64-1.12,2.75-.98,4.37,.14,1.55-1.56,2.19-2.01,3.32-2.99,1.45,.78,4.76-2.02,6.2-.81,2.48,2.31,.95,3.34,2.01,.27,.47,.53,1.18,.3,1.7,.74,.79-.14,1.79,.19,2.76,.36,.59,.28,1.66,1.18,1.85v.07c-.11,1.25-.57,2.58-1.75,3.34-.94,2.59,2.47,3.72,3.96,5.09,.57,.93,.32,1.93-.22,2.77l.12,.07,.88-1.33c.35-.7-.24-1.35-.32-1.97,.53,1.38,1.06,2.71,1.5,4.1-.83,1.33-1.57,2.72-2.3,4.07-.86,1.64-1.68,3.23-2.67,4.74-.43,.69-.54,1.44-1.44,1.15-.79-.28-.96-.28-.93,.59,.04,2.16-.78,4.08-1.75,5.98-.94,1.93-1.83,3.91-1.49,6.11,.04,.38,.19,.74,.27,1.11-1.27-1.56-2.78-2.84-4.84-3.14-.77,2.37,1.08,4.25,2.95,6.09-.73,.7-1.45,1.38-1.97,2.23-.17,.34-.26,.71-.4,1.06-.5-.35-.97-.71-1.46-1.08-.36-9.3-.19-18.67,0-27.91,3.07-4.4,5.44-8.23,5.75-10.25,.6-3.86-1.71-9.52-4.74-15.3,.75-9.21,2.13-18.29,5.13-27.43,2.18-6.73,4.2-13.47,5.55-20.41,.79-4.11,.51-7.47,.87-10.81,7.62,6.75,14.36,13.73,15.47,20.04,.86,4.95,2.79,12.91,4.62,21.57-1.01-.14-2.09-.88-3.04-1.18Zm-15.64,37.59c-.95-.21-2.01-.68-2.73-1.45-.39-.5-.88-1.07-.5-1.77l.72-.65c.2,1.19,1.47,1.8,2.13,2.73,.11,.3,.24,.55,.37,.86v.28Zm-5.27-16.71c.16,.81,.39,1.91,1.23,2.28-.56,.13-1.57,.23-2.3-.03-.58-.93,1-1.28,1.08-2.25Zm.27-3.97c.27,.99,.17,1.83-.3,2.65-.25-.92-.52-1.97,.3-2.65Zm23.76-86.31s-.06-.02-.08-.04c.05-.1,.08-.17,.14-.25-.03,.11-.06,.19-.06,.29Zm9.88,6.28c-1.18-.99-3.83-2.66-7.18-4.67-.11-1.68-.46-4.06-1.54-4.06,1.69-3.36,3.4-6.71,5.45-9.86,.9,.22,1.69,.38,2.27,.47,5.86,11.1,11.44,15.86,11.44,15.86,0,0,1.84,13.07-10.44,2.27Zm40.86-73.6c-2.74-1.06-5.91-2.62-9.35-4.07,1.95-5.73,4.04-11.37,6.52-16.79,2.85,5.25,5.87,10.46,9.21,15.5,.12,3.81-2.29,5.38-5.94,5.58-.13-.05-.29-.15-.44-.21Zm19.38,13.16c-1.16,1.83-2.44,3.58-3.65,5.36-2.12-5.86-6.34-9.94-10.32-12.51-.32-.65-.69-1.31-1.09-1.87,3.3-1.36,3.34-5.28,2.76-8.4,2.65,3.98,5.48,7.86,8.62,11.63,.96,2.39,5.71,2.78,3.68,5.79Zm87.17-70.66l.6-.3c.47,.57,.58,1.33,.92,1.97-.64-.47-1.22-.98-1.52-1.68Zm23.8,52.36c1.26,3.14,2.64,6.4,4.08,9.62-.87-.24-1.74-.46-2.45-.92-2.15-.38-3.58-2.63-3.3-4.85,.57-1.28,1.13-2.53,1.67-3.85Zm9.19,78.97l-.68,2.1c-.85-.74-1.72-1.42-2.62-2.1,.6-5.3,1.69-10.42,4.02-15.08-.75,4.71-1,10.07-.73,15.08Zm3.77-23.44c-5.35,6.6-7.51,14.28-8.42,22.42-1.78-1.31-3.62-2.46-5.48-3.65-.06-.43-.2-.83-.27-1.25-1.07-.95-2.11-1.9-3.22-2.78-.62-2.01-1.23-3.99-1.85-6-1.22-4.03-2.47-8.06-3.5-12.17-.27-1-.46-2.06-.73-3.09,.02-.14,.02-.29,.03-.43,1.22-1.06,2-3.35,3.3-4.62,.68,1.06,1.93,1.46,3.02,1.17-.21-.54,.25-.59,.19-.99-1.1-3.88-4.78-7.44-2.82-11.64,1.23,.57-.5,1.55,.75,2.14,2.31-.48,1.17-3.79,2.73-4.93l3.5,3.24c2.28,1.61,5.64,2.36,8.28,1.55-1.03,.14-2.11-.37-3.33-.15-3.5-.78-6.99-3.9-7.67-7.17,3.5,2.4,7.58,6.81,12.34,4.84-2.08,.28-3.69-.38-5.36-.89-4.58-2.62-9.02-6.96-8.62-12.41,2.03,.2,3.87-.1,5.51-.67,.38-1.08-.58-1.73-.86-2.33,.86-1.07,.08-2.34,.68-3.19,7.09,1.13,3.69,8.34,5.62,13.01,.38,1.42-2.91,2.09-.76,3.49,1.62,0,.76-1.76,1.9-2.36,.69-.18,1.56,.79,2.05-.18l-1.65-1.21c.96-2.83,.16-5.26-.47-7.71,2.14,4.2,4.32,8,6.41,10.77,2.98,3.93,5.22,7.92,7.19,11.69-3.85,4.67-6.61,10.52-8.49,15.53Zm97.67-46.68c.25,.27-.34,1.07-.78,1.21,.21-.48,.57-.76,.78-1.21Zm-15.79,78.4c.29-.09,.55-.22,.86-.22,.17-.05-.25-.07-.82-.1,.06-.74,.23-1.43,.22-2.17,.02-.04,.05-.08,.06-.14,.63,.1,1.22,.18,1.81,.31,.24,.68,.43,1.43,.65,2.11-.74,.06-1.77,.36-2.81,.36,.01-.04,.01-.08,.01-.14Zm-1.52-1.35s.08,0,.12-.01c-.01,.31-.05,.67-.09,1.01h-.31c.1-.34,.17-.69,.27-1Zm-.33,1.23c.12,.03,.23,.05,.33,.08,0,.07,0,.18-.02,.26-.13,.01-.25,.06-.39,.06,.03-.13,.05-.25,.09-.39Zm-.87,3.67c.25,.02,.5,.01,.75,.02-.03,.2-.09,.4-.13,.6-.23-.09-.48-.15-.71-.24,.02-.11,.05-.24,.09-.39Zm-2.87,14.84c1.23,.6,2.51,1.3,3.66,1.8-1.68,.52-3.12,.19-4.27-.51,.2-.45,.4-.86,.61-1.29Zm-2-.73c.05,.01,.11,.05,.18,.07-.07,.19-.14,.38-.21,.57-.05-.1-.11-.19-.16-.29,.05-.1,.12-.23,.2-.34Zm-3.97,15.28c.35,.57,1.58,.37,1.51,1.24-.73,0-2.01-1.75-1.51-1.24Zm-2.56,4.99c-.29,.03-.59,.06-.9,.11l.29-.54c.2,.07,.42,.14,.6,.21v.22Zm9.48,40.38c-1.89,1.77-3.31,3.93-4.11,6.32-1.45,2.27-2.75,4.36-3.91,6.26,.67-2.49,1.53-4.93,2.66-7.2-.53-4.81,.62-6.23,4.16-9.65,2.11-2.1,3.66-4.22,5.07-6.46-1.18,4.72-2.47,8.49-3.86,10.72Zm10.03-50.51c-2.76,.65-5.7,1.06-8.29,1.97,.3-.57,.45-1.19,.47-1.85-2.23,1.81-5.1-.42-6.9-1.97,.04-.07,.1-.16,.13-.24,1.36,.27,6.3,1.61,7.35,1.39,.41-.12,4.61-3.35,4.5-4.34-1.18-1.46-3.6,0-3.8-2.51,1.64-.24,3.36,1.09,4.99,1.3-2.61-1.79-6.29-4.14-7.87-6.73,.27-.6,.54-1.22,.81-1.85,2.63-.03,5.62,3.18,8.31,1.15-1.59-.64-3.35-.64-4.98-1.26,.38-.5,.84-.82,1.43-.97-.91-.38-1.89-.56-2.9-.52-.69-.61,3.22-1.95,1.3-2.29,1.76-.87,2.53-2.75,3.65-4.24-1.32,.23-2.72,.14-4.09-.13,.08-.35,.08-.72,.14-1.07,1.46-.07,2.88-.28,4.12-.89,.45,1.45,.97,2.85,1.39,4.35,.68,.9,1.32,1.85,1.94,2.78-.4,4.94-.97,11.22-1.68,17.93Zm2.28-86.43c-.15-.23-.28-.48-.48-.76,.23-.24,.44-.49,.7-.67,0,0,.2,.01,.2,.05-.07,.54-.26,.93-.42,1.38Zm.55,.71c.31-.63,.68-1.28,1.13-1.74,.11-.03,.14,.08,.14,.08,.04,.95-.26,1.8-.57,2.71-.21-.35-.48-.7-.7-1.05Zm1.03,1.5c.21-.65,.45-1.27,.68-1.7,.08,.04,.16,.06,.17,.12-.2,.64-.4,1.35-.47,2.01-.14-.1-.26-.26-.38-.43Zm.79-5.75c.9-2.47,2.46-4.35,3.91-6.27,.34,0-.09,.45,0,.81-1.2,2.04-1.75,4.74-3.35,6.4,.13-.32-.25-.15-.41-.16-.09-.22-.14-.49-.14-.78Zm0,6.84c.1-.42,.22-.82,.31-1.21,.65,.97,.97,2.38,1.47,3.46-.63-.74-1.22-1.5-1.78-2.25Zm3.96,3.16c-.21-.21-.43-.42-.55-.68,.15-.58,.65-.84,.91-1.31,.71,.51,.34,1.72-.36,1.99Zm.46-3.28c-.46,.7-.94,1.29-1.51,1.86-1.2-1.02-1.82-2.6-2.12-4.47,1.3-4.8,4.02-8.16,5.7-12.51,.17-.02,.21,.11,.21,.11-1.48,4.67-2.25,9.27-2.28,15.01Zm1.18-14.41c-.15-1.04,.49-2.07,1-2.78-.11,.81-.61,1.93-1,2.78Zm.49-3.89c-.41,.13-.1-.45-.49-.34-.3,.68-.24,1.78-.41,2.51-.8,1.39-1.71,2.67-2.71,3.85-.46,.67-.88,1.33-1.34,1.93-.46,.54-.75,1.71-1.35,1.81-.2-.39,0-1.1-.09-1.81,.51-2.78,1.39-5.18,2.85-7.04,2.07-1.42,2.96-3.89,4.63-5.7,0-.35,.22-.51,.35-.74,.13-.04,.13,.06,.13,.18-.36,1.94-.72,3.83-1.57,5.34Zm1.57-7.21c.21-.51,.45-.91,.7-1.34,.31,.63-.34,1.07-.7,1.34Zm1.13,3.95c-.28-1.09,.13-2.26,.42-3.1,.09,.97-.27,2.14-.42,3.1Zm.72-3.8c-.13-.03,.17-.37,.17-.6,.24,.14,.06,.23,.19,.45-.15,.01-.28,.05-.36,.15Zm77.12,6.71c.18,.08,.14,.38,.28,.5-.06,.14-.34-.22-.28-.5Zm1.35,1.63c-.27-.9-.56-1.79-.84-2.69,.73-.02,1.22-.29,1.76-.49,0,1.1,.06,2.18,.03,3.27-.31-.04-.63-.07-.95-.08Zm20.79,166.08c-.45-.88-.96-1.71-1.46-2.6,.3-.23,.54-.46,.81-.7,1.22,.97,2.43,1.9,3.76,2.82-.93,.56-1.98,.66-3.1,.47Zm10.4-12.08c-1.19,.11-2.38,.19-3.34,.64,0,.99,1.45,1.36,2.71,1.61-.16,.45-.23,.91-.4,1.35-.85,.21-1.77,.24-2.71,.12-.81-.1-1.48-.31-2.23-.49,1.4-1.8,2.65-3.71,3.66-5.79,.78-1.57,.68-3.96,1.68-5.1,.92,2.5,1.06,5.13,.63,7.65Zm6.76-2.92c-.05-1.83-.27-3.73-.93-5.8-.65-1.29-.62-3.38-2.63-3.08,1.11,3.8,1.59,7.39,1.52,10.73-.16,.1-.36,.23-.57,.26-.61,.29-1.39,.31-2.11,.4,.18-2.42-.03-5.03-1.13-7.85-.35-.69-.67-1.53-1.12-2.14,.73-2.85-.57-6.55-2.03-9.41-1.04,1.68,.22,4.7-.14,6.78,.25,2.45-.14,4.51-.14,6.8-.36,.25-.1,.92-.4,1.21-.69-.99,.38-2.23,.24-3.43-.59-1.96-.88-4.39-1.97-5.48-.98,.02-.83,.67-.56,1.45-1.66-1.08-2.77-4.41-4.66-4.25-.93,.72,.34,2.32,.76,3,.29,1.11,.58,2.21,.86,3.32,.32,4.57-.48,8.68-2.82,11.87-1.42-.76-2.58-1.74-3.54-2.79,2.26-14.32,4.47-27.95,5.39-32.04,1.17-5.3,3.71-18.65,6.63-29.84,8.08-.19,14.79-.46,16.5-.4,2.48,.18,3.93,1.15,4.83,2.57-.71-.4-1.49-.51-2.22,.32,.4,1.45,.99,2.95,1.82,4.16,.56,.8,1.21,1.51,1.82,2.22,.02,.76,.05,1.53,.05,2.32-3.45-3.49-7.92-9.74-10.41-6.52,.85,2.49,2.63,3.86,4.31,5.54,1.89,1.89,3.88,3.73,5.16,6.12-4.37-1.49-9.42-5.92-10.9-4.3-.57,4.14,4.96,4.46,6.78,7.03-1.55-1.58-7.12-2.7-3.37,1.47,2.92,2.64,5.69,4.68,8.55,6.5-.7,.99-1.14,2.07-.54,3.43,2.02,5.19,2.34,10.01,2.11,14.96-6.13,3.09-10.6,9.03-15.15,14.83Zm66.03-293.58c-.07,.85,2.28,7.08,2.4,9.14-.76-1-3.04-4.05-2.4-9.14Zm-1.21-6.5c.97-.26,4.41,7.16,4.1,8.33-.31,.94-5.95-7.57-4.1-8.33Zm77.34,20.45c-.02,.37,0,.79-.04,1.19-.07-.16-.13-.29-.18-.42,.05-.25,.16-.51,.23-.76Zm12.57,114.5c-.75-14.71-21.2-30.91-37.31-33.75,.89-15.95,3.68-30.98,7.53-47.18,.63-2.74,2.24-5.35,4.05-7.97,4.21,8.97,5.73-1.88,24.99,69.04,4.67,11.18,7.38,12.07,6.48,13.2-1.46,1.82-4.8,6.82-5.74,6.66Zm16.06,96.01c-.26-2.52-1.24-4.74-2.35-6.92,1.15,.31,2.27,.59,3.21,.94,1.48,.65,4.92,1.21,7.83,2.18-.08,1.58-.2,3.09-.2,4.63-3.18,.34-6.43,.28-9.58,.73-.68,.1-1.36,.25-2.07,.41-1.34-2.2-1.77-5.28-1.49-8,1.08,2.25,2.2,4.93,4.64,6.04Zm9.03,13.68c-1.21-1.01-4.02-2.43-5.57-2.66-2.87-.43-4.49-1.45-7.02-2.5-.25-.05-.45,0-.68,.02-1.45-.91-2.81-2.15-2.84-3.84,2.82,3.78,5.32,3.4,8.47,1.32,2.35-.13,4.75-.29,7.17-.25v1.05c.07,2.3,.36,4.59,.54,6.87h-.07Zm31.45-65.76c.26-1.21,1.98-4.05,4.99-2.86,.15,2.86-3.56,1.73-4.99,2.86Zm-4.35-4.27c1.54-4.24,3.67-8.22,5.04-12.49,1.2,1.32,1.97,3.13,3.65,4.04,1.69,.94,1.8-.25,2.02,1.9,.14,.78,.26,1.51,.36,2.21-4.53-2.27-8.92,0-11.07,4.35Zm23.67-91.98c-1.58,.17-3.21-.21-4.81,.34,2.57-1.18,5.46-2.71,8.37-2.75,.88,.47,2,.79,2.73,1.41-1.4,2.05-4.26,1.17-6.29,1Zm27.88,8.93l.12-.31c2.82-1.15,5.45-.9,7.75,.57,1.06,.73,2.25,1.9,1.54,3.19l-1.73,2.45-7.69-5.89Zm10.15,8.98c.88,.05,1.86,.72,1.99,1.65l.28,2.18c-1.56-.29-2.03-2.1-2.27-3.84Zm18.1,55.62c-.69,0-1.15-.67-1.17-1.31,.99-1.25,2.1-.92,3.15-1.17-.93,.36-1.85,1.38-1.99,2.48Zm5.41-2.62c-.74-.77-2.18-2.18-3.5-1.75,.7-.42,1.1-.49,1.92-.42,.61,.46,1.2,1.03,1.67,1.56-.02,.18-.07,.42-.09,.61Zm125.03,141.36c.56,1.56,1.09,3.14,1.66,4.71-.38,1.05-.62,2.12-.7,3.14-.5,.09-2.31-2.62-3.1-3.6-.42-.5,.48-1.03,2.14-4.25Zm-28.19-16.66c.01-.96-.37-2.28-1.38-2.65-1.53-1.66-3.21-.77-4.86-.71-1.69-2.35-4.52-6.53-8.71-13.57-7.37-12.33,15.35-48.48,15.35-48.48,0,0,3.42,1.6,6.57,3.67-.09,.4-.24,.74-.3,1.14-3,12.44,3.71,21.7,9.51,31.17-3.09,7.09-5.39,15.54-5.39,15.54l-9.26,14.57c-.58-.07-1.13-.19-1.53-.67Zm7.84,17.09c-.28,.1-.55,0-.86,0,.22-.27,.53-.54,.82-.81,.17,.22,.25,.47,.04,.8Zm23.91,53.98c-.32,1.3-.83,2.53-1.24,3.81-2.83-.06-5.7-.13-8.56-.18-.1-.57-.07-1.23-.13-1.82,1.92-.51,4.05-1.23,4.15-3.39-1.49,0-2.92,.23-4.37,.55-.01-1.57,0-3.16,.05-4.8,.88-.9,1.49-1.85,1.15-2.99-.4,0-.74,.15-1.1,.19,.12-3.72,0-7.36-1.35-10.13-3.91-8.55-8.39-14.86-14.1-20.33-.35-.68-.67-1.44-.96-2.21,.23-.52,.29-1.08,.05-1.76-.38-.24-.58-.6-.84-.93-.2-.99-.32-2-.32-3.01,.23-.41,.36-.92,.58-1.29,.24-.69,0-1.4,.06-2.03,.33-.97,.79-1.9,1.45-2.83,1.31-.14,2.95,.25,2.34-1.62-.23-.12-.21-.32-.38-.44,.17-.13,.24-.26,.4-.37,2.38-1.89,5.46-5.02,8.76-8.66-4.27,7.48-8.48,15.58-7.7,20.66,1.03,6.56,22.64,31.26,25.03,37.37-.69,2.2-1.64,4.27-2.97,6.22Zm26.18-260.33c.25-.1,.56-.31,.8-.45,.04,.28,.08,.53,.14,.76-.31-.1-.64-.21-.94-.32Zm125.37,37.03s-.06-.03-.06-.06l.11-.07s-.04,.1-.05,.13Zm10.3-3.04c-.48,1.29-1.1,2.53-1.75,3.75-.13,.24-.28,.48-.43,.74,.01-.18,.04-.33-.04-.5-.73,1.11-2.02,2.64-3.66,2.74-.12-.13-.32-.21-.47-.35,1.35-6.35,1.66-13.99-3.27-4.66,.04-.25,.2-.52,.29-.78l-.74-.07c9.64-12.41,11.73-27.79,22.58-39.78,.08-.48,.28-.93,.4-1.41,.63,2.17,1.18,4.34,1.6,6.58,.46,2.49,.99,5.03,1.46,7.56-3.93,9.24-10.86,17.33-15.97,26.17Zm38.98-97.8c-.02-.24-.02-.46-.07-.7,.25-.06,.39-.26,.76-.19,0,.4-.3,.69-.69,.9Zm61.85,222.7c-.93,.61-2.06,.53-2.89-.26,0-.04-.02-.09-.07-.13,.46-1.43,.85-2.9,1.4-4.35,.75,1.56,1.35,3.15,2.03,4.75-.14,.02-.32-.04-.47,0Zm12.1,60.57c-1.04,.67-2.1,1.55-3.03,2.6-.67-.87-1.33-1.77-1.99-2.63,1.44-1.8,2.83-3.65,4.08-5.55-.29,1.71-.27,3.81,1.53,4.56-.22,.32-.42,.65-.6,1.02Zm2.91-3.25c-.07,.03-.14,.08-.23,.1-1.98-.1-3.29-.96-3.23-3.04,1.5-2.24,2.82-4.57,4.13-6.9,.73,2.86,1.59,5.67,2.31,8.55-.99,.43-2.1,.93-2.98,1.29Zm26.98-267.46c1.19,1.63-1.36-1.49,0,0h0Zm-2.45,10.18c-3.41-.29-9.4,3.49-9.75-1.9,3.45-1,6.57,1.08,9.75,1.9Zm-5.22,2.47c-.72,1.84-.35-2,0,0h0Zm6.81,147.78c-3.67,3.06-7.26-1.92-9.27-4.89-1-1.45-1.91-2.82-2.87-4.08,1.8-3.85,3.31-7.73,4.23-11.62,.75-3.29,1.9-6.31,2.99-9.31,2.44,9.18,4.37,18.47,6.95,27.7-.62,.8-1.27,1.56-2.02,2.21Zm2.23-159.31c.6,1,2.92,.64,2.77,2.27-1.39,0-3.74-3.2-2.77-2.27Zm5.17,115.93c.05-.18,.1-.34,.17-.49,0,.09,.02,.14,.02,.24-.07,.06-.13,.17-.19,.25Zm4.74,21.06c.72,.44,1.52,.8,2.36,1.03,.06,1.33,.08,2.73,.06,4.13-.83-1.71-1.64-3.43-2.41-5.15Zm63.99,29.7c-.74-.25-1.46-.51-2.2-.76,.78-.53,1.63-1.02,2.51-1.24h.85c-.43,.54-.9,1.27-1.16,2Zm.18-3.75c.79-1.04,2.61-1.18,3.95-.92-.06,.11,.09,.27,.2,.34l-4.15,.58Zm4.43-2.14c-2.28-.81-4.35,.36-6.23,1.25-1.06,.99-2.22,1.93-3.42,2.88-5.82-1.83-11.72-3.37-17.01-4.94,.64-2.42,.95-4.89,1.57-7.32,1.6-1.14,2.99-2.57,4.11-4.19,2.37-3.44,3.44-7.62,4.01-11.72,.26-1.9,.36-3.82,.47-5.76,2.75,5.99,5.74,11.86,9.17,17.23,2.85,4.4,5.39,8.59,7.71,12.83-.13-.05-.25-.23-.39-.27Zm29.63,128.66v-.71c.29-.13,.55-.3,.74-.35-.2,.37-.49,.71-.74,1.06Zm.55-8.42c.1,.13-.02,.96-.17,1.41-.43-.29-.15-1.08,.17-1.41Zm-.42-1.35c.04-1.31,.12-2.6,.22-3.89,.31-.01,.64-.11,.89-.2,.21,.86,.5,1.72,.72,2.61-.64,.48-1.21,.99-1.82,1.48Zm1.82,5.06c-.1-.92,.31-2.3,.7-3.1,.69,.69,.16,2.88-.7,3.1Zm.18-4.03c-.15-.1-.12-.29-.17-.43,.27-.21,.81,.02,1.1-.14-.1,.22-.62,.4-.93,.57Zm1.87,1.26c-.07,.64-.15,1.28-.37,1.67,.07-1.01-.46-1.71-.55-2.35,.24-.25,.58-.35,.95-.39,0,.36-.18,.49-.31,.67,.05,.18,.25,.21,.28,.4Zm.72-4.11c-.34,.13-.67,.35-1.03,.45-.93-.79-1.49-1.91-1.4-3.67,.87-1.18,1.33-3.03,2.45-3.8,.04,0,.04,.05,.03,.1,0,.03,.03,.07,.07,.07,.02,.56-.01,1.03-.11,1.59-.09,1.93,1,3.54-.01,5.26Zm.83,1.16c-.22,0-.21-.2-.35-.24,.14-.28,.24-.62,.54-.72,0,.35-.02,.72-.18,.96Zm.61-9.04c-.34,.32-.02,.92-.53,1.07,0,.1,.16,.07,.22,.1-.12,.4-.3,1.21-.25,1.51-.43-.05,.11-1.13-.05-1.31,.03-.05,.07-.17,.08-.29,.1-.28,.16-.59,.11-.73,.15-.24,.28-.5,.42-.76,.05,.08,.08,.15,.05,.29-.05,.03-.11,.07-.18,.13,0,.09,.04-.03,.13,0Zm3.44-5.09c-.6,1.07-1.35,1.85-2.1,2.59-.76,.25-1.29,.76-1.87,1.23-.59,.24-1.18,1.24-1.74,1-.32-.4,.11-1.35,.19-1.95,.23-.33,.38-.73,.6-1.11,1.17-1.11,2.25-2.33,3.52-3.29,.44-.09,.9-.2,1.32-.33,.07,0,.11,.04,.19,.04,.28,.32,.01,1.28-.11,1.82Zm2.14-5.57c-.46,.53-.76,1.38-1.29,1.83-2.35,.86-4.5,1.94-6.45,3.46-.31,.46-.57,1-.81,1.55-.56,2.78,0,5.93-1.76,7.71-.25,.25-.61,.35-.97,.48,.94-10.78,3.55-21,9.51-29.76,1.57,3.67,2.88,7.23,3.95,10.77-.73,1.29-1.4,2.69-2.17,3.95Zm102.35,86.15c-.29-4.59-.29-9.28,0-14.14,2.27,6.63,3.02,9.82,0,14.14Zm1.07-227.56c13.67-9.57,24.82-19.64,31.46-33.24,1.43-2.88,1.25-7.31,3.1-9.4,6.66,18.68-8.56,39.8-28.51,43.47-2.15,.43-4.24,.23-6.05-.83Zm50.95,210.49c-.05-.18-.12-.38-.2-.56,.1,.17,.18,.33,.29,.47-.04,.03-.06,.06-.09,.09Zm.12,.33l-.02-.06s0-.03,0-.04c.02,0,.04,0,.05-.02,0,.03,0,.08-.02,.13Zm.22-23.37s0-.07,.03-.08h0c0,.06,0,.08-.03,.08Zm11.22-28.05c1.49,.57,2.87,.87,4.19,.99-.45,.58-.88,1.2-1.26,1.84-1.18-.67-2.24-1.79-2.93-2.84Zm2.29,4.06c-.74,1.54-1.24,3.25-1.54,5.03h-.12c-.12-2.19-.36-4.4-.32-6.22,.75,.54,1.35,.9,1.99,1.19Zm-2.42,76.44c.02,.05,.04,.07,.05,.13-.05,0-.13-.05-.19-.06,.04-.01,.07-.04,.14-.07Zm-2.26-11.33c.74,3.02,1.21,6.35,1.65,9.66-1.05-.38-2.05-.81-2.68-1.7-1.44-3.33-.34-5.83,1.04-7.96Zm.11,13.3c.05-1.11-.85-1.47-.85-2.2,.84,.06,1.53,1.51,.85,2.2Zm-.83-.32c-.76-.31-.99-1.34-1.55-1.88-.13-.09-.21-.17-.32-.24-.01-.25-.01-.49-.04-.75,.76,.78,1.53,1.58,1.91,2.87Zm-1.85,.94c.06,.12,.13,.24,.21,.37-.07,.33-.19,.68-.27,1.01,.02-.44,.02-.92,.07-1.39Zm11.63,19.28c-.54,2.55-2.87,3.57-3.58,6.03-1.69,1.07-3.29,2.29-4.82,3.58-.05-.9,0-1.81-.11-2.7-.49-6.24-4.3-14.68-3.64-20.97,1.81-1.61,3.45-3.35,4.6-5.54,0-.7-.28-1.1-.32-1.78,.42,.04,.92,.21,1.46,.38,.5,1.24,.95,2.48,1.06,4.08,1.9,3,4.45,5.36,5.36,9.37-.39,3,.45,5.37,0,7.55Zm-1.64-102.78c-.01,.14-.08,.24-.13,.36-.63-.07-1.24-.15-1.92-.26-.97-.47-1.92-.86-2.81-1.32,2.63-.5,5.52-.69,8.11-.84-1.26,.36-2.34,1.01-3.25,2.07Zm40.57,48.8c-1.02-1.49-2.06-2.99-3.03-4.51-.33-.44-.26-.74-.08-1.03,1.28,1.58,2.4,3.32,3.11,5.54Zm2.06-4.41c-.06-.32-.74-.74-.4-1,.2,.21,.55,.75,.4,1Z"/>
  </g>
</svg>