<?xml version="1.0" encoding="UTF-8"?>
<svg id="Layer_2" data-name="Layer 2" xmlns="http://www.w3.org/2000/svg" viewBox="0 0 1886.56 1951.16">
  <defs>
    <style>
      .cls-1 {
        fill: #d67909;
      }

      .cls-1, .cls-2 {
        fill-rule: evenodd;
      }
    </style>
  </defs>
  <g id="Joe">
    <polygon id="starburst" class="cls-1" points="1416.94 1762.14 1132.78 1376.65 1222.85 1847.01 1031.59 1407.96 1014.74 1886.56 925.98 1415.96 803.05 1878.81 821.23 1400.26 598.39 1824.15 722.61 1361.64 411.02 1725.32 635.04 1302.05 250.35 1587.28 562.94 1224.46 124.42 1416.94 509.91 1132.78 39.55 1222.85 478.61 1031.59 0 1014.74 470.61 925.98 7.75 803.05 486.31 821.23 62.41 598.39 524.92 722.61 161.24 411.02 584.52 635.04 299.29 250.35 662.1 562.94 469.63 124.42 753.78 509.91 663.71 39.55 854.97 478.61 871.82 0 960.58 470.61 1083.51 7.75 1065.33 486.31 1288.17 62.41 1163.96 524.92 1475.54 161.24 1251.52 584.52 1636.21 299.29 1323.62 662.1 1762.14 469.63 1376.65 753.78 1847.01 663.71 1407.96 854.97 1886.56 871.82 1415.96 960.58 1878.81 1083.51 1400.26 1065.33 1824.15 1288.17 1361.64 1163.96 1725.32 1475.54 1302.05 1251.52 1587.28 1636.21 1224.46 1323.62 1416.94 1762.14"/>
    <g id="Stylin">
      <path class="cls-2" d="M938.15,512.61c10.25-.21,14.47,2.89,21,5.76,2.79,1.17,5.59,2.37,8.36,3.54,2.29,2.16,4.58,4.33,6.88,6.5,5.94,1.73,11.89,3.46,17.84,5.19,2.22,2.74,4.45,5.44,6.69,8.17,5.72,7.2,12.11,10.75,14.3,21.93-.62,3.65-1.23,7.3-1.86,10.95-2.14,9.68-5.3,17.24-8.17,26.39-1.23,3.86-3.32,7.44-3.35,12.27,2.51-1.75,7.57-7.01,11.88-5.2,1.22,2.51,3.57,5.22,4.28,8.17-.06,2.11-.13,4.21-.17,6.32-.06,3.65-.13,7.32-.19,10.96-1.03,5.83-2.51,11.55-4.45,16.17-1.91,4.5-2.77,5.38-7.81,6.86-.89,.27-2.15,.85-3.34,.39-1.06-.81-2.11-1.62-3.15-2.43h-.19c-1.42,7.87-2.85,15.72-4.28,23.6,.13,7.61,.25,15.24,.37,22.85,5.03,4.09,10.03,8.17,15.05,12.26,2.97,.98,5.94,1.98,8.92,2.97,8.17,1.23,16.35,2.47,24.52,3.72,16.86,3.66,33.58,6.57,49.42,10.96,10.64,2.95,22.02,4.42,28.98,10.97,1.18,2.22,2.36,4.45,3.53,6.69,2.92,4.77,5.83,9.53,8.74,14.3,3.65,5.2,7.3,10.4,10.96,15.6,1.37,3.42,2.72,6.81,4.08,10.23,4.93,11.6,9.6,24.81,12.83,38.28,4.94,20.64,6.04,42.66,9.83,64.08,.62,7.43,1.26,14.86,1.87,22.29,2.37,12.23,5.82,24.64,9.28,36.23,4.62,15.49,7.91,31,12.64,46.06,1.61,5.09,3.22,10.17,4.83,15.24,1.54,3.84,3.1,7.69,4.63,11.51,1.38,6.48-1.64,13.25-2.78,17.85-.32,3.22-.62,6.43-.93,9.66,.55,3.42,1.12,6.81,1.68,10.23,.17,5.87,.36,11.75,.55,17.63,.92,4.71,1.85,9.42,2.79,14.13,.25,7.26,.49,14.49,.74,21.74,.99,5.69,1.98,11.4,2.96,17.09-.19,18.46-.38,36.9-.55,55.36,0,12.55,3.79,24.23,1.48,36.97-.19,1.98-.37,3.97-.55,5.94-2.41,3.04-4.83,6.07-7.25,9.11,.81,4.21,1.61,8.42,2.42,12.63,1.61,5.75,4.36,10.66,5.01,17.84-.74,5.08-1.49,10.15-2.22,15.23-.96,5.42,.09,13.41-2.79,17.1-2.6,1.41-5.2,2.84-7.81,4.26-5.08,3.11-10.15,6.2-15.23,9.3-3.94,1.7-7.53,1.28-10.96,3.34-7.74,4.62-12.7,14.51-25.09,12.83-.36-1.43-.74-2.85-1.11-4.28,2.23-2.59,4.47-5.19,6.7-7.79v-.56c-3.48-2.47-7.07-5.73-9.49-9.29,.07-3.68,2.12-3.15,2.97-5.39,.06-2.11,.12-4.22,.19-6.32,1.39-9.15,.92-20.08-.93-27.31-1.24-.06-2.47-.13-3.72-.18-2.7,3.16-8.81,5.07-10.21,9.29,.19,6.56,.36,13.13,.55,19.69-.69,5.79-2.55,12.14-3.15,17.47,.36,1.68,.74,3.34,1.11,5.01-.19,3.23-.37,6.44-.55,9.67-2.47,12.74-3.53,27.72-5.76,41.24,.13,18.22,.25,36.41,.38,54.62-.2,4.89-.38,9.78-.57,14.67-1.04,7.56-2.1,15.11-3.15,22.66-.99,5.18-3.75,17.21-2.96,22.12,.17,8.6,.36,17.21,.55,25.82,1.49,1.91,2.97,3.83,4.45,5.76,.38,1.98,.74,3.95,1.11,5.94,1.75,9.49-6.25,18.74-8.55,25.09-.55,3.27-1.11,6.57-1.67,9.85,.86,2.09,1.73,4.21,2.61,6.31-3.16,4.83-6.33,9.66-9.49,14.51-1.11,6.86-2.24,13.73-3.34,20.61-1.42,3.84-2.85,7.69-4.28,11.51-.97,3.46-.96,7.41-2.6,10.23-6.81,12.13-13.62,24.28-20.43,36.41-3.6,3.34-7.18,6.69-10.77,10.04-2.47,3.46-4.96,6.93-7.43,10.39-5.44,9.11-6.93,24.86-10.4,35.68-2.78,5.39-5.57,10.78-8.36,16.17-.25,5.7-.5,11.39-.74,17.1-1.32,8.25-1.34,16.11-2.62,23.95-.11,4.64-.24,9.3-.36,13.94-.06,7.12-.11,14.23-.17,21.35-1.49,3.41-2.99,6.81-4.47,10.23,.37,10.96,.75,21.91,1.12,32.88-2.1,10.53-4.21,21.06-6.31,31.58,.06,2.36,.12,4.71,.19,7.07-.39,4.45-.75,8.91-1.12,13.38-1.24,6.31-2.47,12.63-3.72,18.95-.92,5.93,3.16,11.3,4.08,15.79-.19,2.53-.36,5.07-.55,7.61-3.1,1.17-6.2,2.36-9.29,3.53-4.58,.55-9.16,1.11-13.74,1.67-9.11,.2-18.22,.37-27.32,.55-7.12,1.15-16.75,2.25-22.48,0-.68-1.42-1.35-2.84-2.04-4.28-1.81-7.87,6.36-16.32,7.98-23.03,1.05-8.3,2.1-16.6,3.16-24.89,.88-4.55,2.83-12.09,1.48-16.73-3.46-5.62-6.93-11.26-10.4-16.89-1.86-4.66-3.72-9.3-5.57-13.94-4.09-16.09-8.19-32.21-12.26-48.31-3.79-10.21-7.57-20.44-11.35-30.65-3.02-18.33-6.06-36.67-9.09-55-4.99-22.74-9.51-46.75-14.49-68.74-1.54-11.2-3.1-22.41-4.64-33.62-.18-9.79-.36-19.58-.57-29.35-2.13-10.36-4.83-21.59-6.87-32.34-.06-6.45-.12-12.88-.17-19.31,.66-3.29,3.81-10.25,3.15-13.75-1.8-7.37-3.6-14.74-5.39-22.1-1.18-8.81-2.36-17.59-3.53-26.39-2.42-8.42-4.83-16.84-7.25-25.26-5.45-17.38-13.32-34.4-18.4-52.21-6.31-22.21-9.39-45.52-14.48-68.55-.37-4.34-.75-8.67-1.12-13-1.61-3.59-3.23-7.19-4.83-10.77,.32-6.62,.62-13.26,.92-19.89-2.71-.55-5.44-1.1-8.17-1.66-8.99,1.52-13.61,7.34-20.62,10.58-4.33,2.01-11.49,1.3-17.46,1.3-1.53-2.66-3.1-5.33-4.64-7.98-1-4.35,4.46-14.92,2.05-20.26-.92-.8-1.84-1.6-2.78-2.41-2.47,.18-4.96,.36-7.43,.55-1.42,1.91-2.85,3.83-4.27,5.76,2.03,7.18,4.08,14.36,6.12,21.55,3.23,10.83,5.16,21.46,8.55,31.95,2.32,7.21,5.79,14.21,8.36,20.81,3.69,9.53,1.73,15.32-5.01,20.06-5.06-1.32-6.25-4.91-10.41-7.07-.79,.76-1.6,1.49-2.4,2.24-1.58,4.47-6.12,8.59-9.85,10.96-3.87,2.47-23.06,5.93-29.72,2.99-2.09-.93-5.06-3.89-6.31-5.76-3.11-5.08-6.2-10.17-9.3-15.24-2.82-6.43-.62-13.55-1.3-21.36-.89-10.35-.35-24.24,2.24-33.63,1.73-6.29,3.8-12.85,5.57-18.59,.13-2.05,.25-4.09,.39-6.13,.43-2.7,1.19-9.11-.39-10.77-1.42-1.11-2.85-2.22-4.27-3.34,2.41-18.09,4.83-36.17,7.25-54.25,.12-8.48,.25-16.97,.36-25.45,1.61-9.33,3.23-18.8,4.84-27.68,.37-9.4,.74-18.82,1.11-28.23,1.73-16.24,3.46-32.47,5.2-48.69,2.89-16.48-1.23-32.46,2.05-48.85,1.23-6.51,2.47-13.01,3.72-19.52,2.85-8.28,5.69-16.6,8.55-24.89,.36-10.22,.74-20.43,1.11-30.66,1.12-3.59,2.23-7.18,3.35-10.77,1.68-7.27-1.3-19.38-2.23-25.08-.49-3,.55-10.34,.55-14.48v-27.69c1.71-10.61,1.15-21.44,3.72-30.84,2.29-7.92,4.58-15.85,6.88-23.79,1.48-3.78,2.97-7.54,4.45-11.33,2.02-7.87,1.3-17.28,3.91-24.34,1.13-3.02,5.72-4.16,8.55-5.58,7.87-3.77,15.74-7.55,23.6-11.33,12.32-5.81,24.64-11.64,36.97-17.45,2.6-.63,5.2-1.24,7.79-1.87,8.1-3.09,16.96-5.97,23.79-10.59,2.23-1.99,4.47-3.96,6.69-5.94,6.06-4.8,9.53-8.76,11.9-17.48,.36-1.3,1.21-4.66,.55-6.7-1.89-5.89-7.05-9.55-8.74-16.16-2.25-8.8-1.95-19.45-6.49-26-1.24,.85-4.77,3.72-6.7,2.42-8.16-3.68-12.92-28.52-13.38-41.43,1.24-.81,2.47-1.61,3.72-2.43,3.26,1.2,5.87,2.62,8.73,4.09v-.36c2.6-5.26-.98-8.51-2.42-13.2-1.48-5.19-2.97-10.4-4.45-15.6-2.89-6.07-6.24-10.91-7.81-18.77,.06-2.54,.13-5.09,.19-7.62v-5.2c1.57-7.01,4.75-10.74,8.17-15.6,6.81-9.66,16.86-22.64,28.43-27.13,3.52-.49,7.07-.99,10.58-1.49,1.92-.92,3.83-1.84,5.75-2.79,7.67-2.14,19.12,1.08,26.14-2.06Zm55.18,104.05c-2.52,4.04-5.07,8.06-7.6,12.09-5.27-2.17-10.53-4.36-15.79-6.51-15.04,1.23-30.1,2.47-45.15,3.72-10.09,.68-20.2,1.36-30.29,2.04-6.11,1.34-7.53,5.95-13.36,7.25-.34-3.68-2.51-14.66-4.28-17.28-.19-.06-.36-.13-.55-.19-.13,.13-.25,.25-.38,.37,5.23,17.92,4.99,50.73,30.28,46.45,3.04-.32,6.08-.62,9.11-.93,4.86-2.01,8.45-7.38,10.77-11.89,2.62-5.06,1.58-11.16,9.49-11.14,2.66,3.82,5.32,7.69,7.98,11.51,.92,1.49,1.84,2.97,2.79,4.45,2.6,1.61,5.2,3.23,7.8,4.83,5.63,1.64,20.43-2.18,23.04-3.9,1.48-1.6,2.96-3.21,4.46-4.82,2.32-4.12,1.19-9.83,3.15-14.51,2.17-3.34,4.33-6.68,6.5-10.02-.06-1-.12-1.98-.18-2.98,1.11-2.66,2.22-5.32,3.34-7.98-.39-.2-.76-.38-1.14-.56Zm-57.97,12.09v10.02c-1.97,.08-3.95,.13-5.93,.19-.69-3.23-1.37-6.44-2.04-9.67,2.65-.19,5.31-.38,7.97-.55Zm57.04,74.29c-2.63,8.74-9.74,14.28-14.86,20.62-4.87,6.06-10.29,11.85-16.36,16.72-3.83,3.09-9.02,9.98-14.49,10.96-3.64,.68-13.14-5.22-15.6-6.68-3.97-2.1-7.94-4.21-11.91-6.32-3.4-2.71-6.81-5.44-10.21-8.17-1.62-1.16-3.23-2.36-4.83-3.52-2.66-4.33-5.34-8.68-7.99-13.01-.13,.07-.25,.13-.37,.18-1.87,3.34-3.72,6.68-5.57,10.04-1.88,6.57-2.75,18.32-1.49,26.19,.06,3.78,.13,7.54,.19,11.34,2.81,15.6,4.82,32.44,8.73,46.82,6.33,23.26,12.77,44.93,19.7,66.87,2.55,8.13,5.07,16.23,7.6,24.35,4.77,5.01,9.55,10.02,14.31,15.04,4.83,5.88,9.67,11.76,14.49,17.64,3.59,4.94,7.19,9.91,10.78,14.86,.13-.07,.25-.13,.36-.18,4.41-9.29,8.81-18.59,13.19-27.87,6.14-13.88,11.79-29.57,15.79-45.7,1.18-9.09,2.35-18.2,3.53-27.3,4.05-21.67,5.36-44.21,9.1-65.39v-14.12c0-20.59-2.36-35.6-8.54-50.17-1.29-3.04-3.44-11.38-5.57-13.2Zm-44.96,48.87c8.28-.18,15.87,.9,19.68,5.22-1.04,1.34-2.1,2.72-3.15,4.09-2.02,1.55-5.64,2.72-6.87,5.01-2.45,8.3-1.2,19.36,2.96,24.32,1.92,1.62,3.84,3.22,5.75,4.84,2.39,3.2,2.54,7.58,3.35,12.44,.18,9.16,.36,18.34,.55,27.5,1.48,12.51,2.96,25.01,4.45,37.53,1.72,8.74,2.51,17.99,4.46,26.38,.86,3.9,1.73,7.79,2.6,11.7-5.57,11.77-11.15,23.53-16.71,35.3-.13-.06-.25-.12-.37-.19-1.73-2.41-3.46-4.82-5.2-7.24-5.86-8.28-12.02-15.79-18.22-23.59-1.84-2.17-3.71-4.34-5.57-6.51-1.11-.85-2.23-1.73-3.34-2.58-.13-2.17-.25-4.35-.38-6.5-1.38-8.53,.17-18.32-1.29-27.5-.19-13.11-.38-26.25-.57-39.38-.06-6.87-.12-13.75-.17-20.62v-10.59c1.42-5.07,2.85-10.14,4.28-15.23,1.19-1.86,3.56-2.98,4.45-5.19,4.4-10.96,2.82-17.55-7.8-20.25,2.82-3.73,6.89-6.5,11.89-7.99,1.75-.33,3.49-.63,5.22-.96Zm-121.68,230.38c-2.41,15.3-1.57,31.63-4.09,47.38-.32,7.86-.63,15.72-.93,23.58-2.22,11.08-4.45,22.17-6.69,33.26-1.92,13.26-3.84,26.51-5.75,39.75-1.98,6.75-3.96,13.51-5.95,20.26v11.69c-.13,12.2-3.82,23.08-6.68,32.9-.51,2.96-1.01,5.94-1.49,8.92-.83,3.83-2.6,15.69-.75,20.43v-.37c2.76-3.79,3.77-9.3,5.59-13.94,2.96-7.31,5.93-14.62,8.91-21.91,9.4-21.6,17.68-42.92,23.41-68.74,1.83-8.19,1.53-15.98,2.96-24.72,.07-4.58,.13-9.16,.19-13.74,1.36-8.5,.79-21.95-.55-30.1-.5-10.95-.99-21.93-1.49-32.89-1.16-5.62-2.34-11.27-3.53-16.91-.73-3.06-1.53-13.19-3.16-14.85Zm287.42,3.9c-.33,21.39,4.43,42.58,9.46,59.45,1.75,7.38,3.46,14.75,5.2,22.11,.36-23.65-5.69-45.64-11.33-64.09-.74-2.85-1.49-5.69-2.22-8.54-.39-2.98-.76-5.96-1.11-8.93Zm14.66,81.75v0Zm36.79,202.69c-1.23,.92-2.48,1.86-3.72,2.79-.1,7.41,1.12,12.75,2.41,18.95h.18v-.38c1.12-1.98,2.24-3.96,3.35-5.94,.11-2.79,.25-5.57,.36-8.36,.32-1.6,.62-3.23,.92-4.82v-.76c-1.17-.48-2.34-.96-3.51-1.48Zm-1.49,22.11v0Zm-176.87,52.21c-2.5,3.38-1.57,9.87-2.59,14.87-2.61,12.64-3.15,25.18-5.4,38.82-.5,6.09-1,12.15-1.49,18.22-1.15,7.42-1.61,16.99-.36,24.89,.36,7.25,.74,14.49,1.11,21.73,.5,7.87,1,15.73,1.49,23.58,1.3,5.14,2.61,10.29,3.9,15.43,.43,7.87,.87,15.74,1.31,23.58,.49,3.54,.98,7.08,1.48,10.61-.81,5.61-1.95,11.94-3.15,18.21-.31,1.86-.62,3.72-.92,5.57,1.66,5.76,3.34,11.53,5,17.28,3.29,13.91,4.49,27.31,7.07,41.99,.59,3.36-.06,15.35,1.67,16.73,.81-2.67,1.61-5.33,2.43-7.98,4.16-6.48,14.47-6.9,17.83-14.51,2.01-4.57,.77-10.42,1.68-15.98,.74-4.45,1.49-8.91,2.22-13.37,1.95-8.93,3.42-18.61,6.69-26.56,.85-2.09,4.32-8.82,3.34-12.07-1.11-1.74-2.22-3.46-3.34-5.21-.19-3.78-.38-7.54-.55-11.34-1.15-3.14-3.76-6.16-5.2-9.66,1.23-2.47,3.89-6.75,2.23-11.33-1.24-1.87-2.48-3.72-3.72-5.59-.44-2.28-.86-4.56-1.3-6.86-.93-3.28-1.85-6.55-2.8-9.85-1.18-5.39-2.35-10.77-3.53-16.16-2.11-12.52,.15-25.86-3.53-36.22-2.02-5.72-8.98-11.77-10.59-16.91-.61-6.02-1.23-12.02-1.87-18.03-.17-6.99-.36-14-.55-20.98-1.73-6.69-3.46-13.38-5.2-20.07-.74-2.71-1.79-11.32-3.34-12.83Z"/>
    </g>
  </g>
</svg>