<?xml version="1.0" encoding="UTF-8"?>
<svg xmlns="http://www.w3.org/2000/svg" xmlns:xlink="http://www.w3.org/1999/xlink" viewBox="0 0 3840 2160">
  <defs>
    <style>
      .cls-1 {
        letter-spacing: 0em;
      }

      .cls-2 {
        fill: url(#linear-gradient);
      }

      .cls-3 {
        letter-spacing: -.04em;
      }

      .cls-4 {
        letter-spacing: -.08em;
      }

      .cls-5 {
        fill: #0086ff;
      }

      .cls-6 {
        fill: #fff;
        stroke: #231f20;
        stroke-miterlimit: 10;
        stroke-width: 9px;
      }

      .cls-7 {
        font-family: MicrosoftSansSerif, 'Microsoft Sans Serif';
        font-size: 130px;
      }
    </style>
    <linearGradient id="linear-gradient" x1="507.75" y1="1623.02" x2="2061.35" y2="1623.02" gradientUnits="userSpaceOnUse">
      <stop offset="0" stop-color="#2d2d2d"/>
      <stop offset="1" stop-color="#020202" stop-opacity="0"/>
    </linearGradient>
  </defs>
  <g id="Bg">
    <rect class="cls-5" x="1.89" y="4.99" width="3838.15" height="2145.09"/>
  </g>
  <g id="Joe">
    <g id="Decision">
      <g id="DecisionShadow">
        <path class="cls-2" d="M2061.18,1290.5c-3.81,3.12-13.25,6.74-13.25,6.74-8.79,2.54,1.43-2.83,1.43-2.83,16-6.65,6.65-6.35,6.65-6.35,1.3-2.15-2.79-3.91-2.79-3.91,3.9-4.11-3.27-2.83-3.27-2.83,3.95-3.81-1.66-2.93-1.66-2.93,4.04-4.01-14.71-.58-14.71-.58-12.87,3.52-13.48,2.93-13.48,2.93,1.17-3.42-15.7,1.27-15.7,1.27,2.08-3.52-12.56,3.22-12.56,3.22-3.7,.1-18.88,4.1-18.88,4.1-1.48-.59,3.65-3.12,3.65-3.12-18.38,6.15-21.96,5.96-21.96,5.96,3.47-4.69,22.61-7.82,22.61-7.82-23.11,2.25-28.17,9.77-28.17,9.77-12.74,2.83-23.61,6.55-23.61,6.55-6.75,1.47-13.64,6.45-13.64,6.45l.86-1.56c-1.18-.88-8.13,3.03-8.13,3.03-1.73,3.52-5.51,3.42-5.51,3.42-6.23-.09-13.66,4.5-13.66,4.5-1.05-.39-4.87,1.17-4.87,1.17-9.3,4.5-4.81,6.55-4.81,6.55,7.31-.78-9.34,4.98-9.34,4.98-6.61,2.34-.53-1.56-.53-1.56-9.83,4.89-11.86,10.26-11.86,10.26-5.38,.39-17.13,6.84-17.13,6.84-6.68,2.93-20.28,12.8-20.28,12.8-3.56,2.54,3.48,.78,3.48,.78-15.73,8.01-21.89,17.2-21.89,17.2l-10.36,4.5-21.99,8.01s1.65,.2-1.48,.2-30.8,4.3-30.8,4.3c-9.38,2.34-73.24,12.11-73.24,12.11-7.32-.78-15.92,.59-15.92,.59-24.96,5.27-116.45,32.63-116.45,32.63l-62.09,17.59c-13.67,2.54-25.4,7.04-25.4,7.04-7.48,1.95-14.6,5.47-14.6,5.47-12.01,3.52-26.01,8.4-26.01,8.4-33.48,9.57-48.07,21.3-48.07,21.3-26.51,18.17-76.79,66.44-76.79,66.44-8.79,3.32-14.86,6.84-14.86,6.84-19.13,9.38-50.84,32.25-50.84,32.25-18.43,6.25-81.11,35.37-81.11,35.37-28.7,10.56-90.33,40.45-90.33,40.45-6.35,2.54-139.96,63.71-139.96,63.71-27.66,12.9-34.16,19.74-34.16,19.74-8,2.34-10.09,4.69-10.09,4.69-26.19,.98-51.89,28.34-51.89,28.34-17.29,8.4-38.59,25.02-38.59,25.02-33.58,5.86-71.05,19.73-71.05,19.73-11.83,4.69-21.99,13.48-21.99,13.48-17.22,2.74-24.62,6.84-24.62,6.84-11.48,4.69-6.51,6.84-6.51,6.84l-13.12,2.93-27.32,4.3-7.22,2.93c-58.98,10.56-67.75,15.44-67.75,15.44l-14.96,7.04c-8.23,11.53,47.01,3.91,47.01,3.91,32.18-5.08,68.8-15.44,68.8-15.44l7.31,.78c26.46,1.56,57.16-4.89,57.16-4.89,9.12-3.32,13.56-7.82,13.56-7.82l4.43-2.15,13.31-3.33c28.26-6.45,34.25-15.24,34.25-15.24,.25-2.93,25.64-13.09,25.64-13.09,13.21-3.12,38.34-17.39,38.34-17.39,10.17-8.01,104.14-48.07,104.14-48.07,13.47-6.06,10.96-6.65,10.96-6.65,18.43-4.69,28.78-13.1,28.78-13.1,15.04-3.32,19.47-10.16,19.47-10.16,20.52-5.47,47.12-18.37,47.12-18.37,16.52-5.87,45.2-20.32,45.2-20.32,27.75-9.19,44.7-17.59,44.7-17.59,6.95-2.34,26.42-10.16,26.42-10.16,8.61-3.71,4.27-.2,4.27-.2-6.01,2.54-7.31,6.25-7.31,6.25-13.21,5.47-43.98,23.84-43.98,23.84-26.52,11.14-38.58,18.76-38.58,18.76l-35.14,16.42c-26.51,11.91-41.19,24.62-41.19,24.62-12.17,5.47-20.94,12.7-20.94,12.7-8.44,3.33-12.43,6.84-12.43,6.84-25.3,8.4-49.99,23.25-49.99,23.25-9.22,5.86-10.52,5.67-28.34,14.46-17.82,8.79-67.03,31.86-67.03,31.86-43.73,17.78-79.71,40.06-79.71,40.06-36.7,8.99-35.12,13.29-35.12,13.29,1.65,.98,1.31,4.11,1.31,4.11-3.75,2.93,2.09,2.35,2.09,2.35-20.08,7.62-42.08,20.32-42.08,20.32-22.16,7.62-44.68,19.15-44.68,19.15,0,0-18.86,8.79,5.16,10.35,24.02,1.56,48.97-6.06,48.97-6.06,22.44-5.86,57.12-24.42,57.12-24.42,32.42-15.05,33.03-17.98,33.03-17.98l7.91-2.93c17.49-.98,27.47-7.81,27.47-7.81,13.74-4.3,12-7.43,12-7.43,4.35-1.95,4.69-4.3,4.69-4.3,2.95-1.95,1.99-3.71,1.99-3.71,7.66-1.56,19.83-7.03,19.83-7.03,25.39-9.38,58.16-25.99,58.16-25.99,12.95-6.45,81.72-37.52,81.72-37.52,2.43-1.57,9.82-4.89,9.82-4.89,42.43-18.76,41.38-20.32,41.38-20.32,8.95-3.71,15.38-8.8,15.38-8.8,12.69-5.08,10.08-6.25,10.08-6.25,.08-2.54,5.47-4.49,5.47-4.49,26.43-8.6,34.95-15.24,34.95-15.24,25.39-10.94,37.2-21.89,37.2-21.89,7.66-2.34,21.39-8.21,29.56-12.51,8.18-4.3,28.61-13.48,28.61-13.48,16.24-7.62,39.72-16.61,39.72-16.61,12.44-4.5,34.95-16.8,34.95-16.8,18.52-7.23,25.21-11.33,25.21-11.33,4.96-1.76,12.78-6.06,12.78-6.06,10.88-2.55,24-10.16,24-10.16,1.56-1.95,8.78-4.89,8.78-4.89,31.48-10.55,40.08-18.96,40.08-18.96,15.13-5.86,17.13-8.01,17.13-8.01l14.26-6.25c9.91-3.52,7.13-4.3,7.13-4.3l3.39-1.37,29.04-5.08c7.84,1.17,27.67-5.08,27.67-5.08,9.11-.97,32.26-6.84,32.26-6.84,42.17-10.35,149.4-41.82,149.4-41.82,14.61-4.69,106.7-33.42,106.7-33.42,21.22-6.26,25.73-10.95,25.73-10.95,13.29-7.23,33.2-21.5,33.2-21.5,12.44-2.15,28.09-6.84,28.09-6.84l20.57-21.3,26.75-28.14c1.74-3.91,10.51-8.79,17.03-14.07,6.51-5.28,1.9-8.99,1.9-8.99,1.38-1.56-2.97-2.73-2.97-2.73l-33.71-18.18c31.98-17.98,17.8-15.83,17.8-15.83,15.64-7.82,43.29-20.71,43.29-20.71l.83-.3c-2.74,4.21,8.45,.59,8.45,.59,12.44-3.71,37.17-14.36,37.17-14.36l4.99-1.85,4.7-1.56-.83-.49,2.91-1.86c7.48-1.56,12.39-5.18,12.39-5.18,12.04-2.83,7.91-3.71,7.91-3.71,16.56-4,15.39-5.67,15.39-5.67,5.79-1.27,9.17-3.42,9.17-3.42-1.88-.88-8.74,2.05-8.74,2.05-3.92-.2,10.17-4.11,10.17-4.11,18.74-6.55,8.26-5.28,8.26-5.28,14.17-4.49,11.3-6.25,11.3-6.25,3.3-1.95,2.26-2.73,2.26-2.73,9.81-4.49,7.81-5.47,7.81-5.47Zm-710.53,250.82l-11.52,2.83s17.55-14.46,21.16-17.49c0,0,46.92-30.88,51.57-35.47,0,0,4.77-2.93,9.43-4.01l5.88,.88s11.44-3.81,17.13-4.11c0,0,7.61-1.46,11.27-2.64,0,0,6.09-.78,10.69-2.15,0,0,15.09-3.42,20.49-3.42l26.04-6.94s-145.14,64-162.14,72.5Zm383.66-62.24c-8.25,4.1-6.3,7.13-3.2,8.4,3.1,1.27-1.56,5.47-1.56,5.47l-4.65,2.64c.13,1.27-5.24,8.69-5.24,8.69l2.13-.1-3.04,4.11c-.11,3.02-12.46,6.55-12.46,6.55-27.83,8.21-117.52,39.38-117.52,39.38-16.74,5.18-91.96,26.47-91.96,26.47-4.53,0-18.79,2.74-18.79,2.74,16.03-5.57,15.06-12.41,15.06-12.41-3.35-.68,.43-1.76,.43-1.76,14.14-2.05,28.19-7.03,28.19-7.03,23.34-7.13,66.89-30.39,66.89-30.39,7.79-1.46,21.04-6.64,21.04-6.64,15.96-7.72,93.38-39.48,93.38-39.48,15.35-3.62,40.73-13,40.73-13,11.57-2.15-9.42,6.35-9.42,6.35Z"/>
      </g>
      <g id="Decision-2" data-name="Decision">
        <path d="M785.39,1171.04c-2.79-12.87-14.62-38.28-14.62-38.28,7.66-3.83,12.88-12.18,12.88-12.18l-26.8-37.94-35.85-50.12c-6.96-6.96-9.05-15.66-14.27-25.06-5.22-9.4-18.1-16.01-18.1-16.01-2.09-2.78-9.05-4.87-9.05-4.87l-74.14-32.37c-8.01-32.02-17.4-28.19-17.4-28.19-1.75-13.93-2.78-36.89-2.78-36.89l.17-.52c6.61,7.49,9.75,1.04,9.75,1.04,4.18-6.61,5.22-25.58,5.22-25.58l.87-3.3,1.22-2.79-1.91-.87-1.22-3.31c4.01-2.78,.87-9.23,.87-9.23,5.74-5.04-.35-6.61-.35-6.61,7.66-7.13,2.78-10.09,2.78-10.09,2.96-2.26,1.56-6.09,1.56-6.09-3.83-1.57-4.17,3.66-4.17,3.66-4.35-.35,1.04-7.31,1.04-7.31,4.18-11.66-3.47-9.4-3.47-9.4,4.18-8-2.61-11.14-2.61-11.14-1.04-3.48-3.83-4.87-3.83-4.87-.18-8-4.35-9.74-4.35-9.74,3.13,5.57,1.74,12.01,1.74,12.01-3.13,4.53-4.87-5.05-4.87-5.05,1.22-11.83-7.48-11.31-7.48-11.31-3.48-3.83-11.48-6.96-11.48-6.96-5.23-7.31-9.57-5.05-9.57-5.05-4.53-6.79-8.18-5.22-8.18-5.22-4.88-7.14-16.01-1.04-16.01-1.04-5.04,6.26-6.96,5.22-6.96,5.22-6.44-6.09-12.88,2.26-12.88,2.26-5.75-6.27-5.39,5.74-5.39,5.74-3.48,.17-9.75,7.31-9.75,7.31-2.78-1.04-3.3-5.57-3.3-5.57-4.7,10.96-8.7,10.62-8.7,10.62-6.96-8.35,5.22-13.92,5.22-13.92-18.1,4-6.43,17.41-6.43,17.41-6.45,5.05-9.06,11.66-9.06,11.66-3.48,2.61,.7,11.49,.7,11.49l-2.62-2.79c-3.13-1.56-1.39,5.4-1.39,5.4,6.09,6.26,2.09,6.09,2.09,6.09-6.44-.17-3.66,8.01-3.66,8.01-1.91-.7-2.26,2.09-2.26,2.09,.7,8.01,9.75,11.66,9.75,11.66,5.57-1.39,1.74,8.88,1.74,8.88-1.39,4.17-4.01-2.78-4.01-2.78,1.04,8.7,10.96,18.27,10.96,18.27-4.52,.69-1.91,12.18-1.91,12.18-.17,5.22,8.18,22.79,8.18,22.79,2.09,4.52,5.22,1.39,5.22,1.39,2.1,14.27,16.36,30.63,16.36,30.63l-.35,8.01-4.17,14.27s2.09,.35-1.05,.35-21.24,7.66-21.24,7.66c-4.17,4.17-46.29,21.58-46.29,21.58-9.05-1.39-14.62,1.05-14.62,1.05-13.23,9.39-43.86,58.12-43.86,58.12l-22.97,31.32c-8.01,4.53-9.74,12.53-9.74,12.53-3.14,3.48-2.44,9.74-2.44,9.74-4.18,6.27-7.31,14.97-7.31,14.97-12.18,17.06-.69,37.94-.69,37.94,13.92,32.37,71,118.34,71,118.34-1.4,5.92,.35,12.18,.35,12.18,1.74,16.71,20.88,57.43,20.88,57.43-4.53,11.14-2.44,63-2.44,63-5.22,18.8-.35,72.05-.35,72.05-.69,4.53,1.74,113.47,1.74,113.47,1.04,22.98,9.74,35.15,9.74,35.15-2.78,4.18,.35,8.36,.35,8.36-24.02,1.74,11.13,50.46,11.13,50.46,1.4,14.97,17.06,44.56,17.06,44.56-20.54,10.44-27.15,35.15-27.15,35.15-1.39,8.35,8,24.02,8,24.02-11.13,4.87-9.4,12.19-9.4,12.19-1.04,8.35,8.7,12.18,8.7,12.18l-6.61,5.22-17.75,7.66-.69,5.22c-35.5,18.79-33.41,27.49-33.41,27.49l.69,12.53c17.41,20.53,55.7,6.96,55.7,6.96,20.88-9.05,34.46-27.49,34.46-27.49l9.04,1.39c29.93,2.79,46.3-8.7,46.3-8.7,1.74-5.91-3.83-13.92-3.83-13.92l-.35-3.83,5.92-5.92c13.92-11.48,.35-27.15,.35-27.15-6.27-5.22-3.48-23.32-3.48-23.32,6.26-5.56-.35-30.98-.35-30.98-7.66-14.27-2.78-85.62-2.78-85.62,0-10.79-3.82-11.83-3.82-11.83,8-8.35-.35-23.33-.35-23.33,7.66-5.91-3.13-18.1-3.13-18.1,8.35-9.74,6.26-32.71,6.26-32.71,3.48-10.45,0-36.2,0-36.2,7.31-16.36,5.57-31.33,5.57-31.33,1.74-4.17,3.82-18.1,3.82-18.1,.35-6.61,3.83-.35,3.83-.35-.35,4.53,6.61,11.14,6.61,11.14-1.04,9.74,9.05,42.46,9.05,42.46-1.74,19.84,3.14,33.41,3.14,33.41l1.39,29.25c0,21.23,13.57,43.85,13.57,43.85,0,9.75,7.31,22.62,7.31,22.62-1.04,5.92,2.79,12.18,2.79,12.18-6.61,14.97,1.75,41.42,1.75,41.42,3.82,10.44,2.09,10.1,3.82,25.75,1.74,15.67,3.83,56.74,3.83,56.74-4.17,31.67,9.4,71.35,9.4,71.35-16.71,16.01-5.57,23.67-5.57,23.67,3.83,1.75,10.44,7.31,10.44,7.31,2.78,5.22,7.31,4.18,7.31,4.18-3.13,13.57,3.13,36.2,3.13,36.2-5.22,13.57-2.09,34.11-2.09,34.11,0,0,.69,15.66,28.19,18.45,27.49,2.79,35.5-10.79,35.5-10.79,9.4-10.44,2.79-43.5,2.79-43.5-1.05-26.8-6.97-32.03-6.97-32.03l1.4-5.22c15.32-1.74,10.09-13.92,10.09-13.92,4.18-7.66-4.52-13.23-4.52-13.23,0-3.48-4.88-7.66-4.88-7.66-1.39-3.48-6.26-6.61-6.26-6.61,4.18-2.78,4.18-12.53,4.18-12.53,4.53-16.7,.34-46.29,.34-46.29-1.39-11.49-1.74-66.83-1.74-66.83-1.05-2.78-1.05-8.7-1.05-8.7,.7-33.41-3.82-36.2-3.82-36.2,.69-6.61-4.18-15.67-4.18-15.67,1.39-9.05-3.83-11.13-3.83-11.13-5.57-4.53-4.52-8.01-4.52-8.01,7.31-15.31,1.04-27.15,1.04-27.15,1.04-19.49-11.49-38.98-11.49-38.98,2.44-4.18,3.13-14.62,1.74-22.27-1.39-7.67-1.39-24.02-1.39-24.02-.7-13.57,2.78-29.58,2.78-29.58,2.44-8.01-2.44-29.93-2.44-29.93,2.44-12.88,0-20.19,0-20.19,1.04-3.13-.7-10.79-.7-10.79,5.23-4.53,1.4-18.1,1.4-18.1-2.79-3.48-2.1-8.7-2.1-8.7,8.01-18.79-2.09-33.76-2.09-33.76,2.09-10.44-.7-14.27-.7-14.27l.35-11.14c2.09-6.27-2.44-7.66-2.44-7.66l.35-2.44,17.75-9.05c10.45,2.09,16.36-9.05,16.36-9.05,6.95-1.74,17.05-12.18,17.05-12.18,19.14-18.45,56.39-74.48,56.39-74.48,4.17-8.36,32.37-59.52,32.37-59.52,7.31-11.14,1.39-19.5,1.39-19.5Zm-351.19,58.65l-5.22,5.05s-14.62-25.75-17.75-31.15c0,0-21.76-54.99-27.32-63.17,0,0-1.75-5.22,.52-7.13l7.83,1.57s2.96-6.79,8-7.31c0,0,4.35-2.61,5.4-4.7,0,0,4.35-1.39,5.91-3.83,0,0,7.48-6.09,12.88-6.09l10.61-12.35s-2.78,113.99-.87,129.13Zm296.72-47.16c-9.57,14.62-29.93,70.14-29.93,70.14-5.22,9.22-33.06,47.16-33.06,47.16-4.53,0-12.71,4.87-12.71,4.87,3.65-9.92-12.53-22.1-12.53-22.1-4.87-1.22-3.48-3.13-3.48-3.13,9.57-3.66,12.54-12.53,12.54-12.53,7.48-12.7-.7-54.12-.7-54.12,4.53-2.61,6.26-11.83,6.26-11.83-1.22-13.75,5.57-70.31,5.57-70.31,7.31-6.44,11.83-23.14,11.83-23.14,6.79-3.83,4.7,11.31,4.7,11.31,.88,7.31,9.57,12.71,15.49,14.96,5.92,2.26,10.61,9.75,10.61,9.75l1.22,4.7c2.96,2.26,14.1,15.49,14.1,15.49l1.91-.17,6.09,7.31c6.62,5.39,2.09,11.66,2.09,11.66Z"/>
      </g>
    </g>
    <g id="Layer_3" data-name="Layer 3">
      <g id="Speech">
        <path class="cls-6" d="M2173.98,640.53c0,251.74-276.45,455.81-617.48,455.81-234.34,0-438.19-96.37-542.8-238.35l-255.96,22.32,218.91-82.75c-24.33-48.97-37.62-101.85-37.62-157.04,0-251.74,276.45-455.81,617.47-455.81s617.48,204.07,617.48,455.81Z"/>
        <text class="cls-7" transform="translate(1142.3 460.21) rotate(.12)"><tspan x="0" y="0">Man I’m broke </tspan><tspan x="2.6" y="156">and</tspan><tspan class="cls-3" x="219.5" y="156"> </tspan><tspan x="248.83" y="156">ne</tspan><tspan class="cls-4" x="393.43" y="156">e</tspan><tspan class="cls-1" x="455.33" y="156">d a job. </tspan><tspan x="0" y="312">What am I going </tspan><tspan x="0" y="468">to do?</tspan></text>
      </g>
    </g>
    <g id="Speech-2" data-name="Speech">
      <path class="cls-6" d="M2173.36,641.17c0,251.74-276.45,455.81-617.48,455.81-234.34,0-438.19-96.37-542.8-238.35l-255.96,22.32,218.91-82.75c-24.33-48.97-37.62-101.85-37.62-157.04,0-251.74,276.45-455.81,617.47-455.81s617.48,204.07,617.48,455.81Z"/>
      <text class="cls-7" transform="translate(1219.12 528.1) rotate(.12)"><tspan x="0" y="0">That’s it, I’ll</tspan><tspan x="0" y="156">Learn how to </tspan><tspan x="0" y="312">write code!</tspan></text>
    </g>
  </g>
</svg>