<?xml version="1.0" encoding="UTF-8"?>
<svg xmlns="http://www.w3.org/2000/svg" xmlns:xlink="http://www.w3.org/1999/xlink" viewBox="0 0 3840 2160">
  <defs>
    <style>
      .cls-1 {
        fill: url(#linear-gradient);
      }

      .cls-1, .cls-2 {
        fill-rule: evenodd;
      }

      .cls-3 {
        fill: #0086ff;
      }

      .cls-4 {
        fill: #fff;
        stroke: #231f20;
        stroke-miterlimit: 10;
        stroke-width: 9px;
      }

      .cls-5 {
        font-family: MicrosoftSansSerif, 'Microsoft Sans Serif';
        font-size: 130px;
      }
    </style>
    <linearGradient id="linear-gradient" x1="348.95" y1="1637.01" x2="2113.62" y2="1637.01" gradientUnits="userSpaceOnUse">
      <stop offset="0" stop-color="#2d2d2d"/>
      <stop offset="1" stop-color="#1c1c1c" stop-opacity="0"/>
    </linearGradient>
  </defs>
  <g id="Bg">
    <rect class="cls-3" x="1.89" y="4.99" width="3838.15" height="2145.09"/>
  </g>
  <g id="Joe">
    <g id="HowText">
      <g id="DecisionText">
        <path class="cls-4" d="M2183.16,662.87c0,251.74-276.45,455.81-617.48,455.81-234.34,0-438.19-96.37-542.8-238.35l-255.96,22.32,218.91-82.75c-24.33-48.97-37.62-101.85-37.62-157.04,0-251.74,276.45-455.81,617.47-455.81s617.48,204.07,617.48,455.81Z"/>
        <text class="cls-5" transform="translate(1246.38 647.33) rotate(.12)"><tspan x="0" y="0">...but how do</tspan><tspan x="0" y="156">I do that?</tspan></text>
      </g>
    </g>
    <g id="Question">
      <path id="Question1Shadow" class="cls-1" d="M1863.63,1384.99c5.65-8.98-2.66-14.59,13.91-26.24,4.41-2.36,9.31-2.63,13.99-5.45,17.92-10.79,9.27-21.07,69.44-40.98,15.83-4.02,48.44-15.72,57.29-15.18,9.25-3.95,18.51-7.9,27.72-11.85,4.38,1.79,8.71,3.59,13.05,5.39,3.21-1.53,6.39-3.05,9.57-4.57,8.13,2.06,27.58,.11,36.62,2.92,2.79,2.72,5.61,5.44,8.39,8.16-18.69,8.31-31.11,17.51-48.04,26.19,7.79-.83,12.26-.79,13.96,.68-12.59,8.23-45.92,23.88-68.03,26.35-27.07,12.89-43.13,24.27-64.32,35.86,12.55,.13,6.91,2.07,10.66,3.94,5.61,.4,11.2,.81,16.83,1.21,14.18,2.48,41.4,4.84,35.59,12.35-11.87,15.28-84.3,46.7-125.57,68.93-8.98,4.83-24.12,11.07-34.39,16.94-6.65,3.79-6.69,5.76-19.62,11.5-21.84,4.09-47.32,6.13-66.53,7.02-13.87,6.16-21.83,10.88-29.46,15.12-14.78,6.39-29.56,12.78-44.34,19.16-50.11,22.11-95.78,41.8-145.23,61.06-19.27,8.37-38.54,16.73-57.82,25.1-23.91,8.88-51.36,16.84-75.42,23.87-9.31,2.54-18.6,5.07-27.85,7.59-41.45,19.68-82.87,39.36-124.29,59.04-34.21,15.32-68.58,27.24-103.31,40.45-34.45,13.96-68.87,27.92-103.27,41.87-10.87,5.02-21.77,10.06-32.64,15.08-19.35,9-38.69,18-57.97,26.97-23.14,12.09-46.23,24.18-69.33,36.25-19.55,9.98-63.68,28.02-81.54,30.87-7.22,4.14-14.46,8.29-21.69,12.42-13.49,5.31-25.09,6.96-41.35,13.53-8.8,6.04-36.89,33.46-75.33,44.67-42.06,12.24-79.91,7.98-69.68-2.01,5.16-5.03,24.4-12.82,30.19-17.97-9.88-1.05-19.15-2.12-9.97-8.19,5.8-2.43,11.6-4.86,17.4-7.29,9.69-5.43,12.61-9.59,31.75-17.93,1.94-3.8-1.35-7.02-.82-10.41,30.11-12.6,57.1-14.4,90.01-27.42,7.75-4.13,15.51-8.27,23.27-12.39,11.94-5.89,29.12-9.63,42.28-16.82,6.68-4.62,13.41-9.25,20.09-13.87,16.46-8.68,43.24-18.43,60.16-25.05,15.18-7.16,30.4-14.34,45.6-21.5,29.37-14.98,58.77-29.96,88.18-44.93,8.87-4.73,11.02-7.78,16.19-11.09,14.53-6.39,29.02-12.77,43.52-19.16-.53,0-1.05-.01-1.55-.02-29.31,10.1-65.66,25.57-98.15,36.74-13.91,4.21-27.77,8.4-41.68,12.6-35.91,16.29-71.85,32.58-107.75,48.88-7.81,2.24-15.61,4.48-23.46,6.73-18.38,8.21-36.76,16.43-55.16,24.64-4.73,5.53-1.5,8.74-8.74,14.99-50.87,21.74-121.16,35.89-162.12,58.45-4.18,.88-8.33,1.75-12.51,2.64-20.1,13.15-32.87,10.66-51.54,16.22-16.78,4.99-28.94,10.01-45.99,16.29-8.16,1.42-10.2,.9-13.38-.21-17.96,5.87-35.91,11.73-53.84,17.59-31.32,8.69-90.93,11.96-73.56-.66,13.4-13.31,107.81-36.89,127.85-44.8-1.12-2.52,1.49-5.61,2.12-8.47,16.47-5.93,39.77-12.56,54.44-14.28,45.54-37.47,208.82-80.44,299.77-126.23,37.8-19.02,86.37-39.8,120.95-57.2,26.02-10.61,52.05-21.24,78.07-31.86,3.09-2.31,6.2-4.64,9.25-6.94,15.84-8.43,41.47-16.95,57.6-23.21,11.14-4.32,11.39-6.25,24.12-10.97,7.44-2.56,14.87-5.12,22.33-7.68,19.02-9.81,23.94-17.76,46.15-28.58,18.23-7.43,36.47-14.86,54.73-22.3,37.58-16.42,75.17-32.86,112.76-49.27,17.91-7.29,35.79-14.57,53.7-21.85,18.45-6.33,36.89-12.66,55.34-18.98,.68-4.57-15.67-4.03-10.77-9.63,10.35-5.11,21.8-7.43,34.05-11.75,34.12-12.08,64.61-24.2,95.35-34.44,13.08-4.35,21.91-8.95,37.1-14.54,13.37-4.2,26.75-8.42,40.08-12.61,5.19-2.28,10.37-4.56,15.54-6.85,18.01-6.77,47.06-14.81,63.54-17.91,33.18-6.26,49.82-4.37,82.52-7.24,10.22-.9,17.49-4.42,28.77-4.75,2.05-.9,4.15-1.83,6.22-2.73Z"/>
      <path id="Question1" class="cls-2" d="M561.52,937.93c-14.31-15.99-35.11-25.98-44.46-46.74-.84-4.21,3.46-4.69,1.87-9.71-6.07-19.21-37.59-37.52-21.72-72.99,6.9-7.16,13.49-27.99,23.54-27.03,.47-7.03,.92-14.08,1.37-21.1,8.37,3.19,16.7,6.4,25.05,9.6-.2-2.73-.39-5.43-.61-8.15,12.72,3.68,27.84,.2,43.11,5.2,8.85,4.85,17.7,9.68,26.54,14.53-.2,14.8,7.83,31.18,10.2,46.64,5.94-1.48,10.5-1.41,15.48,1.22,5.71,14.65,7.21,42.54-9.42,46.93,1.6,22.95,10.87,43.24,15.45,63.87,12.83,.22,11.51,3.68,19.41,7.01,6.5,.71,13,1.45,19.52,2.15,19.7,4.42,52.16,8.62,63.05,22,22.13,27.22,19.59,83.18,27.76,122.77,1.77,8.61,.5,19.72,3.29,30.18,1.77,6.74,6.12,10.26,5.97,20.49-12.74,7.28-33.68,10.92-50.92,12.5-.17,10.97,2.37,19.37,4.19,26.94-.56,11.39-1.14,22.76-1.72,34.12-.93,39.37-2.8,74.45-9.4,108.76-.66,14.9-1.32,29.8-2,44.7-4.16,15.81-13.89,30-22.32,42.52-3.67,4.52-7.32,9.03-10.96,13.53,2.33,35.05,4.67,70.1,7.02,105.14-.14,27.28-8,48.51-13.34,72.04-3.39,24.87-6.76,49.73-10.12,74.58,.3,8.94,.61,17.92,.91,26.86,.67,16.03,1.33,32.04,2.02,48.04,3.75,21.53,7.55,43.06,11.32,64.58,2.63,17.76-1.37,49.9-12.87,54.98,1.99,7.37,3.97,14.76,5.94,22.13-1.69,9.45-9.61,12.39-11.25,24.1,4.63,10.76,37.54,59.6,24.02,79.55-14.81,21.81-62.16,14.21-74.15-3.58-6.04-8.97-4.12-22.83-9.77-32-12.23-1.88-23.88-3.78-28.18-14.58,.39-4.34,.78-8.66,1.18-12.99-2.39-9.67-8.72-17.08-8.14-31.94-6.51-6.77-16.97-12.51-23.97-18.54,2.07-22.45,25.07-25.65,29.02-48.84-1.44-7.35-2.88-14.73-4.3-22.08-1.17-10.5,7.71-17.14,4.86-29.96-3.59-8.23-7.16-16.47-10.75-24.7-2.85-15.46,2.24-32.83,4.43-44.63-.75-12.75-1.49-25.54-2.22-38.3-3.95-26.68-7.87-53.36-11.77-80.03-1.66-8.43-6.28-13.86-8.47-19.75,.31-11.38,.61-22.75,.9-34.13-.54,0-1.07-.02-1.61-.04-6.85,17.99-8.77,45.56-16.42,65.44-4.55,7.5-9.09,14.96-13.65,22.45,.34,29.02,.64,58.04,.97,87.05-2.82,4-5.65,7.98-8.49,11.99-.11,14.63-.22,29.26-.34,43.9,7.55,9.84,17.94,15.57,24.59,26.7-2.51,38.73-41.32,63.93-32.12,104.1-2.22,1.57-4.44,3.11-6.65,4.69,9.16,23.43-9.16,18.99-15.46,28.89-5.67,8.89-6.67,17.83-9.75,29.02-5,2.53-8.19,1.61-13.84-.37-4.91,10.45-9.8,20.9-14.7,31.34-11.99,15.48-64.34,21.29-75.04-1.18-16.2-23.7,25.76-65.7,28.2-79.79-6.71-4.48-10.98-9.99-16.72-15.08,3.27-10.57,11.83-22.37,22.68-25.44-37.81-66.74,29.88-143.28,18.99-224.82-4.51-33.88-2.14-70.87-6.27-101.87,2.41-18.91,4.81-37.83,7.2-56.74-2.05-4.11-4.12-8.26-6.18-12.35-2.91-15.01,3.78-30.18,5.96-41.35,1.54-7.68-2.52-11.14-.28-19.54,1.76-4.55,3.49-9.11,5.24-13.68-2.8-17.47-15.55-31.62-17.41-50.9,1.7-13.24,3.42-26.47,5.13-39.71,1.05-29.25,2.09-58.52,3.15-87.77,1.71-12.97,3.39-25.95,5.11-38.91,4.37-11.28,8.73-22.55,13.11-33.81-9.48-8.14-24.64-7.17-32.18-17.14-1.01-9.1,5.29-13.22,7.91-20.93,7.25-21.52,10.78-43.11,18.74-61.34,3.39-7.75,1.99-15.95,4.76-25.9,4.02-7.49,8.03-14.99,12.02-22.46,.11-4.07,.21-8.13,.31-12.2,2.96-12.05,14.12-26.38,23.7-31.91,19.26-11.15,40.11-7.78,66.42-12.89,8.22-1.6,7.66-7.88,18.2-8.46,.04-1.61,.08-3.26,.13-4.87Z"/>
    </g>
  </g>
</svg>