<?xml version="1.0" encoding="UTF-8"?>
<svg id="Layer_2" data-name="Layer 2" xmlns="http://www.w3.org/2000/svg" viewBox="0 0 1022.84 1186.06">
  <defs>
    <style>
      .cls-1 {
        fill: #231f20;
      }

      .cls-2 {
        font-family: MicrosoftSansSerif, 'Microsoft Sans Serif';
        font-size: 170.38px;
      }
    </style>
  </defs>
  <g id="Buildings">
    <g>
      <polygon class="cls-1" points="166.42 967.24 166.42 933.98 859.08 933.98 859.08 967.24 166.42 967.24 166.42 967.24"/>
      <polygon class="cls-1" points="183.49 892.84 838.02 892.84 838.02 929.05 183.49 929.05 183.49 892.84 183.49 892.84"/>
      <path class="cls-1" d="M200.03,241.5V887.73H819.62V241.5H200.03Zm139.66,517.41h-110.91v-84.01h110.91v84.01Zm0-130.67h-110.91v-84.01h110.91v84.01Zm0-130.68h-110.91v-84.03h110.91v84.03Zm0-130.7h-110.91v-84.04h110.91v84.04Zm151.23,392.05h-110.91v-84.01h110.91v84.01Zm0-130.67h-110.91v-84.01h110.91v84.01Zm0-130.68h-110.91v-84.03h110.91v84.03Zm0-130.7h-110.91v-84.04h110.91v84.04Zm151.23,392.05h-110.91v-84.01h110.91v84.01Zm0-130.67h-110.91v-84.01h110.91v84.01Zm0-130.68h-110.91v-84.03h110.91v84.03Zm0-130.7h-110.91v-84.04h110.91v84.04Zm151.23,392.05h-110.91v-84.01h110.91v84.01Zm0-130.67h-110.91v-84.01h110.91v84.01Zm0-130.68h-110.91v-84.03h110.91v84.03Zm0-130.7h-110.91v-84.04h110.91v84.04Z"/>
      <polygon class="cls-1" points="249.86 190.93 769.79 190.93 769.79 236.45 249.86 236.45 249.86 190.93 249.86 190.93"/>
      <polygon class="cls-1" points="291.4 135.19 728.29 135.19 728.29 185.35 291.4 185.35 291.4 135.19 291.4 135.19"/>
      <path class="cls-1" d="M508.73,0c74.61,0,139.36,54.91,171.91,130.35H336.77C369.32,54.91,434.12,0,508.73,0h0Z"/>
    </g>
    <text class="cls-2" transform="translate(0 1149.29)"><tspan x="0" y="0">State College</tspan></text>
  </g>
</svg>