<?xml version="1.0" encoding="UTF-8"?>
<svg id="Layer_2" data-name="Layer 2" xmlns="http://www.w3.org/2000/svg" viewBox="0 0 823 1097.18">
  <defs>
    <style>
      .cls-1 {
        fill: #231f20;
      }

      .cls-2 {
        font-family: MicrosoftSansSerif, 'Microsoft Sans Serif';
        font-size: 170.38px;
      }
    </style>
  </defs>
  <g id="Buildings">
    <g>
      <polygon class="cls-1" points="0 864.36 0 835.57 823 835.57 823 864.36 0 864.36 0 864.36"/>
      <path class="cls-1" d="M776.64,780.96v-205.94H52.84v205.94H31.99v44.81H797.38v-44.81h-20.74Zm-65.49-197.97l.45,24.64h-19.05l-.48-24.64h19.08Zm-23.35,28.12c0,6.73-4.26,12.18-9.54,12.18s-9.57-5.44-9.57-12.18c0-.17,.03-.28,.03-.45h19.05c0,.17,.03,.28,.03,.45Zm-.56-28.12l.5,24.64h-19.05l-.5-24.64h19.05Zm-23.82,0l.5,24.64h-19.11l-.51-24.64h19.11Zm.45,27.67v.45c0,6.73-4.27,12.18-9.54,12.18s-9.54-5.44-9.54-12.18c0-.17,.03-.28,.03-.45h19.05Zm-24.3-27.67l.48,24.64h-19.08l-.48-24.64h19.08Zm.34,27.67v.45c0,6.73-4.24,12.18-9.51,12.18s-9.57-5.44-9.57-12.18c0-.17,0-.28,.06-.45h19.02Zm-24.19-27.67l.5,24.64h-19.11l-.51-24.64h19.11Zm.5,27.67v.45c0,6.73-4.27,12.18-9.57,12.18s-9.54-5.44-9.54-12.18c0-.17,.06-.28,.06-.45h19.05Zm-133.21-27.67l.51,24.64h-19.11l-.48-24.64h19.08Zm-23.23,28.12c0,6.73-4.35,12.18-9.62,12.18s-9.54-5.44-9.54-12.18c0-.17,0-.28,.06-.45h19.05c0,.17,.06,.28,.06,.45Zm-.59-28.12l.5,24.64h-19.11l-.5-24.64h19.11Zm-23.85,0l.51,24.64h-19.14l-.48-24.64h19.11Zm.45,28.12c0,6.73-4.29,12.18-9.57,12.18s-9.54-5.44-9.54-12.18c0-.17,.03-.28,.03-.45h19.05c0,.17,.03,.28,.03,.45Zm-24.33-28.12l.5,24.64h-19.08l-.5-24.64h19.08Zm.39,27.67v.45c0,6.73-4.26,12.18-9.57,12.18s-9.51-5.44-9.51-12.18v-.45h19.08Zm-24.22-27.67l.45,24.64h-19.05l-.48-24.64h19.08Zm.48,27.67v.45c0,6.73-4.26,12.18-9.54,12.18s-9.54-5.44-9.54-12.18c0-.17,.06-.28,.06-.45h19.02Zm-133.85-27.67l.48,24.64h-19.08l-.5-24.64h19.11Zm-23.85,0l.5,24.64h-19.11l-.48-24.64h19.08Zm.5,27.67v.45c0,6.73-4.21,12.18-9.54,12.18s-9.57-5.44-9.57-12.18c0-.17,.03-.28,.08-.45h19.02Zm-24.38-27.67l.53,24.64h-19.11l-.5-24.64h19.08Zm.48,27.67v.45c0,6.73-4.24,12.18-9.51,12.18s-9.57-5.44-9.57-12.18v-.45h19.08Zm-24.3-27.67l.45,24.64h-19.05l-.48-24.64h19.08Zm.39,28.12c0,6.73-4.26,12.18-9.6,12.18s-9.54-5.44-9.54-12.18c0-.17,.03-.28,.03-.45h19.05c0,.17,.06,.28,.06,.45Zm-24.22-28.12l.45,24.64h-19.11l-.45-24.64h19.11Zm.48,27.67v.45c0,6.73-4.29,12.18-9.54,12.18s-9.6-5.44-9.6-12.18v-.45h19.14Zm-48.24-27.67l.48,24.64h-19.08l-.42-24.64h19.03Zm-8.98,40.3c-5.39,0-9.82-5.44-9.82-12.18v-.14h.08v-.31h19.45c.08,.17,.08,.28,.08,.45,0,6.73-4.38,12.18-9.79,12.18Zm13.75-40.3h19.08l.48,24.64h-19.08l-.48-24.64Zm.73,28.12c0-.17,.06-.28,.06-.45h19.02c0,.17,.06,.28,.06,.45,0,6.73-4.32,12.18-9.6,12.18s-9.54-5.44-9.54-12.18Zm133.57,169.85H122.96v-103.35h127.23v103.35Zm0-114.99H122.96v-31.54h127.23v31.54Zm4.69-54.86c0,6.73-4.27,12.18-9.54,12.18s-9.57-5.44-9.57-12.18v-.45h19.11v.45Zm23.23-28.12l.48,24.64h-19.03l-.56-24.64h19.11Zm-8.92,40.3c-5.33,0-9.62-5.44-9.62-12.18,0-.17,.08-.28,.08-.45h19.02c0,.17,.06,.28,.06,.45,0,6.73-4.32,12.18-9.54,12.18Zm70.68-40.3l.51,24.64h-19.05l-.48-24.64h19.03Zm-8.98,40.3c-5.39,0-9.79-5.44-9.79-12.18v-.14h.06v-.31h19.5c0,.17,.06,.28,.06,.45,0,6.73-4.38,12.18-9.82,12.18Zm13.78-40.3h19.11l.45,24.64h-19.08l-.48-24.64Zm.76,28.12v-.45h19.08v.45c0,6.73-4.29,12.18-9.54,12.18s-9.54-5.44-9.54-12.18Zm132.9,201.28h-127.23v-134.78h127.23v134.78Zm0-146.42h-127.23v-31.54h127.23v31.54Zm5.33-54.86c0,6.73-4.29,12.18-9.54,12.18s-9.54-5.44-9.54-12.18v-.45h19.08v.45Zm4.12-28.12h19.11l.45,24.64h-19.03l-.53-24.64Zm10.16,40.3c-5.3,0-9.54-5.44-9.54-12.18v-.45h19.05c0,.17,.06,.28,.06,.45,0,6.73-4.32,12.18-9.57,12.18Zm70.1-40.3l.45,24.64h-19.05l-.5-24.64h19.11Zm-9.04,40.3c-5.42,0-9.79-5.44-9.79-12.18v-.14h.06v-.31h19.47c0,.17,.06,.28,.06,.45,0,6.73-4.41,12.18-9.79,12.18Zm13.75-40.3h19.11l.48,24.64h-19.08l-.5-24.64Zm.76,28.12v-.45h19.08v.45c0,6.73-4.29,12.18-9.54,12.18s-9.54-5.44-9.54-12.18Zm132.92,169.85h-127.2v-103.35h127.2v103.35Zm0-114.99h-127.2v-31.54h127.2v31.54Zm5.25-54.86c0,6.73-4.24,12.18-9.51,12.18s-9.54-5.44-9.54-12.18c0-.17,0-.28,.03-.45h19.03v.45Zm4.21-28.12h19.08l.5,24.64h-19.08l-.5-24.64Zm10.13,40.3c-5.3,0-9.54-5.44-9.54-12.18v-.45h19.08c0,.17,.03,.28,.03,.45,0,6.73-4.29,12.18-9.57,12.18Z"/>
      <path class="cls-1" d="M52.84,173.92v186.18H776.64V173.92H52.84Zm199.54,144.8h-96.53v-61.73h96.53v61.73Zm205.66,2.36h-87.75v-72.17h87.75v72.17Zm0-83.9h-87.75v-13.39h87.75v13.39Zm215.54,81.54h-96.56v-61.73h96.56v61.73Z"/>
      <path class="cls-1" d="M52.84,373.21v186.07H776.64v-186.07H52.84Zm276.32,152.01H149.34v-60.02h179.81v60.02Zm0-71.7H149.34v-46.95h179.81v46.95Zm350.99,71.7h-179.84v-60.02h179.84v60.02Zm0-71.7h-179.84v-46.95h179.84v46.95Z"/>
      <polygon class="cls-1" points="645.04 101.13 535.35 101.13 535.35 166.01 294.08 166.01 294.08 101.13 184.39 101.13 184.39 166.01 19.87 166.01 19.87 36.23 109.38 36.23 109.38 8.03 105.03 8.03 105.03 0 182.34 0 182.34 8.03 178.02 8.03 178.02 36.23 381.74 36.23 381.74 8.03 372.68 8.03 372.68 2.41 427.14 2.41 427.14 8.03 419.73 8.03 419.73 36.23 809.53 36.23 809.53 166.01 645.04 166.01 645.04 101.13 645.04 101.13"/>
    </g>
    <text class="cls-2" transform="translate(34.3 1060.41)"><tspan x="0" y="0">University</tspan></text>
  </g>
</svg>