<?xml version="1.0" encoding="UTF-8"?>
<svg id="Layer_2" data-name="Layer 2" xmlns="http://www.w3.org/2000/svg" viewBox="0 0 1789.78 1850.71">
  <defs>
    <style>
      .cls-1, .cls-2 {
        stroke: #231f20;
        stroke-miterlimit: 10;
      }

      .cls-3 {
        fill: #00f717;
      }

      .cls-4 {
        fill: #e900fc;
      }

      .cls-5 {
        fill: #7c00ff;
      }

      .cls-2 {
        fill: #b5b5b5;
      }
    </style>
  </defs>
  <g id="Layer_9" data-name="Layer 9">
    <path d="M1117.57,988.18c-19.38-10.5-40.48-18.68-61.85-21.96-64.06-9.86-128.83,29.3-166.66,79.17-29.04,38.29-48.29,83.35-63.72,129.38-14.7,44.31-22.42,91.85-38.57,135.39-49.22-139.65-74.95-284.98-93.19-429.33,2.7,1.63,3.69,3.22,7.04,3.26-2.94-.32-5.68-4.72-8.03-4.27,1.89,61.91,4.57,123.89,10.88,185.89,6.58,64.46,14.32,138.24,28.75,197.69,5.24,31.15,11.75,69.85,29.11,97.7,30.78,43.88,62.21-3.88,74.8-30.05,41.65-88.53,60.35-199.79,145.71-257.55,.93-.97-1.9,1.41-1.26,.94,51.35-38.02,108.99-.76,139.59,50.13,25.79,42.9,33.98,94.08,21.85,139.52-11.74,43.95-44.62,66.76-77.59,93.23-44.19,36.12-76.88,79.82-62.09,143.38-.37-1.52-.73-3.04-1.09-4.57,11.28,46.68,29.78,93.39,52.78,136.51-.17-.32-.33-.61-.5-.94,5.71,11.45,38.78,94.95,32.08,96.68-17.54,4.53-35.06,9.08-52.58,13.63,62.8,36.23,125.62,72.46,188.45,108.7,31.1-60.59,62.19-121.17,93.29-181.73-20.41,5.29-40.8,10.59-61.2,15.87,1.32-.34-49-107.94-55.27-118.39,1.12,2.17,2.24,4.37,3.36,6.56-9.31-18.3-22.87-40.26-33.9-59.56-4.4-7.69-19.88-29.06-13.46-35.62,3.95-4.04,7.97-8.01,11.94-11.98,.84-.86,4.5-4.03,.31-.48,25-21.47,47.83-45.69,65.43-73.85,11.02-17.63,19.91-36.63,26.12-56.77,2.68-8.69,4.86-17.52,6.49-26.51,.22-1.1,3.4-21.09,1.8-12.39,20.95-113.44-42.41-249.38-148.82-307.68m-318.98,347.38c.81,1.08-.84-1.15,0,0m347.17,153.39c-1.54,1.88-1.08-.2,1.89-3.81-.59,1.74-1.26,3.17-1.89,3.81Z"/>
    <path class="cls-3" d="M1118.6,941.91c-19.68-9.93-41.01-17.48-62.47-20.13-64.32-7.98-127.92,33.07-164.26,84.03-27.91,39.13-45.82,84.73-59.89,131.2-13.39,44.72-19.71,92.47-34.58,136.47-53.3-138.15-83.29-282.65-105.76-426.4,2.74,1.55,3.79,3.11,7.13,3.05-2.95-.23-5.82-4.55-8.15-4.03,3.7,61.83,8.21,123.7,16.34,185.49,8.47,64.24,18.38,137.76,34.54,196.76,6.15,30.98,13.8,69.48,31.97,96.8,32.06,42.96,62.07-5.71,73.88-32.24,39.03-89.71,54.46-201.48,138.08-261.72,.9-.99-1.85,1.47-1.23,.98,50.21-39.51,108.92-3.96,141.01,46.01,27.04,42.12,36.73,93.04,25.93,138.81-10.44,44.28-42.64,68.04-74.82,95.47-43.11,37.4-74.5,82.04-57.85,145.14-.42-1.51-.82-3.02-1.22-4.54,12.65,46.33,32.51,92.47,56.77,134.9-.18-.32-.35-.6-.53-.92,6.04,11.28,41.55,93.77,34.91,95.69-17.4,5.05-34.78,10.1-52.16,15.16,63.84,34.37,127.7,68.74,191.56,103.11,29.31-61.48,58.6-122.94,87.91-184.39-20.24,5.88-40.47,11.78-60.7,17.66,1.31-.38-52.15-106.45-58.72-116.71,1.18,2.14,2.37,4.3,3.55,6.46-9.85-18.01-24.04-39.57-35.64-58.54-4.62-7.56-20.73-28.47-14.5-35.21,3.83-4.16,7.73-8.24,11.58-12.32,.82-.89,4.38-4.16,.29-.49,24.36-22.19,46.46-47.07,63.23-75.74,10.5-17.95,18.83-37.2,24.44-57.51,2.42-8.76,4.35-17.65,5.71-26.69,.19-1.11,2.77-21.18,1.43-12.44,17.61-114.01-49.71-248.03-157.79-303.17m-308.64,356.6c.84,1.06-.87-1.13,0,0m351.52,143.13c-1.49,1.93-1.08-.17,1.78-3.86-.54,1.75-1.17,3.2-1.78,3.86Z"/>
    <path class="cls-1" d="M1361.35,163.79c97.14,168.98,71.77,385.04-88.05,504.83-155.32,116.44-364.89,139.22-550.71,168.48,260.84-25.45,628.48-48.49,730.69-342.63,45.9-132.09,23.31-292.04-55.32-407.76-38.04-56-102.02-102.31-172.7-80.86-65.72,19.94-103.82,87.57-128.05,147.2-24.95,61.45-37.46,126.73-53.35,190.84-15.33,61.83-26.25,129.81-60.52,184.67-11.34,18.12-26.15,35.95-49.28,36.37-29.68,.58-61.99-16.57-87.48-30.11-43.76-23.48-83.07-53.68-123.82-81.75,.78,.56,1.58,1.09,2.38,1.65-65.95-51.77-130.56-105.06-194.86-158.8,16.72-18.02,33.48-36.07,50.2-54.11-97.45-22.25-194.91-44.48-292.36-66.75,29.48,95.54,58.93,191.07,88.38,286.57,9.05-9.76,18.1-19.51,27.15-29.27,5.51-5.91,10.99-11.83,16.5-17.76,8.46-9.12,18.67,6.23,26.89,12.31,61.71,45.65,123.66,90.93,186.82,134.63,36.14,25.01,74.47,48.13,113.17,69.21,59.71,32.58,131.49,65.03,201.22,56.19,154.1-19.44,175.97-209.87,198.27-330.93,13.27-72.12,22.17-145.87,54.01-212.83,11.56-24.32,30.06-57.77,59.92-61.73,29.33-3.88,55.23,20.37,72.62,40.89,10.83,12.77,20.22,26.76,28.28,41.44"/>
    <path class="cls-2" d="M1331.71,171.35c96.3,169.46,69.87,385.39-90.54,504.39-155.89,115.68-365.57,137.41-551.53,165.76,260.96-24.16,628.71-45.39,732.37-339.02,46.55-131.86,24.75-291.92-53.31-408.03-37.76-56.19-101.52-102.81-172.3-81.71-65.82,19.62-104.25,87.06-128.78,146.56-25.26,61.33-38.09,126.54-54.29,190.58-15.64,61.75-26.89,129.68-61.43,184.37-11.43,18.06-26.33,35.82-49.46,36.13-29.68,.43-61.91-16.87-87.33-30.54-43.65-23.69-82.8-54.08-123.41-82.36,.77,.56,1.58,1.1,2.37,1.66-65.7-52.09-130.04-105.7-194.08-159.76,16.81-17.94,33.65-35.91,50.46-53.86-97.34-22.73-194.69-45.44-292.02-68.19,29.01,95.68,57.98,191.36,86.96,287,9.09-9.71,18.2-19.42,27.3-29.13,5.54-5.88,11.05-11.78,16.59-17.68,8.51-9.08,18.63,6.32,26.83,12.45,61.48,45.96,123.21,91.54,186.15,135.55,36.02,25.19,74.23,48.49,112.83,69.77,59.55,32.88,131.17,65.68,200.94,57.18,154.19-18.68,177-209,199.9-329.95,13.63-72.06,22.89-145.76,55.06-212.56,11.68-24.26,30.34-57.63,60.22-61.43,29.34-3.74,55.13,20.64,72.42,41.25,10.77,12.82,20.09,26.86,28.07,41.58"/>
    <path d="M770.03,1125.47c-19.79-64.44-51.8-126.15-82.92-185.7-32.51-62.17-67.6-123-103.01-183.55,39.55,36.82,81.56,72.91,125.87,103.95-37.5-29.02-72.68-62.12-106.35-95.4-15.16-15-32.13-30.24-42.95-48.81-2.34-3.97-20.49-29.12-14.86-30.55-5.06,1.28-11.52,4.79-14.87,7.8,2.93-2.59,26.8,46.05,29.83,51.9,15.24,29.22,30.48,58.44,45.45,87.77,28.69,56.22,56.52,112.92,81.54,170.89,11.83,27.47,22.8,55.25,33.06,83.36,10.26,28.18,23.31,60.58,21.51,91.1-2.76,47.02-87.81-8.46-105.83-19.87-50.84-32.19-99.55-67.93-147.44-104.33-48.56-36.92-98.96-72.63-138.74-118.91-78.9-91.92-167.89-169.62-275.36-226.43-5.98-3.16-11.97-6.31-17.96-9.45,3.14-4.78-8.8,12.72-17.63,26.07-8.41,12.66-16.54,31.7-27.69,42.07,1.6-1.47,3.22,.87,5.02,2.22,1.29,.97-.69,4.3,1.43,1.1,35.02,26.53,70,53.12,104.88,79.8,29.36,22.45,61.6,43.26,86.74,70.38,24.05,25.95,46.73,53.14,68.32,81.13,40.8,52.87,78.33,108.97,111.45,167.01,35.35,62.03,74.75,136.32,75.56,209.39-14.47-4.52-28.94-9-43.41-13.48,16.67,73.74,33.34,147.46,50.05,221.21,55.53-51.3,111.02-102.64,166.54-153.96-15.2-4.73-30.43-9.46-45.65-14.19-11.06-3.43-6.41-10.11-6.37-21.42,.07-21.16-1.72-42.3-5.6-63.08-14.34-77.17-54.61-151.04-96.02-216.81,59.88,40.24,123.08,86.94,191.81,110.7,28.43,9.84,70.11,18.67,91.71-9.02,20.24-25.92,10.58-64.41,1.9-92.87"/>
    <path class="cls-4" d="M748.9,1113.74c-18.13-64.93-48.54-127.44-78.12-187.77-30.91-62.99-64.41-124.69-98.26-186.14,38.59,37.83,79.66,74.98,123.15,107.15-36.75-29.97-71.06-63.97-103.87-98.1-14.77-15.38-31.35-31.05-41.68-49.9-2.24-4.03-19.74-29.64-14.07-30.93-5.09,1.15-11.64,4.49-15.07,7.41,3-2.52,25.61,46.72,28.48,52.65,14.48,29.61,28.96,59.21,43.18,88.9,27.24,56.94,53.6,114.33,77.12,172.93,11.12,27.77,21.38,55.81,30.91,84.18,9.53,28.43,21.74,61.16,19.16,91.62-3.97,46.93-87.57-10.71-105.29-22.58-49.99-33.49-97.77-70.46-144.71-108.09-47.6-38.16-97.06-75.15-135.63-122.44-76.51-93.91-163.48-173.87-269.45-233.43-5.9-3.32-11.81-6.61-17.71-9.9,3.26-4.7-9.12,12.49-18.3,25.61-8.73,12.44-17.34,31.27-28.76,41.35,1.64-1.43,3.19,.96,4.96,2.35,1.26,1-.8,4.28,1.4,1.13,34.32,27.42,68.61,54.9,102.8,82.47,28.78,23.2,60.46,44.83,84.9,72.59,23.38,26.56,45.35,54.32,66.21,82.86,39.43,53.9,75.5,110.95,107.12,169.82,33.74,62.92,71.22,138.2,70.16,211.26-14.35-4.89-28.7-9.74-43.05-14.6,14.77,74.14,29.54,148.27,44.35,222.42,56.83-49.86,113.63-99.75,170.44-149.63-15.08-5.12-30.17-10.24-45.27-15.36-10.97-3.71-6.14-10.27-5.82-21.58,.62-21.15-.64-42.33-3.98-63.2-12.35-77.52-50.72-152.39-90.42-219.21,58.82,41.77,120.8,90.07,188.91,115.59,28.17,10.56,69.61,20.46,91.91-6.67,20.9-25.39,12.23-64.12,4.28-92.79"/>
    <path d="M1269.07,1485.04s31.51-577.55,341.46-764.28l76.89,107.4c-30.45-214.19,102.37-390.72,102.37-390.72,0,0-209.89,68.9-402.86-28.87l77.12,107.65c-41.35,40.57-264.19,277.01-296.31,689.42-43.07-65.96-175.01-233.65-465.52-357.63,0,0,414.34,184.29,512.69,645.71l54.17-8.67h0Z"/>
    <path class="cls-5" d="M1282.45,1458.97s5.77-578.38,307.1-778.72l81.59,103.87c-39.95-212.62,84.88-394.89,84.88-394.89,0,0-206.62,78.17-403.75-10.91l81.84,104.11c-39.51,42.37-251.6,288.49-265.34,701.93-45.97-63.98-185.24-225.63-480.98-336.55,0,0,422.13,165.67,540.92,622.25l53.73-11.08h0Z"/>
  </g>
</svg>