<?xml version="1.0" encoding="UTF-8"?>
<svg id="Layer_2" data-name="Layer 2" xmlns="http://www.w3.org/2000/svg" viewBox="0 0 3134.41 4253.73">
  <defs>
    <style>
      .cls-1 {
        fill: #f2f2f2;
      }

      .cls-2 {
        fill: #303030;
      }

      .cls-3 {
        fill: #c4c4c4;
      }

      .cls-4 {
        fill: #231f20;
      }

      .cls-5 {
        fill: #111;
      }

      .cls-6 {
        fill: #fff;
        stroke: #231f20;
        stroke-miterlimit: 10;
        stroke-width: 9px;
      }

      .cls-7 {
        font-size: 130px;
      }

      .cls-7, .cls-8 {
        font-family: MicrosoftSansSerif, 'Microsoft Sans Serif';
      }

      .cls-8 {
        font-size: 111.05px;
      }
    </style>
  </defs>
  <g id="Business_People" data-name="Business People">
    <g>
      <path class="cls-5" d="M1902.53,700.62c4.27-16.26,10.84-92.11,13.24-126.05,2.4-33.95-19.61-125.21-34.52-153.67-14.91-28.47-68.95-92.52-133.13-70.98-64.18,21.55-60.22,20.09-69.94,25.54-9.73,5.45-38.97,5.56-49.52,79.98,0,0-4.8,66.45-11.2,93.19-6.4,26.74-4.64,107.61,.54,141.53,.57,3.7,1.06,7.15,1.53,10.41,3.82,26.6,5.75,39.74,28.35,60.24,0,0,4.7,2.87,4.75,14.06,.04,11.19-6.6,68.98-4.72,88.47,1.88,19.49,4.64,80.13,1.93,126-2.71,45.86-11.97,80.92-12.26,98.97-.29,18.05-11.32,59.98,23.89,111.47,35.22,51.49,66.01,78.09,72.54,87.09,6.53,9,3.05,42.95,51.49-35.58,48.44-78.53,75.46-93.08,82.12-146.53,6.66-53.46-1.08-82.68,5.99-132.89,7.01-49.79,1.52-53.78,5.11-79.45,3.34-23.87-1.96-40.43-1.66-57.04,.2-11.33,1.16-44.14,2.78-65.37,.75-9.9,1.65-17.28,2.68-18.78,3.23-4.71,15.76-34.36,20.02-50.62Z"/>
      <path class="cls-1" d="M1646.89,836.81s-1.82,15.71,3.83,44.12c5.65,28.41,19.8,117.44,25.6,145.85,5.79,28.41,17.86,49.49-11.37,72.61,0,0,13.31,10.51,23.42,35.11,10.11,24.6,30.57,62.16,36.83,72.16,0,0,40.02-85.72,65.35-118.04,25.33-32.32,34.24-39.94,34.76-45.62,.52-5.69-23.91-20.76-12.36-45.17,11.55-24.41,35.63-68.96,46.21-94.14,10.58-25.18,19.08-60.97,19.18-72.63,.1-11.66,16.01-1.85,24.8,30.42,8.79,32.27,14.75,175.76,19.85,233.69,5.1,57.93-15.84,247.94-18.82,319.25-2.98,71.3-25.83,185.12-36.32,273.97-10.49,88.86-16.17,202.61-14.87,238.89,1.3,36.28-1.39,42.25-2.46,44.96-1.07,2.71-4.93,56.88-16.83,59.64-11.9,2.75-159.96,14.15-178.55,7.18-18.58-6.97-100.4-16.95-101.76-20.73-1.37-3.79-.03-78.26,19.17-156.04,19.2-77.79,39.26-283.93,35.24-343.48-4.02-59.56-14.91-357.91-12.9-401.25,2-43.33,11.29-202.59,19.53-222.66,8.24-20.07,23.79-61.29,32.47-58.07Z"/>
      <path class="cls-3" d="M1675.11,1910.9s-5.26-68.62-16.96-127.11c-11.7-58.49-1.41-57.46,8.17,8.55,9.58,66.02,19.27,101.71,17.9,123.92-1.37,22.21-7.37,13.94-9.11-5.36Z"/>
      <path class="cls-3" d="M1811.14,1737.92c.63,.9,.58,2.09,.5,3.19-3.21,46.26-7.2,92.46-11.97,138.58-2.32-.23-4.64-.46-6.96-.69,6.43-29.69,9.7-60.07,9.72-90.45,.01-15.17-.78-30.46,1.71-45.43,.31-1.85,.73-3.82,2.05-5.15,1.33-1.33,3.87-1.6,4.94-.06Z"/>
      <path class="cls-3" d="M1707.92,1218.92s3.43,190.08,2.14,275.65c-1.3,85.57-3.31,267.54,10.55,350.89,13.86,83.35,22.76,146.68,22.24,152.09-.52,5.42-31-166.68-33.1-225.98-2.1-59.29-2.85-265.62-1.12-294.33,1.73-28.71-5.65-251.16-.7-258.32Z"/>
      <path class="cls-3" d="M1762.07,1215.46s-.27,51.3,.17,105.07c.38,46.39,1.29,94.61,3.37,113.34,4.49,40.43-1.79,177.47-.62,230.54s26.81,246.28,32.36,280.12c5.55,33.84,3.42,45.22,3.42,45.22,0,0-8.51-100.16-13.54-141.3-5.03-41.14-19.02-158.6-19.14-190.56-.12-31.95,.91-187.38,1.38-204.72,.48-17.33-1.07-43.86-1.77-62.27-.71-18.41-16.42-162.41-5.64-175.44Z"/>
      <path class="cls-5" d="M1842.84,4103.72s3.65,65.74-43.01,71.47c-46.66,5.72-147.7-6.57-153.73-30.31-6.03-23.74,6.59-51.52,12.48-65.01l184.26,23.86Z"/>
      <path d="M1845.83,4108.46h2.12s12.2,83.93-21.67,103.07c-33.88,19.14-73.75,24.05-102.6,24.16s-61.16-14.03-73.95-29.03c-12.79-15-26.42-43.47-2.04-97.44,0,0-4.16,29.33,15.39,35.59,19.54,6.26,128.49,27.42,151.96,10.51,23.47-16.91,23.95-49.7,30.8-46.86Z"/>
      <path class="cls-5" d="M1371.39,4051.84s-11.87,58.58-26.44,77.79c-2.94,3.88-6.01,7.58-8.94,11.06-11.6,13.78-21.07,24.14-11.91,28.38,11.48,5.3,137.8,30.73,148.35,8.65,19.84-41.51,37.04-50.63,75.15-157.46-27.34,7.24-165.42,22.02-176.2,31.57Z"/>
      <path d="M1310.07,4163.19c12.05-11.34,31.56-29.28,29.97-27.34-1.6,1.94-17.26,21.35-14.7,24.9,2.56,3.56,83.49,25.84,115.92,17.09,32.43-8.74,55.84-46.86,65.31-65.32,9.48-18.46,29.01-72.01,51.8-104.18l64.2-22.83s-4.36,24.38-7.42,56.48c-3.06,32.1,.38,100.42-4.7,102.81-5.08,2.4-20.96,10.78-22.9,4.84-1.93-5.93-.99-93.29-6.14-108.72-2.04-6.12-4.38-11.3-6.58-15.66-1.7-3.38-18.86,13-19.72,13.97-9.44,10.66-17.34,23.37-22.79,36.23-14.8,34.92-32.29,69.65-44.08,105.55-7.06,21.52-15.15,54.37-42.85,59.43-42.63,7.78-110.19,14.6-134.33,13.05-29.08-1.87-48.34-7.4-51.61-29.96-3.27-22.57,38.58-49.02,50.63-60.35Z"/>
      <g>
        <path d="M2046.56,1820.4s111.58,217.04,80.03,456.02c-31.55,238.98-92.06,394.29-108.47,597.56-16.41,203.27-15.58,233.57-22.95,303.11-7.37,69.55-23.6,320.94-35.94,588.37-12.35,267.42-14.02,328.04-14.02,328.04,0,0-63.65,21.63-130.48,21.89-66.83,.26-168.12-22.53-189.16-29.58,0,0,15-71.36,31.75-185.5,16.75-114.15,61.48-401.3,70.36-576.02,8.88-174.72,9.54-500.92,11.13-584.71,1.59-83.78,11.54-479.54-9.39-459.85-20.93,19.69-194.6,544.41-222.59,715.64,0,0-5.72,1.8,11.84,101.56,17.57,99.75,59.52,401.15,69.29,458.15,9.77,57,50.47,313.27,52.29,377.39,1.82,64.11-13.12,64.22-13.12,64.22l-192.5,95.21c-64.9,5.59-80.31-30-97.54-40.63,0,0,3.12-181.83-1.17-306.59-4.3-124.76-37.84-408.05-49.63-495.35-11.79-87.3-21.8-208.47-25.84-265.5-4.04-57.03-3.24-349.36,30.35-554.48,33.59-205.12,93.42-538.68,106.56-597.55,0,0,334.31,37.94,649.2-11.39Z"/>
        <path class="cls-4" d="M1698.09,1949.7c-6.19,17.43-2.45,36.35-.47,54.61,6.89,63.66-5.42,125.95,5.64,185.93,1.78,9.66,4.29,19.68,11.17,27.07-2.01-57.97-4.02-115.95-6.03-173.92-1.09-31.44-2.22-63.16-10.31-93.7Z"/>
        <path class="cls-4" d="M1725.02,2199.45c-2.44-1.46-4.57,2.29-4.66,5-1.08,31.99,10.49,63.06,14.95,94.79,2.23,15.84,2.68,31.85,3.13,47.83,2.24,79.71,4.48,159.42,6.72,239.13,10.24-81.55,14.24-163.77,11.97-245.84-.35-12.7-.84-25.57,2.2-37.96,3.04-12.39,10.09-24.47,21.7-31.1,3.09-1.76,6.9-3.77,6.99-7.15,.08-3.17-3.48-5.46-6.85-5.84-3.37-.38-6.75,.52-10.15,.56-14.72,.21-23.98-14.28-30.08-26.78-5.31-10.88-10.61-21.76-15.92-32.64Z"/>
        <path class="cls-4" d="M2057.27,1909.95c-89.25-4.34-176.81,14.4-265.82,20.57,40.08,6.5,81.97-3.26,123.12-7.04,47.89-4.4,99.22-.91,142.71-13.53Z"/>
        <path class="cls-4" d="M1443.51,1949.87c37,1.53,74.12,.5,110.96-3.08,20.44-1.99,40.89-4.76,61.42-4.09,17.6,.57,35.74,3.62,52.48-1.5-78.97-.16-157.94,.68-236.88,2.52,.7,4.6,7.04,5.95,12.01,6.15Z"/>
        <path class="cls-5" d="M2057.09,1863.16s-218.42,38.07-324.49,41.64c-106.08,3.57-344.42,.49-348.76-4.63-4.34-5.11,6.55-42.39,12.49-43.21,5.94-.82,249.56,9.35,338.66,4.25,89.1-5.09,308.23-36,313.17-37.62,4.95-1.62,19.81,37.7,8.94,39.56Z"/>
        <path class="cls-1" d="M1722.89,1860.44c3.61,.09,7.11-.7,10.91-.95,6.32-.41,12.63-.54,18.96-.21,2.41,.12,4.94,.34,6.95,1.58,3.56,2.18,4.34,6.66,4.66,10.63,.65,8.29,.65,16.62,0,24.91-.17,2.12-.47,4.44-2.13,5.9-1.59,1.41-3.98,1.62-6.17,1.72-5.64,.27-11.3,.37-16.95,.29-4.49-.06-9.54-1.03-14.17-.17-1.67,.31-5.71,1.11-6.33,2.84-.76,2.12,1.54,3.29,3.42,3.44,4.75,.37,9.48,1.63,14.2,2.37,6.42,1.01,13.05,1.68,19.52,.67,7.95-1.25,15.83-5.61,18.77-12.61,1.31-3.11,1.57-6.51,1.7-9.85,.19-4.65,.17-9.3-.06-13.95-.23-4.61-.68-9.28-2.43-13.6-1.75-4.32-4.94-8.29-9.42-10.24-6.49-2.81-15.95-1.51-22.79-.56-8.26,1.14-16.33,3.47-23.81,6.93,1.77,.58,3.48,.82,5.17,.86Z"/>
        <path class="cls-3" d="M1748.98,1885.79c.23,.45,.47,.91,.86,1.25,.99,.87,2.56,.67,3.89,.42,5.53-1.05,11.03-2.22,16.49-3.51,.42-.1,.86-.21,1.2-.47,.44-.34,.64-.89,.72-1.42,.17-1.05-.06-2.24-.92-2.94-1.07-.88-2.69-.75-4.1-.56-5.29,.7-10.55,1.4-15.81,2.1-.95,.13-1.99,.29-2.63,.97-1.04,1.11-.4,2.83,.28,4.16Z"/>
        <path class="cls-1" d="M1748.99,1887.17c.23,.45,.47,.91,.86,1.25,.99,.87,2.56,.67,3.89,.42,5.53-1.05,11.03-2.22,16.49-3.51,.42-.1,.86-.21,1.2-.47,.44-.34,.64-.89,.72-1.42,.17-1.05-.06-2.24-.92-2.94-1.07-.88-2.69-.75-4.1-.56-5.27,.7-10.54,1.4-15.81,2.1-.95,.13-1.99,.29-2.63,.97-1.04,1.11-.4,2.83,.28,4.16Z"/>
      </g>
      <path class="cls-3" d="M1622.15,1163.47s24.89-6.05,42.27,6.88c17.38,12.93,52.67,37.17,76.12,79.32,0,0-66.14-89.92-118.39-86.2Z"/>
      <path class="cls-3" d="M1742.49,1193.88s24.24-34.21,75.36-49.3c51.12-15.09,45.35-37.81,45.35-37.81,0,0,10.93,26.4-43.97,42.77-54.91,16.37-68.08,41.87-76.73,44.34Z"/>
      <path class="cls-3" d="M1823.86,991.83c1.54-3.65,6.14-5.37,9.99-4.42,3.85,.95,6.89,4.03,8.74,7.54,1.84,3.51,2.65,7.46,3.44,11.34,.93,4.58,1.86,9.17,2.79,13.75,.69,3.41,1.39,6.82,2.37,10.16,3.35,11.3,10.12,21.57,19.2,29.09-10.36-2.95-17.82-12.3-21.77-22.31-3.95-10.02-5.05-20.88-7.04-31.47-.86-4.58-2.03-9.38-5.28-12.7-3.26-3.33-9.27-4.38-12.45-.97Z"/>
      <path class="cls-3" d="M1804.8,1099.44c-3.02,.57-6.04,1.14-8.96,2.09-2.99,.97-5.83,2.33-8.63,3.75-4.23,2.15-8.51,4.57-11.4,8.35,3.93-8.43,13.21-12.9,22.09-15.68,5.81-1.82,11.77-3.19,17.79-4.11,5.07-.78,10.3-1.26,14.94-3.47,4.63-2.21,8.64-6.63,8.61-11.77-.01-2.24-.78-4.41-1.63-6.49-3.36-8.3-8.05-16.23-9.37-25.09,3.46,6.66,7.17,13.2,11.11,19.59,1.88,3.04,3.83,6.09,4.94,9.49,1.11,3.4,1.3,7.25-.3,10.45-2.8,5.58-9.78,7.34-15.92,8.5-7.76,1.46-15.51,2.92-23.27,4.38Z"/>
      <path class="cls-3" d="M1628.53,1070.78c3.38,.59,5.98-3.61,8.19-5.53,3.57-3.08,6.65-6.61,10.6-9.28,4.04-2.73,8.77-4.66,13.64-4.61,4.37,.05,9.02,1.89,11.68,5.47-3.33-4.47-4.33-9.59-10.92-10.3-3.97-.43-7.92,.98-11.49,2.77-4.64,2.34-8.91,5.39-12.64,9-3.11,3-8.43,8.02-9.07,12.47Z"/>
      <g>
        <path class="cls-2" d="M1354.96,1963.83s0-.08,0-.12c-.03,.07,0,.12,0,.12Z"/>
        <path d="M1642.61,850.37c3.05-3.98,11.66-19.72,6.09-22.54,0,0-9.59,3.78-21.78,26.57-12.19,22.79-18.68,25.34-31.66,29.73-12.98,4.38-25.6,9.48-29.91,15.28-4.31,5.79-194.44,36.54-211.4,44.49,0,0-7.6-3.94-14.78,6.56-7.18,10.5-45.77,116.79-59.2,193.02-13.43,76.23-86.67,325.99-92.49,360.67-3.17,20.05-12.9,25.5-11.78,36.33,1.12,10.83-1.58,10.84-3.17,20.05-1.59,9.21-3.18,17.88,.08,20.04,3.26,2.15-1.05,9.75,2.23,17.32,3.28,7.57-1.59,8.67,5.46,12.44,7.05,3.76,3.86,18.94,18.56,38.38,14.7,19.44,129.41,135.98,148.46,160.82,0,0,6.57,17.85,41.83,32.88,0,0-32.28,45.57-34.19,121.32,.09-.25,.86-.73,5.95,.1,0,0-2.55,40.63-1.42,53.08,1.13,12.45,22.25,12.91,40.77,40.46,18.52,27.55,35.01,90.85,68.6,93.97,33.59,3.12,60.63-7.27,76.1-67.99,15.47-60.71,22.74-143.06,34.5-184.26,11.76-41.2,24.04-87.28,29.37-109.51,5.33-22.22,26.07-121.41,25.37-164.19-.7-42.78-1.82-193.33-2.48-224.2-.66-30.87,6.41-306.01,6.26-346.62-.16-40.62-2.18-145.13-1.73-168.96,.45-23.83,3.31-31.24,6.36-35.23Zm-212.04,767.59c-14.64-7.76-24.76-19.39-37.69-29.75-2.59-2.08-6.47-2.8-6.16-6.11,.34-3.62,1.4-5.16,4.25-7.42,5.12-4.06,8.15-10.4,8.94-16.88,.79-6.48-.54-13.1-2.98-19.16-1.31-3.25-2.94-6.4-3.68-9.83-1.84-8.58,2.18-17.55,.65-26.18-.67-3.78-2.39-7.35-2.76-11.17-.87-9.1,5.83-16.89,10.46-24.77,6.15-10.44,6.19-30.89,8-38.84,1.16,9.41,3.67,22.65,7.11,31.48,1.87,4.82,4.08,9.52,5.53,14.48,3.84,13.12,2.21,27.12,1.39,40.77-1.47,24.31-.27,48.7,.94,73.03,.17,3.5,.35,7.02,1.1,10.44,1.48,6.71,5.17,13.05,4.91,19.92Z"/>
      </g>
      <path class="cls-4" d="M1499.95,2112.39c-3.63-4.5,30.94-27.92,35.84-69.82,4.89-41.9,3.86-123.49,10.17-172.98,6.31-49.49,14.12-85.26,23.67-136.92,9.55-51.67,3.52-213.75,3.52-213.75,0,0-9.15-78.49-6.8-78.32,2.35,.17,15.6,113.67,14.04,177.58-1.56,63.91-15.64,158.2-15.64,158.2-6.74,31.07-14.52,74.43-16.9,111.99-2.38,37.56-4.9,135.41-9.86,158.9-4.97,23.49-34.39,69.63-38.02,65.13Z"/>
      <path class="cls-4" d="M1562.22,1401.62c-2.53,0-12.42-132.45-18.66-158.06-6.24-25.61-30.95-162.35-28.12-178.97,2.82-16.62,42.8-42.04,42.8-42.04,0,0-35.5-31.28-39.14-39.2-3.64-7.93,36.07-76.52,46.25-83.94,0,0-45.97,63-40.84,82.47,0,0,14.15,18,29.72,29.85,15.57,11.86,9.42,9.35,7.63,12.25-1.79,2.89-39.21,22.53-41.36,42.76-2.14,20.23,24.71,152.54,27.76,178.97,11.95,103.57,16.48,155.91,13.95,155.92Z"/>
      <path class="cls-4" d="M1363.61,1959.83s11.21-89.22,21.99-103.34c0,0-18.48,77.33-18.72,108.02-.24,30.69-4.33,3.32-3.27-4.68Z"/>
      <path class="cls-1" d="M1344.01,1805.39s-6.84-58.84-1.85-75.47c4.99-16.63,16.81-41.22,40.91-64.42,24.1-23.2,61.26-30.2,71.02-27.71,9.76,2.49,18.45,10.76,23.16,13.99,4.71,3.23,12.61-7.99,17.71,5.71,5.11,13.7,18.85,19.79,.09,24.55-18.76,4.76-18.05,.79-40,19.29-21.95,18.5-38.21,17.11-37.41,37.33,.8,20.22,1.23,39.71,10.67,53.03,9.44,13.32,16.41,9.46,23.98,7.99,7.58-1.47,4.87-1.26,23.28-2.77,18.41-1.51,24.63,5.34,25.74,12.55,1.11,7.22,4.41,19.12-3.88,23.84-8.29,4.72-33.48,24.32-57.68,22.97-24.2-1.35-41.67-9.73-50.6-13.89-8.93-4.16-32.66-10.67-45.15-37Z"/>
      <path d="M2264.81,1614.57c2.16-2.99,3.5-4.35-.05-13.27-3.55-8.92-10.07-12.42-7.21-20.37,2.86-7.95,3.5-29.62-4.58-64.25-8.08-34.63-47.3-283.6-55.62-383.94-8.33-100.34-26.43-136.55-28.88-140.88-2.45-4.32-10.67-4.11-13.57-6.99-2.9-2.88-22.44-15.08-51.36-23.63-28.92-8.55-207.83-98.13-207.83-98.13-14.33-7.15-9.31,10.69-9.22,35.06,.09,24.37-7.05,138.12-10.18,170.83-3.12,32.71-10.94,254.37-9.69,299.86,1.26,45.49-6.43,160.87-13.87,197.72-7.44,36.85-26.3,62.38-33.79,86.24-5.43,17.28-6.88,70.65-6.91,110.28-.01,15.07,.18,28.16,.43,36.51,.93,30.32,12.64,118.55,14.18,167.29,1.54,48.73,12.7,63.58,15.37,124.77,2.67,61.19,54.42,70.19,89.87,64.37,35.45-5.82,64.22-60.36,80.91-83.98,16.7-23.62,77.23-55.81,86.42-60.99,9.19-5.18,6.2-7.61,4.81-17.89-1.39-10.28-11.82-47.34-11.01-47.07s8.1-4.9,8.1-4.9c0,0,2.16-.82-5-32.2-7.16-31.38-14.41-47.23-13.73-55.16,.68-7.94,12.39-12.53,53.4-51.95,41.01-39.42,113.45-143.95,118.84-151.55,5.39-7.6,1.07-4.61,9.44-10.33,8.37-5.72-1.44-22.47,.72-25.46Zm-193.87-54.35c-.17,1.38-.97,2.59-1.79,3.72-9.24,12.76-23.4,22.99-26.68,38.41-1.44,6.77-.96,14.79-6.18,19.33-2.41,2.09-5.6,2.97-8.58,4.13-9.69,3.75-17.97,11.02-22.93,20.14,2.33-9.49,4.65-18.99,6.98-28.48,1.3-5.29,2.6-10.63,2.87-16.07,.74-14.63-5.9-28.49-9.04-42.79-.32-1.47-.6-3.06,0-4.44,.49-1.13,1.54-2.02,1.76-3.24,.21-1.16-.39-2.3-.81-3.4-2.78-7.34,2.3-15.22,7.72-20.9,5.42-5.68,11.86-11.54,12.51-19.36,.39-4.66-1.42-9.25-1.34-13.93,.15-8.42,6.38-16.06,5.59-24.44-.36-3.86-2.21-7.45-2.7-11.3-.62-4.86,.95-9.71,2.51-14.36,2.88-8.62,5.76-17.25,8.65-25.87,.53-1.6,1.48-3.51,3.16-3.48-.16,6.6-.22,13.21-.17,19.82,.03,4.24,.14,8.64,1.98,12.46,1.49,3.1,4.01,5.56,6.33,8.1,6.15,6.73,11.22,14.43,14.98,22.73,1.17,2.59,2.24,5.33,2.22,8.18-.01,3.01-1.22,5.86-2.19,8.71-3.23,9.48-3.93,19.6-4.61,29.59-.68,10.01-1.02,21.12,5.4,28.83,1.99,2.39,4.75,4.83,4.36,7.92Z"/>
      <path class="cls-4" d="M1909.36,1779.21s-2.91,89.91-13.83,135.44c-10.93,45.53-43.92,128.25-41.9,160.19,2.02,31.94,8.9,57.85,33.84,70.27,0,0-39.59-29.35-29.57-84.37,10.02-55.02,37.4-133.37,41.41-146.65,4.01-13.28,10.52-82.09,11.54-98.34,1.02-16.25-1.8-44.94-1.8-44.94l.3,8.39Z"/>
      <g>
        <path class="cls-4" d="M1371.15,1034.64c-2.34-10.36-5.15-20.61-7.97-30.85-3.1-11.28-6.2-22.56-9.3-33.84,6.65,65.81,19.49,112.91,31.35,177.1-.63-8.92-1.34-17.82-2.19-26.7-2.76-28.73-5.53-57.55-11.88-85.71Z"/>
        <path class="cls-4" d="M1419.8,1377.25c-3.18-6.94-6.29-13.91-9.22-20.96-1.49-3.59-2.4-6.4-2.75-10.29-2.41-27.32-3.43-54.74-6.12-82.06-2.22-22.54-4.94-45.04-8.25-67.44-1.27-8.61-2.63-17.2-4.06-25.78-1.3-7.76-3.62-15.83-4.17-23.66,1.06,14.89,1.83,29.79,2.68,44.69,.42,7.45,.87,14.9,1.38,22.34,.49,7.09,1.47,14.1,1.91,21.2,.43,7.09,.98,15.13-.66,22.05-1.72,7.26-2.52,14.54-3.18,21.97-2.23,25.27-4.14,50.81-.45,75.91,2.9,19.79,6.77,31.46,13.07,50.45,1.9,5.74,6.93,14.01,9.64,22.17,5.7,17.19-2.01,15.65,18.39,58.34,7.22,7-7.55-50.96-16.57-74.96-4.54-12.06-8.36-24.73-6.5-37.49,5.63,8.42,9.1,18.06,13.69,27.08,4.59,9.02,15,30.09,19.7,22.46,3.38-4.59-11.51-30.77-18.51-46.03Z"/>
      </g>
      <path class="cls-4" d="M2059.77,1955.21c-3.44-4.47-6.21-9.46-8.19-14.75-2.08-5.56-3.28-11.43-5.54-16.92-2.57-6.26-6.45-11.93-8.84-18.27-.42-1.11-.79-2.33-.46-3.47,.33-1.14,1.68-2.05,2.73-1.5,7.1,14.58,13.22,29.63,18.31,45.02,1.06,3.21,2.09,6.5,1.98,9.88Z"/>
      <path class="cls-4" d="M2059.84,2028.16c-19.42,19.57-51.89,26.19-63.7,54.4-2.14,6.51-2.12,13.01-6.43,18.44-7.55,8.69-9.68,18.45-17.23,26.06-33.46,30.45-91.92,37.18-119.16-3.88-16.28-84.96-17.2-169.68-35.11-260.69,3.6,35.34,7.76,75.81,8.64,103.51,1.54,48.73,12.7,63.58,15.37,124.77,2.67,61.19,54.42,70.2,89.87,64.37,35.45-5.82,64.22-60.36,80.91-83.98,16.7-23.62,77.23-55.8,86.42-60.98,3.25-1.84,4.98-3.33,5.79-4.94-16.86,2.99-33.18,9.69-45.37,22.92Z"/>
      <path class="cls-4" d="M1444.48,2130.16c-14.18-24.86-17.53-51.92-36.03-74.6-13.33-15.12-32.43-21.09-47.2-33.92,5.36,8.52,23.25,12.15,39.21,35.89,18.52,27.55,35.01,90.85,68.6,93.97,33.59,3.12,60.63-7.27,76.1-67.99,3.09-12.12,5.85-25.12,8.38-38.46-11.29,27.88-19.5,57.39-36.49,83.75-13.99,22.8-56.21,28.38-72.56,1.36Z"/>
      <path class="cls-4" d="M1611.32,1778.59c-6.47,27.1-24,90.36-30.47,117.45-10.97,45.93-22,92.27-23.28,139.48-1.22-16.39-.97-32.87-.04-49.28,.54-9.47,1.31-18.95,2.8-28.32,1.4-8.74,3.42-17.36,5.45-25.97,2.16-9.2,4.32-18.39,6.49-27.59,7.18-30.53,25.5-97.49,39.06-125.78Z"/>
      <path class="cls-3" d="M1448.95,1813.62c1.53,6.62,3.54,13.01,7.1,20.4-3.69,3.43-9.78,2.98-14.07,.32-4.29-2.65-5.45-15.14-8.22-19.35-17.64-26.76-36.87-44.81-58.1-68.86-1.42-1.61-2.93-3.46-2.8-5.6,.14-2.41,2.43-4.25,4.79-4.71,7.8-1.52,16.86,3.2,18.79-6.77,1.09-5.63-1.9-14.56-2.39-20.4-.64-7.65-1.01-15.31-1.1-22.99-.05-4.3,.55-9.54,4.47-11.3,3.72-1.67,8.2,1.29,9.67,5.1,2.16,5.6,.86,14.28,1.27,20.37,.35,5.11-2.97,22.24,1.25,24.27,4.21,2.03,16.35-22.61,28.06-30.06,2.82-1.79,6.05-3.47,9.34-2.93,14.2,2.3,.65,17.56-3.59,21.46-21.11,19.46-22.75,54.64-7.69,79.08,2.04,3.31,4.37,6.5,7.35,9,9.7,8.16,24.45,7.78,34.37,15.68,2.28,1.82,4.14,5.63,1.74,7.29-.92,.64-2.15,.61-3.26,.42-9.79-1.67-17.56-13.58-26.98-10.43Z"/>
      <path class="cls-4" d="M1818.23,1865.27c-3.38,23.88,1.87-83.75-2.06-104.05-3.93-20.3-5.21-5.01-4.04,23.55,1.17,28.56,6.59,77.03,6.1,80.49Z"/>
      <path class="cls-4" d="M1913.07,1569.97c-2.17-.89,33.54-104.83,39.57-131.93,6.03-27.1,20.48-121.03,23.2-165.08,2.72-44.06,3.11-61.03,2.76-79.98,0,0,3.81,39.52,.35,74.46-3.45,34.94-11.32,103.48-14.5,120.28-3.18,16.8-12.99,73.97-20.76,94.58-7.77,20.61-28.46,88.56-30.62,87.67Z"/>
      <path class="cls-4" d="M2118.26,1051.27c2.07-14.92,2.33-30.54,8.98-44.06,1.81,31.98-4.1,64.36-17.09,93.64-7.36,16.6-16.97,32.26-22.43,49.58-4.08,12.95-5.65,44.5-4.87,40.2,9.65-52.95,28.81-91.76,35.4-139.36Z"/>
      <path class="cls-4" d="M2103.13,1194.39c-2.19-.59-1.22,31.64-11.66,80.45-3.11,14.52-8.88,28.58-14.32,42.35-4.08,10.34-8.35,20.61-12.54,30.91-3.05,7.49-5.58,15.1-9.24,22.36-2.03,4.02-4.25,7.95-6.65,11.76-2.35,3.73-4.74,7.85-7.97,10.9-7.94,7.51-34.96,2.5-33.17,12.04,1.7,4.53,20.59,.59,28.5-3.07,.81-.37,1.73-.76,2.55-.44,1.77,.7,1.06,3.36,0,4.93-10,14.85-24.9,25.53-38.15,37.56-1.8,1.63-3.73,4.01-2.72,6.21,3.54-.46,6.74-2.28,9.74-4.21,12.07-7.74,22.66-17.79,31.03-29.45,1.28-1.78,3.77-3.76,5.29-2.18,.54,.56,.67,1.39,.78,2.16,2.51,16.87,9.82,33.01,20.85,46.01,.73,.86,1.7,1.8,2.81,1.6-2.01-12.27-8.82-23.12-13.92-34.46-5.1-11.34-8.49-24.65-3.47-36.02,2.22-5.03,5.91-9.24,9.54-13.37,4.56-5.18,8.72-10.87,13.66-15.64,4.62-4.46,9.13-9.29,11.73-15.25,.33-.76,.64-1.56,.61-2.39-.03-.83-.47-1.7-1.25-1.99-.93-.35-1.95,.2-2.77,.76-9.15,6.26-13.4,15.98-19.12,25.06-.96,1.53-1.93,3.11-3.39,4.17-.07,.05-.14,.09-.21,.13,3.8-8.8,8-19.58,11-26.56,3.11-7.22,5.59-14.69,8.07-22.15,3.32-9.99,6.64-19.99,9.97-29.98,2.74-8.24,5.48-16.49,7.27-24.99,2.09-9.93,2.86-20.09,3.62-30.22,1.18-15.67,7.19-46.04,3.54-47.02Z"/>
      <g>
        <path d="M1898.62,1077.08c-.56-2.78-1.24-5.51-2.12-8.15l2.12,8.15Z"/>
        <path d="M2058,1069.65c-7.26-20.91-24.67-36.48-36.08-55.44-12.42-20.63-17.53-45.55-14.24-69.4,.59-4.26,1.44-8.48,2.36-12.68l-1.17,8.55c1.17,31.3,16.46,61.81,40.84,81.47-22.45-23.48-34.23-56.8-31.51-89.17,1.64-19.49-.99-37.73-5.05-56.76-4.44-20.83-15.04-40.21-29.14-56.06-21.08-23.7-54-37.89-83.38-49.84-5.6-2.28-8-8.57-13.64-6.56,29.04-22.48,73.25-25.22,100.92-50.98,13.25-12.33,21.78-29.61,23.51-47.63,1.28-13.34-1.02-26.73-2.78-40.01-3.81-28.86-5.04-58.05-3.66-87.13,1.12-23.58,3.93-47.37,.07-70.66-2.55-15.36-7.96-30.15-14.7-44.19-11.66-24.32-27.41-46.72-46.75-65.52-18.94-18.4-41.09-33.18-63.86-46.54-23.33-13.7-47.98-26.22-74.69-30.52-26.71-4.3-56.03,.66-76.32,18.55-5.64,4.97-10.53,10.86-16.84,14.95-11.5,7.46-26.01,7.94-39.18,11.74-41.86,12.07-66.26,56.6-73.98,99.48-7.72,42.88-3.45,87.24-11.21,130.12-3.27,18.07-8.68,35.93-8.73,54.28-.05,19.56,6.06,38.77,15.04,56.15,6.63,12.82,15.1,25.01,25.68,34.72-.47-3.26-.96-6.71-1.53-10.41-5.18-33.92-6.94-114.78-.54-141.53,6.4-26.74,11.2-93.19,11.2-93.19,10.55-74.41,39.79-74.53,49.52-79.98,9.73-5.45,5.76-3.99,69.94-25.54,64.18-21.55,118.22,42.51,133.13,70.98,14.91,28.46,36.92,119.73,34.52,153.67-2.4,33.95-8.97,109.79-13.24,126.05-4.27,16.26-16.79,45.92-20.02,50.62-1.03,1.5-1.92,8.88-2.68,18.78,.29-.29,.59-.56,.88-.84-.43,.78-.72,1.59-.81,2.38-.45,3.84-3.21,18.05-2.01,35.37,1.75,25.33-.1,50.05-9,73.94-12.03,32.3-22.67,68.03-19.59,103.19,1.68,19.2,7.93,39.13,20.86,53.78,10.77,12.2,26.99,22.27,28.67,39.96-.05-.1-.09-.21-.13-.32,2.98,18.93-6.75,37.32-8.72,55.91-1.62,15.27,2.05,31.2,10.9,43.75,8.85,12.55,22.95,21.47,38.2,23.28-15.83-4.09-28.88-17.48-32.57-33.41-1.08-4.67-1.4-9.59-.25-14.24,.41-1.64,1-3.22,1.65-4.77,6.63,18.02,18.47,34.14,33.89,45.61,20.85,15.51,47.4,22.54,66.8,39.83-5.29-30.43,4.53-63.1,25.71-85.58,6.62-7.02,14.32-13.17,19.42-21.36,4.78-7.68,6.97-16.73,7.74-25.75,.9-10.47-.05-21.18-3.5-31.11Z"/>
      </g>
      <path d="M1737.47,353.49c2.9-2.8,30.18-6.5,35.91-5.65,34.58,5.1,61.83,30.56,76.31,62.29,8.16,17.88,13.54,37.06,23.38,54.08,8.29,14.34,19.55,26.82,27.46,41.38,14.26,26.24,2.3,49.31,5.06,76.96,1.58,15.86,7.52,31.34,5.65,47.01,11.81-14.23,7.89-27.92,12.61-42.44,10.53-32.4,16.36-67.79,6.36-100.93-6.7-22.21-17.64-42.87-26.51-64.32-10.33-24.98-18.87-52.53-39.92-69.49-17.01-13.71-39.48-18.14-61.03-21.74-10.81-1.81-21.8-3.52-32.7-2.28-13.21,1.51-27.17,12.27-32.6,25.11Z"/>
      <path d="M1737.77,352.87c-4.92,9.07-14.9,14.22-24.79,17.16-13.79,4.11-26.64,6.14-38.87,13.96-11.3,7.23-19.18,16.21-23.88,28.99-4.95,13.47-5.97,28.01-7.31,42.3-1.34,14.29-3.14,28.87-9.46,41.76-3.59,7.33-8.55,13.92-12.32,21.16-5.37,10.3-5.4,20.29-4.46,31.57-19.82-53.42,4.9-67.58,10.3-106.61,2.43-17.53,3.07-36.11,11.62-52.05,9.17-17.09,26.95-19.29,44.96-23.44,9.22-2.13,19.16-8.95,28.52-10.31,4.8-.7,23.45-.34,25.7-4.49Z"/>
      <path class="cls-1" d="M1993.38,1689.43c23.11,19.2,46.68,38.94,61.89,64.84,14.13,24.06,20.13,51.93,24.94,79.42,1.62,9.29,3.14,18.8,1.53,28.09-1.75,10.1-7.3,19.49-15.31,25.9-8.16,6.53-18.46,9.85-26.99,15.91-4.74,3.36-8.96,7.58-14.26,9.96-4.25,1.9-8.96,2.5-13.6,2.95-10.66,1.03-21.39,1.38-32.1,1.05-4.43-.14-8.99-.42-13.01-2.29-5.29-2.46-8.98-7.31-12.97-11.57-6-6.42-13.1-11.84-18.48-18.8-5.38-6.95-8.96-16.15-6.41-24.56,2.55-8.42,13.11-14.38,20.66-9.88,5.27,3.13,8.35,10.39,14.47,10.7,2.78,.14,5.37-1.3,7.77-2.72,11.31-6.7,22.6-14.26,29.89-25.2,2.9-4.35,5.16-9.64,3.92-14.72-1.42-5.87-7.02-9.7-12.49-12.26-5.47-2.56-11.48-4.58-15.54-9.04-4.25-4.67-5.65-11.29-5.82-17.6-.17-6.31,.72-12.63,.29-18.93-1.42-20.83-16.99-39.67-14.55-60.4,1.01-8.62,5.1-16.54,9.4-24.07,.83-1.45,1.94-3.07,3.61-3.18,1.07-.07,2.05,.53,2.95,1.1,9.04,5.83,11.92,8.42,20.2,15.3Z"/>
      <path class="cls-3" d="M2033.96,1810.79c-.27-1.14-1.11-2.06-1.95-2.88-3.85-3.78-8.38-6.87-13.3-9.09-4.45-2-9.32-3.37-13.01-6.56-5.69-4.94-7.26-13.08-7.64-20.61-.37-7.53,.04-15.35-2.95-22.27-.39-.91-.87-1.82-1.63-2.45-2.05-1.67-5.37-.48-6.78,1.75-1.42,2.23-1.42,5.05-1.24,7.68,.56,8.05,2.42,16.5,5.76,24.04-2.61,9.67,2.74,21.3-1.21,30.88-2.06,4.99-6.35,8.65-10.55,12.04-12.15,9.8-24.78,19-37.83,27.55-2.73,1.79-5.57,3.64-7.35,6.38-1.78,2.74-2.22,6.65-.11,9.15,2.23,2.63,6.18,2.72,9.63,2.59,14.09-.51,28.71-1.15,41.23-7.65,1.19-.62,2.4-1.3,3.74-1.42,5.28-.47,7.56,7.33,12.66,8.78,3.4,.97,7.04-1.38,8.74-4.48,1.7-3.1,1.92-6.77,2.11-10.31,.49-9.37,.98-18.73,1.47-28.1,.17-3.16,.55-6.76,3.1-8.64,2.78-2.05,6.62-1.03,10.07-.91,3.45,.12,7.82-2.13,7.03-5.48Z"/>
      <path class="cls-5" d="M1838.63,1646.58c-.13-.86-8.16-33.6-4.49-41.65,2.76-6.06,14.73-20.27,23.37-26.81,8.64-6.53,29.89-19.97,34.58-20.35,4.69-.38,11.18-4.01,26.78,16.14,15.6,20.16,30.85,41.94,37.92,48.78,7.07,6.83,5.8,7.02,4.09,32.3,0,0,15.16-.06,19.25,5.07,4.08,5.13,8.44,11.88,4.2,36,0,0,9.81,15.4,5.29,37.89,0,0,6.89,22.72,1.39,40.88,0,0,1.22,12.72,13.87,22.42,12.64,9.7,11.71,48.7-53.75,67.63-43.28,10.45-46.61-10.65-47.98-12.54-1.36-1.89,9.29-49.86,10.06-60.15,0,0-5.97-2.37-12.17,3.45-5.92,5.55-14.4,12.44-23.18,11.81-4.86-.35-8.23-3.3-10.91-7.15-2.71-3.9-7.81-10.55-4.94-15.5,0,0-9.96,14.39-20.54,9.83-10.58-4.56-16.31-17.27-10.66-24.87,5.66-7.6,2.96-5.7,2.96-5.7,0,0-9.74,4.37-15.71-.75-5.97-5.12-7.65-18.11,2.83-38.19,10.48-20.08,6.18-12.48,8.87-17.09,2.69-4.61,14.55-20.09,20.47-29.59,5.92-9.5,15.1-17.39,24.3-18.51,9.2-1.12,32.82-3.1,37.25-3.66,4.43-.56,6.26-18.98-4.61-30.04-10.87-11.06-11.72-19.45-15.23-16.19-3.51,3.26-18.9,13.61-20.52,14.16s-.69,32.23-15.31,33.09c-14.62,.87-17.08-8.08-17.46-10.71Z"/>
      <path class="cls-4" d="M1836.71,1758.64c-1.41,.36,16.35-34.81,22.32-39.62,5.97-4.81,20.8-11.99,41.1-15.86,20.29-3.87,26.26-2.81,30.04-3.91s-28.41,6.34-44.63,11.81c-16.23,5.48-17.86,4.08-25.68,10.93-7.83,6.85-18.82,35.54-23.15,36.64Z"/>
      <path class="cls-4" d="M1863.06,1781.82c-.97,.07,17.78-22.81,25.35-27.17,7.56-4.36,55.47-11.04,61.41-14.32,5.94-3.27-54.21,14.18-60.86,16.75-6.65,2.57-21.85,24.45-25.9,24.74Z"/>
      <path class="cls-4" d="M1917.26,1791.63c-.76,.29,24.09-3.61,27.36,2.33,3.27,5.94,2.38-13.55-27.36-2.33Z"/>
      <path class="cls-5" d="M1623.2,1653.03c3.27,4.32,9.36,1.58,9.36,1.58,9.88-5.74,3.33-41.27-1.58-51.43-3.74-7.73-21.62-35.25-31.95-47.4-10.34-12.15-22.88-10.2-32.88-5.29-10,4.91-52.41,16.85-55.64,22.82-3.23,5.97-6.22,20.87-6.22,20.87,0,0-19.95,4.14-25.6,12.28-5.66,8.15,.13,33.31,.13,33.31-11.32,14.94,4.48,37.35-.66,39.7-5.14,2.35-7.83,5.83-9.18,7.73-1.35,1.9-13.23,9.8-19.47,18.49-6.23,8.69-31.88,30.24-34.75,35.87-2.88,5.64,1.46,26.53,5.28,35.52,3.83,8.99,15.23,24.2,24.49,30.44,9.26,6.24,49.06,12.81,58.31,15.97,9.25,3.16,32.42-11.17,44.84-19.07,12.43-7.9,12.84-41.75,12.84-41.75,11.1,.5,20.5-18.22,20.5-18.22,0,0-.82-3.79,4.39,12.17,5.21,15.96,27.71,23.72,34.43,10.97,6.72-12.75-3.37-32.48-3.37-32.48,6.79,5.39,15.16-.06,15.16-.06,10.25-9.25,2.03-36.83,.9-46.85-1.12-10.01-9.34-35.17-9.34-35.17Zm-30.96-35.11c-2.82-2.01-5.65-4.03-8.72-5.62-5.98-3.11-12.78-4.56-18.43-8.23-2.46-1.6-4.93-3.69-7.86-3.56-.06-.31-.13-.62-.19-.92,2.19-1.29,4.96-.87,7.39-1.62,3.33-1.02,5.64-4.09,8.82-5.51,.86-.38,1.82-.65,2.76-.52,2.49,.33,3.15,3.49,4.91,5.29,8.1,8.28,14.45,16.55,19.43,26.49-2.7-1.93-5.4-3.86-8.1-5.78Z"/>
      <path class="cls-4" d="M1556.52,1760.79c-1.74,.5-3.61,.49-5.39,.14-5.39-1.07-9.66-5.09-13.3-9.2-3.65-4.11-7.13-8.59-11.98-11.16-4.85-2.57-11.62-2.57-15.12,1.66,1.62-4.43,6.5-7.43,11.19-6.86,3.87,.47,7.13,2.99,10.17,5.42,2.58,2.06,5.16,4.12,7.59,6.35,5.35,4.93,10.15,10.82,16.85,13.65Z"/>
      <path class="cls-4" d="M1581.58,1741.03c-.16-2.92-.32-5.84-.48-8.76-.36-6.54-.9-13.57-5.07-18.61-2.75-3.32-6.73-5.33-10.6-7.25-3.05-1.51-6.1-3.02-9.15-4.53-9.15-4.54-18.32-9.08-27.85-12.77-2.04-.79-4.13-1.56-5.87-2.88,6.15,2.01,12.31,4.03,18.46,6.04,11.55,3.78,23.31,7.66,33.17,14.76,4.35,3.13,8.48,7.23,9.46,12.49,.49,2.67,.13,5.42-.24,8.11-.61,4.46-1.22,8.93-1.83,13.39Z"/>
      <path class="cls-4" d="M1615.65,1731.05c-1.86-9.46-1-21.61-2.86-31.07-.82-4.18-1.74-8.57-4.5-11.81-1.53-1.79-3.53-3.12-5.56-4.31-10.84-6.34-22.93-10.4-33.97-16.49-6.48-3.57-12.81-7.4-18.99-11.48-5.8-3.83-11.14-8.53-17-12.19,23.27,13.83,47.42,26.2,72.24,36.99,3.88,1.69,8.64,3.69,10.77,7.56,3.35,6.09,1.8,13.21,1.29,19.76-.56,7.1-2.8,15.99-1.42,23.04Z"/>
      <path class="cls-4" d="M1618.79,1637.09c-.54-1.31-1.12-2.61-1.91-3.79-3.26-4.91-9.33-6.98-14.95-8.73,4.55,3.08,8.76,6.65,12.54,10.62,1.38,1.45,2.71,2.98,3.62,4.76,1.84,3.62,1.88,8.2,4.72,11.1-.82-4.79-2.17-9.48-4.02-13.97Z"/>
    </g>
    <path class="cls-6" d="M1433.17,691.05l-300.19-60.04c-116.93,84.61-293.46,138.5-490.97,138.5C289.92,769.51,4.5,598.26,4.5,387.01S289.92,4.5,642.01,4.5s637.5,171.25,637.5,382.51c0,56.48-20.41,110.11-57.04,158.37l210.7,145.67Z"/>
    <path class="cls-6" d="M3129.91,419.7c0,119.16-193.21,215.77-431.54,215.77-147.13,0-277.06-36.82-354.96-93.03l-158.31,27.64,108.75-75.08c-17.48-23.45-27.02-48.82-27.02-75.3,0-119.17,193.21-215.77,431.54-215.77s431.54,96.6,431.54,215.77Z"/>
    <text class="cls-8" transform="translate(152.96 292.12)"><tspan x="0" y="0">Let’s speak when </tspan><tspan x="0" y="133.26">you have a bit more </tspan><tspan x="0" y="266.53">experience shall we?</tspan></text>
    <text/>
    <text class="cls-7" transform="translate(2459.4 455.66)"><tspan x="0" y="0">Bye bye</tspan></text>
  </g>
</svg>